/* XPM */
static char *_[] = {
/* columns rows colors chars-per-pixel */
"64 64 225 2 ",
"   c None",
".  c #0E1411",
"X  c #131916",
"o  c #151C1A",
"O  c #191E1B",
"+  c #141613",
"@  c #0D120F",
"#  c #361C13",
"$  c #19211F",
"%  c #17201E",
"&  c #26231D",
"*  c #3C231C",
"=  c #1B2523",
"-  c #1D2927",
";  c #222624",
":  c #222D2B",
">  c #282A26",
",  c #342D27",
"<  c #25302F",
"1  c #29302F",
"2  c #37332D",
"3  c #263332",
"4  c #2A3534",
"5  c #293738",
"6  c #2C3B3B",
"7  c #2C3937",
"8  c #323D3C",
"9  c #393935",
"0  c #4B2418",
"q  c #692C19",
"w  c #46372A",
"e  c #453D35",
"r  c #4E362C",
"t  c #38403E",
"y  c #4A443A",
"u  c #57483A",
"i  c #6A4C30",
"p  c #2D3E41",
"a  c #313F41",
"s  c #2F4143",
"d  c #334344",
"f  c #3A4544",
"g  c #344649",
"h  c #3A4649",
"j  c #36494D",
"k  c #3C4A4C",
"l  c #3B4847",
"z  c #3C4E53",
"x  c #374B50",
"c  c #3D5156",
"v  c #3D535A",
"b  c #424D4D",
"n  c #434644",
"m  c #544D44",
"M  c #5A534B",
"N  c #414E51",
"B  c #435254",
"V  c #4B5555",
"C  c #43555B",
"Z  c #4A5659",
"A  c #46585E",
"S  c #4A5A5D",
"D  c #4D5857",
"F  c #555C5A",
"G  c #43504F",
"H  c #675848",
"J  c #665C52",
"K  c #766755",
"L  c #746750",
"P  c #455B63",
"I  c #4C5D63",
"U  c #495C66",
"Y  c #535E6A",
"T  c #4D6066",
"R  c #4D626B",
"E  c #536265",
"W  c #53656B",
"Q  c #56686E",
"!  c #5C696D",
"~  c #5A6568",
"^  c #4E6572",
"/  c #556A73",
"(  c #5B6D74",
")  c #5A6E79",
"_  c #546774",
"`  c #5D727B",
"'  c #5F7177",
"]  c #656C6D",
"[  c #787365",
"{  c #62757C",
"}  c #687579",
"|  c #747C7B",
" . c #6C6C68",
".. c #8E5426",
"X. c #8E6B37",
"o. c #A35F28",
"O. c #C5762B",
"+. c #806F5B",
"@. c #D28C3B",
"#. c #B4904C",
"$. c #988E6D",
"%. c #CCAD6A",
"&. c #D1984A",
"*. c #E1C27C",
"=. c #3C3C9B",
"-. c #403F9F",
";. c #40409F",
":. c #5C7081",
">. c #647983",
",. c #687984",
"<. c #717E84",
"1. c #747B96",
"2. c #667187",
"3. c #4344A4",
"4. c #4647A8",
"5. c #4A4BAC",
"6. c #4748A9",
"7. c #4E4FB0",
"8. c #4F50B1",
"9. c #5353B4",
"0. c #5656B9",
"q. c #5857BA",
"w. c #5C5BBC",
"e. c #5959B5",
"r. c #5051AE",
"t. c #605FBE",
"y. c #6666BC",
"u. c #7274BE",
"i. c #767DA5",
"p. c #5F60B3",
"a. c #5F5EC0",
"s. c #605FC1",
"d. c #6463C4",
"f. c #6766C9",
"g. c #6867C9",
"h. c #6C6CCC",
"j. c #6969C6",
"k. c #7373CD",
"l. c #7A7BCC",
"z. c #7676C7",
"x. c #6E6ED0",
"c. c #7474D3",
"v. c #7A7BD4",
"b. c #7C7CDC",
"n. c #7777D8",
"m. c #706FD0",
"M. c #807FDF",
"N. c #6D818A",
"B. c #74848B",
"V. c #778183",
"C. c #7C8C94",
"Z. c #778795",
"A. c #7A82B1",
"S. c #7F80D0",
"D. c #84949D",
"F. c #889294",
"G. c #828E91",
"H. c #808BA7",
"J. c #8897A5",
"K. c #878FB4",
"L. c #8C94B6",
"P. c #939CBA",
"I. c #909EAC",
"U. c #9CA7B6",
"Y. c #97A4AE",
"T. c #A7B2BC",
"R. c #C1B484",
"E. c #E4D296",
"W. c #DFD7AE",
"Q. c #E2D9AF",
"!. c #E5E0BF",
"~. c #8688CA",
"^. c #9498C6",
"/. c #8384D4",
"(. c #8182DD",
"). c #8788DA",
"_. c #8C8DDB",
"`. c #8A8CD5",
"'. c #8F91D8",
"]. c #9294DC",
"[. c #999BDA",
"{. c #8C91C6",
"}. c #9CA2C4",
"|. c #9EA1D8",
" X c #A3A9CA",
".X c #A3A5DD",
"XX c #A7AAD9",
"oX c #B3B9D2",
"OX c #8484E2",
"+X c #8A8AE6",
"@X c #8C8DE9",
"#X c #8887E5",
"$X c #9393E4",
"%X c #9B9CE2",
"&X c #9393ED",
"*X c #9B9CED",
"=X c #9798EA",
"-X c #9696F0",
";X c #9C9CF1",
":X c #9FA0E4",
">X c #9FA0F0",
",X c #A2A3E3",
"<X c #AAABE5",
"1X c #A4A4EE",
"2X c #ABABED",
"3X c #A7A8E3",
"4X c #B3B3EC",
"5X c #BABCEE",
"6X c #B5B6EB",
"7X c #A3A3F2",
"8X c #ACACF1",
"9X c #B3B4F0",
"0X c #BBBCF0",
"qX c #B7B8F0",
"wX c #AFB0E6",
"eX c #BFC0F0",
"rX c #BFC0EF",
"tX c #BBC0DC",
"yX c #D1D2CB",
"uX c #E3E1CD",
"iX c #C9CAEE",
"pX c #D6D8E8",
"aX c #C3C4F0",
"sX c #C9C9F0",
"dX c #CED0EB",
/* pixels */
"                                                            | %.uXR.F.                                                          ",
"                                                B.B.{ Q 4 K 2 i @.i y J 4 E } G.                                                ",
"                                          N.N.` ` >.Q T N m J 2 # , J y I ( ( / / B.D.                                          ",
"                                      Z.,.` ` ) / ) ( { } V [ 2 m e [ ] B.>.{ ' ( ( { >.B.                                      ",
"                                  Z.>.>.{ ` { B.] F 8 = $ = > t ; D 2 : : f E { B.>.( Q Q ` C.                                  ",
"                              4 ` ` ` ( B.B.F 8 B B S ! Q N a f V.f Z R ( I z 6 8 V B.,.( ( ) ` ]                               ",
"                          }  .t Q / { <.b 8 I >.U { c z z p 6 = $ - B I F ! I ! ( z 3 8 ! } ( ( R n F.                          ",
"                      uXE.w H M ( <.f h ^ I Q ] ! R S z N C f f h N S / ^ C R Q ] } C R k k ] ! Q J J [ Q.                      ",
"                    $.#.O.0 e J N 4 c ( { U z c Q I f 3 $ % X $ = O - : 8 f b R c j z x N.A 3 D E H r ..E.W.                    ",
"                    ~ , , r , [ C c S c E / b 8 = = h _ 1.H.L.^.^.P.K.2.Y h < 4 h N A U Q U I j b +.e 0 o.K G.                  ",
"                  8 J H w ; 8 V E ^ C / C : o h 1.XX2X<X<X<X2X<X<X2X4X9XqX5X XZ.k ; 8 I ^ ^ U R ,.M n , 2 e |                   ",
"                C C f 2 H m ] ~ Q R I 6 4 ! }.5X4X2X,X%X,X%X%X*X,X,X2X2X9XqX5XaXaXU.~ 4 h I Q ) C.b B y L J e h                 ",
"              ` P R ( k p 4 . = c k - k  XaX5X4X2X1X$X@X@X$X$X$X$X$X*X7X8X9X9XqXaXsXaX}.N : N / 6 b D ; 2 N A ` !               ",
"            N./ R ( ! z ) ) c B 8 1 1.5XqXqX4X2X*X$X@X(.OX@X@X$X$X$X*X*X7X8X2X4X5XqXqX5X5X1.6 Z >.f B ) P ! { { >.J.            ",
"            c C / ] 6 I ^ ) I < : L.4X4X9X2X1X*X@XOXn.n.OX@X$X$X*X*X*X;X7X7X2X8X9X9X9X9XqXqXP.h B ) >.( R a ! R Q `             ",
"          R c S Q p P k B T 6 8 ^.4X2X1X1X*X*X*X@XOXn.n.OX@X$X;X1X1X1X1X7X1X2X2X1X1X2X2X8X4X5X XB S >.A I Q f ,.( R B.          ",
"        >.j k z 8 z z ! k 7 - ^.<X,X%X$X$X@X@X$X@XOXn.c.n.@X-X7X1X1X1X8X8X2X1X1X7X7X;X*X>X1X2X4X^.z A Q Q { ^ I >./ / C.        ",
"        Q R S z j C A z N < K.<X,X]._.(.(.(.@X@X@XOXn.c.n.@X$X;X1X1X8X8X8X8X1X1X*X-X-X$X$X$X$X%X,XL.B S ( ` R C Q Q Q >.        ",
"      ` A C B 3 k C c k - 2.2X%X].(.n.n.c.c.n.(.OXOXn.c.n.OX$X;X1X1X8X8X9X8X1X;X$X-X@XOX(.v.).).].:X1.8 Q I I I f { Q R N.      ",
"      R R U f k I f b 8 P .X%X].).v.c.k.x.h.k.n.n.OXn.n.n.OX@X;X1X7X8X8X8X8X*X$X@X@XOXn.c.h.h.l.`.[..XY B Q I F ! S ` ) {       ",
"    / c U I = f U j h 3 ^.%X$X).c.h.h.h.h.f.f.h.n.OXOXb.OXOX@X-X;X7X8X8X8X7X;X$X@XOXn.h.f.w.s.h.v._.%X^.k I j j A 6 / Q Q N.    ",
"    k C I N j c c C l :.,X].).k.h.f.f.f.f.f.f.h.c.n.OXOX@X@X@X$X$X*X7X7X7X;X$X$XOXn.h.f.w.w.w.g.k.).%X,X1.S I U C c C Q T !     ",
"    4 a A 6 j k k C f ^.].).k.f.w.w.w.w.s.s.f.f.x.n.OX@X@X$X-X-X-X-X;X;X;X$X@X@Xn.c.f.w.0.q.s.f.h.v.'.%X.XI Q Q Q I k ^ C B }   ",
"  V.K t h f C ( k B _ ^.~.u.y.e.9.9.9.9.w.y.f.h.h.n.@X@X$X$X;X-X$X$X$X$X$X@X@XOXn.h.f.w.w.w.w.f.h.v._.%X<X1.I Q S A j A Z 8 }   ",
"  D u H e f S E S k i.~.u.e.7.4.3.3.3.5.9.w.f.h.c.n.@X$X;X;X;X-X@X@X@X@X@XOXOXn.c.h.f.w.q.q.w.f.h.c.(.$X1X^.B T C { z 5 9 L ]   ",
"Q.%.r , u } C C S C {.A.y.r.3.3.=.=.=.3.5.w.f.h.c.OX$X*X7X*X;X$X@XOX@X@X@XOXn.n.c.f.s.0.q.w.w.g.h.c.(.'.:X.XY ! A R R F L u y   ",
"Q.&.q 0 ; ; | j U :.{.u.p.4.=.=.=.=.=.=.5.9.f.h.n.@X$X*X7X;X;X@Xn.n.OX@X@XOXn.c.h.s.q.9.0.w.f.x.x.c.v.).%X,X2.E C c F.H 2 r #.!.",
"K y , + 2 k S Q I Z.{.u.e.3.=.=.=.=.=.=.5.9.f.c.n.@X*X>X7X*X$XOXn.n.OXOXOXn.c.h.f.w.w.w.w.f.f.h.h.h.k.v._..XH.E S <.4 f r q @.W.",
"k u i H , o 6 R c K.~.u.e.3.=.=.=.=.=.3.5.9.f.c.OX$X;X;X;X$X@XOXn.n.n.n.n.x.g.f.a.w.w.q.w.w.s.f.f.f.h.l._.[.^.S E k B f > , w L ",
"B m , ; 5 k R / A ^.`.z.y.8.5.5.3.5.5.9.w.s.f.c.OX$X*X1X7X$X@XOXn.c.c.c.x.h.f.f.w.w.w.w.w.w.w.f.f.f.h.k.).[.[.I S b ; > L H H B ",
"6 6 C f f 6 k R I |.`.l.y.q.9.8.7.9.9.w.s.f.h.n.@X-X;X7X7X*X-X@Xn.c.c.x.x.f.s.w.q.w.0.0.0.q.w.s.s.f.g.k.(._.'.Q Q c z 6 $ > u V ",
"C / R j j j f I R ].`.l.j.t.w.w.w.w.w.s.f.h.c.OX@X-X-X*X8X1X;X@X(.n.n.c.c.h.h.f.w.9.7.5.9.9.9.w.f.f.h.h.c.v.v.) E B G b k I f h ",
"C U R z c c A R R [._.v.m.g.f.f.f.f.f.h.x.c.n.@X@X;X-X;X7X1X7X;X@XOXn.n.n.c.x.f.0.5.3.3.3.5.7.0.w.f.h.h.c.c.c.U Z k ! z p A A B ",
"R T I j U I C Q R 3X:X_.n.c.c.c.h.h.h.x.c.c.n.@X@X-X-X*X1X1X7X;X$XOXn.n.OXn.c.f.w.5.3.=.=.3.5.9.w.f.h.k.v.(.(.{ S z Q z a C C z ",
"R R I k c c C c / wX<X%X@X(.OXn.n.n.c.c.c.c.n.OX@X-X;X;X;X-X;X-X@X@Xn.n.n.n.c.f.w.9.4.=.=.=.3.5.9.w.f.c.).].[.>.R j U j 6 C I c ",
"T I C f C I E C ` XX4X1X*X@X@X@XOXM.n.n.n.n.n.OX@X$X$X$X$X$X$X$X@X@XOXn.n.c.k.h.f.9.5.3.=.=.=.3.5.e.f.k._.[.|.,.I C C B 6 B k j ",
"  B I f k R I z >. XqX9X1X$X-X@X@XOXn.n.n.n.n.OX@X$X$X@X@X@X@XOXOXOXOXn.n.c.h.f.w.9.6.=.=.=.=.3.5.9.f.l._.%X^.( C c f f 4 b k   ",
"  k B f C k C C { I.eX4X2X*X$X$X@X@XOXn.n.n.n.OXOX@X@X@X@XOXOXOXOXOXOXn.c.c.f.s.9.5.6.=.=.=.=.4.9.w.j.l.].,XK.>.I Q I C f Q B   ",
"  C C f k s 6 j S >.eXqX8X1X7X*X$X@X#XOXOXOXOXOX@X@X@XOXOXn.OXOXn.n.n.n.c.h.f.w.5.3.3.=.=.=.=.4.9.w.k.).%X<XH.` Q I C I B I I   ",
"  S S B f f f f k ( oXqXqX2X7X*X*X$X$X@X@X@X@X@XOXOXOXM.OXn.OXOXOXOXn.n.c.h.s.9.5.3.3.3.3.3.3.5.9.y.l._.,XXXN.E B C U B C S B   ",
"  f z C 4 f B Z f { P.aXqX4X8X7X1X*X*X*X-X@X@X@XOXOXn.n.n.OX@X@XOXOXn.n.c.h.a.8.3.3.3.3.3.5.5.9.w.j.S.].<X}.>.C C B S 8 S C k   ",
"    k k 8 V 6 k p S ,.aXaX5XqX9X2X2X1X1X*X$X@X@XOXn.n.n.OXOX@X@X@XOXOXn.c.h.f.9.3.=.3.3.5.8.0.f.j.l.`.[.<XH.( A E A I f S Z     ",
"    k l f t f f f t >. XsXaXaXqX9X9X9X8X7X*X$X@XOXn.n.n.OXOX$X-X@XOXOXn.c.x.f.9.4.=.=.3.5.9.a.h.c.).].,X XZ.B c B C V B B k     ",
"    8 = 1 : f l f f ! Z.dXsXsXaXqX5X5X9X8X1X$X$XOXOXOXOX@X@X-X-X$X@XOXn.n.c.h.w.5.3.3.3.5.w.f.h.).].,X<XI.<.k S U I a S k k     ",
"      m H H L ] | S 8 ,.T.pXpXsXsXaXqXqX9X7X*X$X@X@X@X@X@X@X-X-X$X@XOXOXn.c.h.w.9.5.3.3.5.q.f.k.).[.<X^.C.k B ! V f ; , 1 f     ",
"      4 , 2 & f : B 8 S C.yXpXpXpXsXaX5XqX8X1X*X$X$X$X$X$X$X-X-X$X@X@XOXn.c.h.f.9.7.5.5.9.w.j.).].,XXXC.! B N.V F J J K f       ",
"      X.X.0 0 > n X t f { D.pXpXpXsXaXqXqX9X8X7X*X;X*X$X-X$X-X-X@X@X@XOXOXn.x.f.w.0.8.8.e.y.l._.[..XJ.,.8 k b 8 f , 2 2 4       ",
"        Q.o.; u 2 : 8 Q f C.U.pXpXpXsXaXeXqX8X7X7X7X;X*X;X$X-X$X@X@X@X@XOXn.c.h.f.w.w.e.y.z.~.]..XP.C.k j b X M > * ..$.        ",
"        %.w w u ; j 6 Q j f D.T.pXpXpXsXaX5X2X2X8X7X;X*X$X$X@X@XOXOXOXOXOX(.n.c.h.h.f.y.z.~.]..XP.D.S E I z - H w w %.uX        ",
"          = H > = z j B B 7 Z J.T.pXpXpXsX5X4X9X2X8X1X*X$X@XOXOX(.n.(.OX@XOX(.n.v.v.l.l.~.'.|.P.D.F z b B C j > H & L           ",
"            $ = 3 = Z 6 3 : p f C.Y.pXpXsXaX5X5X4X8X1X*X$XOXM.n.n.c.n.OX@X@X@X@X_.@X_.'.[.^.C.C.Z b k f p C = = e 8 o           ",
"            . < 4 3 4 k 4 3 5 3 8 N.D.oXdXsXaXaX5XqX9X1X$X#Xn.v.c.c.n.(.$X*X%X%X%X:X,X|.P.D.B.b z j 8 8 S 4 6 f O o             ",
"              O : 4 3 ; Z s z j f 3 ! J.U.oXsXsXaXaXqX2X%X$X(.c.c.n.).$X*X,X<X2X<X2X XJ.C.! 4 4 C j 3 4 = : f 6 X               ",
"                $ 7 6 : = B 5 f s j s k B.J.U.oXaXaXeX4X<X%X(.c.c.v.].%X2X2X4X4X}.J.C.B.V 6 f l h p 8 : 5 6 8 :                 ",
"                  4 3 3 6 o V k 6 f j j p b ,.J.Y. XoXwX<X,X).c.x.v.[..X<X X}.J.D.<.k 4 f f k s k S = < f f 6                   ",
"                    : 4 f 3 o 8 B f c k j c f k E B.J.D.I.J.J.A.A.K.I.D.F.G.B.E f 5 a f f 6 k I V = t f 6 3                     ",
"                        6 5 - o ; B B z C ! <.E 6 = : 8 V I Q I Q Q ! V f 3 f 8 B ( f 7 8 j F 4 4 f f f -                       ",
"                          3 = 3 4 ; 4 k b } o B 6 f 8 3 < = o % : : ; = 6 c f B ~ ] k : k 8 ; 8 f k 6                           ",
"                            $ 3 3 : $ e H > . 2 6 p 6 6 3 6 f 3 : 8 4 = 3 6 : = 4 O M m = 1 f 6 6 3                             ",
"                              = = . 2 u 2 r ; J 4 k 8 : : = = - = o % = = 4 : 9 2 e > m 2 = < - :                               ",
"                                  . , + q 0 & H o . = , : 1 4 5 3 6 : = : O o y , # * & m O .                                   ",
"                                      i *.#.+ M X : = o o o X o . . . o = : $ m & q @.i X                                       ",
"                                          %.O ; . X % o = = - - % o % % = - X y O #.!.                                          ",
"                                                  @ o o o o X o o X X X X X . @                                                 "
};
