/* XPM */
static char *_[] = {
/* columns rows colors chars-per-pixel */
"64 64 221 2 ",
"   c None",
".  c #0C110F",
"X  c #0D1311",
"o  c #0E1816",
"O  c #121715",
"+  c #131916",
"@  c #151C1B",
"#  c #1A1A18",
"$  c #15130F",
"%  c #221E19",
"&  c #18201E",
"*  c #28221D",
"=  c #3B251B",
"-  c #1B2423",
";  c #1D2926",
":  c #1C2727",
">  c #242623",
",  c #232D2C",
"<  c #292A27",
"1  c #342F28",
"2  c #29312E",
"3  c #3A322B",
"4  c #263232",
"5  c #2A3534",
"6  c #2A3837",
"7  c #2D3B3A",
"8  c #273739",
"9  c #323C3C",
"0  c #3B3933",
"q  c #252E30",
"w  c #462417",
"e  c #522B19",
"r  c #44362A",
"t  c #443C37",
"y  c #523226",
"u  c #6E371E",
"i  c #36403F",
"p  c #474239",
"a  c #584637",
"s  c #54422D",
"d  c #624A3A",
"f  c #705334",
"g  c #2D3E41",
"h  c #333D42",
"j  c #2F4143",
"k  c #334244",
"l  c #394544",
"z  c #344649",
"x  c #3A4649",
"c  c #36494D",
"v  c #3C4B4C",
"b  c #3D4845",
"n  c #3B4E52",
"m  c #3A4853",
"M  c #3E5156",
"N  c #3D535A",
"B  c #424C4B",
"V  c #464745",
"C  c #584D42",
"Z  c #5B5248",
"A  c #414E51",
"S  c #434C5E",
"D  c #435255",
"F  c #495354",
"G  c #43555A",
"H  c #4A5659",
"J  c #45595E",
"K  c #4B5A5D",
"L  c #4C5857",
"P  c #555B5A",
"I  c #4F524C",
"U  c #6C5A4B",
"Y  c #645446",
"T  c #755E48",
"R  c #645E55",
"E  c #6B6559",
"W  c #736557",
"Q  c #77604B",
"!  c #455A61",
"~  c #4B5D63",
"^  c #4A5A69",
"/  c #515E62",
"(  c #525B74",
")  c #4E626B",
"_  c #4E6066",
"`  c #546265",
"'  c #53646A",
"]  c #5B6A6E",
"[  c #5B666A",
"{  c #4E6674",
"}  c #526672",
"|  c #556972",
" . c #5B6D74",
".. c #586B7A",
"X. c #5E727C",
"o. c #646E71",
"O. c #647176",
"+. c #64747B",
"@. c #6A777A",
"#. c #747B7C",
"$. c #706D64",
"%. c #AB712C",
"&. c #92662E",
"*. c #877957",
"=. c #816E4E",
"-. c #877866",
";. c #827C70",
":. c #DB9937",
">. c #D38A39",
",. c #BC9548",
"<. c #96937C",
"1. c #B7A472",
"2. c #CC9748",
"3. c #CDAF68",
"4. c #DDAF5C",
"5. c #3C3B9A",
"6. c #40409F",
"7. c #595F88",
"8. c #5B6484",
"9. c #5C7381",
"0. c #657983",
"q. c #6B7C84",
"w. c #667886",
"e. c #727E83",
"r. c #626A96",
"t. c #696F93",
"y. c #4343A3",
"u. c #4647A8",
"i. c #4B4CAC",
"p. c #4748A9",
"a. c #4E4FB0",
"s. c #5353B4",
"d. c #5756B9",
"f. c #5857BA",
"g. c #5C5BBC",
"h. c #5958B6",
"j. c #5051B0",
"k. c #605FBE",
"l. c #6262BD",
"z. c #6B6CBC",
"x. c #777BB9",
"c. c #7277A8",
"v. c #5F5EC0",
"b. c #615FC1",
"n. c #6463C4",
"m. c #6D6DC6",
"M. c #6766C9",
"N. c #6867CA",
"B. c #6B6BCC",
"V. c #6867C4",
"C. c #7272CD",
"Z. c #7B7CCD",
"A. c #7779C6",
"S. c #6E6ED0",
"D. c #7474D3",
"F. c #7B7BD4",
"G. c #7C7CDC",
"H. c #7777D7",
"J. c #706FCF",
"K. c #73838B",
"L. c #78868A",
"P. c #768891",
"I. c #7B8C94",
"U. c #778799",
"Y. c #6C8088",
"T. c #7A87A7",
"R. c #7B81B9",
"E. c #7F81CE",
"W. c #818E94",
"Q. c #84949D",
"!. c #919697",
"~. c #848FAA",
"^. c #8A99A4",
"/. c #858BB9",
"(. c #8D96B7",
"). c #929DB6",
"_. c #919EAC",
"`. c #99A5B7",
"'. c #98A4AF",
"]. c #E5D195",
"[. c #E2D8B0",
"{. c #DFD4AB",
"}. c #8589C8",
"|. c #8283D4",
" X c #8383DC",
".X c #8A8BDC",
"XX c #888AD9",
"oX c #9395DE",
"OX c #9194CD",
"+X c #B9BEDA",
"@X c #A7ACD1",
"#X c #8484E2",
"$X c #8A8AE6",
"%X c #8D8DE9",
"&X c #8887E5",
"*X c #8F90EA",
"=X c #8F90E3",
"-X c #9393E5",
";X c #9394ED",
":X c #9B9CED",
">X c #999AE8",
",X c #9696F0",
"<X c #9B9BF1",
"1X c #9FA0EF",
"2X c #9FA0F2",
"3X c #A3A4EE",
"4X c #AAAAEE",
"5X c #B3B3EE",
"6X c #BABBEE",
"7X c #A3A3F1",
"8X c #ABABF1",
"9X c #B2B2F0",
"0X c #BBBCF0",
"qX c #AFB0E8",
"wX c #BFC0F0",
"eX c #E4E2D3",
"rX c #C7C8EE",
"tX c #C3C4F0",
"yX c #C9C9F0",
"uX c #D0D2EE",
"iX c #DEDCCB",
/* pixels */
"                                                              3.eX1.                                                            ",
"                                                    0.'   $.p &.:.&.C E 6                                                       ",
"                                                  9.) ~     U <     W C ~  .  | | P.                                            ",
"                                          X.      ..  O.    ;.  R a -.O.  0.   .                                                ",
"                                  P.0.     .O.K.@.` 7     ; > V   Z       P [ @.I.0.    '                                       ",
"                              6     | | Q.W.    [ D       H l B !.b D    .)     v   W.0. .  ..                                  ",
"                          #.$.V  .}   I.P 6   I.~ K.  D D g 6 - @ : D     O.  O.O.c   b ] e.]  .  b                             ",
"                      iX].y d Z ] W.b   {     0.K ^ ~ M A G i b v D /  .  G     @.L.    A D @.] ' W $.<.                        ",
"                    <.,.:.r a E A 6   O.@.^ A M ' ~ b 4 & @ O @ - @ - < 6 2 v | G z n n L.G 4 H ` $.  %.].{.                    ",
"                    [     y   ;.  D ~ M `  .B 9 - - h ^ r.x.}.OXOXOX/.t.( x , 8 v A K J  .!   v b -.V w %.*.                    ",
"                      W   < B V / } G | G , @ h 7.}.oX-X:X:X7X3X3X4X8X8X9X5X@Xc.x ; 6 K { } ~ { q.Z V 3   t W.                  ",
"                        U I O.P | ) / 7 6 ^ R.oX-X-X-X-X>X:X:X3X3X4X8X8X8X4X4X4X4X}.^ 6 9 `     Q./   Z W W p b                 ",
"                    0.A z , X @ M v ; m /.>X-X-X%X%X%X%X>X>X7X7X7X8X8X7X7X7X:X:X3X3X>Xx.m ; D '     #.  p G G X.                ",
"                      M { ..M D h 6 r.oX-X-X%X%X#X%X%X%X>X:X7X3X3X8X8X7X7X:X>X>X-X%X.X.X.X8.7 D 0.x H   ~ O.0. .9.              ",
"            G J | O.h   } ..^ , , R.:X>X%X#X#X#X#X%X>X>X:X:X7X7X3X8X7X7X<X>X>X%X XH.H.H. X.Xc.l H   0.O.  g  .  ' X.            ",
"              K O.  ) v D ' 6 h /.3X>X%X#X X X#X%X>X:X:X1X3X7X8X4X4X3X:X,X>X%X XC.B.B.C.H. X.Xx.A     ! ~ ~ l I. .) P.          ",
"              D l G n ] v 6 ; /.3X:X>X%X#XH.H.#X%X<X<X3X3X3X8X8X8X3X<X,X,X%X#XH.n.b.n.B.C.H. X.Xx.M ~ ' ] q.{ o.w.              ",
"        ' ~       D ! n A 4 T.3X3X:X>X%X#XH.H.#X%X,X<X3X3X3X8X8X8X3X:X>X%X%XH.B.g.g.n.n.B.H.H. X.XR.G   0.      ] _   O.        ",
"        !   v 6 v D M v - 8.3X:X>X>X>X%X#XH.H.H.#X>X<X7X3X8X9X9X8X7X<X>X%X XS.b.d.d.g.n.M.B.H.H. XXXr.7 ~ ~ J   l +.) )         ",
"      )     v v ~ l B 9 S oX>X>X-X>X>X%X%XH.H.H. X%X>X:X3X3X8X8X8X3X:X%X%XH.B.l.d.d.g.l.n.B.H.H.H. X.X(   ' K ` O.K   ..O.      ",
"      M ! ~   j ~ c b 4 x.%X%X%X%X%X%X%X%XH.H.H.H.#X%X>X<X7X8X8X3X:X>X%X%XH.N.g.f.f.f.g.n.B.H.H.H.H.|.x.x / z   G 8     }       ",
"    v M     v M M G l ( %XXX X X X X#X#X#X#XH.H.H.#X%X%X>X:X7X3X:X>X>X%X#XH.B.n.g.d.g.g.B.B.H.H.C.C.H.|.r.J         ~ _         ",
"    , x M 7 c b v G l Z. XH.H.H.H.H.H.H.H.H.#X XG.&X%X%X>X>X<X<X>X%X%X#X#XH.B.b.d.d.g.n.B.B.S.B.N.B.H.H.|.~ ]   ` ~ l } D       ",
"    -.0 z   M  .v D ( |.|.H.H.H.H.B.B.B.H.H. X#X#X%X>X>X,X>X>X>X%X%X%X#XH.H.B.l.f.d.g.n.n.n.M.B.B.B.C.H. Xr.~ '       ~ H       ",
"  [ d T p l K ' J v c.E.H.H.H.H.B.B.M.N.B.S.H.#X%X>X>X,X,X>X%X%X%X#X#X#X#XH.n.g.f.g.g.g.g.b.n.M.M.N.B.H.H.z.M '   O.n 6 t =.O.  ",
"  3.  3 Y K.D G K M Z.Z.C.B.S.B.N.n.n.n.B.B.H. X%X>X,X:X<X*X#X#X#X%X#X#XH.B.n.k.g.g.g.g.g.l.b.n.B.B.B.B.H.H.^ ]   )   E Q a     ",
"{.4.w = < < e.z ~ 8.Z.C.B.N.N.n.b.g.v.n.n.B.H.H.%X<X<X<X<X%X#XH.#X#X#XH.H.n.b.g.g.g.f.d.d.d.g.b.n.B.B.S.H.H.8.` ! D !.W r   2.eX",
"*.a 1   9 B K ' ~ t.Z.m.B.n.b.g.g.g.g.g.n.B.H. X%X<X7X3X<X%XH.H.H.H.H.H.B.n.g.g.g.d.s.s.s.s.s.g.n.m.B.B.H.|.x.~ ` I.    d y :.{.",
"  a T Y > @ 6 ) M x.C.n.l.g.d.j.i.i.s.g.n.B.H.H.%X<X7X7X:X%X#XH.H.H.H.S.N.b.g.g.s.i.u.y.y.i.a.s.g.b.M.B.H.H.Z.K ' v   V   3 s *.",
"  Z < < 6 v ) | J x.m.l.g.s.i.y.y.y.i.s.g.B.H. X%X<X7X:X:X%X#X#XH.H.H.S.B.B.n.n.s.u.y.y.6.y.y.i.s.h.n.M.C.H.}.~   v ,   U d U L ",
", q G z l 7 v ) ~ A.l.s.i.y.y.5.5.5.y.i.d.n.H.H.%X<X7X3X>X%X%X#XH.H.H.H.H.H.B.n.s.i.y.5.5.5.5.y.p.s.g.n.B.H.H.} ' G n   -   C K ",
"      z l z l ! ^ z.l.j.i.y.5.5.5.5.y.y.s.n.B.H.%X<X7X3X3X:X>X%X#X XH.H.H.H.H.B.g.s.i.y.5.5.5.6.i.s.k.n.B.H.H.8.' D         h 9 ",
"  ! ) G n M J ) ) z.g.i.y.5.5.5.5.5.6.i.s.g.B.H.%X,X<X:X8X7X7X<X%X#XH.H.H.H.H.B.n.g.a.y.5.5.5.5.y.j.g.N.S.H.H.} H v ] n     G D ",
"!     v ! ~ J ) ) A.l.s.i.5.5.5.5.y.i.s.g.n.B.H.%X>X,X:X7X7X7X7X>X%X#XH.H.H.H.H.N.g.s.y.y.5.5.5.y.s.l.M.H.H.H.w.G c   n   G G   ",
"    K v G M G M | A.z.h.i.y.y.y.y.i.s.g.n.M.H. X%X,X>X,X7X7X<X<X>X%X#X#XH.H.H.B.n.d.i.y.y.5.5.y.y.i.g.n.H.H..X0.) c ~ z 7   ~   ",
"  _     G ~ ` G X.Z.C.l.g.s.i.a.s.s.g.g.M.H.H.#X%X>X,X>X<X:X,X,X>X%X#X#XH.H.H.B.n.s.i.y.y.y.y.i.i.s.n.m.H.|.XX0.` G H   l       ",
"  G G   z ) ~ n 0.R.H.B.n.g.g.d.f.g.b.n.B.H.H.H.#X>X>X,X,X>X>X%X%X#X#X#XH.H.S.N.g.s.i.y.y.y.y.i.s.k.B.B.H. X}. .M M z x 7 D A   ",
"    D g ~ v D G O.T.XXC.B.n.b.n.n.n.N.B.H.H.H.H.#X%X%X>X>X%X%X#X#X XG.H.H.H.H.B.g.s.i.y.y.y.u.i.g.n.B.H. X.X/.  )  .        M   ",
"      l   j 7 v K ..|.H.C.B.B.B.B.B.H.H.H.H.H.H.H.#X%X%X%X%X#XG.G.H.H.G.#XH.H.S.n.g.i.y.5.5.y.a.d.n.B.H. X%XT.X.) K G ' M   _   ",
"      D 9 l l l v  .E.|. XH.H.H.H.H.H.H.H.H.H.H.H.#X%X%X%X%X#XG.#X#X#X#X#X XH.H.B.b.s.i.y.6.y.i.h.n.B.C. XoXK.  D D ! G     D   ",
"    v G   l D H g O.T.-X=X&X&X#X%X%X#X#X#XH.H.H. X&X%X%X%X#X#XG.#X#X%X%X#X#XH.H.S.N.g.a.u.y.y.i.s.g.B.H. X}.0.M ! D ` l D G     ",
"    v   7 P 7 v 9 K w.1X:X>X>X>X>X>X%X#X#X#XH.#X#X%X%X#X#XH.H.#X#X%X>X%X%X#XH.H.H.B.n.d.s.i.p.i.s.g.m.Z..XT.0.  ' ~ `   K       ",
"        l H l l l 9 0.OX4X3X7X:X>X>X>X%X%X#X#X%X%X%X%X#XH.H.H.#X#X%X>X>X%X#X XH.H.H.B.g.s.s.a.s.f.l.m.Z.}.I.K D   G H   D       ",
"    l ,     b b l l ] P.5X4X8X3X:X:X:X>X>X>X-X>X*X%X%X#XH.H.H.#X%X%X,X,X>X%X#X#XH.H.H.N.n.g.d.g.g.l.C.|.~.K.v ~   ~             ",
"      I a Y -.#.e.K 7 0.).5X9X8X3X3X:X:X<X:X:X:X>X,X%X#X XH.#X#X%X%X>X,X,X%X%X#X#XH.H.S.B.n.n.b.n.m.Z.R.I.v D [ K b             ",
"        1   * 9 > D 9 K P.@X0X9X8X4X4X8X8X4X3X3X:X<X>X%X%X#X%X%X%X>X,X>X>X%X%X%X#X#XH.H.H.H.B.B.m.C.}.U.[ n I.P E U U -.B       ",
"        %.e = > I + i b O.I.6X0X5X9X9X9X9X9X5X8X8X7X:X>X%X%X>X>X>X>X>X,X>X%X%X%X#X#X#XH.H.H.H.H.Z.|.T.0.l v H 7 i 1 0 2         ",
"        [.%.> d 3 , 7 ' l I.).tX6X6X6X0X0X0X6X0X9X8X8X:X:X>X>X:X>X>X,X>X%X%X X#X#X#X#X#XH.H.H. X.X/.W.v   b # R 1 w %.1.        ",
"        3.p   a - v 7 ' z b Q.`.tXtXwXtXtXtXtX0X6X0X9X4X3X:X7X<X:X,X>X%X#X#XH.H.H.#X#X#X X X X%X/.Q.K ] _   - W r r 4.eX        ",
"          - E % ;     A D 6 H ^.@XrXtXrXrXtXtX0X6X0X0X8X3X3X7X7X:X<X>X#X#XH.H.H.H. X#X X.X.X.X(.Q.` v D   J   * d * =.          ",
"            - @     / 7 q , h b I.'.rXuXuXyXtXtX6XwX6X4X8X8X8X7X<X:X%X#XH.H.H.H.H.H. XXX%XoXT.I.P D v l g D   - p V             ",
"              6 6   9   8 q 8 8 9 K.Q.+XuXrXyXtXtXtX0X5X8X4X8X7X3X:X%X#XH.H.H.H.H.H..X.X}.~.K.D   l   7 K 6 7 b @               ",
"                  6 6 & H l M c l q  .^.`.+XyXyXtXtX6X5X8X4X7X3X:X>X%X#XH.H.B.H.H..XXX~.P.o.6   M l 4 6 , 4 l 7 +               ",
"                  7 l 6   D 4 l j z l x K.^.`.+XrXtX6X5X4X4X3X:X-X-X-X.X XH.B.H.A.T.I.L.H   l b c j 6 - 7 7 7                   ",
"                      8   O P v   l c c g v e.^.'.@XqXqXqX4X3X-X%X-X-X=XoX}./.T.Q.K.` 7 7 b v l   '     z                       ",
"                      7     . b   j n l z M l x ` K.^.Q._.^.)./.~.(.).Q.Q.W.K.` B 4     l   v ' [     7 7                       ",
"                          7 , +   K G   ! ] e.` 7 - , 9 H K ' K ' ' ] H b 4 9 9 ` O.7 7 i   O.    l   g                         ",
"                                4 - 6 z D  .O H 7 b 4 4 , - @ @ ; , - - 7 n   H o.o.D , H       v v 7                           ",
"                              4 4 , + p U < O 0 7 g 7 9   7   4   6   - 4 7 ; - > # U Z -   l 9 4                               ",
"                                  X 3 C 2 a < W , B i   , - ;         - - 7 8 0 t t 3 C   -                                     ",
"                                  . 0 $ u = % Y + . - 6   , 6       ,     @   C 3   = % R                                       ",
"                                      f 3.2.$ Y + 6 - o + X O   X X X @ - ,   Z #   >.f                                         ",
"                                          4.O < O       -             - ;     p O ,.iX                                          ",
"                                                            o                                                                   "
};
