/* XPM */
static char *_[] = {
/* columns rows colors chars-per-pixel */
"64 64 211 2 ",
"   c None",
".  c #0F1614",
"X  c #111614",
"o  c #141C1B",
"O  c #171C19",
"+  c #0B100E",
"@  c #371C12",
"#  c #19221E",
"$  c #25221D",
"%  c #372119",
"&  c #1B2524",
"*  c #1D2926",
"=  c #1F2B29",
"-  c #182324",
";  c #222C2B",
":  c #262925",
">  c #25312F",
",  c #2F332E",
"<  c #3A342E",
"1  c #253332",
"2  c #293635",
"3  c #2B3836",
"4  c #2D3B3B",
"5  c #293638",
"6  c #323E3D",
"7  c #363834",
"8  c #392E25",
"9  c #472619",
"0  c #642F1A",
"q  c #44362B",
"w  c #443D35",
"e  c #563D33",
"r  c #4D372A",
"t  c #38423F",
"y  c #43413C",
"u  c #494136",
"i  c #574738",
"p  c #6C5134",
"a  c #2D3E41",
"s  c #323D44",
"d  c #2F4043",
"f  c #334344",
"g  c #3B4545",
"h  c #344549",
"j  c #36484C",
"k  c #3B4B4C",
"l  c #3C4748",
"z  c #364B51",
"x  c #3C4E52",
"c  c #3A4454",
"v  c #3E5155",
"b  c #3D535A",
"n  c #3F5760",
"m  c #424D4D",
"M  c #474C47",
"N  c #57534A",
"B  c #404E52",
"V  c #435254",
"C  c #44565A",
"Z  c #45595E",
"A  c #4B5A5D",
"S  c #4A5557",
"D  c #535D5C",
"F  c #534F47",
"G  c #695A4A",
"H  c #6C5846",
"J  c #7A634A",
"K  c #6A6359",
"L  c #776957",
"P  c #7C715F",
"I  c #455B63",
"U  c #4B5D63",
"Y  c #445461",
"T  c #525F62",
"R  c #4B556F",
"E  c #4D6066",
"W  c #4C626A",
"Q  c #47606B",
"!  c #526165",
"~  c #52646B",
"^  c #5C696C",
"/  c #596669",
"(  c #4E6471",
")  c #516572",
"_  c #556A72",
"`  c #5A6C73",
"'  c #5B6F78",
"]  c #55627D",
"[  c #5D717B",
"{  c #5E7077",
"}  c #656A67",
"|  c #606F74",
" . c #647275",
".. c #63747B",
"X. c #6C787A",
"o. c #74746C",
"O. c #AC6E2F",
"+. c #8F5827",
"@. c #867859",
"#. c #907849",
"$. c #877C6A",
"%. c #7D807B",
"&. c #D79336",
"*. c #969078",
"=. c #B29D67",
"-. c #D29A4A",
";. c #D4A956",
":. c #D2B26C",
">. c #E1C17C",
",. c #D7C378",
"<. c #3C3B9A",
"1. c #555C83",
"2. c #40409F",
"3. c #5B6588",
"4. c #5E6594",
"5. c #667983",
"6. c #6D7B83",
"7. c #657788",
"8. c #646D92",
"9. c #4343A3",
"0. c #4A4BAC",
"q. c #4747A9",
"w. c #4E4FB0",
"e. c #4F50B1",
"r. c #5353B4",
"t. c #5756B9",
"y. c #5857BA",
"u. c #5B5BBC",
"i. c #5857B7",
"p. c #5051AF",
"a. c #605FBE",
"s. c #5E63A0",
"d. c #666BAA",
"f. c #6D73AB",
"g. c #767CAC",
"h. c #6261BE",
"j. c #6A6CB8",
"k. c #737AB3",
"l. c #757AB9",
"z. c #5F5DC0",
"x. c #605FC1",
"c. c #6463C4",
"v. c #6766C8",
"b. c #6867CA",
"n. c #6B6BCC",
"m. c #6A69C6",
"M. c #7272CE",
"N. c #7678C8",
"B. c #6E6ED1",
"V. c #7474D3",
"C. c #7A7AD5",
"Z. c #7777D8",
"A. c #7C7CDB",
"S. c #7877D1",
"D. c #807FDF",
"F. c #748185",
"G. c #74848B",
"H. c #7B868B",
"J. c #7A868A",
"K. c #7A8B93",
"L. c #758695",
"P. c #72858E",
"I. c #7B88A7",
"U. c #7D83BD",
"Y. c #7D80D2",
"T. c #83939C",
"R. c #8C9598",
"E. c #868B8B",
"W. c #8998A6",
"Q. c #8A93B7",
"!. c #8B95B5",
"~. c #9AA4BA",
"^. c #CDBD86",
"/. c #E4D296",
"(. c #E1D7A8",
"). c #E2DCBB",
"_. c #DED9B6",
"`. c #8285C9",
"'. c #8282DD",
"]. c #8A8BDD",
"[. c #8587D4",
"{. c #9597DA",
"}. c #969DC8",
"|. c #9CA3C9",
" X c #A7ACD6",
".X c #8484E2",
"XX c #8A8AE5",
"oX c #8D8DE9",
"OX c #8887E3",
"+X c #8F90E5",
"@X c #9394E5",
"#X c #9393ED",
"$X c #9C9CED",
"%X c #9A9AE7",
"&X c #9696F0",
"*X c #9C9CF1",
"=X c #9FA0ED",
"-X c #9FA0F1",
";X c #A3A3EE",
":X c #AAAAEE",
">X c #A8A9E5",
",X c #B4B4ED",
"<X c #BABBEE",
"1X c #B3B6E5",
"2X c #A3A3F2",
"3X c #ABABF1",
"4X c #B3B3F1",
"5X c #BBBCF0",
"6X c #E2E1CF",
"7X c #C1C2F0",
"8X c #DEDBC5",
/* pixels */
"                                                              ,.6X^.                                                            ",
"                                                    [   1 P   +.&.p i   1 U                                                     ",
"                                                  [ ~ U x M     @ < K y C _ _ _ _ G.                                            ",
"                                          [ _ ' _ _ _ |  .m $.< G u $.| G.  ' ~ ~ _ [                                           ",
"                                  G.5.  [ _ ..   ./ ; &   =     ; }           X.K.5.' _ Q '                                     ",
"                                ' ' [ _ L.H.    / A U '   C f 7 E.6 C Q   U j 5 g D F.6.  ' ' '                                 ",
"                            o.y   Q 5.F.D 4   F.I ' v   C d 6     & C     |   ' ' x 1 7 ^   _ _ U g                             ",
"                      8X/.p H   ' H.l f ( A E ..      C C       j j       C Q    .6.C U B j ^ ' E K K *.(.                      ",
"                    *.;.&.q i   S 1 v ' ..I j I '   g ; # & # * ; # * * > 6 S _ b z v j H.C   S ! P e O./.(.                    ",
"                    }         $.  C A b Q ~     & * l R 8.f.k.l.k.f.8.1.Y c a 1 g j U Z ^ I E j     w   O.@.                    ",
"                  g L     ; m     ( v   C ; & s 3.`.{.%X#X#XoX'.[.'.'.'.].[.l.4.c ; 3 x I ( U I G.F F q   w %.                  ",
"                  C   7 L   E.    U U 6 1 Y g.{.%X;X$X#X#X#XOXA.V.C.C.A.'.'.'.].[.d.Y 4 f T   ( T.S V   K P y m                 ",
"              [ I I { S d ;   o b C & s g.%X;X;X;X2X$X#X#XoXOXV.n.n.n.V.A.C.A.'.'.'.C.d.c 1 l Q f   X.  g S Z [ /               ",
"              ( Q [  .z (   b V 6 ; 3.{.$X=X;X;X;X2X$X#X#XXXA.n.v.v.n.n.B.V.C.A.C.V.V.S.M.1.s j 5.j       6..._                 ",
"            v I _ 6.f U ) _ I   ; f.#X*X*X$X;X:X3X3X*X#X#XOXA.v.y.y.x.v.b.n.V.V.V.V.n.n.V.M.s.x V   ..' ( h ~   ~ _             ",
"              Z ' j I     ~ 4 s `.#X#X#X*X;X;X3X:X2X$X#X#XOXV.v.y.y.a.a.v.n.M.V.n.n.n.n.M.V.V.d.Y C 5.I U ~     _ Q 7.          ",
"              j V C v  .  3 & Y.%XoXoX&X*X2X;X:X3X3X*X#XoXOXV.v.t.t.y.y.x.n.B.n.b.n.b.b.n.B.V.V.j.Y C ~ ~ [ ( T 7._ _           ",
"        _ U C C   C I v A 5 k.XXXXoXoX#X*X;X;X:X:X3X$X#XoXOXV.v.y.y.y.y.y.n.n.n.m.b.n.n.n.M.V.V.C.d.U V '   Q C ' ~ E '         ",
"        I Z v 5 v C b   & 4.XXXXOXXXoX#X*X2X;X:X3X3X2X#XoXOXA.n.x.y.t.t.y.v.v.v.v.v.v.v.n.n.B.V.V.Z.4.f Z I A U l   Q Q         ",
"      Q Q U f       j 1 1.].OXOXOXXX%X$X2X;X:X3X3X3X;X$X#XXXA.V.n.v.y.r.y.h.a.h.a.z.v.v.m.m.n.n.M.V.M.R j U   A / U ' _ [       ",
"      b U U & f V z f 1 N.OXOXOXOXXX#X2X2X;X:X3X3X4X2X*X#XoXOXZ.B.v.y.y.y.y.y.y.y.y.y.y.y.y.v.v.n.n.V.j.x ! j f   a Q Q ~       ",
"    V C A j   C v C f 4.].'.OXOXXXoX#X$X2X;X:X3X:X3X:X$X#XXXOXA.V.m.y.y.y.y.y.y.r.r.r.r.r.r.y.v.m.n.V.C.4.S U C U x A U U ^     ",
"    1 j b   j f j C f C.'.A.OXOXOXoX#X*X2X2X;X;X3X3X2X$XoXXXOXA.A.n.y.y.y.y.r.w.q.q.q.q.q.0.r.y.v.n.M.C.N.) ~ _ U U j Q C j     ",
"    @.    f   ' j j 3.XXOXA.A.A.A.OXXX#X&X$X$X;X;X2X;X#XoXXXOXOXA.n.v.y.y.y.r.0.q.<.<.<.2.q.0.r.h.m.n.M.C.8.U ~ A C   U S 6     ",
"    i J     B   A j l.OX'.OXOXA.A.A.A.XXoXoX#X&X*X*X&XoXoXOXOXOXA.n.x.y.y.r.0.q.<.<.<.<.<.<.q.0.y.v.m.n.V.j.C Z b ' x 4 y @.|   ",
"_.:.e 8   H.S C V Y XXXXXXOXOX'.A.Z.A.A.OXXXoX#X#X#X#XXXXXXXOXOXV.n.v.y.y.i.0.0.q.2.<.<.<.<.<.0.r.h.n.n.V.S.( ^   ~ ~ K J p M   ",
"(.;.0 9   : H.j U 8.%X+XXXoXoXOXA.Z.V.A.OXOXoX#X#X&XoXOXOXOXXXA.V.n.v.v.v.z.r.w.0.q.q.<.<.<.<.q.r.v.n.V.A.C.4.! Z v R.L u   -.).",
"@.i ,     S E ~ U U.%X%X#X#X#XXXOXA.A.A.OXOXoX#X#X*X#XOXA.A.D.A.V.n.n.n.B.n.v.y.r.0.0.q.<.2.q.0.i.v.n.M.V.C.f.U A F.    N   -.(.",
"j H p J 7 . a Q C [.XXXX%X#X#XoXOXOXA.OXOXXXoX#X*X*X#XOXA.A.A.V.B.B.V.A.A.V.n.v.y.r.0.q.<.<.q.0.r.y.v.n.V.V.M.A E j D     < q #.",
"  N : : 1 x U _ Z [.].].XXXXXXOXD.A.A.A.OXXXoX#X$X*X$XoXOXA.Z.V.V.V.A.A.OXA.V.n.v.r.0.q.q.q.q.0.r.y.v.v.n.V.M.T U g ;   J L H   ",
"4 f C j j 4 x U I '.'.A.'.OXA.Z.V.V.V.Z.A.OXoX#X*X2X*X#XOXOXOXA.A.A.A.A.A.V.V.n.v.y.w.q.q.q.q.q.q.r.y.v.b.n.M.) _ v x a       V ",
"v _ ~ x h f 4 E R A.C.C.A.C.V.V.n.n.n.n.V.A.OX#X$X2X;X#XoXXXOXOXOXOX'.A.A.A.V.V.b.z.r.0.q.2.<.q.q.0.r.y.v.n.n.3.! V j   j E   l ",
"  I Q b b x V U ) A.V.V.V.V.V.n.v.v.v.n.B.V.'.oX$X2X*X$X#X#X&X#X#XoXXXOXOXA.V.V.n.v.y.w.q.q.q.q.q.q.e.t.x.v.n.] V j ^ x h C Z V ",
"Q E U x Y   I ) ( C.V.V.V.V.B.n.v.v.v.v.n.V.C.XX#X*X;X;X;X;X2X2X$X#XoXOXOXOXA.V.B.n.v.y.y.r.0.0.0.0.r.r.y.v.n.5.U x _ V f C C x ",
"  U Z V I b C C ) C.V.V.V.V.n.v.x.y.y.x.v.n.V.A.oX*X*X;X2X3X3X2X$X#XoXOXOXA.A.A.V.V.B.n.v.y.t.r.r.r.t.y.x.v.n.5.Q z I h 4 Z C b ",
"  U   f A V A V ' C.C.V.V.n.v.v.y.y.i.y.y.v.n.A.OXoX*X$X$X;X2X*X#X#XXXOXA.A.A.A.A.A.V.V.B.n.v.v.a.y.v.v.v.n.M.5.! C C C 6 x v   ",
"  C C x j   C x 5.Y.C.M.n.b.v.y.r.0.0.0.r.y.v.n.A.XX#X#X#X$X2X*X#XoXOXOXOXA.A.OXA.OXA.Z.V.V.B.n.n.n.n.n.B.V.l.' b v f j 4 V j   ",
"    x f C x A b [ k.C.M.n.v.y.r.0.q.q.q.0.r.y.m.V.OXoX#X&X#X*X&XoXXXOXA.OXOXOXXXOXOXOXA.A.A.V.V.V.V.V.V.Z.A.k...E ' E Z   ~ V   ",
"    C f j f 6 j C 3.C.M.n.v.y.0.2.<.<.<.q.0.y.v.B.A.XXoX#X#X&X#XoXOXOXA.OXOXXXoXoXoXOXOXOX'.A.A.A.A.A.A.A.'.I.' Q A C   v U U   ",
"  A C C f g f f f [ C.V.n.y.w.q.<.<.<.<.q.0.y.v.n.A.OXOXoXoX#X#XoXXXOXA.OXXXoX#X#X#XoXXXXXOXOXOXOXOX'.A.'.[.L.  V C I V C A     ",
"    x C 4 4 V V f ..k.V.v.y.0.q.<.<.<.<.q.r.y.v.n.A.A.A.OXOXoXoXoXOXA.A.OXOXoX#X&X&XoXoXXXoXOXOXOXOXOXOXXXU.5.v C V A g A C     ",
"      j   A   g 4 V 8.C.m.y.0.q.<.<.<.q.0.r.y.v.n.V.V.A.A.A.OXoXXXOXA.A.OXOXXX#X#X&X#XXXXXOXOXOXOX'.'.'.XXI.' Z ! C C   A V     ",
"    j j t S f f f 6 5.k.M.h.r.q.<.<.2.q.e.t.y.v.B.V.V.A.A.A.OXoXOXOXA.A.OXOXoXoX#X&X#XXXOXA.A.A.A.A.A.'.[.K.Z C C C A x V j     ",
"    6   1 ; l l f f ~ 7.C.j.y.p.q.q.0.w.t.y.v.n.V.V.A.A.A.A.OXoXXXOXA.A.OXOXoX#X#X&X#XXXOXA.V.V.V.V.C.C.Q.6.  U C ! f V j       ",
"      D H i L X.F.! 1 F.U.M.j.u.r.r.r.y.y.v.n.V.A.A.A.A.A.OXoXoXoXOXOXOXOXXXoX#X#X*X#XXXOXA.Z.V.n.n.V.l.L.j v ^ m l             ",
"        8 < $     S > A L.l.M.m.h.v.y.x.v.n.V.A.'.OXOXA.OXOXoX#XoXoXXXOXoXoX#X*X$X*X#XXX'.Z.V.V.V.M.N.L.^ v H.M } G L P V       ",
"      #.O.9 9 $ y . t 4 ..L.[.C.M.n.v.n.B.V.A.XXOXXXOXOXXXoX&X#X#X#X#X#X#X#X%X$X$X*X&XXX'.Z.V.B.n.n.g.6.6 j m 6 M   < ,         ",
"        ).O.: p w ; 6 ! f K.!.].[.M.V.V.A.'.XXoXXXoXoXXX#X$X$X;X$X$X$X$X$X$X$X2X$X2X*X#XOXA.V.V.n.k.K.B j m O K   9 O.=.        ",
"        :.q e u : f 4 Q h 1 T.Q.[.[.'.OXXXoX#X#X#X*X#X%X$X;X3X3X:X:X3X3X3X;X;X;X;X2X2X#XXX'.A.V.U.T.  ! I z = G u q ;.6X        ",
"          #   $ ; x V x A 6 ! W.Q.{.%X%X$X$X$X$X$X2X=X;X:X3X4X5X,X,X4X,X4X3X:X3X:X2X;X$X#XXX'.Q.T.D V j x C   $ H $ #.          ",
"              - 1   V 4 1 1 a   K.!.>X;X3X;X;X;X;X3X;X:X3X4X5X5X<X<X<X5X5X3X:X;X;X;X$X$X%X+XI.K.A x j h d     & < t             ",
"              1 1 1       1 4 1 j T.I. X4X4X:X:X:X3X3X:X4X<X7X7X7X5X<X<X5X:X;X;X$X;X$X%X}.!.G.m C h f 6 U 1 4 j o               ",
"                ; 3 1   D   C x f ; ! W.~.>X,X4X,X4X4X,X4X<X7X7X7X<X<X<X,X>X$X$X$X;X{.Q.K.| > 1 b j 1 1 &   f 3                 ",
"                  1 4 1 & A 1 f f f f 4 G.W.|.1X<X5X<X,X<X<X5X5X<X<X,X,X,X>X%X%X].Q.K.  m 6 f f   a   & 4 6   1                 ",
"                    1 3 1 # T j 4 f x j a j ..W.~. X1X1X<X<X5X<X,X,X,X,X,X X}.W.T.H.V 1 3 g B a   !   * f f 4                   ",
"                      1 f 1 o 6 V 4 v j h v d g B H.W.W.~.!.~.~.~.|.~.W.T.T.6./ 4 1 1 f f f l ~ ^   6   4                       ",
"                        d 1 = o ; S x x C T F.^ 6   - 6 g S / A ! V / A = 1 f 6 A ..f 4 6 j |   6 l f 4                         ",
"                          1   1 4   1 j V ^ X V 1 l 3 1 >   o o # ; ; & 1 C s S / ^ B ; 4       f x                             ",
"                              4 1 ; # u G : X   4 h 1 4 1 a 4 >       & = 4   & o # K F ;   f 4 1 1                             ",
"                                & . < F : e   G > m 4 ; ; & &       & & & 4 1       : G 7 & 1 >                                 ",
"                                    7 X 0 % $ L o + ; ;   ; >   1 6 ; *   o   N   @ %   N                                       ",
"                                      p >.-.O K   1 & . o   X   X . . o &     G   +.-.p                                         ",
"                                          :.X ;         & = *         & * =     # ;.).                                          ",
"                                                            . o         .                                                       "
};
