/* XPM */
static char *_[] = {
/* columns rows colors chars-per-pixel */
"64 64 215 2 ",
"   c None",
".  c #0E1311",
"X  c #0E1815",
"o  c #111614",
"O  c #131816",
"+  c #141D1B",
"@  c #191D1A",
"#  c #0C110E",
"$  c #17211E",
"%  c #27221D",
"&  c #1B2423",
"*  c #1E2B2B",
"=  c #1B2524",
"-  c #232927",
";  c #232D2C",
":  c #252826",
">  c #24302F",
",  c #2E332D",
"<  c #38322B",
"1  c #232F32",
"2  c #253232",
"3  c #2B3534",
"4  c #2D3738",
"5  c #2D3B3B",
"6  c #2D3837",
"7  c #323D3D",
"8  c #393732",
"9  c #422216",
"0  c #4F392F",
"q  c #484239",
"w  c #564A3F",
"e  c #50402C",
"r  c #6F543D",
"t  c #77562E",
"y  c #2D3E41",
"u  c #333F42",
"i  c #343E4E",
"p  c #363E53",
"a  c #2E4143",
"s  c #334243",
"d  c #3A4544",
"f  c #34464A",
"g  c #3A474A",
"h  c #36494C",
"j  c #3C4A4C",
"k  c #3C4E52",
"l  c #384954",
"z  c #3D5155",
"x  c #3E535B",
"c  c #375058",
"v  c #3E5761",
"b  c #424D4D",
"n  c #454643",
"m  c #554C45",
"M  c #47504E",
"N  c #414F54",
"B  c #445255",
"V  c #43565B",
"C  c #4B5759",
"Z  c #45585D",
"A  c #4B5A5D",
"S  c #495556",
"D  c #565B59",
"F  c #5F5243",
"G  c #685A49",
"H  c #665D52",
"J  c #6C6558",
"K  c #776753",
"L  c #75674C",
"P  c #444B6B",
"I  c #455A62",
"U  c #4B5D63",
"Y  c #4A5D6A",
"T  c #435660",
"R  c #515F64",
"E  c #4F5876",
"W  c #4C626B",
"Q  c #4B6069",
"!  c #526265",
"~  c #53646B",
"^  c #5C696D",
"/  c #58666A",
"(  c #516574",
")  c #556A72",
"_  c #5B6D74",
"`  c #5A6F7A",
"'  c #55697B",
"]  c #5D727C",
"[  c #4C6575",
"{  c #666A68",
"}  c #64757C",
"|  c #69777D",
" . c #67757A",
".. c #71746E",
"X. c #947037",
"o. c #B9752E",
"O. c #8A5F2F",
"+. c #826B4A",
"@. c #877254",
"#. c #867764",
"$. c #AD823D",
"%. c #DBA03A",
"&. c #D59B39",
"*. c #ADA072",
"=. c #CBA957",
"-. c #D9AC54",
";. c #D5B36B",
":. c #DAA750",
">. c #DECA7C",
",. c #E3C678",
"<. c #3C3C9B",
"1. c #3B3A97",
"2. c #40409F",
"3. c #4B5084",
"4. c #5B658A",
"5. c #5E7382",
"6. c #5C6293",
"7. c #5A609D",
"8. c #637782",
"9. c #647984",
"0. c #6C7C83",
"q. c #68798A",
"w. c #727E84",
"e. c #606697",
"r. c #647493",
"t. c #4343A3",
"y. c #4647A8",
"u. c #4748A9",
"i. c #4B4CAC",
"p. c #4E4FB0",
"a. c #5454B5",
"s. c #5656B9",
"d. c #5857BA",
"f. c #5C5BBC",
"g. c #5958B6",
"h. c #4F50B0",
"j. c #605FBE",
"k. c #6D72A9",
"l. c #6C6DBC",
"z. c #6565BA",
"x. c #6E71B7",
"c. c #7478B8",
"v. c #6567A9",
"b. c #5F5EC0",
"n. c #615FC1",
"m. c #6463C4",
"M. c #6766C9",
"N. c #6867C9",
"B. c #6C6BCC",
"V. c #6969C5",
"C. c #6F71C4",
"Z. c #7272CE",
"A. c #7C7ECD",
"S. c #7577C3",
"D. c #6E6ED0",
"F. c #7474D3",
"G. c #7B7BD5",
"H. c #7777D8",
"J. c #7C7CDB",
"K. c #7877D6",
"L. c #807FDF",
"P. c #75848A",
"I. c #748592",
"U. c #798997",
"Y. c #768892",
"T. c #7A86AB",
"R. c #7C85B6",
"E. c #7E84C1",
"W. c #7F81D8",
"Q. c #84949D",
"!. c #808F98",
"~. c #858FAD",
"^. c #8896A7",
"/. c #8A94B7",
"(. c #959EB7",
"). c #828BB8",
"_. c #E3D59A",
"`. c #E2D8A8",
"'. c #E4DEB7",
"]. c #CFC08A",
"[. c #8589C9",
"{. c #8C91C7",
"}. c #9299C3",
"|. c #8284D4",
" X c #8281DD",
".X c #898ADB",
"XX c #9294DD",
"oX c #9CA1CE",
"OX c #A5A8D6",
"+X c #8484E2",
"@X c #8A8AE6",
"#X c #8D8DE9",
"$X c #8887E7",
"%X c #8F90E9",
"&X c #9393E6",
"*X c #9393ED",
"=X c #9798ED",
"-X c #9B9CED",
";X c #9B9BE4",
":X c #9696F1",
">X c #9B9BF1",
",X c #9FA0EF",
"<X c #A3A3EE",
"1X c #AAAAED",
"2X c #A4A4E7",
"3X c #B2B3EC",
"4X c #BABBEF",
"5X c #B2B4E7",
"6X c #A3A3F2",
"7X c #ABABF1",
"8X c #B3B3F0",
"9X c #BBBCF0",
"0X c #BFC0F1",
"qX c #E2E0CB",
"wX c #C2C3F0",
/* pixels */
"                                                              >.'.].                                                            ",
"                                                          ..  O.%.t     u                                                       ",
"                                              ] ` 5.) U       :   3           ) ~ q.                                            ",
"                                        9.] ] _ ) _ ~ |       8 F   #.^ P.} `     _ ] }                                         ",
"                                    9.9.  5.  P.^ C * =   = , n , D     >     | P.9.  / Q                                       ",
"                                _       I.0.      j       b s 8 { s     /   s     b } }   ) ]                                   ",
"                            ..  ~ Q } _   5   9.  9.z k j y   = o * B     ~ U ! ~   2 7 /   ) _ Q s                             ",
"                        >.      R Y.7 s (         Q     B   s     S     (   Y   ^ w.  U B s } ~ U   ..K `.                      ",
"                      =.&.      B 3 c ^ _ I B         > $ + O $ = + = ; 3     Q z h k c | V 2 s A     X._._.                    ",
"                    {     0     V B A   U _     $ = g E 6.v.l.l.l.l.v.3.P l 3 3 S V       I U           o.K                     ",
"                                _ Y V       $ i 6.A.+X X XJ.J.F.Z.Z.F.F.J.K.Z.e.p = 7   (   Z Q '   n 0   m                     ",
"                  k   8 K H D   _     3 3 P c..X X X X XL.K.F.F.B.B.F.B.F.F.K.J.K.l.P 5 j   ~     s       #.                    ",
"              ) I Q   u f - # .   s   i x. X X XJ.J.J.J.J.F.D.B.N.B.B.D.F.F.Z.F.F.J.J.l.l * 5 )     D     U Q 5.                ",
"                      f ' 9.c b   3 6.|. XK.K.K.F.F.F.F.F.F.B.B.B.B.B.B.D.B.B.B.B.F.F.F.K.6.5 y 9.      V ^ 9.] 9.              ",
"                      Q ( ) v   1 k.#X+XJ.Z.B.B.B.B.B.B.F.D.B.N.M.M.M.N.M.M.j.M.N.D.B.B.F.F.z.f B ` 9.  Q   _   ~ )             ",
"                } y           u c.*X*X+XK.B.M.M.M.M.M.M.B.B.N.N.M.M.M.M.d.d.g.d.z.M.B.B.Z.F.F.C.V   5.  Z U   P.` Q             ",
"              z j z j       ; R.*X*X%X#XJ.B.d.d.d.M.d.n.N.B.M.M.n.d.d.d.s.i.i.p.s.d.z.M.B.F.F.J.C.x B ~ ~   [ A q.) )           ",
"                            c.=X=X*X*X#XL.B.j.d.d.d.d.d.M.M.M.z.d.d.s.p.i.t.t.i.i.p.g.M.B.F.F.F.F.l.V B           ~             ",
"      ' Z   k 5 k B z     k.<X=X=X*X*X*X+XF.M.d.s.d.d.s.d.j.d.d.s.s.i.y.t.<.<.2.t.y.p.d.C.B.B.B.B.Z.7.7 I I A I j   Q Q         ",
"      Y Q         s   5 E ;X<X<X=X=X=X*X#XJ.B.M.d.d.d.s.d.d.d.d.d.i.t.<.<.<.<.<.<.t.i.d.M.M.M.N.B.B.Z.E k   U D A A   ]         ",
"      z U   = a V c b 1 [.=X6X<X<X<X=X:X*X+XH.B.M.M.b.d.s.d.d.d.s.y.<.<.<.<.1.<.<.t.i.p.s.d.d.n.j.M.B.C.g A f h A f Q   ~       ",
"      z       V     s e.=X=X<X1X1X<X=X*X*X#X+XJ.B.B.B.z.d.d.d.d.s.i.t.t.t.t.<.<.<.t.u.i.h.s.s.d.d.d.M.B.6.A !   V       !       ",
"      s V   j s j B u .X*X=X6X7X7X1X<X>X:X#X#X+XJ.F.F.M.j.d.n.d.s.i.t.y.i.t.t.t.<.t.t.t.t.t.i.p.s.d.j.M.B.Y ~   V   s ~ V       ",
"    #.    g Z _ s j 4.&X=X=X6X<X<X1X1X6X>X*X*X#X+XJ.J.F.B.M.j.d.d.s.s.s.s.s.i.i.t.t.t.2.t.t.y.i.s.d.z.M.B.6.A     V     B       ",
"          f S _ A z c.*X*X=X6X6X<X1X7X7X6X>X*X#X+X+XJ.J.D.M.n.d.d.n.d.b.M.d.s.i.y.t.2.<.t.t.i.p.s.d.M.N.F.l.B Z z } z     #.{   ",
"  ;.0           A T .X#X*X*X>X<X<X1X7X7X7X<X=X*X#X+X+X XH.B.n.M.B.B.B.B.B.M.d.g.i.u.t.i.i.i.s.d.d.M.B.B.F.K.( ^       D @.r M   ",
"`.-.    : o  .f V 6.#X#X#X*X>X6X<X1X7X8X8X7X=X*X#X#X+X+XJ.B.N.M.D.F.F.F.F.B.M.d.s.s.s.s.s.d.d.M.M.B.F.F.J.J.6.! V j }       =.'.",
"L e       b Z Q U c.#X#X#X*X=X<X<X1X7X7X7X7X<X=X#X#X#X+XJ.F.B.D.F.J.J.H.F.F.B.B.M.M.M.M.M.M.M.B.F.F.J.J.J. Xl.U A |         :._.",
"  G r L : o 2 Q V A. X#X#X%X>X6X<X<X1X7X7X<X=X*X#X#X+X+XJ.F.F.F.J.J.J.J.J.F.D.D.B.D.D.D.D.F.F.F.F.J.L. X+X+XA.A U j   s     0 @.",
"M G % : * f Q ) I |. X X#X#X=X6X<X<X<X6X6X=X*X*X#X+X+XJ.J.F.F.J.J.J.J.J.J.J.F.F.F.F.F.F.J.J.J.J.J.+X+X+X+X X XU ! B ;   +.K L   ",
"1 = V f f 7 k Q Y  XJ.+X+X#X:X>X=X>X=X>X>X*X*X*X#X$XJ.H.J.F.J.J.+X+X+X+X+XJ.J.J.J.J.J.J.J.J.+X+X+X+X+X+X+XJ.J.' ) z k s       A ",
"    )         ~ Y J. X X+X#X#X*X*X*X#X#X*X*X*X*X*X#X+XJ. XL.J.+X#X#X#X+X+X+XJ.+X X+X+X+X+X+X#X#X#X+X+XJ.J.K.F.4.! B j     A 5 5 ",
"  I U z c z     ( J.J.J.+X+X#X+X+X+X+X+X#X*X*X>X>X>X*X#X+X+X#X#X*X*X*X#X+XJ.J.+X+X#X+X#X#X#X#X#X+X XJ.F.F.D.B.( B h ! k y V   z ",
"      k z       Y J.J.J. XJ.J.J.J.J.J.+X#X#X*X=X=X6X=X*X#X#X*X>X<X=X*X#X+X+XL.+X+X#X%X*X*X#X#X#X+XJ.F.F.D.B.B.r.U     j   V A k ",
"  U   j z z V   ( W.J.J.J.J.J.J.F.F.J. X+X#X#X*X>X6X6X=X*X*X6X6X<X=X:X*X+X+XJ.+X#X*X:X:X*X*X*X#X+XJ.F.F.F.D.B.5.Q k I f 5 V A   ",
"        V B A B ] W. X X+X XJ.J.J.J.J.+X+X#X#X*X=X6X<X=X<X<X7X7X<X=X*X#X+X+XJ.+X+X#X*X*X*X*X*X#X+X XJ.F.F.F.C.q.U V U     b k   ",
"  V   s f ) z c 9.|.+X+X+X+X#X+X+X+X+X+X+X+X+X#X*X>X>X=X<X<X6X6X<X>X*X#X#X+XJ.J.+X#X#X#X*X*X:X*X#XJ.J.F.F.B.z._ z k f s   b j   ",
"          j B z _ R.#X#X#X&X*X#X#X+XJ.J.J.F.F.J.+X#X*X*X=X=X:X>X=X=X*X#X#X#XJ.J.J.+X#X#X*X*X:X*X#X+X XK.F.F.k.9.I ) ~     ~     ",
"  V   s     5 h B r.#X#X&X*X*X#X+XJ.F.D.B.B.B.F.J.+X+X#X#X*X:X:X*X*X*X*X*X#X XJ.J.+X+X#X*X:X>X>X*X#X+X XJ.J.T.` ~ ! z Z z   U   ",
"      B     s s s ` XX&X&X&X*X#X XF.B.N.B.M.B.B.B.F.J.J.+X#X*X*X*X#X#X#X#X#X+XJ.H.J.+X#X*X*X>X>X=X=X*X#X+X XI.~ B V I k         ",
"    b B 6 j B B s } R.#X#X#X#X+XK.B.N.M.M.n.n.M.M.B.B.B.F.J.#X#X#X+X+X+X#X#X+XL.J.+X+X#X*X=X6X6X<X<X=X*X*X[.} V I B S   V V     ",
"      j   g   s 7 U r..X.X X X XF.B.B.M.M.d.d.d.d.d.d.M.B.F.J.+X X+X X+X#X#X#X#X+X+X#X*X*X=X6X6X<X<X=X=X=X~.} U ~ V V   B       ",
"    j j s s a s s 7 9.[. XK.J.J.F.B.B.M.n.d.s.i.i.i.s.d.M.B.F.J.F.J.J.J.+X#X#X#X#X*X*X*X=X<X7X7X1X<X=X=XXXI.z z V z s z b j     ",
"      : 3   s s s f ~ r. XK.F.F.F.F.B.M.d.s.i.t.t.t.i.s.z.M.F.F.F.J.J.J.+X#X#X*X*X=X=X<X<X<X7X7X<X<X;X;X~.  j U I ~ 7 B         ",
"      D G F L | { B 5 0.E.K.J.F.F.F.B.M.d.i.t.<.<.<.t.s.d.M.B.F.F.F.J.J.+X#X*X*X=X6X6X1X8X8X7X7X<X;X=X{.  B V   B s =   ;       ",
"        <   : 7 o A   R I.A.J.K.F.F.B.M.d.i.t.<.1.<.t.i.d.M.M.F.F.J.J.J.+X*X=X<X<X7X8X3X9X4X3X1X2X&XXXU._ k } C { G L K         ",
"      X.$.9 9 : ; o 7 u | U. XK.F.B.B.M.d.i.<.<.1.<.t.i.s.d.M.F.J.J.+X+X#X*X=X<X7X8X9X4X4X4X3X1X;X&XT.0.5 s 3 4 n < 0 , 2       ",
"        `.o.:   % ; 5 ! s U.). XK.Z.B.M.d.i.t.<.1.<.t.i.d.j.B.J. X+X#X#X*X=X<X7X3X9X9X4X4X4X3X1X;X{.U.B f b o q <     *.        ",
"        =.<   w $   5 Z h s   ).K.F.F.B.d.i.t.<.1.<.t.i.d.M.B.J.+X#X#X*X*X=X1X8X4XwXwX9X4X3X1X2X}.Q.! / V c = J q   ;.qX        ",
"          = H   =   h k B 5 B Q./. XK.B.M.g.i.t.2.t.i.s.d.M.F. X#X#X*X*X=X<X1X8X4XwXwX4X4X3X1XoXQ.D j   j z s % K % +.          ",
"              + 3   B 5 > 2   j U.~.|.K.B.z.g.h.i.i.s.d.M.B.F.+X#X*X*X=X6X1X1X8X4X0X9X4X4X5X~.Y.B   j s s V   + < s             ",
"              3 3 3 6 b   2 5 2   0.U.E.A.C.l.z.g.d.M.M.B.Z.J.#X*X=X=X<X7X7X1X8X3X9X4X4XOX^.P.s k f s 7 Z 3 s s O               ",
"                ; 3 2 = A   z   s ; ^ ^.~.S.Z.C.C.Z.Z.Z.Z.K.#X*X=X<X<X<X7X7X1X1X3X8X5X(.U./ ; 5 V   2 3     s   o               ",
"                  5   3 =   5 s s s   3 Y.^.~.[.A.|.|.K.K. X&X=X<X<X<X1X1X1X<X1XoX(.U.P.S 7 s s s a   = 5 s   >                 ",
"                      3     C f 5 5 h f y B | ^.^./.{.|.|.&X=X=X<X<X1X1X3XOXoX^.!.P.  3 u s B 5 s B   ; s s                     ",
"                      3   2   s   f z h s   5 j / w.  Q.(.~.}.}./.}.(.^.Q.  0.  d 5       u g ~   = s s 5                       ",
"                          3         B k V ^ | A 7 $ :   u A ! B ! U   A   3 7 7 j       7       7 j s s                         ",
"                                3 = 3 j B   #     s 3 2 ; = + + + ; ; = 2 B b b b /     s       s                               ",
"                                5 ; $ q   $ .   a a   7   5 5 2   7 5 = ;     = = = H m     s 7 3                               ",
"                                $ . 8 G , 0     ; s 5 * * = *         * ; 5 ;     w       =   ;                                 ",
"                                  . < o       L o # : ;   7 3   ; 7 ; =   o +           J                                       ",
"                                      t ,.=.O   o 3 =   . o       . . O = ; & J     :.                                          ",
"                                          -.  : o             ;         $ *       =.`.                                          ",
"                                                    X                                                                           "
};
