/* XPM */
static char *_[] = {
/* columns rows colors chars-per-pixel */
"64 64 210 2 ",
"   c None",
".  c #090E0D",
"X  c #0D1412",
"o  c #0F1917",
"O  c #141917",
"+  c #141D1B",
"@  c #1C1F1B",
"#  c #09110F",
"$  c #1A211E",
"%  c #172220",
"&  c #1B2523",
"*  c #1D2826",
"=  c #1E2B2B",
"-  c #1B2728",
";  c #212624",
":  c #222D2C",
">  c #292A27",
",  c #26312F",
"<  c #35322B",
"1  c #232F32",
"2  c #263433",
"3  c #2A3534",
"4  c #2C3837",
"5  c #2D3B3B",
"6  c #293739",
"7  c #313D3D",
"8  c #383D3E",
"9  c #353835",
"0  c #4B2418",
"q  c #413E36",
"w  c #492E25",
"e  c #34403F",
"r  c #494338",
"t  c #6F5431",
"y  c #2D3E41",
"u  c #313E41",
"i  c #32394E",
"p  c #363F52",
"a  c #2E4043",
"s  c #334344",
"d  c #3A4645",
"f  c #344549",
"g  c #3A4649",
"h  c #35494D",
"j  c #3B4A4C",
"k  c #3F4846",
"l  c #364B52",
"z  c #3C4E52",
"x  c #3D445D",
"c  c #3E5055",
"v  c #3D535A",
"b  c #3E5964",
"n  c #404C4C",
"m  c #4E4943",
"M  c #57514A",
"N  c #424E52",
"B  c #424E5C",
"V  c #435254",
"C  c #43555B",
"Z  c #4A5759",
"A  c #45595E",
"S  c #4A5A5D",
"D  c #4C5457",
"F  c #525C5C",
"G  c #5B5E5A",
"H  c #524741",
"J  c #776A58",
"K  c #7A6A50",
"L  c #434B66",
"P  c #445A62",
"I  c #4B5D64",
"U  c #4A5F6A",
"Y  c #435764",
"T  c #505E63",
"R  c #4C5375",
"E  c #454A7D",
"W  c #4D6066",
"Q  c #4D626C",
"!  c #536265",
"~  c #53656C",
"^  c #56686E",
"/  c #59696E",
"(  c #5B6466",
")  c #4C6472",
"_  c #516573",
"`  c #546973",
"'  c #5B6D74",
"]  c #546B7A",
"[  c #596F7A",
"{  c #56657B",
"}  c #5C717C",
"|  c #676C6A",
" . c #64757C",
".. c #687579",
"X. c #616F72",
"o. c #964B1E",
"O. c #815428",
"+. c #B4692D",
"@. c #C7792D",
"#. c #C66F2A",
"$. c #DB9B3C",
"%. c #D0883A",
"&. c #C19346",
"*. c #D6A560",
"=. c #3C3C9B",
"-. c #3B3A97",
";. c #545B88",
":. c #40409F",
">. c #545895",
",. c #5A6489",
"<. c #5D7483",
"1. c #5C609D",
"2. c #627681",
"3. c #657983",
"4. c #697B87",
"5. c #6A7896",
"6. c #6B7788",
"7. c #4343A3",
"8. c #4747A8",
"9. c #4748A9",
"0. c #4B4CAC",
"q. c #4E4FB0",
"w. c #5353B4",
"e. c #5B5BB6",
"r. c #5656B9",
"t. c #5857BA",
"y. c #5C5BBC",
"u. c #5857B7",
"i. c #5151AF",
"p. c #605FBE",
"a. c #5E62A2",
"s. c #6669A7",
"d. c #6A72A4",
"f. c #6366B2",
"g. c #6A6DB3",
"h. c #6262BD",
"j. c #6A6ABD",
"k. c #6769B6",
"l. c #7275BD",
"z. c #6E71BC",
"x. c #5F5DC0",
"c. c #605FC1",
"v. c #6463C4",
"b. c #6C6CC4",
"n. c #6766C8",
"m. c #6867C9",
"M. c #6B6BCC",
"N. c #6867C7",
"B. c #7272CD",
"V. c #787ACA",
"C. c #6E6ED0",
"Z. c #7474D4",
"A. c #7B7BD5",
"S. c #7777D8",
"D. c #7C7CDB",
"F. c #7778D2",
"G. c #706FCE",
"H. c #807FDE",
"J. c #6F838F",
"K. c #73838C",
"L. c #778489",
"P. c #7B8B94",
"I. c #778898",
"U. c #7E919C",
"Y. c #7B86AB",
"T. c #7D87B6",
"R. c #7F81D2",
"E. c #7F82C6",
"W. c #82939C",
"Q. c #828DA8",
"!. c #8999A3",
"~. c #838CB8",
"^. c #8B93BB",
"/. c #8995B4",
"(. c #939EB3",
"). c #858AC8",
"_. c #8B92C5",
"`. c #9398CB",
"'. c #8282DD",
"]. c #898BDD",
"[. c #8485D4",
"{. c #9B9DDC",
"}. c #9396D6",
"|. c #A1A3DF",
" X c #8484E2",
".X c #8A8AE5",
"XX c #8C8DE9",
"oX c #8887E4",
"OX c #8F90E7",
"+X c #9393E5",
"@X c #9393ED",
"#X c #9B9CED",
"$X c #9899E3",
"%X c #9696F1",
"&X c #9A9AF1",
"*X c #9FA0ED",
"=X c #A3A4E4",
"-X c #ACADE6",
";X c #A3A3EF",
":X c #AAAAEE",
">X c #B4B5EE",
",X c #B7B8EE",
"<X c #BABBEE",
"1X c #A3A3F1",
"2X c #ABABF1",
"3X c #B0B0F0",
"4X c #BCBDF0",
"5X c #B7B8F0",
"6X c #AFB0EA",
"7X c #C0C1F0",
/* pixels */
"                                                                                                                                ",
"                                                      ~       O.$.        S                                                     ",
"                                              <.} <.~   C             q V }     ~ 4.                                            ",
"                                      J.3.[ }     [ ~  .3.                 .'       2.                                          ",
"                                    4.2.3.}   2.X.V = *   &   8 :       :   X.  K.}   ` _ }                                     ",
"                                ' } } ` K. .            ~ g s     7   W ~     6         '   } }                                 ",
"                            | 8 ~   ' ..V 3 I   P ' c z g a 4 & & & C P     I   W l 1 s   ^ ~   W n                             ",
"                                      s           W   z V c     s V       C       ..    f    .                                  ",
"                        #.      V 3 v ~ ! Y z   ~             * &     =     d ` z l z h '   2 n F                               ",
"                                  c   v ~       & & x R s.g.B.b.N.k.f.>.E x 4 4 d V C W     I f g       +.K                     ",
"                            6   T W C ) v   + i ;.B.S.S.S.S.S.F.M.M.m.n.m.M.h.>.L : d V ) _   ) ] G   w                         ",
"                  I   >     F   ' ` I   3 L g.A.A.S.A.F.A.F.F.M.M.v.v.v.v.v.M.F.F.g.R 7       )   d                             ",
"                b P   g f 3 . % v     p s.F.F.F.F.F.M.M.B.F.C.M.v.p.y.y.y.c.n.C.F.S.S.g.L :   _     Z     I I }                 ",
"              `         ] <.l   g 3 ;.B.F.F.B.M.M.M.N.v.M.M.M.v.p.y.e.w.u.y.v.F.F.S.'.'.A.,.y g 3.    ]    .2.3.2.              ",
"            v   ~     W ` ] P 2 1 1.F.F.F.M.m.v.v.v.y.y.y.c.c.y.w.0.0.0.w.y.m.F.S.D. X XS.S.a.f V ` 2.  ) a ' W   '             ",
"          W     ~         ~ = u g.F.F.F.F.M.v.h.y.u.w.0.w.w.w.w.0.9.9.0.w.y.M.F.S. X X XS.S.F.f.B   ] z I   s K.[ W             ",
"          h   z g v C   g 1 : g.F.F.C.C.C.n.y.w.q.0.9.7.7.9.0.9.7.7.7.0.w.y.M.F.S. X X XS.F.F.C.f.C   ~ I   ) V <.` '           ",
"                f   P z   6 s.'.A.F.M.M.M.v.y.w.0.7.7.-.7.7.7.7.7.-.7.0.r.v.M.F.S. XoX XS.F.C.F.M.f.C   '       ~ ~             ",
"        P       z V     : ;.'.S.F.C.M.M.M.v.r.0.7.-.-.-.-.-.7.7.-.-.7.w.y.n.C.F.S. X X XS.F.F.F.M.M.>.s I U C I s     W         ",
"                W f g 3 L R.S.A.F.M.M.n.v.h.w.0.:.-.-.-.-.7.7.7.7.7.0.y.n.B.F.S. XoXXX XS.S.F.F.F.G.M.R V   I   S T             ",
"      v P I   s c l g 2 l.'.S.F.M.n.n.v.v.y.w.0.-.-.-.-.-.7.7.9.9.9.w.v.C.F.S.S. XXXXX XS.S.S.S.F.F.F.N.g ! f f S y `   ~       ",
"            g A C   d ,.].'.S.A.M.M.M.v.v.y.w.0.7.-.-.7.0.0.0.0.w.w.c.m.F.S.S. XoXXXXXoX X XS.S.S.A.S.S.s.S     C I ~   W /     ",
"      s   4 s d   V y V.'.S.S.F.C.M.n.v.c.y.w.0.7.-.7.7.q.w.r.r.y.y.n.C.F.S.S. XXX+XXXXXXXoXXXXXoX XoXoX'._ ^     P g   S       ",
"        s   C '   z ,.'.S.A.F.F.F.B.M.v.y.y.y.w.7.7.0.0.y.v.v.v.N.M.C.F.S. X XoXXX+X%X+X+X+X+X+X+X+X$XOXOXd.  ~   C       u     ",
"        r s F / z z z.S.S.F.F.M.M.M.m.v.c.u.u.r.0.9.0.w.c.M.M.M.M.C.F.S. X X XXX+X&X%X%X%X%X&X&X$X;X$X$X+X).C I C ' h       ..  ",
"            C v V Y S.A.F.B.M.m.v.v.v.c.y.y.y.y.w.w.w.p.N.B.F.F.F.F.S.S. X X XXX+X%X%X+X%X%X&X&X;X;X;X$X$X$X{ ! A !     K       ",
"  $.    ; X 4.f A ,.S.F.F.M.m.v.y.y.u.r.y.u.y.y.y.y.y.n.C.F.S.S.S.S.S.D. X X XXX+X%XOXXX+X+X&X1X1X:X:X;X1X$X5.I A g         &.  ",
"  r       7   ~ P d.A.F.G.v.v.v.y.y.y.r.u.y.y.h.p.y.v.M.F.S.S.S.S. X XD. X X XXXoXXXXXoXXX+X+X&X;X2X2X;X1X;X).  S X.:       $.  ",
"  t       + 6 W C z.F.M.m.c.y.y.r.r.u.y.y.y.y.v.c.v.v.m.F.S.D.S.S. X X X X X X X X X X X XXX+X&X;X;X2X2X2X;X}.S ~ f F g         ",
"        = z W W U V.A.B.M.v.y.y.y.y.y.v.M.M.M.M.n.n.m.M.F.S.S.D. XoXXX X X XS. XS.S.S.S. XoX+X&X;X:X3X:X2X:X=XU S g :           ",
"  1 v h s 4 z W U '.S.S.F.M.m.v.c.c.v.M.F.F.S.S.F.F.C.C.C.S. X XXXXX+XXXXX XS. XS.S.S.S.S. X+X&X;X2X,X4X4X:X=X<.W c z y       F ",
"  W ~ f h h 4 I _  XoX X XS.S.F.F.F.F.F.S.S.S. X'.S.S.F.F.S.S.oX+X$X$X+X+XoXoXoX X XS.S. XoX+X$X:X>X<X<X<X:X=X6.! V       I 7   ",
"v P I z v c c W { oXXXXXXXXXXX X X X X XoX X X X XXX XS.F.F.S. X+X$X&X&X%XXXXXXXXXXX X X XXX%X1X2X>X<X4X>X:X=X<.V g ~ l   C P   ",
"W W   z     P _ _ oXXX+X+X+X+X+XXXXXXXXX+XXXoXXXoXXX XS.S.S. XXX$X;X;X&X&X+X+XXXXXXXXXoXXX+X+X1X2X>X<X<X>X-X|.5.C g   z 7 C C z ",
"  ~ A s v v C   ` oX+X+X+X&X&X%X+X+X+X%X%X+XXXXXXXXX XS.S. XXX+X&X2X1X1X&X&X+XXXXXXXoXXXXX+X&X1X2X<X4X4X<X-X=X4.W h P   3 A I   ",
"      4 A   V C } ].$X$X&X*X1X&X$X$X$X&X1X&X$X+XoX X XS. X XXX+X&X2X1X&X%X%XXXXX X X X XXX+X$X1X3X<X7X<X<X-X{.3.I C T C   z z   ",
"  C S f f ~ C   3.).$X$X1X1X2X1X;X;X2X2X2X1X&X%XXXXXXXXXXX+X%X&X1X1X&X%X&X%XXX X X XD.H. XXX$X1X2X>X4X<X,X-X`.' c c a s   V g   ",
"        A   g P } T.*X;X2X2X2X2X:X2X2X2X2X2X;X&X+X+X%X+X&X&X*X1X;X;X$X+X%X+XoX XS.S.S.S. XoX+X$X:X>X,X>X6X=X^.3.I ` I     W     ",
"  C C s 3   4 h S 5.$X;X;X2X2X2X;X2X2X3X3X2X1X%X+X&X&X$X&X1X1X1X$X$X+X+XXXXX XS.F.S.S.S.S. X+X&X;X:X3X:X:X=X~.} W I C   z   I   ",
"      V       s g [ {.*X;X;X1X;X;X:X2X2X2X1X$X%X+X%X&X$X&X$X&X&X+X+XoX X XD.S.S.F.F.S.S. XoXXX$X;X:X2X:X;X*XI.^ N C P C C   z   ",
"    V C 3 d n Z a } T.$X$X$X1X1X1X1X1X2X2X1X$X+XXX%X+X+X+X+X+X+XoX XS.F.F.C.C.F.F.F.F.S. X X+X&X&X1X2X2X2X`. .C Y V S 7 C       ",
"    g h   n     4 S 5.$X$X+X&X&X$X;X1X1X1X1X+XXXXXXXXXXXXXoX X XS.F.F.v.v.v.v.M.M.C.F.S. XoX+X&X1X1X;X1X1X~.2.C ~ C S           ",
"    g d s   s s f 4 3.).+XOX+X+X+X$X;X1X1X&XXX X X X XoX XS.S.F.F.M.v.y.u.y.y.y.v.n.C.S. XXX+X&X&X1X1X1X{.J.C v c v             ",
"    d ; 4   7 d s s / 5.oXoXXXXX+X$X$X&X&X+XoX XS.S. X XS.F.C.C.M.v.y.q.0.w.w.y.y.c.n.F.S.oX+X&X&X$X;X$X/. .g C P I 7           ",
"            K ..( Z 7 3.T. X X XoXoX+X%X+XXX XS.S.S. XS.F.M.M.n.v.y.w.9.7.7.9.0.w.y.c.M.F. XXX%X$X$X$X_.P.c V ! V e &           ",
"            ;   + Z   S I.[. X X'. XoXXXXX XS.S.S.S. XS.F.M.n.v.p.y.0.7.-.-.-.9.0.w.y.v.C.S. X+X$X$X$XI.  c   ( |       g       ",
"            0   , + 7 g  .I.'.'.S.'. X X XS.S.S.S. X XS.C.n.n.v.y.w.0.-.-.-.-.-.7.q.r.c.M.F. XXX$X$XY. .3 s   3 8 <             ",
"          #.      : 4 C g P.T.'.S.S.'.S.S.S.S.'. XXXoXS.F.M.n.v.y.w.0.:.-.-.-.-.:.0.y.v.M.F.'.oX$X).P.S s   O m                 ",
"                $   4 ~ h 4 U.~.S.S.S.S.S.S. X XoX+XoXS.F.M.M.n.c.u.q.7.:.-.-.-.:.0.y.v.M.B.'.oX_.W.S ! P g -       *.          ",
"                    h V g 4 g   ^.'.S.A.S.S. XoX+X+XOX XS.F.C.M.v.p.y.0.9.7.:.7.7.0.h.N.V.V.[._.W.F V g z C y >                 ",
"            : + 2 & g 4 1 1 4 s P.Y.[.S.S.'.'.oX$X+X+X XS.S.F.C.M.v.v.y.w.0.7.0.i.y.j.B.[.[.Y.P.V g g s 4 V   & 9 k             ",
"              3 3   4 N 4 2 6 2   3.P.).'.'.'.oXoXOX$X X'.S.S.S.F.M.M.v.v.y.e.e.h.j.V.E.).Q.  n h f s 7 V 3 7                   ",
"                : 3 3 & N   z l s & ! !.^.[.].oXoX$XoX'.'.S.S.S.A.F.F.F.F.N.j.j.N.B.E.Q.I.! & 2 A f 2 4 & 2 u 4                 ",
"                  4   : + Z 2 s s s f g P.!./.}.$X$XoX'.'.'. X X'.'.[.'.'.A.B.V.l.Y.P.L.D u y d s     + 2 4                     ",
"                    1 2 4 + V f 4 s g h y V  .!.(.`.}.]. XoXoXoXoX].].oXoX).^.Q.W.K.  4 s s V s d     : s a                     ",
"                      2 a 2 + 4   a   s f c y d ( L.!.W./.Q._.).^._.^.Q.W.P.K.  7 2 7 s s 7 g I X.& s s 4                       ",
"                        4 3 = O     z z v (   Z 4 % 3   g S ' S ! V   Z 4 = s 4 z W s 4 7 f   : 4 s s s                         ",
"                          3 = 2 3   2 z V   X     s 2 2 4 * + + + &   % :   s V d ( z : 7 s : 4 s                               ",
"                                2 : & <     #     a 2 4   e 6 2   3 : & *     $ & ; M   & 3 e 7 3                               ",
"                                  X < J < w       g s   : = * : :   & & * 4 2   q H       & 2                                   ",
"                                  X <       $   + #   :   3   4 2 4 : $   +           > M                                       ",
"                                      t   @.        & o O X       + X + * :     @ o.%.                                          ",
"                                              >         &   = : +     % & :       &.                                            ",
"                                                                                                                                "
};
