/* XPM */
static char *_[] = {
/* columns rows colors chars-per-pixel */
"64 64 212 2 ",
"   c None",
".  c #0E1814",
"X  c #141512",
"o  c #151D1B",
"O  c #181B18",
"+  c #17211E",
"@  c #21221E",
"#  c #2A231D",
"$  c #1B2523",
"%  c #1D2827",
"&  c #1E2B2A",
"*  c #192425",
"=  c #2C2924",
"-  c #232D2B",
";  c #262B28",
":  c #312B25",
">  c #24302E",
",  c #2A312E",
"<  c #33312B",
"1  c #3E352D",
"2  c #253333",
"3  c #2A3635",
"4  c #2C3B3C",
"5  c #293739",
"6  c #323D3D",
"7  c #383834",
"8  c #232F35",
"9  c #301D13",
"0  c #492519",
"q  c #483328",
"w  c #4B3930",
"e  c #663421",
"r  c #39413E",
"t  c #4B433A",
"y  c #55473B",
"u  c #53402F",
"i  c #684F38",
"p  c #2E3E40",
"a  c #323F40",
"s  c #323A4F",
"d  c #2E4143",
"f  c #334344",
"g  c #3A4544",
"h  c #344649",
"j  c #394749",
"k  c #36494D",
"l  c #3C4B4D",
"z  c #3D4847",
"x  c #364B51",
"c  c #3B4E52",
"v  c #3A4559",
"b  c #3E5055",
"n  c #3D535A",
"m  c #3F5863",
"M  c #3E4568",
"N  c #424D4D",
"B  c #484844",
"V  c #574C42",
"C  c #414F52",
"Z  c #40485E",
"A  c #435254",
"S  c #4A5555",
"D  c #43555B",
"F  c #4B5758",
"G  c #45585E",
"H  c #4C5A5D",
"J  c #545B5B",
"K  c #55514C",
"L  c #675949",
"P  c #635E54",
"I  c #766452",
"U  c #716451",
"Y  c #455B63",
"T  c #4B5D63",
"R  c #485B68",
"E  c #535E61",
"W  c #4C5778",
"Q  c #505A77",
"!  c #454C68",
"~  c #4D6066",
"^  c #4D636C",
"/  c #526165",
"(  c #53656B",
")  c #56686E",
"_  c #5B696D",
"`  c #5A6466",
"'  c #4C6474",
"]  c #4F6179",
"[  c #526673",
"{  c #556A73",
"}  c #5B6D74",
"|  c #5B6D78",
" . c #566B78",
".. c #5E727B",
"X. c #5E7076",
"o. c #636C6D",
"O. c #696B66",
"+. c #616E72",
"@. c #637175",
"#. c #63747A",
"$. c #6B797E",
"%. c #697477",
"&. c #756F64",
"*. c #81582D",
"=. c #9C6929",
"-. c #A86728",
";. c #AE6D27",
":. c #CF7F33",
">. c #BF903F",
",. c #DB9834",
"<. c #CE812F",
"1. c #D99D40",
"2. c #E1A945",
"3. c #3C3C9B",
"4. c #4C5285",
"5. c #575D90",
"6. c #5B6A86",
"7. c #5F7582",
"8. c #6B7C83",
"9. c #667987",
"0. c #717E83",
"q. c #68778E",
"w. c #4343A4",
"e. c #4647A8",
"r. c #4748A9",
"t. c #4A4BAC",
"y. c #4E4FB0",
"u. c #4F50B1",
"i. c #5353B4",
"p. c #5656B9",
"a. c #5857BA",
"s. c #5C5BBC",
"d. c #5857B7",
"f. c #5A5CA4",
"g. c #605FBF",
"h. c #5F61A7",
"j. c #6367A9",
"k. c #747EAB",
"l. c #6261BE",
"z. c #696BB6",
"x. c #747AB7",
"c. c #6E74AD",
"v. c #5F5EC0",
"b. c #605FC1",
"n. c #6463C4",
"m. c #6B6BC3",
"M. c #6766C9",
"N. c #6867CA",
"B. c #6B6BCC",
"V. c #6867C7",
"C. c #6F70C4",
"Z. c #7273C6",
"A. c #7171CE",
"S. c #7A7DC4",
"D. c #6E6ED1",
"F. c #7474D3",
"G. c #7979D4",
"H. c #7777D8",
"J. c #7C7CDB",
"K. c #7877D3",
"L. c #706FD1",
"P. c #807FDD",
"I. c #74838B",
"U. c #79858B",
"Y. c #7B8B94",
"T. c #778896",
"R. c #7F9099",
"E. c #6D8089",
"W. c #7B86A6",
"Q. c #7B84B4",
"!. c #7D81C8",
"~. c #83949B",
"^. c #808C94",
"/. c #8C9CA4",
"(. c #8795A5",
"). c #838BB9",
"_. c #8B93BD",
"`. c #8892B3",
"'. c #919BB7",
"]. c #808BA5",
"[. c #8186CA",
"{. c #9299C1",
"}. c #8181DE",
"|. c #8789D4",
" X c #8E91D3",
".X c #9497D2",
"XX c #A4A7D9",
"oX c #8484E2",
"OX c #8A8AE6",
"+X c #8C8DE9",
"@X c #8887E4",
"#X c #8F90EA",
"$X c #9394E6",
"%X c #9393EC",
"&X c #9C9CED",
"*X c #9999E6",
"=X c #9696F0",
"-X c #9B9CF1",
";X c #9FA0EB",
":X c #A3A4E7",
">X c #A3A3EF",
",X c #AAAAEE",
"<X c #AAABE6",
"1X c #B3B4EC",
"2X c #BABBEF",
"3X c #B7B8EC",
"4X c #A4A4F1",
"5X c #ABABF1",
"6X c #B4B4F0",
"7X c #BBBCF1",
"8X c #BFC0F1",
"9X c #C1C2F0",
/* pixels */
"                                                                                                                                ",
"                                                      _       *.,.i     6 }                                                     ",
"                                              .. .6.  ~ b B   <     V   F      .( I.                                            ",
"                                        9.   .      #.  0.      L     %.I.  $.#.    #.#.                                        ",
"                                  I.9.      #.E._ / g >   $     ,     %     o.8.I.7.( ) ^                                       ",
"                                        Y.8.          ( ( A j 6   N   Y [ ~   4 5 _ $.8.}                                       ",
"                          O.O.B  .  8.  J   T ..Y ..b b D p 4 $   % A Y J @.  ( ( c   k / } ..} ( N                             ",
"                            w K ( I.    [         ^   b     N   g A   ..[ n     @.8.      f U.  T                               ",
"                        <.      /   m } #.R   n }     5         %     -     A [ Y c c x #.  2 F /     -.                        ",
"                    `     q   O.  c ~ n ( ( F   $ % v W 5.j.Z.Z.Z.Z.z.5.4.! 5   A G T ~ / Y   f       0 -.L                     ",
"                          @ 4   ` ^    .T 2 $ s 4.l.V.B.B.F.H.H.H.H.H.H.F.B.n.f.M - g /   ' Y ' 9.    q     %.                  ",
"                            `   ( } ( 6 5 ! j.Z.B.N.n.n.B.B.F.H.H.H.}.H.F.Z.B.F.B.l.4.      ( ^ (.N   t                         ",
"              ..m   (         o n   % v z.Z.F.B.n.n.s.s.b.M.F.H.H.oXoXH.H.F.D.D.B.L.F.Z.W -     %       7 D [                   ",
"              (         '   n F   5 5.H.H.F.B.B.n.s.s.i.s.n.D.H.H.oXOXoXH.F.F.F.B.F.H.H.oXc.  F 8.  o.    0.                    ",
"            n   } #.f ~  . .  5 8 h.F.H.F.D.B.n.s.a.i.y.i.s.B.F.H.oXoXoXoXF.F.F.F.H.H.oXOXOX!.n D  .8.X.^     ~   9.            ",
"                }         ( 5 4 z.F.F.F.F.Z.B.n.s.u.t.t.i.s.n.F.H.}.oXoXoXH.H.H.H.H.oXOX%X%X$X|.Q     G T     Y.} ^             ",
"                k D b +.k f % z.F.Z.B.B.B.B.n.s.i.t.w.w.t.p.n.D.H.H.oXOXOXoXoXoXoXOXOX%X&X&X&X%X|.Y F   ~ ..' T 7.   .          ",
"            n       Y     5 j.H.F.Z.B.n.n.n.s.i.t.e.w.w.t.i.n.F.H.}.OXOXOXOXOXOXOXOX=X&X>X>X&X&X$X[.T F  .|     _ / ( 8.        ",
"        G     2 c G     % 4.H.F.B.B.n.s.i.i.i.t.e.w.3.3.t.p.M.F.H.H.oXOX%XOXOX%X%X-X-X&X>X>X4X>X&X$Xc.f ) R F T k   ( ^         ",
"        ~             r Z Z.F.F.B.V.l.i.t.t.e.t.w.w.w.w.t.s.N.F.H.}.oXOX%X%X%X=X%X-X-X&X>X,X5X>X>X*X*X6.A     J `               ",
"      b   ^   h T x g 2 z.F.F.B.n.s.i.t.w.3.3.w.w.w.w.w.t.s.B.F.H.H.oXOX=X=X=X%X=X-X-X&X>X>X5X5X,X:X:X.XD ( x k T 4 } (  .      ",
"      n T F     c F k 4.H.F.D.B.n.s.i.e.w.3.3.w.w.w.e.e.i.g.B.F.H.oXoXOX=X=X%X%X%X=X%X&X;X>X5X6X3X3X3X<X).      D Y T   F       ",
"      f T a h k c F f V.F.F.F.B.s.i.t.w.3.3.3.3.w.w.e.t.i.n.D.F.H.oXoXOX-X=XOXOXOX%X%X%X&X>X5X7X2X2X3X3X<X{ _ } / T c   G A     ",
"  U.&.r f     #.  A Q Z.F.Z.D.B.n.i.t.3.3.3.3.w.w.t.i.a.n.n.D.F.H.oXoXOX%X%XOXOXoXoXOXOX%X>X5X7X2X2X2X3X3XW.~ (   F             ",
"  F         / ( A c j.F.D.D.D.B.b.i.t.w.3.3.3.w.t.p.s.s.M.B.F.H.H.P.oXOXOXOXoXoXH.oXoXoX%X&X5X6X2X2X7X7X7XXXD / D #.      U o.  ",
"      = y 0.G   E Y Z.F.Z.B.B.B.n.s.i.w.w.3.w.t.i.v.n.B.B.F.F.H.!.H.oXoXoXoXH.H.H.H.}.oX%X&X4X6X2X2X9X7X7X3X|   D ( ~   I       ",
"  ,.  0 $     k G 6.Z.D.B.M.B.M.b.s.i.t.w.3.w.e.i.n.B.D.F.F.H.!.J.H.H.oXoXoXH.H.H.H.oXOX%X&X4X5X6X7X9X9X8X2XT./ Y k U.P     >.  ",
"  u = X 6 F   ( D j.F.B.B.M.M.n.n.s.p.u.t.w.w.t.i.b.B.F.H.H.H.oXoXoXoXoXoXoXoXoX}.oXOXOX%X%X;X5X6X2X9X2X7X2X{.F F }   F   e ,.  ",
"      L     2 T Y z.D.B.B.M.B.M.b.s.s.p.i.t.e.t.s.M.F.H.H.H.J.oXoXoXoXoXoXoXOXOXoXOXOXOXOX%X-X4X5X6X2X2X7X6XXXF ( c _ N     w   ",
"  V         ^  .R C.F.Z.F.B.B.B.n.l.s.a.s.a.i.d.s.B.F.H.oXH.H.OXOX%X%XOXOXOXOXOXOXOXOXOXOX%X%X&X>X,X6X6X6X3X,X(     ,     i y   ",
"    D k     k T Q H.H.F.F.F.F.B.M.b.s.s.s.s.s.s.s.M.D.F.H.H.oXOX%X=X=X=X=X%X%XOXOXOXoXoXoXoXOX%X&X>X5X5X6X6X,X7. .c k 4         ",
"D ^     k   4 Y ] H.H.H.F.F.D.B.B.n.s.s.s.s.s.l.s.n.B.F.H.H.oXOX%X-X;X-X-X-X%X%X@XoX}.H.H.}.oXOX%X&X>X,X5X,X,X9.( D   k   / 6   ",
"D Y   c n c A ^ [ H.H.H.F.D.B.n.v.s.p.p.a.s.s.b.n.M.B.B.F.H.H.oX%X4X>X4X4X-X%XOXoXoXH.H.H.H.oXOX#X%X;X4X5X,X<X6.F k } k p G G k ",
"      b D   Y ^ ' H.H.F.F.B.n.n.s.s.i.p.s.n.n.B.B.D.F.F.F.F.H.oX%X>X5X4X-X=X%X%XOXoXH.H.H.H.oXOXOX%X&X>X4X,X:Xq.T   ) k f n   c ",
"  ^ ^ k G G   A [ H.H.F.L.B.M.b.a.a.s.s.n.B.F.H.H.oXH.H.H.F.H.oXOX&X>X4X-X%X%XOXoXH.F.F.F.H.oXoXOX%X%X-X4X>X:X9.^ k Y h 4 D T   ",
"      f   ( ` G | !.!.F.Z.V.n.g.s.s.s.n.B.F.H.oXoXoXOXoXoXH.H.OXOX%X>X4X-X=X#XOXoXH.F.F.F.F.H.oXOX%X%X&X4X>X*X8.T D         k   ",
"  b F     ( D c 9.!.H.H.B.n.b.a.p.a.v.N.F.H.H.oXoXOXOXoXH.H.oXOX%X&X4X4X-X%XOX}.H.F.F.B.B.B.F.H.}.OXOX&X4X>X X} n b   h 4   k   ",
"      p       D   k.}.H.Z.n.v.s.s.n.N.D.H.oXoXOXOXOXOXoXoXoXOX%X&X&X>X-X=XOXH.F.B.M.n.n.n.n.M.D.F.H.oXOX%X&X).9.T }       T b   ",
"  D   f C   4 k A 6.}.H.F.B.N.M.B.D.F.oXOXOXOXOXOX%XOXoXoXOX=X-X>X>X-X-X%XoXF.N.n.b.s.s.s.s.b.M.B.F.H.oX%X$X)...( / G ~ b T ~   ",
"      k     g f k } [.}.H.H.F.H.H.oXoXOX%X%X%X%X&X-X%XOXOX%X-X4X>X&X&X%XoXH.B.n.a.i.p.i.i.i.p.s.n.B.F.H.OXOXI./ A D Y F T   c   ",
"    k D   g F F 4   x.OXOXOXOXOXOXOXOX%X=X&X&X>X4X4X-X%X%X=X-X-X-X=X#XOXH.F.N.s.t.e.w.w.w.t.y.i.s.n.B.F.}.[.#.D Y A F 4 F D     ",
"          F 4   f / q.$X%X%X%X%X%X%X%X%X-X>X>X5X5X5X-X%X=X%X=X=X%X%XoXH.F.B.n.s.t.w.3.3.3.w.w.y.s.n.B.F.H.Q...G / G (   F       ",
"      k r g f f f g 9.[.%X%X=X=X%X&X&X4X4X5X5X5X5X5X4X%X%X%X%X#XOXoXH.F.D.M.s.i.w.3.3.3.3.3.3.w.i.l.B.H.}.T.D b b n F D A k     ",
"        , 5 N g f f @.q.$X%X=X-X&X>X>X>X5X5X5X5X5X5X>X%XOXOXOXOXOXoXH.B.B.n.s.i.t.3.3.3.3.3.3.w.i.l.Z.H.Q.I.k   G / h           ",
"          q U o.%.F 5 8.).%X-X&X>X>X,X5X5X5X5X5X5X5X>X%XOXoXoXoXoX}.F.B.N.n.s.p.t.w.3.3.3.3.w.t.i.l.V.x.Y.k b F F z - 2 -       ",
"        :   # A   F     I. X&X&X>X,X5X5X4X>X>X,X>X5X>X%XOXoXH.H.oXH.F.B.B.n.g.s.i.t.t.w.w.w.e.i.s.V.Z.T._ c 0.J J L     k       ",
"        =.  0       6 C $.W.*X&X>X>X>X4X4X4X>X4X4X4X-X%XOXH.H.H.H.H.F.B.B.M.n.b.s.s.i.i.t.t.i.s.l.B.k.8.4 k 6 6 r < w , 5       ",
"          ;.      2 4 T k Y.).*X&X&X&X-X4X&X&X-X>X4X-X%XOXH.H.H.}.oXH.F.B.B.B.B.n.n.n.l.s.s.s.n.V.Q.Y.j k N O t <   -.          ",
"          u     $   4 } h A ~.`.$X$X%X&X-X%X%X%X&X-X%XOXoXH.H.H.oXOXoXH.F.D.B.B.B.B.B.V.n.n.V.B.Q.~./ T T c - V   q 1.          ",
"                $ A k D A 5 E /._.$X$X%X%X%XOX%X$X%XOXOXoXH.H.oXOXOXOX}.H.F.F.F.F.D.B.B.Z.Z.Z.)././ C A k D a = i @ I           ",
"                  $ A p > - f k R.`.$XOXOXOXoXOXOXOXOXoX}.H.oXoXOX%X%XOXoXH.H.F.F.F.F.Z.K.H.W.~.F N j j d D   - 1 r             ",
"                  2 g C 4       k 8.(. XOXoXoXOXoXoXOX}.H.H.oXOX%X%X%X$XOX}.H.F.F.F.H.H.!.].0.C       4 F   f k                 ",
"                - 3 2 - A   b x 6 5 @./._.}.oX}.oXoXoX}.H.H.oXOX#X%X$X#XOX}.H.H.K.H.H.).Y.@.  4 D k   4 % 2   5                 ",
"                    a 2 $ / 2 f d k f C Y./._. X}.OXoX}.}.oXoXOX%X%X$X$X#X}.}.}.S.k.Y.I.E a d g f     - 5   p 2                 ",
"                    > 4 4 o N k 5 f   c d   U./.'.{. X}.}.oXOX#X%X=X%X$X*X X_.(.~.U.F   k g k 4 k }     f                       ",
"                      2 f 5   r   f   f h b h z _ ^./.(.'.`._._.{.{.{.(.R.^.Y.+.g 2 f f f   k A o.%     4                       ",
"                        4     o   A D k G _ $.F 4 $ 5 g F F _ / / _ $.F F > N 4   ( f 4 6 k F         f                         ",
"                          5 % 5   - g k C @.  A   f f 5 5 %   $     ; $ 2 D N F   U.c   F k ;                                   ",
"                                2               d d 2 4   6       N   $ > 4 > %   O K B -   r 6 4                               ",
"                                      t , w = y 6 k g   % % $       $ $     > <   w   u   $   -                                 ",
"                                    = X e   @     .   5 5 - 5     6 3   >       < 9   # t o                                     ",
"                                      *.2.<.X   O 5 $ o           o   o -   + 1 @   :.                                          ",
"                                            @ , X .         %         * % - O < O ;.                                            ",
"                                                            o           .                                                       "
};
