/* XPM */
static char *grass[] = {
/* columns rows colors chars-per-pixel */
"64 63 160 2 ",
"   c #1E1B0E",
".  c #1E1E12",
"X  c #221D0E",
"o  c #211713",
"O  c #231E13",
"+  c #291F15",
"@  c #241E19",
"#  c #281D19",
"$  c #1F2510",
"%  c #21210E",
"&  c #2A230F",
"*  c #252214",
"=  c #2B2516",
"-  c #262A13",
";  c #2D2A16",
":  c #252319",
">  c #2B251A",
",  c #26281B",
"<  c #2D2A1B",
"1  c #312616",
"2  c #312C16",
"3  c #382F17",
"4  c #31261A",
"5  c #322C1B",
"6  c #392D1C",
"7  c #2E3014",
"8  c #2D311B",
"9  c #343216",
"0  c #393416",
"q  c #35321C",
"w  c #3A341D",
"e  c #363A1D",
"r  c #3C3A1D",
"t  c #2D2721",
"y  c #2E2A21",
"u  c #332D21",
"i  c #392E22",
"p  c #342F28",
"a  c #382C29",
"s  c #353222",
"d  c #3F3626",
"f  c #3F3725",
"g  c #3B3423",
"h  c #373927",
"j  c #363A22",
"k  c #3A3820",
"l  c #3B3921",
"z  c #383A23",
"x  c #3A3B22",
"c  c #3B3F21",
"v  c #3B3D23",
"b  c #3D3C23",
"n  c #3D3D21",
"m  c #3B3924",
"M  c #3B3825",
"N  c #3A3A24",
"B  c #383826",
"V  c #3C3824",
"C  c #3F3924",
"Z  c #3C3927",
"A  c #3F3826",
"S  c #3F3926",
"D  c #3C3B26",
"F  c #3C3B27",
"G  c #3B3D25",
"H  c #3D3D27",
"J  c #3C3D26",
"K  c #3F3D25",
"L  c #3C3A23",
"P  c #363329",
"I  c #3B3628",
"U  c #3B362B",
"Y  c #3B362A",
"T  c #373928",
"R  c #3F3E2C",
"E  c #3D3B2B",
"W  c #3A3330",
"Q  c #40371C",
"!  c #40391D",
"~  c #403B1F",
"^  c #433A1F",
"/  c #443D1D",
"(  c #423C1E",
")  c #403720",
"_  c #403623",
"`  c #423622",
"'  c #413624",
"]  c #403821",
"[  c #423D20",
"{  c #403A26",
"}  c #443B27",
"|  c #453B26",
" . c #403C25",
".. c #403C27",
"X. c #453E24",
"o. c #453D24",
"O. c #423C23",
"+. c #493E23",
"@. c #403429",
"#. c #433929",
"$. c #413B28",
"%. c #413D28",
"&. c #40392C",
"*. c #433A2C",
"=. c #453F2C",
"-. c #433C2B",
";. c #493928",
":. c #4A3C2A",
">. c #493F2B",
",. c #413F30",
"<. c #453E30",
"1. c #493C33",
"2. c #3F431C",
"3. c #3F4126",
"4. c #3B4224",
"5. c #43421E",
"6. c #48451E",
"7. c #414022",
"8. c #444123",
"9. c #474424",
"0. c #444224",
"q. c #4A4523",
"w. c #484325",
"e. c #4A4524",
"r. c #434824",
"t. c #4C4822",
"y. c #4C4925",
"u. c #4C4925",
"i. c #44402B",
"p. c #46402C",
"a. c #44432C",
"s. c #44422B",
"d. c #49402B",
"f. c #49422B",
"g. c #4F402F",
"h. c #4B442B",
"j. c #454929",
"k. c #4C492B",
"l. c #504625",
"z. c #524B26",
"x. c #52442D",
"c. c #51492D",
"v. c #4F502A",
"b. c #55532A",
"n. c #5B542D",
"m. c #434130",
"M. c #464130",
"N. c #454230",
"B. c #4B4432",
"V. c #4D4831",
"C. c #4D4E38",
"Z. c #524532",
"A. c #544931",
"S. c #524C34",
"D. c #534A3A",
"F. c #584D3B",
"G. c #555230",
"H. c #55513F",
"J. c #5B5438",
"K. c #6A604E",
/* pixels */
"O O * = = 5 q j k j k =.d.k k q * O : E k . * * : * * * * * q k 5 q k 7.w.=.S.d...< < = 5 7.= = q 5 k k 5 = 5 5 0 q k ..( k 5 0 ",
"O * * = < = < < q k k ..k M.k 0 < < 5 s.- $ . : * = O = < k e j u u k =.k j k =.k = q 5 ( w.5 5 5 = 5 5 5 < 4 = 1 0 6 0 q q ( ' ",
"O X * * q 5 5 = q k =.=.k d.d.k j = = k u : j y < < < = k < j < < = =.=.k j q r 0 5 < r r k r k 5 r ( q 5 4 6 4 :.0 5 0 6 ' ..k ",
"  * = = < q * 5 5 k E k k ....< < = : < 8 : = < = = = h u = j k k k k M.<.T k 3.k j r q r k ..k ( y.2 ( 0 5 5 5 Q q 5 5 k 0 0 k ",
"O = :.= = q 5 5 < = j s.k 7...5 < u j : : < = j = = j y O k < < * < u Y Y j q q = 5 q k = 5 ' q y.5 1 2 5 5 = ..5 1 0 5 = ' 0 5 ",
"= O O * * * = * < 5 k k 7.7.k j y u j , < * u k * * = u = Y k < = k y u k k j = 5 < * 5 q 5 0 5 q = 0 5 = = = = 5 5 4 5 =.k k a ",
"O * O = * = < = 0 < j E j k j y u < u : < : < = = @ 5 = = = = j 5 k = 5 7.5 r 5.0 5 = = 5 q q 5 0 5 & 2 = 0 5 = 4 q 5 k =.' k 4 ",
"% * * * = 5 5 5 2 = q j u q < u y < < < = < * < j y = q q < 2 q q < 5 5 0 0 q < q 0 j k q = = k Y 5 = 5 5 0 5 = O 3 = 0 0 q k = ",
"X = 5 0 0 = q q 2 5 q q k k y j = k Y y u j y u y j u u = r 0 k q =.5 q 5 5 < = = 9 * < j q q < < = < 5 = = q = O = 5 q 5 * = = ",
"* = = q = q 5 q 2 q q 5 j s.j 5 5 = j j k 5 < < 5 5 u < : 9 9 e 2 5 = 5 = = * 5 k k 0 * = < r 7.q * = < = 4 5 5 0 5 0 u = 5 = = ",
"= 2 = = 5 = 0 0 q 9 r 0 = q u k 5 < k 5 q 5 5 < 5 < r 5 5 2 q q = r q = = * < u u 5 ..0 ..q 9 * 5 * * * < < 5 r 0 = = = k = = k ",
"= = = = 0 q 5 < < 2 * < 8 q y y j P j u 5 5 < < q < q 5 = 9 5 r = 0 9 0 5 = 9 = = j < < k q < 5 9 k < 5 k 0 5 r 0 q q 4 4 = = = ",
"= = * = q 9 = = 0 < : j < 8 = < j j u k j = = r 0 q 5 < q 2 < < r = 5 = k k q < u k Y u j : u j 5 = u j < k q k q = = = * 5 5 = ",
"= = q q 0 = 5 < < q < q j = q j j Y j < 0 k 5 2 5 q 5 = r k j a 5 = = 5 = j u 2 5 k j u =.k < j u t W u 4 = * 5 = = = 5 5 = = k ",
"= = 2 0 0 < 5 q k q r k j j j P k j k 5 < 5 q = 0 q 9 < k 1.a Y P j j k = j u j u k E E j =.k k < P Y Y = 5 5 u Y = < 5 = 5 : 5 ",
"* 5 5 5 q 5 0 9 0 q k 8 q y j j k k q e r q 5 5 9 r 5 2 ..5 j =.Y =.P = q 5 k k k u = < j j q < j M.k =.' 5 : H.u u = = t j k 5 ",
"= = = = 5 0 0 5 k j 3.j < u =.=.E j j q k j = k < 7.e 9 q q q Y Y P u u < u = < 5 = y = = < 8 e q E M.B.Y u =.k u = 5 = = 5 j k ",
"O O = < 5 r 0 j q k 5 q < u E C.E =.u q 5 k < k 5 5 5 r r 5 < E T k k =.Y k j = =.y = < j j * k < E E c.u =.k < k y : u = : u j ",
"* < 5 q r r 7.q 5 < j y q j j j s.k k =.0 u k 5 q k 5 q ..0 q k E a B.u u < u k u y u y u = : h < < : <.=.0 < < u t = 5 = = * < ",
"2 5 q 0 q ..k 5 * : = u j k P h j k k < k M.u j k 8 < e k E k j k Y q 5 u < t u u t y y y t @ = y y : t u k q k = k 5 5 u = 5 < ",
"q 5 = * 5 9 0 < y u = u j =.E y = 5 j k E j E Y j k < < j P E E Y Y P < 5 2 5 = u y a P y t t k < = : W y j k = 5 0 < 5 0 = j 0 ",
"q 5 < = < q = < u < u k k P j j j j < 8 y u E u k j j < h j Y Y j = = u < q = u = u t k j u = = = : = * = : j 5 5 5 5 < 5 = = 0 ",
"= = 2 5 q 5 < 7...k q Y k j j y j k = j k k u t k k E q = r k E q k = O = k q 5 k j 5 = 6 k = = < = = < = = < 5 = 0 < * 5 k 5 5 ",
"9   = r k q 5 q r * < < u =.k < = k E =.k 5 u = j q q q y j @.j j k 5 5 = = < < = @ = = 5 5 5 k k = 5 5 r = 5 5 q = 5 2 0 0 k : ",
"q = = * q = 5 < u ..k k < = u < < Y j j u = 5 j 5 q r 7.j u k = < q k 0 5 5 k = = = u # = O * 5 0 q = * < 6 5 5 5 = = = 2 0 u 5 ",
"= = 2 5 q 5 < q 5 < < 5 k j u < < y R P W u < j j q q u =.5 q r = r 2 0 0 < 5 5 y u t = = = < k 5 = 0 5 < 0 u u u u = 0 < = u u ",
"9 = 2 < 5 k 5 5 k = = = < q 5 j < : u P j P y E q y E j j = 5 9 e q 5 q < = = k k k = < = = O y y u 5 u = t u O a 5 = 5 5 0 5 =.",
"q = 2 = k 0 k k 5 * = 9 < * q = < < < y = j j k k q u j k < k.< 5 < < = q < 5 5 ( 0 5 0 k < = = P E u 4 4 4 = = = j = 0 6 = 5 k ",
"< k k q < 0 0 = 5 k = - * * = = = * u y j k j k k j j j j < k h u k 2 5 2 q * = 5 5 0 c.k k a 5 = = < a 5 5 u : = = = 5 a u 5 k ",
"* = 5 q j q 5 = 5 =...5 %   * O * = ' j q j j = < h k q < k u < u = 0 = = = < = 5 = O = = 5 = 5 y @ = # 5 5 = = u = u u u a k :.",
"* * < < q < = = = = k * * O = < < q q q j k k 5 q k 5 k < q k j 5 = 0 ..= = 5 5 < u O * = + = = O 0 = @ 2 4 = 4 a u 5 6 5 ' 5 ' ",
"= = = * q < 5 * = O < = O O * q 5 5 = < q k q 0 k j q q 5.q 5 9 8 q 5 q 5 = q 6 = a # q 5 = = * = q = u = 6 < = = = 5 5 6 1 6 k ",
"< = = = = = = 5 < = = O = = = 2 q u 5 0 5 5 = = < k k q 5.2 5 ( 9 2 5 5 5 = q 5 0 = O O = = = = = = = k k = 5 a 4 a 6 6 k k 0 = ",
"* =.< 0 5 * * = < 2 = 5 5 < a ..5 k 0 0 0 q k 5 k q k k ..q k E r q 0 0 5 = * = = 5 O q 5 = 5 = 0 6 2 5 u 0 u 4 4 4 u 5 k u k 4 ",
"* Z.Z.k < * * = < < 5 k ..k k =.u k q k = k k ..= 5 5 q d...d.k j 5 k q 0 q = 5 = 5 4 = 5 5 2 = 0 5 5 6 k 5 5 5 6 6 6 k a a 5 5 ",
"% 5 5 = < * * 5 k =...=.c.....=.5 u k ..5 5 Q r 0 0 5 0 =.w.d.k u ' < 5 = 2 = O = O . = 7.q 5 = = = < 5 5 5 4 a = 6 ' ' < O = = ",
"* = * * % = = 5 k j =.F.:.c.c.d.k < = 5 0 0 2 5 0 ( k r ( ..5 ....Y d.q 0 q 0 O = 1 = = q r 4 1 = = = + 6 5 5 = k 5 a 6 + O = O ",
"*     % = = = j 0 = s.:.=.=...k k 0 Y 0 < ( 0 q = 5 z.7.w.0 k ..j d.0 k 0 0 =.k j 2 2 0 7.q 6 = 6 0 = O 4 6 + = 5 0 5 5 = = = j ",
"* * . * = 2 9 q 5 5 j 7.s.d.k ' =.k =.=.@.u 0 = k ..k.k.7.( 0 k ..q 0 0 k S.s.s.5 u k u < = = Q l.= O = = 4 5 = = = < 0 = 2 r k ",
"    * X = * 0 9 ....Y =.7...=.k B.=.=.k =.k = 0 2 7.r r 0 0 0 0 +...0 k k ......0 ' k.k...w.5 5 7.q = 5 5 < 4 k u 0 5 1 = 1 = 5 ",
"=   X = = r 5 q 0 k ..5 r ( 7.d.B.F.d.j u k k 5 9 e 5.k k 7.k ..5...( y.r k w...0 ..w.k 5 w...0 5 u 5 4 5 0 = k = = 5 5 6 = = 2 ",
"9 0 = = 2 5 5 5 5 ..+.......k.B.B.F.B.=.M.k 0 k k q 0 k w.0 k =.j 7.c.w.0 5 k q ..k.w.Q ..w.0 1 = 5 +.' 5 k = = k 5 = 5 = = < ..",
"9 9 0 2 5 5 u k 0 0 k 5 0 k.0 =.F.=.S.K.F...0 k q 5 k k k k u M.S.G.s.' 0 d.d.k.s...2 ..0 5 5 0 = 0 5 k u 5 4 O o 4 + 6 0 < u k ",
"7 = r 5 5 ' Z.7.....( 5 q 0 k F.d.....S.S.k y.k.k k 0 ..q k E u k B.d.w.k 7.w.k k 7...5 = 5 < k 6 ( u 4 = = 4 # 4 + o O = 5 j a ",
"= 9 2 q = u u = k 0 9 q k q < F.B...k k s.k.b...r r r r 5 j < j k.V.k k =.c.7.5 5 * j y u u u k q q 0 = 5 4 # k k a = @ @ 6 5 w.",
"< < 5 5 = = = 2 9 0 0 5 k ..q ..0 ..=.=.E 7.b.r.< q q k 5 k 7.y.k ..k k <.=.y.5 4 5 a =.F.<.E = 5 5 1 0 Q a u =.=.k =.= 5 = + * ",
"0 q B.k 5 * 5 0 9 q q ..j 5 5 6 k 0 k.k.S.k u < 0 < 5 5 7.u 7.r k d.k j k k 5 k 7.q < k u j Y 5 = = 5 0 7.a a 4 ..=.' 0 w.5 = < ",
"= 9 q 5 < = q ..0 2 u <.k k 0 5 k j k k.M.5 j ..( q 0 0 k =.0 q q k k 0 k =.q 0 r r < 5 5 Y B.k 5 5 k 2 7.0 ..6 q 0 +.....k 5 ..",
"0 * * * 5 5 0 ..k 5 u j q k k ..7.0 k 7.k B.= k ..k y.r k =.....5 k 7.0 ..k q r w...q = 5 5 k = = ' 6 0 2 0 k =.k 6 6 5 2 k k = ",
"q < j = = 5 0 r 5.r u q 0 ..k q 0 w...q ..k 5 5 k 5 = w...k.2 9 0 d.5 j k 5 5 7.k 5 k 5 5 5 q r k < 2 5 5 = = = 0 6 :.5 0 r ( 6.",
"= = 5 = = 5 2 r ( k ..0 = k q e s.7.q 0 q 0 0 5.5...q ..y.w.k =.w.r w.7.w.n.y.q 5 5 u 0 q 5 5 * < 2 2 7 9 5 O * 1 5 0 0 5 = q 5 ",
"< < 0 5 q = 0 q = r ..7.q 5 3.e q r.r.k l.k 0 r r 5.0 r G.r.k E d.7.j j k 0 w.k q 0 r k ..0 = = * ( = 9 ( 2 2 q ..5 k k 0 0 ( ' ",
"< = 5 0 0 * 6 5 r q 0 0 k 0 r e k < 3.s.k 5 k G.w.0 0 r 0 q ..q 5 k u u < 5 q k = k < j = q r 5 r 5 = q = 2 5 5 = 0 ..k q 2 ....",
"E = 5 q = * = k 0 = q q 0 r 2 * j < k r.k = = 5 =.q k q k < = Y < 5 u k u = u k =.5 5 k 0 5 5 ..7.0 q * = * 5 q 5 5 * < < 5 0 ..",
"s.E < < u = 5 = < 0 = 5 q r < < < E j h d.B.k q =.5 5 0 q w.5 = k k Y = j k < u k B.' k 0 k = 0 5 y.r 9 5 k ' 6 0 2 = 9 q < 5 0 ",
"k q j k k u : 5 q = 2 5 5 q 0 < j E q h k k s.5 j k 5 7.0 r 0 r q k k k = u u 5 u t = q < < 5 j < ..q q 5 0 0 = 5 q = = < < q k ",
"- 8 5 u = O : 5 = = = = 0 * r q q j k q E =.k k u u u 5 ..5 ( 5 ( ' a < u u u k = = 5 5 * 0 ..u q q < q 7.0 ( q 5 k ..k 5 2 ..d.",
", u < < = = = < = < q < 0 5 k r r k =.j <.k j u y u u 5 k = = q q q 5 = u u j 4 = = j 5 5 = q 4 = = q ..0 0 w...k 0 0 k y.5 2 k ",
"E y < = = = k 5 q q = = 5 5 < q q q k q k u k j < u ..5 5 5 0 k q = 5 < = = a u < = q q 5 = 0 k r = * * = 0 w.v.d.< s.k k q q k.",
"j E k 5 < 5 = 5 k = q k 5 < < = 5 e q k 5 5 k 5 q q 5 5 k 0 6 5 5 q k k 5 O = j = = < q r = j * = = < 5 = 2 0 ..7.s.d.Z.u k q k ",
"j < < < = < r y.5 = q q 0 5 k Y 0 9 = 5 k u ' q q k 5 k k k 6 = 5 ..r k k 5 < q k 0 q q 8 = 5 < = = 0 < 5 5 q 0 7.k 7.k.E < q k ",
"5 = < < j k q j q 5 j r ....u Y j 0 q 5 = d.0 k 5 q 5 k k ' ..0 = k k k =.0 k 5 5 = 5 9 2 9 q = = = 5 = * < q < 5 ..q k.c.d.=.q ",
"= = u j E j < k * 5 k 7...c.q k =.j u 5 j k k 5 5 5 k ' q u ..q 5 0 0 5 0 k k =.5 = = = 5 2 = = = * O = 5 5 2 q k = 5 k 7.s.J.=."
};
