/* XPM */
static char *gravel[] = {
/* columns rows colors chars-per-pixel */
"64 64 167 2 ",
"   c #2D2D15",
".  c #2F271E",
"X  c #2D2C1C",
"o  c #302D14",
"O  c #312D1E",
"+  c #2E3113",
"@  c #2E331A",
"#  c #323414",
"$  c #33331C",
"%  c #38361E",
"&  c #35391B",
"*  c #39391D",
"=  c #352D24",
"-  c #392F25",
";  c #362E29",
":  c #392F28",
">  c #353224",
",  c #3B3326",
"<  c #373823",
"1  c #3C3925",
"2  c #37332A",
"3  c #3D342A",
"4  c #3E392B",
"5  c #3F3730",
"6  c #3F3933",
"7  c #403527",
"8  c #423A26",
"9  c #42362A",
"0  c #443A2C",
"q  c #493C2D",
"w  c #413731",
"e  c #453B32",
"r  c #4A3E33",
"t  c #463E39",
"y  c #4B3F38",
"u  c #3F4025",
"i  c #45422C",
"p  c #4C412E",
"a  c #464034",
"s  c #4C4135",
"d  c #46413B",
"f  c #4D433A",
"g  c #4E483E",
"h  c #504137",
"j  c #504337",
"k  c #514235",
"l  c #504238",
"z  c #504339",
"x  c #524339",
"c  c #534438",
"v  c #524538",
"b  c #51473B",
"n  c #51463B",
"m  c #52473B",
"M  c #50453D",
"N  c #50463D",
"B  c #51473D",
"V  c #52463D",
"C  c #50473F",
"Z  c #51473E",
"A  c #54473D",
"S  c #52463C",
"D  c #5A473A",
"F  c #53493D",
"G  c #53493E",
"H  c #52483F",
"J  c #54483C",
"K  c #564A3F",
"L  c #54483F",
"P  c #54493D",
"I  c #584A3C",
"U  c #584B3F",
"Y  c #5B4D3F",
"T  c #5A4B3E",
"R  c #624B3D",
"E  c #4E4641",
"W  c #4C4840",
"Q  c #4D4942",
"!  c #4E4842",
"~  c #544641",
"^  c #534741",
"/  c #524940",
"(  c #534B40",
")  c #534B42",
"_  c #544940",
"`  c #544A40",
"'  c #544942",
"]  c #554A43",
"[  c #554D42",
"{  c #574C43",
"}  c #544B44",
"|  c #554F45",
" . c #564E45",
".. c #574E45",
"X. c #544E46",
"o. c #564F46",
"O. c #554A42",
"+. c #584B40",
"@. c #584D41",
"#. c #584C43",
"$. c #594F43",
"%. c #5A4E44",
"&. c #5F4F44",
"*. c #5A4D44",
"=. c #574F48",
"-. c #564D49",
";. c #5A4E49",
":. c #575045",
">. c #5B5046",
",. c #5D5046",
"<. c #5C5046",
"1. c #5F5347",
"2. c #5C5146",
"3. c #575049",
"4. c #595149",
"5. c #5C5048",
"6. c #5C5248",
"7. c #5E524A",
"8. c #5E5448",
"9. c #5C554B",
"0. c #5D554C",
"q. c #5D524B",
"w. c #5F584F",
"e. c #555052",
"r. c #5E5452",
"t. c #5F5852",
"y. c #624F40",
"u. c #635244",
"i. c #685347",
"p. c #63564B",
"a. c #64574B",
"s. c #62564D",
"d. c #62544C",
"f. c #68554B",
"g. c #665A4F",
"h. c #66594E",
"j. c #6B584A",
"k. c #68594E",
"l. c #695A4E",
"z. c #635751",
"x. c #6A5750",
"c. c #625951",
"v. c #665B51",
"b. c #665F57",
"n. c #655954",
"m. c #6E5E51",
"M. c #6A5C54",
"N. c #665C59",
"B. c #6B5E5A",
"V. c #6C6157",
"C. c #6D615D",
"Z. c #726052",
"A. c #71635C",
"S. c #79685D",
"D. c #6E6261",
"F. c #746662",
"G. c #716A60",
"H. c #766963",
"J. c #756A66",
"K. c #7A6C66",
"L. c #796B68",
"P. c #7E736C",
"I. c #806E65",
"U. c #83726C",
"Y. c #89796F",
"T. c #867977",
"R. c #887871",
/* pixels */
"a _ s a Z &.w , 0 w 3 w ,.k.Z 3 3 3 n., 3 , 4 0 s Z w w 2 a 9 ; > , ; 0 > 3 7 , 0 0 9 0 a 0 w _ n.w Z Z g w 3 3 , ; , 0 6 ; ; , ",
"Z a m.k.Z 5.=.3 Z 3 3 0 &.g.0 a a 3 5.3 > $ . w a > 4 s a s w 4 3 , ; > 8 0 9 > , 3 ,.a a w g _ n.:.a w g a 0 w 3 - 3 0 , , , , ",
"Z a &._ ,.5.H.s s 0 Z Y s 0 0 0 a a _ ; ; 3 > _ w 4 > > > w 0 0 4 > 0 s Z s 9 0 9 , w L &._ 5._ :.a a :.w ,.w a 0 0 , , 9 , , 8 ",
"Z 5.5.&.,.s.L _ 5.s a L s s s 0 0 0 w 3 ; a w w 4 4 , > 3 ^ 9 0 3 , > , 0 0 , 0 0 s 0 g g _ a a ! H._ _ a s a w > > 3 3 ; , > 7 ",
"_ _ Z L g.s.L a Z Z j s Z Z q 0 w 3 _ 5 9 3 3 0 , w 0 w , 0 j e 0 3 , 3 9 > 9 , 0 9 3 3 Z _ e L ! V._ a L &.&.e , 9 0 , 9 s 3 > ",
"L s a a _ u.Z a m.s Z 0 s e 0 0 0 e a w e 0 3 e 3 a a 4 0 0 e e 9 9 > 3 q 3 0 w 0 e 0 0 0 q 3 0 _ a a a &._ Z 0 3 3 w 9 , , 3 0 ",
"s.5.m.Z a m.s._ Z 3 4 0 0 q Z e w 9 s w 0 w 0 _ 0 w q , 3 3 w a 3 9 w a 0 0 L 3 3 3 0 q 0 Y > 4 s _ s._ a _ 5., 9 e w 9 3 q 3 9 ",
"3 w a &.s &.5.5.k.3 , q q 9 q 0 0 w w e w 5.0 w 0 0 w 9 3 3 9 , q 0 0 0 0 0 9 0 e 3 3 0 9 0 3 0 0 w 0 a a 0 w 9 q s e 3 4 0 0 9 ",
"> a m.e e m.;.y j 3 , Z e q q e 9 s.a e s 0 w e e 0 0 q _ 9 3 3 3 9 q , 3 , 3 e 0 L 0 0 0 9 7 s e 0 s 0 s 9 0 e q s , 0 L e t.0 ",
"4 . 5.Z s y 5.;.Z 0 9 w e 9 q 0 a &.w e &.Z 0 Z w 4 3 9 e 3 3 9 0 9 7 3 , 3 3 3 4 a > 0 7 4 9 9 3 0 w q q , 0 , 0 , L s a w w 9 ",
"w $ w a Z Z Z &.j q 0 3 e 0 q s e w 3 a _ 0 e Z 4 4 4 9 0 q 9 9 0 q 9 7 , , , 3 9 0 0 9 q 0 0 q 0 0 a e e 0 3 0 0 0 0 L L L 5.a ",
"3 e 0 w Z &.Z &.q q 0 3 q q e q e w 3 0 s s 0 0 3 4 3 , , q 9 q 0 9 9 0 7 3 3 9 0 0 9 0 9 0 q q 3 0 a w s 0 w 3 9 0 p s L m.5.a ",
"=.n._ ;.^ _ Z s.D q q 0 0 0 s w s q a s e w q 0 3 0 4 0 , 9 3 , 9 0 0 0 9 4 0 s 0 0 s 9 9 , s 0 3 0 s 9 q 0 0 Z 0 9 4 s ,.,.5.,.",
"N.A.0 L _ ^ &.&.j _ e q 3 9 q e s w e a a w s e q e 3 a w a w , , 0 q 0 0 $ $ 4 9 4 e q 3 9 w w 3 4 0 ,.s s 0 0 0 s 0 a a s L 0 ",
"z._ 0 s Z &.&.e q e q 0 9 j Z Z L &.e s Z 0 q e s Z s a a , 9 9 0 , Z 3 1 $ o > 3 s 3 0 e 0 3 0 0 L w a 9 7 0 s , 9 3 0 s e a a ",
"3 9 0 3 3 e q q q q 9 q 9 Z Z s H.e 0 s 0 q q w &.&.w e 4 w 9 9 7 0 0 9 $   $ $ w Z.3 0 L w 0 s a a s , 3 0 3 0 9 e 9 0 s 9 s a ",
"; Z 3 9 9 0 0 q 9 q e Z e L , 3 5.e s q p p 9 w L _ Y 9 0 q s q 0 q 9 0 O # > , e &.a 4 s s 0 s w 3 3 3 0 0 L 0 3 9 0 q q m._ Z ",
"3 ;.e 0 0 q q e 0 9 e e 0 a R u.a 0 q e s q 3 e e a Z q a w w q 0 q 9 s , $ , n.w a w Z Z 4 0 0 s q 9 q 0 3 0 - w ; 4 0 9 s ,.5.",
"3 e q q q e q q 9 3 Z Z _ Z j i.e e Z q 0 e w &.s A.A._ _ 5.z.Z q q 9 s a w > 3 0 3 3 w s 0 a 0 , 3 9 0 0 , 3 0 Z 3 s 0 s s a Z ",
"w 9 0 q q 7 0 9 3 9 a a a a e &.w L e L w Z s y 0 L L Z w 0 w e a s q a 9 9 0 9 a 3 0 n., , 3 > q 0 9 9 , 0 > 0 3 &.4 9 s Z g.,.",
"e q 9 0 e e t 5.9 &.m.m._ m.L e Z s 0 j ;.Z e e e ,.0 _ 0 w L a 0 _ e a e 3 0 0 3 w 3 s 0 9 0 3 , 0 9 3 3 9 , 3 , 3 3 0 e a 3 4 ",
"L q q 9 ^ n.U.,.q q _ N.5.5.a e a 1 , s _ _ a _ _ Z 5.C.Z Z j Z e s L e q e 0 q e a ; 0 , 0 0 , q 0 q 9 0 8 , 9 9 9 3 , a Z 9 s ",
"9 q 0 e z.n.Z 9 w 3 w e ! w w 0 e 0 e _ 5.Z e e w e &._ &.e _ a e a s.a e s Z 0 s a s 9 a , 9 9 0 9 7 3 9 ; > 3 9 q 0 s , > 4 w ",
"0 0 q 0 ! w 9 3 a e w w 3 3 w 3 e Y &.s &._ L 0 s Z &.&.s.Z 9 0 ; ; N.&.L Z Z e 0 L L &.e , 9 , , 3 0 0 9 9 > 4 Z 9 3 s O   . > ",
"9 9 3 9 a ;.5.^ w z.s.a w 3 ; 0 L u.&.5.Z Z 0 e L w Z Z &.L s.9 ; 3 s.a e L &.Z L 0 _ 0 , e a e , , 3 3 9 9   + > , 3 3 , . $ > ",
"9 q q m.9 _ z.n.y N.n.a a ; a 3 3 e w k.Z n.w e s Z ,._ &.e s w 0 5.s., e Z Z L j j w > > w , 7 9 0 e 3 ; , $ $ 0 $ > > > O @ > ",
"q q 9 5.q 0 w &.a E 5.Z a ; w w 6 a &.&.a 5.w a s 5.a s e s s 1 1 , 0 ; ; s s Z e 0 , 3 > 0 9 , 3 9 s ; > ; , > 3 , > > w , , 1 ",
"0 0 q Z q e ^ &.n.s.;.N._ 3 w Z w e e 5.5._ e L Z e w p 0 1 * $ # + + < 0 Z e 0 a , 4 , 4 q 9 Z 0 0 s ; $ > 9 e 0 9 9 , w 3 0 > ",
"9 0 9 q q s 0 e m._ 3 r._ _ e ^ y 5.k.s.a s Z _ Z 0 0 1 1 1 1 8 # # + $ 8 0 0 , w 0 9 3 0 0 e 0 , 0 Z ; O 1 0 7 9 s , , _ ; 7 > ",
"7 , 9 e 0 e 0 Z ^ a w Z Z _ _ Z a _ ,.3 w s 3 9 0 < 1 * 1 p q , 8 * 1 % * , 0 e s e q 9 0 9 e , 3 0 e . O 3 5.0 9 - ; 4 3 > 3 3 ",
"$   , 0 q 0 &.w q L 3 &.a a 5.Z _ _ w s 4 , $ , e i * $ q q , , , 0 0 1 * 1 0 3 3 0 0 Z e 9 0 9 3 , ; > > > a 5., 0 0 0 , , 0 3 ",
"o   , 9 q e _ 0 j _ 9 &.&.&.N._ e Z Z a 4 > $ 1 > * * 1 , 0 9 7 0 , , 8 u 1 0 0 , 0 q 0 j 9 , , s 0 > , , 3 7 , , , 0 , , 7 , , ",
"o . 9 e 0 Z j 0 s e e a _ e 5.e 0 9 w Z e 5.$ + @ 1 * $ , , 9 7 9 , > , $ , 0 9 3 0 s 0 9 0 0 3 0 a , 3 3 3 3 , 0 3 w 4 , , 9 , ",
". ; s.Y.j e q 0 9 9 e a &.e z._ Z 9 Z a Z _ * # * * 1 > 7 ; , , , , 7 , > 4 , 9 , 0 0 9 3 0 w 9 s w , > 4 s e 3 q , _ 5.w 0 3 3 ",
", 9 n.&.9 w _ Z Z 9 e e s e &.A.g.e q s q 1 # * # $ * 9 3 9 7 , 7 q 9 - $ > , , 0 q 0 s 0 w a e _ &.e 9 a Z e a - O > ; , 0 Z w ",
"q 0 0 9 e 5.w A.F.w e Z &.5.e _ 0 Z 9 q 0 1 # # # * * 7 9 9 , 9 9 7 9 7 > , , , 3 0 _ ; 9 e 3 L _ 3 w w , O ; 3 9 , > 3 0 > 0 3 ",
"q 9 9 q e e w Z ^ &.e _ H.&.Z D q w 0 q 1 1 * * $ 1 , , , , 3 3 0 q 0 0 - , , , w a a 3 w Z 0 &.: 3 w n.3 ; 0 3 , , 1 7 , 3 q 0 ",
"q q e e 9 a I.Z ;.^ z.Z a Z Z j q 9 q 0 1 $ , , , , > > , , w , , q 7 q 7 , > , 0 _ Z w s.Z Z e Z 9 3 3 , 3 9 3 0 q 0 0 3 0 a q ",
"3 e e 0 s Z u.Z Z _ s.e Z ^ s._ Z a 0 s 0 , % 1 i > > , ; - 3 3 , 9 9 9 7 9 > $ e &.&.0 9 3 w &.Y 9 3 0 9 q 0 e Z 3 p 0 4 0 Z q ",
"e 3 9 e w s.w n.C.T.A.a e a =.e e e e e , 1 $ , , , , 7 , ; ; - ; , 9 q 0 , > $ 0 e 5.e Z w 0 w Z a e 9 0 9 q a 0 s s w w 0 0 Z ",
"e 0 9 w n._ C.U.A.,.Z w a s.y ;.;.&.Z 0 3 , % , , , , - , , , 3 , 7 9 q q 0 > 1 0 e 5.y w 5 a w L P.V.e 9 0 3 0 w s 0 , e 0 e Z ",
"&.e s e e w C.F.a Z a a _ &.;.m.F.K._ 3 - , 0 > , , 9 , 9 3 , 9 q q 9 q e a 3 0 j a 5.a s.9 Z C.e 5.H.n.a 3 w 0 L &.3 , 5.9 e e ",
"e Z 3 9 q w w y s.&._ a n.^ n.e w _ 0 > , , - , , 9 7 , ; , , 9 0 q q q 0 e 4 , _ ^ _ a s w e _ 9 3 a 3 r.3 w Z e 3 0 j s.9 e w ",
"q Z 0 0 7 e e e e &.s.&.&._ _ &.4 3 3 4 4 9 0 0 , 3 9 , 3 , 7 - 9 0 0 0 0 , 0 w w 5._ _ 5.&.; _ ^ ; , , 3 ; 9 3 > 0 s a Z a q s ",
"e j 0 3 3 9 3 ; w e s w s 9 y _ s 0 s.3 L e , 4 , 0 0 3 9 0 0 0 0 0 L q 9 3 w e a a e &.U.K.3 w a 3 q e q 0 9 3 3 i w 0 , L Z L ",
"e q q 9 e e 0 ; a a a Z w n.&.a Z j p e a s 0 0 0 , 9 , 3 0 0 0 Z q e Z 0 q Z 0 E 3 w _ m.R.S.Z 9 > Z 9 > > 0 0 9 L 3 3 2 4 L s.",
"9 0 s 0 =.^ 9 e a N._ y.a Z Z 0 0 e s 0 w A.Z e 3 3 0 1 a w 3 w s 3 e e 9 0 0 ; y 9 Z 3 w 5.A.s.3 5.&.0 3 4 w 3 1 1 &.e 3 a _ ,.",
"3 e 3 a r.a q 3 3 a 5.Z a a s s 0 1 w w e m.L w , 0 q < s N.3 , 8 9 ^ 3 w e e q 3 w a _ _ 3 3 3 =.5.&.j a s w 4 3 3 ,.9 3 s _ &.",
"y 9 e 0 r.n.9 ; 3 C.n.Z n.Z L L s 0 0 e 0 Z a 0 0 < 0 0 _ L.9 9 0 0 5.e 0 q e Z e r.a w 3 9 _ t E a 9 9 w &.3 w a 9 3 w 4 w L L ",
"C.^ w 3 w w , ; 5 F.n.w Z e Z Z Z Z w e s g.Y w , a ,.a r.n.5.s e 0 _ 0 0 Z Z a a 9 w a ; 6 w =.r.;.n.e s.k., 4 9 - 0 w s s _ &.",
"3 w 0 0 , 6 _ 3 ; a 0 a Y s Z i.q Z 9 w w &.L a 0 3 L 5._ D.5., e w k.0 e 9 a 3 3 w 0 _ w ; 5.; . ; x.m._ s 0 s.9 3 0 a a e &.&.",
"> Z ,.e q j Y e w e Z a &.j e Z 9 0 0 e e &.a &.e 0 0 Z w n.3 0 0 w m.w 3 0 e 0 , 0 3 Z _ w 9 - ; w e _ 9 3 w L 0 0 s n.y Z Z ;.",
"> , 0 9 7 q s 0 _ 5.s 0 Z Y j w 3 0 Z Z 0 0 3 m.5., 3 0 9 s e s a w H.e w e s 9 3 s e &.w ; a a . _ a Z w a 3 e w s _ 9 , 9 e e ",
"q ; 9 &.a ; s Y _ L , > 0 0 e e 9 1 , 9 e 9 3 s.e e 3 3 6 e e a a L Z w 9 9 e 0 , e e e ; > 0 j ; d r.3 d r.y N.s._ _ 3 9 a &.Z ",
"e 3 3 0 e 0 e , e j p p q 0 s 9 3 3 3 3 q s 3 _ e 0 e > 2 5._ 5._ ;.N.z.; N.e 9 0 j q 0 O 1 , 0 3 , =.E w z.a a a w 3 3 0 Z a Z ",
"e e w ; 9 3 0 , 0 9 0 _ Z 0 , 8 _ m.s , , e s.s.e 0 3 w e Z _ ,.e Z H.;.; ^ 3 3 , e 0 : 3 0 q 0 0 9 0 _ 9 5.3 ; e 3 , e n.&.;.0 ",
"H.&.0 3 0 9 0 0 &.0 q s 5.s 0 0 s.Z q 9 , e j _ L a _ Z e _ &.s a 3 a ; 3 ^ 3 3 0 , > , 3 0 j s 0 9 3 3 3 3 . 3 e 3 4 9 5.w Z 9 ",
"K.U.z.a q 0 0 g.e 0 q 0 w 0 0 Z &.9 e Z 4 0 q &.Z a F.a j j 0 > 0 w ; 3 z.s.w 3 3 3 9 9 3 9 0 e q q a > , w 3 3 , Z 0 9 w 3 e , ",
"C.P.m.a 0 0 0 Y 4 0 0 q 0 w Y L w _ _ N.C.Z 0 j 7 - N.5.&.s a 8 0 3 ; E F.3 5.q 9 9 3 3 3 4 w w 0 q s 0 ; 0 4 ; , E w s w 0 s n.",
"^ &.3 3 9 9 Z L s s Y q L 0 e z.F.n.m.K.F.w 0 , O w w &.,.q 7 q 3 3 3 n.F.3 z.q q 9 , 3 w y w s _ a s - ; _ C.- 3 3 3 s 9 3 s N.",
"e.w a 0 q e Z L 0 w ,.s &.s s s 3 0 0 , O 9 0 1 $ a e 0 s s s q w 0 ; 3 _ t m.e _ - 3 9 A.w 0 s &.Z 3 3 9 s.0 3 9 a 0 q 3 e 0 ;.",
"C.3 s 0 j s ,.L i q s _ e j Z Z a 0 0 a 3 4 0 8 8 s 0 s 0 e s s a s w 9 9 e e 0 j 7 3 0 f.z.w 9 0 0 0 9 9 0 9 s 0 a 3 0 j q 3 e ",
"q 0 q s q D ,.Z Z Z 0 p j s q L &.e 0 0 p 0 1 0 0 e 0 0 q L L Z _ y.y.9 j p 0 9 r 0 0 Z N.H.y ; 3 p &.=.w 3 0 q e r.9 e s ;.t 3 ",
"q 0 0 Z p L L e e ,.s j 0 j Z ,.&.j e 0 s s s 0 s a 4 1 a a Z m.N.&.j Y Z j 0 e e 4 w r.F.N._ 0 3 0 Z 5.e 3 s 0 a L 0 9 a A.z., "
};
