/* XPM */
static char *obl12[] = {
/* columns rows colors chars-per-pixel */
"64 64 188 2 ",
"   c #0B0C06",
".  c #0E0E0B",
"X  c #110F0B",
"o  c #14120E",
"O  c #18150F",
"+  c #161411",
"@  c #1A1612",
"#  c #171814",
"$  c #1D1A15",
"%  c #1E1C18",
"&  c #221D0D",
"*  c #221C16",
"=  c #281F16",
"-  c #231E19",
";  c #281F19",
":  c #232505",
">  c #292703",
",  c #2E2B06",
"<  c #24230B",
"1  c #2B250C",
"2  c #27280F",
"3  c #2C2A0C",
"4  c #362D05",
"5  c #34260C",
"6  c #34290D",
"7  c #3D2808",
"8  c #2F3006",
"9  c #343209",
"0  c #252114",
"q  c #292316",
"w  c #2D2912",
"e  c #25211B",
"r  c #2B241C",
"t  c #2E281E",
"y  c #302A12",
"u  c #31261D",
"i  c #32291E",
"p  c #392C1E",
"a  c #352416",
"s  c #3D3B17",
"d  c #262420",
"f  c #2B2621",
"g  c #2E2923",
"h  c #2E2B28",
"j  c #302720",
"k  c #332C23",
"l  c #392E24",
"z  c #332E29",
"x  c #3A2F28",
"c  c #363125",
"v  c #3B3225",
"b  c #36312B",
"n  c #3D3229",
"m  c #3D352B",
"M  c #3B352E",
"N  c #3D352D",
"B  c #3C342A",
"V  c #3E382E",
"C  c #3E392D",
"Z  c #393631",
"A  c #3D3630",
"S  c #3F3831",
"D  c #3B3A32",
"F  c #472F09",
"G  c #4E2D0A",
"H  c #453505",
"J  c #4E3507",
"K  c #453B06",
"L  c #4C3B04",
"P  c #463009",
"I  c #4A360F",
"U  c #483B0A",
"Y  c #543E07",
"T  c #57350A",
"R  c #503D0A",
"E  c #5D3A08",
"W  c #5B3D06",
"Q  c #443111",
"!  c #733A08",
"~  c #413525",
"^  c #493626",
"/  c #443926",
"(  c #4A3A26",
")  c #40362E",
"_  c #41362A",
"`  c #453A2E",
"'  c #433A2C",
"]  c #483E2E",
"[  c #4A3D2C",
"{  c #513E2C",
"}  c #403730",
"|  c #403931",
" . c #453D33",
".. c #443D32",
"X. c #483E32",
"o. c #493E35",
"O. c #4A3E32",
"+. c #474105",
"@. c #494107",
"#. c #4A4309",
"$. c #5D4406",
"%. c #514604",
"&. c #484311",
"*. c #694707",
"=. c #6B4409",
"-. c #724E07",
";. c #7F480A",
":. c #6F5107",
">. c #6F5A04",
",. c #7D5B06",
"<. c #765705",
"1. c #6F6106",
"2. c #746204",
"3. c #7B6D04",
"4. c #756209",
"5. c #7F6304",
"6. c #7A7106",
"7. c #4B402F",
"8. c #54432D",
"9. c #464034",
"0. c #4A4235",
"q. c #4C4234",
"w. c #4E4836",
"e. c #4D4539",
"r. c #4E483B",
"t. c #504235",
"y. c #524535",
"u. c #5E4635",
"i. c #534836",
"p. c #544936",
"a. c #5A4934",
"s. c #52463A",
"d. c #53493B",
"f. c #52493C",
"g. c #544B3B",
"h. c #5B4F3D",
"j. c #5A4D3C",
"k. c #57503D",
"l. c #5C513E",
"z. c #614E3B",
"x. c #624D37",
"c. c #63523D",
"v. c #69553E",
"b. c #554D41",
"n. c #584E41",
"m. c #555144",
"M. c #5C5343",
"N. c #5C564A",
"B. c #5F5848",
"V. c #625543",
"C. c #695742",
"Z. c #635846",
"A. c #605748",
"S. c #645B4B",
"D. c #695D4C",
"F. c #6A604F",
"G. c #6A6252",
"H. c #6F6759",
"J. c #736856",
"K. c #736958",
"L. c #875B05",
"P. c #885D06",
"I. c #975303",
"U. c #AF5E02",
"Y. c #846C04",
"T. c #9F6E05",
"R. c #906505",
"E. c #8E7804",
"W. c #837508",
"Q. c #A86003",
"!. c #AD7E06",
"~. c #BC7303",
"^. c #C67104",
"/. c #A09507",
"(. c #BFA005",
"). c #C58F07",
"_. c #D38703",
"`. c #E49903",
"'. c #C9A307",
"]. c #C7B80F",
"[. c #D4B404",
"{. c #D6B804",
"}. c #E6B603",
"|. c #E6BE03",
" X c #E4C002",
".X c #EDD203",
"XX c #FBD203",
"oX c #FCDB02",
/* pixels */
"g d d d f f f d h f d d d d f f f d d d f f f f g g g g z z b b b k g g f f f f g k k k k k k k g g g g g z b n b g z h g g b S ",
"b g g h h z h z g z z b b z g f f f d f f f f g h g z z b Z Z Z b b z g g f f f g g g g k z z z k k k z z z g g f z z b z z Z O.",
"z z b z g g z Z k n z b g b z z z g f f f f f g g g g z z z b z k g g f f f f f f r f f g f f f g g g f b b k g g g g k Z b n _ ",
"k k k - k z f b f n k g b k k z n k z b z z z k z b n z n | Z S n _ v v _ _ n k r r g g k k g k b k k g k r k g f % g k n k k l ",
"r g r % z | r k r l k e O.k n n y.z } O.O.O.| | V | q.n O.| | g.h.y.[ y.q.7.q._ k k k f n b b n V n k k k r r e r % r u k k k l ",
"* - r @ f z r k - k r % k l k n | z O.O._ z q.M.Z.g.g.q.g.g.| f.y.g.h.l.p.p.O.e.e.n k k n k n q.q._ k k r e e % e @ r u k r n y.",
"% - r X - e - k - u r e f k n n | q.y.y.O.} q.| q.e.| q.e.q.q.e.e.y.h._ q.M.q.e.9.| l n _ _ q.e.g.q.t r r * e % % o r r u r n f.",
"% - r o - e - r - u - f n f.f.f.f.z.u.u.u.y.q.n | q._ e.e.e.e.q.| q.g.g.y.q.| e.| _ n n n _ q.q.q.g.v v k * - % % @ u r r r l ^ ",
"% * r @ k v r g e u r * e.n O.} e.O.z.u.{ _ g.q.| _ t r r r t t r r r r r e n e.e.Z k k v _ g.g._ q.~ l l * - @ % @ r - r r k ^ ",
"% - r % ~ [ r k r u r - | q.g.g.q.n O.h.[ _ n.e.b.k 0 @ O o o % * % % % % % V q.e.q.e.| V k _ q.g.7.v p u * e % * @ % % r k l ^ ",
"% - u o p { u k e r e k M.Z.M.Z.q.g.M.e.k k G.e.e.c %         % r   o o e e [ g.q._ q.9.k k k n q.y.l v _ t r % % o % % r k k [ ",
"% - k X = u % k e r e v g.M.D.Z.Z.Z.Z.e.g n H.r.g.k 0 W.K %.8 3 s /.#.].&.* y.h.h.q.g.e.k k k k k g.g.p._ r - - * o r * r k _ k ",
"% - k . * r - k e r - t M.Z.Z.M._ _ Z.Z.M.Z.Z.Z.g.u 2 E.2.{.6.9 9 .X%.oX@.* 7.v.M.g.b.g.| 9.n n k | g.q.| e % * * o - * r r k _ ",
"% e u X * O.k k f f e r k g.M.q._ 7.Z.Z.M.Z.Z.Z.h./ 3 Y.2.{.6.: :  XL oX@.* q.D.h.O.r | e.q.O._ _ | | c c e % - * o * r r r k _ ",
"- e k * _ q.r k r k r e g n | y._ h.h.h.z.Z.Z.h.Z.[ 3 Y.>.[.3.: , |.K XXK & _ Z.h.[ e v _ u u _ l | e._ t - % * * o q * r k v l.",
"- e k % _ _ e k - n e e k k n q.| l [ z.z.v.Z.O.y./ < 5.>.'.2.: , }.J XXK < p.D.O.v r v k r ; l v n n V k - * * * X 0 * r j v O.",
"- - k % k k * k e k r t q.g.g.r r l f.Z.Z.Z.M._ O.v 2 ,.4.'.1.: 3 '.H (.4 0 p.D.q._ k l v k j _ v n n v k - % * * o * * r k j g.",
"- - k @ c g.k k r k e k y.l.Z.l.h.v.h.z.v.v.b.| | v 0 W :.,.K < 3 ).L !.4 & g.J.Z.M.v l n n l v n n _ n k e * - * o * r r k k _ ",
"- e g % g _ k g k k e k g.M.M.Z.v.C.v.x.z.p.M.| _ v 0 -.P.T.$.< 3 `.Y `.H < p.G.Z.M._ v _ v n q.O._ q.q.| r * * * o r r - k k _ ",
"- - f - f n r f k g e t q.h.Z.Z.Z.[ v.v.8.7.n.e.q.c 0 *.,.R.$.2 5 _.R _.H 0 g.M.M.g._ [ [ [ q.g.g.g.g.e.q.r * * * o * e r k r e.",
"e - f - n | n r k f - r _ p.Z.Z.y._ q.h._ _ Z.g.g.k 0 *.-.L.Y w 5 ^.R ~.7 q v Z.M.q.O._ _ O.g.q.q.O.q.V n r * - * o r r r k k e.",
"e - f - _ _ r r r k - r _ l.J.G.h.D.G.e.c n K.g.g.v u ;.*.<.J w y U.I Q.5 q q.Z.M.q._ n _ O.h.n.q.q._ v c r - * * @ r e r k k e.",
"e - e % t k - e r k - e _ M.F.F.M.g.Z.M.| r.G.M.h.v v ! E *.P q y I.Q I.2 q y.h.q.y.k.w.q.V 9.g.l.q.v k c r - e * @ r r r k n f.",
"e e - % n n r - r k e % k _ h.l.v [ F.Z.Z.D.D.D.M._ v G 7 F 5 q q T 5 G & 0 [ h.g.q.l.g.V n V _ q.y.k k v r - r * @ r e r k _ v.",
"f g - % k e f % g k e % k _ g.[ _ q.Z.Z.M.D.Z.Z.Z.7.v * 0 r 0 u t r k r e r [ h.M.g.Z.l._ _ _ n v g.g.q.n r - - * % % % r k _ l.",
"g g - % k r % e f k - - n O._ g.b.h.u.h.z.Z.Z.g.M.q._ n v c c v v n n k k u q.M.Z.B.B.Z.g.h.q._ n q.q.n k r - - * @ - % e k _ h.",
"f g - @ k | f g f k - r _ q.h.M.n.h.h.Z.Z.M.M.q.q.g.r.g.g.g.g.g.g.g.g.p.y.7.h.Z.Z.Z.g.g.M.M.h.p.y.q.q._ k f e r * % r t - k n q.",
"g k - @ k n e f k k - r _ y.M.h.N.N.e.b.Z.n.g.g.g.M.g.b.M.m.k.g.r.B.M.q.g.q.M.G.Z.Z.h.a.a.[ ( p.7.q.[ _ v k r r - * k k e k n h.",
"g g - @ n _ - g z k - e _ h.M.h.Z.b.| n M.g.M.M.M.M.G.G.Z.M.e.g._ q.g.g.g.q.Z.Z.M.Z.a.a.{ [ [ y.y.y.y.y.[ k r r r % r k r k | b.",
"g k - @ v | e g b k e - v O.q.q.f.O.n n | | | e.q.q.e._ _ _ _ n _ 9.| _ _ v _ ~ O.g.( / ~ _ _ [ [ _ [ _ l k k j r % f g r l f N.",
"g k % % r | e g z k e e e r f k k f r e r r r r k k k k k k k k k n n n k r u u k v k k k k l l k k u l k r u k r % z k g x n M.",
"r g % % g n r f z k - % % % - e r - - - * - * * * * * * * * r r u r r r r * - * * * * * * * r ; r r r - r r u r - % k z r x n g.",
"e r % @ t _ r k r r - % - % % - e - - k r - * * * * - * * - r g - r r r r r r r r r r r e r r r r r r - * q u k * @ b k r n n q.",
"e f r - e r % r r k * @ @ @ % % g * % % * * @ @ @ * r % % - - - r k r r u u r r r u r r * q * * * = * * * r u * * @ e e r k k n ",
"e r - @ e t % r r k - @ % @ @ o - @ @ @ @ @ @ @ @ % % * % * - r r r r r r r r e - e * * * * * % % % % @ * r u r * o @ % r k k v ",
"e r * @ % r % r e r - % @ o o o g f - @ - - - % @ @ @ @ o % - % % @ % % @ @ % % % e r * @ * - @ @ % % @ o * u u * @ % % r l k k ",
"e r - @ e t % r r r - o - r 0 * e k r % * r r % @ e t e % % e - % o @ r r e r e % u r % e r * @ - k z - @ * u r * % k k r k r c ",
"e f r @ e g % r - u e % r k r e k k r @ % e r r % g n c r % - - * o * v q._ k e % k r % g e u @ g e._ g e * u u * % u k r k r u ",
"e r e o % e - u - u - % k v k 0 n r % @ o % r r % % k c e % - % * o * r r k k e r u * @ % - r r - | n V k * u u * @ u k r k k c ",
"f k e @ % f e k * u * % v n t k r r o e e @ - r r % e g e % e % - o % r t k e 0 r r o % % % r r % * r r n - u u @ o r * g g k k ",
"f k r @ e _ t k e u - @ r r e u u o % g e % @ * r - % r e @ - % % o % k u k % r r @ . r t * % r - % g t n * r r @ o r r k k v q.",
"e r r % ~ ( t k - u % @ r q u l * e g n S S e % - - - % - @ - % % @ 0 v k r r = % @ e _ v r @ * r e * t n * = r % o r * k k v [ ",
"- e r @ p / r k - k - % * r r r e e V n r.m.9.% @ * * - @ @ - @ % @ u [ u u * % o % k k k n e % e e * * c 0 * r * o u * k k v y.",
"% - f o * r - k e u * r r r * e t _ 7._ V b g g % @ * - r % - @ % @ * u u * % @ % u k v _ _ r % @ * % r @ * * r * % e * k n k g ",
"e f f o r k * k r u * t r @ % e v / _ n n c b g e @ % e r r r % % @ r u r % o @ e u u u k r v r % @ e r r ; - e * @ - - l l f g ",
"e r g @ u u % u e u * % o @ g V k n b b | _ [ _ _ c e @ % * e - % @ q * o @ @ % r v r u k k V k e % @ * r r - e * @ e - k k c | ",
"- e k @ u t % k e u % * @ @ g n k V g b _ ~ v ~ _ _ k e % % @ % * o % @ % r g k g _ k _ v k c l._ e % @ @ r * * * o % % u u g b ",
"% - k @ c k @ k e k * * e % g g k c c n _ _ n O._ _ n r e - @ * * o * e % e u n n e e n r r r [ v u e % k = * * e o % - k u g n ",
"% e k @ r k % u * k * r e e e b n _ n v ~ _ q.q.n k k r * % % * * @ - e e e % k g d d b t r r _ [ u r r r r * * - o r r k u r | ",
"- e k @ u v 0 k - k * % - * - * v v u u u ~ _ n r k r e o % % * * @ @ % g r e % e e e n k r r v r r - * @ * * * - @ e e k u k b ",
"- e f @ % e * k * r * @ @ * - - r q u q p p l r g * e o % % % - * @ e @ @ * * - e k n _ ~ r k c k e % o - r ; - r @ r t k u n | ",
"% - r % e e r j * r * X @ @ - r * * * q u r * f * % o % % @ % - * o * r - @ ; e % % r v _ 9.g * * e o . o % r r e @ r t k u k b ",
"% * f % g k * r - r * e b r % - r % * r u r r r * o e r % @ * * * @ u a.v % % r e @ @ g c e * * r o X % e % r r e @ r k l u r O ",
"% % r % e n r r * e - e | | e * u r % * * * r * o e g c - @ * * * @ r 8.v k @ * r - % e e @ r r - o @ r e - r r - @ e e k u u * ",
"% * e @ e e e r r e * e n | b % r r - % * r r O % k k b k * * * * % k 7.q.9.e @ r u * @ @ * r u o % e t c r e r * % c e k u r @ ",
"% % e % p v e r r - % e S e.9.k - u r e r r * @ r _ _ V n r * - * % % g b k n * * r r % o r r * @ r k _ l r r r % @ t r k u r % ",
"% * e @ p ~ e r * ; % e V k c k % r r * r r @ @ k _ / _ l r - ; * % % e g e c r % r u - e u r o % k c v v r r r % @ k g k r r e ",
"% * - o u ~ r r = r % e b g k g - - r = r * % - r | n c k r - r * % # e e % k e - * r e k r e @ e k k v v r r - @ @ r g r r p ~ ",
"* * - @ * r e r ; r - - f e r e e - r * * * % - g k k k r r - = * * % g f e g % % * k r r r * @ - - r r * - - @ % o % @ r r u p ",
"* - r - - - - - r - - * - - - * - * * * * * - - r r r r j k k p v v ~ l k r k r r r r r u r r u u g r r r k f k k u r r u - ; a ",
"% - * % % - - - e @ % % % * * * - * * * * * * * - - - * % * * r r @ % % * * - * * - % @ @ % * * * - * - - e r e % - * * % @ * r ",
"e - - - - - - - - - - - - e - * % * - * - * - r r u l u p l l l l _ _ n k u u k l l k k u k k u k u e r - r k k k u u u r - * * ",
"r e - % % % - - @ @ % f - * * - - % * * * * * - - - * * * - r r r r r r * - * * * % % * * * - * - g - - f e e e - - % % r r u ~ ",
"r - - @ % % % % * % % % % % % % * * * * * * * * * r e - - e r r r r r r r r r r r r * e - e - - e % @ - - r f f r e r - r r r u "
};
