/* XPM */
static char *obl11[] = {
/* columns rows colors chars-per-pixel */
"64 64 166 2 ",
"   c #1B1B1A",
".  c #201F1E",
"X  c #1F201C",
"o  c #21231E",
"O  c #2A2B1F",
"+  c #242522",
"@  c #282725",
"#  c #272922",
"$  c #2A2D25",
"%  c #2D2D29",
"&  c #302F2B",
"*  c #2D3126",
"=  c #2E322A",
"-  c #313326",
";  c #33332D",
":  c #38362E",
">  c #35382D",
",  c #39392E",
"<  c #363531",
"1  c #393733",
"2  c #363932",
"3  c #3E3B37",
"4  c #3C3A36",
"5  c #3D3D34",
"6  c #3D3D37",
"7  c #3F3C36",
"8  c #3E3C37",
"9  c #3F3C37",
"0  c #3B3A35",
"q  c #3B3B38",
"w  c #3C3B38",
"e  c #3D3B38",
"r  c #3D3C38",
"t  c #3D3C39",
"y  c #3C3D39",
"u  c #3D3D39",
"i  c #3E3C38",
"p  c #3F3C38",
"a  c #3F3D38",
"s  c #3E3C39",
"d  c #3E3D39",
"f  c #3F3D39",
"g  c #3F3E39",
"h  c #3E3D3A",
"j  c #3F3D3A",
"k  c #3F3E3A",
"l  c #3E3F3A",
"z  c #3F3E3C",
"x  c #3F3F3E",
"c  c #3E3D39",
"v  c #403D37",
"b  c #413D37",
"n  c #403C36",
"m  c #423D37",
"M  c #413D36",
"N  c #403D39",
"B  c #413E38",
"V  c #403E39",
"C  c #413E39",
"Z  c #403F39",
"A  c #423F39",
"S  c #403D3A",
"D  c #403E3A",
"F  c #413E3A",
"G  c #413F3A",
"H  c #403E3B",
"J  c #403F3B",
"K  c #413F3B",
"L  c #423F3B",
"P  c #403E3C",
"I  c #403F3C",
"U  c #413F3C",
"Y  c #403F3D",
"T  c #413E3A",
"R  c #3E4037",
"E  c #3E403A",
"W  c #434039",
"Q  c #43403A",
"!  c #42403B",
"~  c #43403B",
"^  c #44413B",
"/  c #41403C",
"(  c #40413D",
")  c #42403C",
"_  c #43403C",
"`  c #43413C",
"'  c #42403D",
"]  c #42413D",
"[  c #43413D",
"{  c #42403E",
"}  c #42413E",
"|  c #43423E",
" . c #42423F",
".. c #43423F",
"X. c #44413C",
"o. c #45413C",
"O. c #45423D",
"+. c #44433D",
"@. c #47433D",
"#. c #44423E",
"$. c #45423E",
"%. c #44433E",
"&. c #44423F",
"*. c #44433F",
"=. c #45433F",
"-. c #46433E",
";. c #46443F",
":. c #47443F",
">. c #47453F",
",. c #43423D",
"<. c #48453F",
"1. c #48453F",
"2. c #434140",
"3. c #444340",
"4. c #454440",
"5. c #454441",
"6. c #474540",
"7. c #464441",
"8. c #464541",
"9. c #474541",
"0. c #464440",
"q. c #454442",
"w. c #464542",
"e. c #464543",
"r. c #474642",
"t. c #474643",
"y. c #464441",
"u. c #484541",
"i. c #484641",
"p. c #494641",
"a. c #484543",
"s. c #484642",
"d. c #484743",
"f. c #494743",
"g. c #4A4743",
"h. c #494744",
"j. c #484745",
"k. c #494642",
"l. c #4A4843",
"z. c #4C4841",
"x. c #494844",
"c. c #494845",
"v. c #4A4946",
"b. c #4B4946",
"n. c #4A4947",
"m. c #4B4A46",
"M. c #4B4A47",
"N. c #4C4A47",
"B. c #4C4B47",
"V. c #4D4B47",
"C. c #4E4B46",
"Z. c #4B4945",
"A. c #4D4B49",
"S. c #4E4C48",
"D. c #4F4D48",
"F. c #4F4E49",
"G. c #4F4E4A",
"H. c #4D4C4A",
"J. c #504D46",
"K. c #504E49",
"L. c #504E4A",
"P. c #504F4B",
"I. c #504E4B",
"U. c #52504E",
"Y. c #52514D",
"T. c #545350",
/* pixels */
"q.q.$.< & 1 I 1 0 $.1 0 v.0 I 1 0 1 $.h 0 0 < 1 0 % < h h h I I I h 0 0 h I 0 h $.I I v.v.$.h P.$.q.I 0 0 b $.h.$.I q.v.v.h.< < ",
"0 A.< ; ; I ; ; 0 $.0 < 0 $.0 < < 0 I 1 < 0 h.I $.1 I 1 h I 1 0 h I $.0 0 < 0 0 0 0 $.$.q.$.$.$.$.0 0 b I 0 0 1 h.A.v.A.$.0 q.$.",
"0 h.< h < 1 0 0 0 0 $.0 0 $.& < 1 h.< < h I 0 0 < I h 1 1 ; < 1 h < < 0 0 0 $.0 & ; 1 <.$.$.h.P.$.$.0 1 h.0 0 $.h.h.Y.q.1 h $.0 ",
"$.h I ; b 0 1 h h I < ; < h $.h.I I I q.h % < % < ; < < 1 ; < 1 I 0 h < 0 0 1 1 ; < ; ; % 0 v.v.0 0 I v.$.; 1 I $.$.v.$.0 h I h ",
"v.q.< 0 0 0 1 0 0 2 0 0 A.0 0 ; I 0 0 1 1 & % ; 1 ; ; < ; < & 0 h < < 0 0 < 0 1 1 < 0 0 h 1 0 b : : 1 $.0 ; 0 v.h $.I $.0 $.h 1 ",
"$.q.h h $.0 < 0 $.h.1 < h h ; 0 0 ; 0 0 1 ; % 1 < ; & ; < < $.A.h.I < 1 1 ; ; & < I h $.$.h 0 0 0 ; 0 $.1 < < ; ; h 1 $.$.$.< 0 ",
"0 $.< % ; 1 < 0 q.v.$.< q.h.q.0 I 1 ; 1 1 ; ; ; 1 ; < ; 0 1 $.h h h 1 ; < < 1 ; 0 v.h.$.I 1 $.0 0 ; ; 0 0 ; 0 h.I & ; 1 < < < h ",
"0 h h h I I 0 1 0 0 0 0 I $.h.; 1 ; ; ; 1 : ; 1 < < < 1 h h < < h $.< < 1 < ; < 1 h 0 I 0 h 0 ; 0 % 1 0 1 ; < 0 1 & < 1 % ; % < ",
"h h 0 1 $.I 0 $.0 1 < 0 q.h I 0 < ; < ; 0 1 ; 0 1 < 0 I $.< 0 ; < 1 1 h 1 ; < ; ; 0 I q.$.v.q.0 0 1 0 $.0 1 < I < < h I 0 1 % ; ",
"0 I h I $.0 b 0 0 1 ; < < q.$.< < < I I 1 ; 0 0 & ; 0 $.< % 1 h.h.< h 0 I < 0 ; ; ; 0 h $.v.$.< 0 0 $.I 0 0 I I ; 0 0 < ; % ; 1 ",
"h.0 q.P.$.0 I 1 1 & 0 0 h $.$.q.0 1 0 0 1 < ; 0 ; ; $.< ; h 0 1 A.$.0 $.$.< < ; ; ; 0 < h 0 h I h < I 0 0 h 1 0 ; 0 0 ; ; ; 0 I ",
"0 0 1 I $.< ; 1 I ; 0 I q.$.0 0 I ; % 0 I 0 h 0 0 h.h I h 0 %   % A.A.h h 0 1 ; ; ; < 0 q.$.0 I 0 ; % ; 1 I h $.h $.0 ; % % 0 0 ",
"$.1 1 0 $.b ; < $.; $.$.$.I ; < $.< ; 0 $.I 0 0 h.1 I v.I % + + + % h.$.< 1 I 0 ; ; ; 1 0 < < h 1 ; & 0 0 & ; I h.1 $.1 ; & 0 0 ",
"% < $.h.0 0 $.$.; ; < 0 1 < < 0 < b 1 < 0 1 & h I 1 $.q.; % < + < < % 0 I 1 0 1 % % % ; < < < I ; : ; 1 1 & & 0 1 $.q.; % % ; < ",
"$.< 0 1 1 ; 1 0 < % 1 < ; 0 0 0 ; ; 1 1 1 ; ; h 0 < $.0 % < % + + h % % I 0 < I < % % % ; < < $.% & % 1 ; % & < < 1 0 < % % ; 0 ",
"$.1 1 < 1 ; 0 ; < & < h h.1 0 0 0 & 1 1 0 I 1 $.0 I $.% 1 < % @ % ; 0 + 1 $.1 h 0 % ; 1 $.1 ; 0 : % ; ; ; ; % I ; < 1 ; h 0 $.$.",
"I q.q.; 1 ; 0 1 1 $.v.$.$.$.h 0 ; ; 0 ; 1 0 I 0 1 ; % < 0 < < % % < < ; @ 0 h ; I 0 0 0 q.0 ; 0 ; & 1 1 ; % ; ; - ; 1 0 $.A.A.$.",
"I v.v.1 1 1 b b 1 $.I h 0 h h < ; & ; 0 & : 0 I $.0 % ; < h h + & 0 < ; % < $.1 0 $.< < < h 0 < ; & & 0 ; : & ; 0 & 1 1 h $.h $.",
"$.h h ; ; 0 I 0 0 h v.v.$.A.$.0 1 < 1 : & ; 0 b 0 1 ; 1 0 q.% + + ; < < ; % 1 q.I v.v.q.h A.$.0 ; ; : 1 ; ; & 0 ; ; 0 1 ; 0 I $.",
"0 q.h 0 0 I $.0 < 0 v.A.h.$.$.0 ; ; 0 ; % ; 0 I 0 % ; 1 $.q.%     0 h h < < < h 0 $.Y.h.h.h.< 0 ; % ; : & ; < 1 ; 0 1 1 ; < 0 $.",
"$.$.h q.I $.v.0 I < h q.q.v.$.0 1 1 $.I ; I $.Y.b % ; h h 0 h   + A.; $.0 0 ; 0 1 0 0 h $.A.A.$.h ; I <.0 1 0 0 ; ; 1 < 0 < < 0 ",
"0 h 0 $.I 0 I h I 0 0 $.v.h.q.$.1 ; b : $.q.v.Y.0 < ; A.< ; A.% h q.+ q.h 1 ; 0 0 0 <.< 0 q.A.E 1 ; 0 0 b 0 0 : & % 1 1 ; 1 0 < ",
"q.h I h 0 0 I $.$.0 < < q.h.h.h & ; 0 0 v.v.Y.v.% ; < $.< < P.< v.q.+ h 1 1 0 1 0 1 0 ; $.A.$.; & ; 0 b 0 $.h.I I 1 < 1 ; 0 0 $.",
"; h $.$.I I $.$.h I $.v.q.v.$.0 ; 0 : I $.J.v.$.; = h h % % h v.A.% < % h h.$.; 0 1 0 $.$.h 1 1 % ; ; I 0 I h $.$.1 ; 1 ; < < 0 ",
"$.$.h $.0 $.h.$.h h I $.$.$.$.h % % b I $.v.h.$.0 ; 0 0 h $.v.P.A.A.0 $.h v.$.; 0 $.0 1 0 0 h ; % % ; ; 1 ; ; 0 h 1 0 1 I 1 & I ",
"$.$.q.v.h.$.q.$.q.$.I 0 $.0 1 ; % > ; h q.v.v.$.; % % 0 ; & q.q.q.h + ; v.q.$.; 0 0 0 < h 0 < < & & % < 1 < 1 h 0 0 $.0 0 I h h ",
"h I $.v.v.$.$.0 I $.q.q.$.$.v.0 * , 0 h v.Y.$.I ; < ; < + + < A.h %   + q.v.P.$.$.q.$.% q.q.$.$.0 % 1 I 1 0 % < < ; 0 h.h.q.q.h.",
"q.q.1 $.0 h 0 b 0 I h q.q.$.1 h v.$.< 0 0 v.I 0 0 $.I <     < $.h +     h q.h A.0 0 $.1 v.$.0 I 0 < ; 0 q.h 1 & b 1 $.0 h.A.A.A.",
"I $.q.h 1 0 1 ; 0 0 < h 0 h.< ; ; ; ; $.A.h % + % 2 h         < %       + < h % % % 0 0 0 0 < % & : ; b $.$.0 ; 0 1 h $.A.A.Y.Y.",
"q.I $.0 0 1 1 0 0 0 $.v.$.v.h q.$.; 1 I $.$.% @ # % %         % +         # % % % % h.v.$.q.h h h.q.0 ; , ; 0 v.<.I h.v.v.h.v.h.",
"q.q.$.I 0 0 0 0 I q.Y.T.Y.h.h.; ; ; 0 0 0 $.q.; % + 2         % +       + ; % h < < q.v.q.I $.< $.I 1 ; % % h h.0 0 0 v.1 $.v.v.",
"v.$.$.v.$.v.P.$.v.$.h v.Y.q.q.0 2 0 0 h.h.v.$.$.b % <         + +       # < h 0 0 ; $.I q.h A.0 $.0 $.1 ; 0 I $.v.0 1 v.I I $.$.",
"v.h.0 q.q.$.h h q.$.I v.A.v.0 0 1 < < 0 $.<.v.v.b h h o       ; +       % v.Y.h < 1 ; h A.$.q.< ; ; $.0 0 1 1 1 1 % 1 h.h.0 $.$.",
"h.$.$.$.h $.I $.h.$.$.q.A.v.v.q.& ; ; , $.Y.v.0 I 1 h +       0 %       + q.A.v.0 h 0 0 $.v.q.1 & 1 I ; < < v.I I 1 I I 0 ; 0 < ",
"0 $.h.P.h q.q.$.0 1 h A.h A.$.$.I 0 ; ; h.v.A.$.$.I <         < <       + h v.v.; ; h $.h A.; < ; I ; < h $.I 0 < 0 0 0 v.h h < ",
"; h h h.I $.h h.I 0 E I 1 $.$.0 % ; ; ; A.Y.P.h.v.h E         $.<       + < $.$.< 0 h 0 1 q.h 0 1 1 1 1 <.& ; & 1 < 0 0 0 < h < ",
"$.$.$.v.h < $.q.< 1 $.0 1 0 h h ; 0 < $.v.Y.T.q.h.E = o       q.<       + h $.$.% < q.h v.h 0 ; 0 h 1 < I < ; ; 0 < < < < h h h ",
"h < I I h < < ; < 0 h q.v.q.q.$.0 ; & > q.P.v.< 0 $.<     X   v.<       % $.$.v.; h 0 h q.q.0 h 0 0 ; 0 h h ; 1 0 1 0 1 0 0 $.$.",
"< 1 h 1 0 ; ; ; ; 0 1 I 0 ; 0 0 I 0 ; % v.v.$.0 $.h ; X       q.<         < q.I ; 0 1 0 h $.h 0 q.h < < q.; 0 ; h h I 0 h h h 0 ",
"0 $.h 1 I < & & < < < 0 < q.0 % ; % ; 2 $.v.$.$.I q.$.      X $.;       o < h < % ; % 1 0 q.0 % < 1 0 0 $.h 0 $.0 < 0 h h 0 0 I ",
"$.h.I I h < < ; ; < < I 0 h h I 0 < 0 0 $.<.$.h I $.h o       h %         < 0 $.; ; ; < h 0 h I $.$.0 0 $.I < $.$.h $.0 0 0 0 h ",
"0 $.$.0 I < 0 1 0 < < < 0 $.q.0 < < 0 , 0 $.> 2 < q.v.    o   0 +         < h h ; % % ; < 0 h < h 0 I I 0 < 0 < ; h $.; 1 h I ; ",
"q.I I q.I < 1 ; & ; 1 < h.0 h $.$.; 0 > 0 ; % ; < $.h       o 2 =       + 0 $.$.% % < 1 $.I I v.$.0 $.1 0 < 0 ; h I 0 ; < 0 0 1 ",
"1 0 0 $.< ; < & ; 1 1 h h.0 h h.0 % % * 0 1 1 ; < h h   o o + 2 # # + o + 0 0 0 % % ; $.q.0 $.v.h.0 1 1 0 1 h ; $.$.b 0 < 0 < 0 ",
"I I I $.h 1 1 < ; ; ; ; 1 ; 1 $.0 ; & ; = ; 1 ; 0 < ;   X # # % + o # X + $.$.; + @ & ; 0 0 < 0 $.; ; ; $.2 1 ; 0 0 0 0 ; < < 0 ",
"< h $.h.< < < ; & & ; 1 $.0 0 v.0 % ; ; ; ; ; ; % = % # + O % * = # # + % ; < ; + + ; : 0 ; 1 $.0 b 1 < 0 ; = < < < I < & & % ; ",
"I 0 1 0 & ; ; ; ; ; % % ; < 0 $.; * ; 0 % % = ; = = % % = % % = = ; > 0 A.% # % + + ; ; ; 0 q.$.0 0 I $.; = = 0 > = < 0 1 & & ; ",
"I < ; ; ; ; ; < ; ; ; < $.< 2 ; % % % = ; % ; < % % % ; * * * % = = ; 2 0 % % ; % + = I $.< 1 1 0 ; ; 1 % = < % ; 0 0 ; < % ; 0 ",
"1 q.h ; < < ; ; < 1 ; 0 0 0 < ; = % # % % ; * ; * $.< ; * * * % * = < = h $.; % ; % % 0 h I h < < ; h ; % ; ; I 0 ; h < < 0 0 < ",
"< $.q.2 ; ; 0 < < 0 2 ; < q.$.; ; = ; % 0 0 % + % < ; = % * * * ; = ; % = 2 2 % ; % ; 0 $.$.v.< 1 ; 1 0 ; ; ; R 0 % h h 0 h 0 < ",
"h ; $.0 ; ; % 0 0 < < ; 0 $.0 ; # ; ; < ; ; % % % = % * % % * % = % % % % ; % % + o % < 0 v.h.< < ; ; % & - ; > < ; 2 1 0 $.q.0 ",
"0 0 h h < ; < 0 0 < ; 0 0 q.E 0 % ; ; % ; ; # % * % # % % = % # = % $.= % % % % + + % < 0 $.I 0 1 0 0 0 ; = = 0 < ; = ; < 0 0 h ",
"0 0 ; $.; < I 0 < ; % < $.$.0 > < % * h % * ; ; * * # % % % * % * * % = < % # ; % % % 0 $.q.h 0 2 0 0 0 % ; # * 1 h 0 0 : < ; ; ",
"2 0 % > < ; 2 0 ; # ; ; % 2 > > ; = > 0 % ; % % = * # % * = % * - % % % ; = % % % ; 1 < $.= < 0 0 0 2 % > 2 ; ; ; > 2 ; ; 0 < < ",
"; ; ; < % ; 1 < % ; % ; * ; = # ; # * ; = > ; 0 # ; ; = * # O % % > ; = * % ; = % ; ; ; 0 0 0 ; < ; 0 0 > < 2 0 ; ; % = 2 1 = = ",
"% = ; # * ; h 0 % = % = % % * = ; % % * * ; % R ; % % % % % * % % < R ; ; ; = = % < * 0 0 0 0 ; 0 I , h 0 < ; % ; ; # * ; % * ; ",
"% ; % # * < % ; % * = % % = ; h % % ; = = % % 2 = % % * * % * = % % % ; * ; ; ; ; ; * 0 ; 0 > ; < 0 0 ; 0 ; < < > = ; < 0 ; - ; ",
"; ; ; 2 > % * % 0 * - % * = * = % ; % - # % % * * = ; ; * % % % = % % ; ; * % < = = * 0 0 0 ; 2 = * % ; 0 = = ; > ; = I < ; = ; ",
"2 % ; = % ; - < % % = # ; - % ; > = ; % # % = ; ; % % * % = % * 2 * % % ; ; ; 0 0 ; < % ; ; $.= 0 > > 0 ; 2 * * = - 2 h > % ; < ",
"% % 2 0 ; = * ; % % 0 2 = 2 ; * % % = ; % % = ; * % # O # * * = = 0 = = % ; = h ; ; ; > 2 0 2 0 2 % = = ; 0 ; * = ; ; % % * ; 0 ",
"= = % ; - > % % ; % ; > # = ; % % % ; % % ; % % % % # O O O % * * % % % # % % > ; 2 % < % % # ; 0 = % % ; 2 0 = ; ; % * ; * ; E ",
"; 2 ; = = 2 = = * ; E * > = * % > % % % * ; % % % % % * * % % * * * % * = = > 0 0 = ; > > $.% * ; % * = * > ; + * ; 0 % ; ; > $.",
"- - > * * ; = * * ; E % ; ; % = # * % % % % = % * * % % % % % * % = % * * * * ; ; E h ; > * = ; > = % * % % % % % = > ; ; > ; % ",
"; % 2 = % % = * % % E , < = 2 > % % ; % * * = * 0 ; * % # * % * = ; - % % ; ; = * < ; % ; ; ; 2 = - % 2 ; ; # = # % < 2 ; = < % "
};
