/* XPM */
static char *obl1[] = {
/* columns rows colors chars-per-pixel */
"64 64 138 2 ",
"   c #0F0F10",
".  c #170F11",
"X  c #180F11",
"o  c #151315",
"O  c #1A1315",
"+  c #161519",
"@  c #1C1519",
"#  c #1D1A1C",
"$  c #20171B",
"%  c #221A1D",
"&  c #28211C",
"*  c #1A1723",
"=  c #1D1B23",
"-  c #1F1D29",
";  c #241D22",
":  c #281F24",
">  c #231E29",
",  c #291F2B",
"<  c #252023",
"1  c #2A2125",
"2  c #24222C",
"3  c #2C232C",
"4  c #31262B",
"5  c #35292D",
"6  c #252331",
"7  c #2D2431",
"8  c #2C2934",
"9  c #2E2A39",
"0  c #312632",
"q  c #342A36",
"w  c #392D35",
"e  c #312738",
"r  c #362C3A",
"t  c #392E3C",
"y  c #3F3136",
"u  c #36303B",
"i  c #3A303B",
"p  c #3B323D",
"a  c #38303F",
"s  c #3A303F",
"d  c #3B303F",
"f  c #3B313F",
"g  c #3C313E",
"h  c #3C313F",
"j  c #3D333F",
"k  c #3C313E",
"l  c #422F30",
"z  c #403036",
"x  c #433537",
"c  c #403137",
"v  c #423338",
"b  c #44353A",
"n  c #41333E",
"m  c #42333C",
"M  c #48343A",
"N  c #47383D",
"B  c #2F2B40",
"V  c #352E43",
"C  c #3A2F40",
"Z  c #392F43",
"A  c #3A2F40",
"S  c #363341",
"D  c #363242",
"F  c #3B3041",
"G  c #3B3141",
"H  c #3B3143",
"J  c #3C3140",
"K  c #3C3141",
"L  c #3D3241",
"P  c #3C3142",
"I  c #3D3242",
"U  c #3C3243",
"Y  c #3D3243",
"T  c #3C3343",
"R  c #3E3243",
"E  c #3E3343",
"W  c #3F3443",
"Q  c #3D3344",
"!  c #3E3344",
"~  c #3C3347",
"^  c #3B3445",
"/  c #3C3444",
"(  c #3D3545",
")  c #3E3444",
"_  c #3F3445",
"`  c #3E3545",
"'  c #3F3546",
"]  c #3D3243",
"[  c #3E3847",
"{  c #3F3349",
"}  c #3E364A",
"|  c #3F3349",
" . c #3F3848",
".. c #413742",
"X. c #403445",
"o. c #403545",
"O. c #413645",
"+. c #403546",
"@. c #413647",
"#. c #413645",
"$. c #423844",
"%. c #423847",
"&. c #443845",
"*. c #4B3840",
"=. c #4F3B47",
"-. c #493A46",
";. c #423748",
":. c #423649",
">. c #423748",
",. c #433849",
"<. c #44394A",
"1. c #46384A",
"2. c #443A4A",
"3. c #453A4B",
"4. c #453B4C",
"5. c #463A4F",
"6. c #473C4D",
"7. c #473C4E",
"8. c #453A4B",
"9. c #483D4E",
"0. c #4B3C4E",
"q. c #4A3C4F",
"w. c #493E4F",
"e. c #493C4D",
"r. c #503F4A",
"t. c #463A52",
"y. c #4B3D50",
"u. c #4A3E52",
"i. c #4B3E58",
"p. c #503F52",
"a. c #503F51",
"s. c #53434F",
"d. c #4F4255",
"f. c #4F4156",
"g. c #4D4153",
"h. c #4E415A",
"j. c #524355",
"k. c #50445C",
/* pixels */
"> 6 2 > > > < 2 > > # # % # # > 1 w q w 1 > > > > 1 & 1 5 w y N N N N =.w.=.M l 5 3 w y c 5 $ % % % % % % > % % % % % % % % % % ",
"` ,.%.` t s 7 2 > > 7 7 2 > > > = > > - 8 7 2 = > = > 1 1 1 1 % 1 5 q 5 1 < # # % > 1 1 % % % < > > % % # # @ = > * o @ @ % > % ",
"@.,.s t t ` ` t s @.s ` t t t @.` } ` ` ` ,.` 7 3 t 8 % % % # # # = = = = > = = # > = % % = @ # % % % # = 7 C ` w.,.7 + o @ % % ",
"` ` t ` ` @.q q q q ` @.t ` ` ;.` t ;.` ` w.,.,.t ` q @ % % # = > 7 7 D ` t 7 7 3 2 = + @ = 2 2 7 2 7 V ` ,.,.j.p.w.t > o o % > ",
"t @.` ` ` s 0 t ` ` @.t ` ` ` ` C t ` s s @.w.` s s q @ % % 2 t ` ,.` t t t ` ` ` ` t t t 0 t ` ` ,.} ;.,.w.g.y.@.` w., @ o # % ",
"` ` ` ` t q t t @.s q t t ` @.C t ` @.` t t @.` q q q @ % % 2 ` ` ` ` @.t t ` t ` ,.;.,.` ` ` ,.,.` ` @.` ,.,.q %.@.` t > > # % ",
"` t t t q t C ` @.s 0 t t t t ;.` @.` s q t s t t t t @ % 1 8 t C ` ` ` t t @.t t ` w.t.t.;.` @.@.,.,.,.@.;.;., t ` ` ` 3 3 3 % ",
"@.,.@.q t @.` ` ` q q t t C ` ;.` ` s t s s t q q 0 0 @ % 1 9 [ ` ` C ` t ` ` t t ` @.g.h.y.;.` ` ;.,.` ` ` w.t 3 @.,.;.7 % % % ",
"@.j.y.t @.` ` t ` t s s s ,.` ,.@.` t s w.t s q 0 3 3 @ % < D ,.,.,.` ` ` ` @.@.` ` ,.y.y.y.,.` ` ` @.;.` t ,.;.3 t ;.@.C 3 % % ",
"` @.t t w.,.` q s 3 q 0 q t t ,.w.s ` ` @.s q 3 0 3 3 # % 1 ;.;.` @.,.` ` ` ` ,.` @.y.g.h.h.y.y.t.C ` @.` C @.,.` 3 @.t @.s > % ",
"s t q t t @.` q t t t ` t t t t ` ` ` ` ` s q 3 3 3 0 > % : ,.C @.` C @.` @.;.` ` ,.j.h.h.h.j.i.y.` ,.;.C ` ,.,.@.t q @.t t 1 % ",
"t q t t q ` t 3 t t @.@.;.,.@.@.@.` q q t t t q q 7 0 1 % 3 ,.` t ` @.,.@.` ,.@.@.,.y.g.,.y.g.h.,.;.,.,.` ` t @.,.@.t t t t 1 # ",
"t s 3 q t ` s 3 s ` ` @.` @.;.,.` t t q t q q q t q 0 > % 3 ` t q q ` @.y.@.@.` ` ` w.j.j.y.y.y.w.@.;.;.q @.` ` @.s s q ` 0 > $ ",
"q t 0 q t @.t 0 ` C t ` t t s ;.,.` C t ` @.t q t q q > % 7 @.t t t t t ` w.;.s s ` ` ` ;.,.,.y.j.,.@.@.t @.@.` ` ` q t q : > % ",
"q t t s t @.,.` ` @.t ` t t t ` ` @.%.C @.@.@.t s q s > % 0 @.C t t t t s t t s s t q s t t t t ,.,.` ,.` ` ;.` ` s t s t : > % ",
"t t 7 t t s w.,.,.,.@.q q q q t s t @.C ,.@.@.t t ` q , % q ,.,.` t t t ` @.` @.t ` s t t t q q t t t ` ,.` ,.g.,.,.t q t > > % ",
"s ` ` s t t w.` @.;.@.C 0 t t ` t ` w.w.` ` @.s q @.t 3 % t s ` ` ` ` C C ` @.@.@.s ` t C t q t q t , @.y.` @.y.y.w.` t t > 1 $ ",
"s q s s t s ,.@.w.@.,.,.0 t t t t t ,.w.;.@.s t q 0 ` 0 % s @.` ;.@.,.` ` C t q t t ` C t @.` ` ` 0 , ,.,.,.` y.g.` @.@.q 3 % % ",
"t 0 q s s s t t ` ;.,.` ` ` t s t t p.j.` @.s q 0 3 @.q 1 q %.@.@.` t ` ` ` t t q t s ,.` ` ;.` ` > 7 ,.w.@.q g.g.C w.t s q % @ ",
"q 0 t t s q t t ` ,.` ` ,.,.@.` ` @.@.s @.,.%.0 0 q t 4 3 t w.@.s ` ` ` ,.,.` s t ` t ,.t.;.` ;.,.; 7 @.w.w.t ,.,.@.,.` s t q $ ",
"q t t t t s ` ` ` ` @.@.;.,.` ,.t @.s ` w.@.@.t 0 t ` 3 3 t @.@.` ` C @.w.y.` w.,.` t ` y.,.` @.,.$ 7 ,.y.j.g.t @.y.s ` ,.t 0 % ",
"t q t s s q s ` q t ` @.,.,.,.,.@.` @.@.w.t @.@.q q ` 3 1 w ` ` @.,.@.` ;.y.@.j.y.;.t ` ,.,.` t ;.> q @.@.w.g.,.` @.` ,.@.w.3 % ",
"t q t q q q t q 0 q ` ` ,.,.,.` t ` ,.w.,.` ` t @.q t 4 1 q t @.,.w.w.` ,.i.@.@.,.` ` t ;.` ,.0 ` 7 ` ` ` ;.w.,.s t ` s s w.3 # ",
"s 3 t q t q q q q q q s s t ` s ` @.,.;.w.@.t t s t q q % 5 t ` @.,.@.,.,.h.@.t ` ` ` t @.@.,.t t t t ;.` %.,.,.s q ` t s ,.q @ ",
"@.t q q q s q t s s 3 q s t s q t @.w.@.` s q t ` 0 t t $ q t @.@.,.,.,.` ;.t t C ` @.` ` ,.,.t C @.t ` ;.t ` ;.,.t ` t @.,.3 # ",
"@.,.;.C t t s t w.q t 0 q t q t ` s @.` t t q t t t ` w $ q q ,.@.;.` @.` @.t ` t @.,.@.` ;.` t C ,.@.C @.q s ` ` s q t %.t 3 % ",
"N =.N N N s @.@.w 0 w 7 q q t q w s t ` s q t ` t s @.0 % q q @.,.,.@.t ` ;.t ` t ` ,.` t ` ` t C ` ,.,.t s ` ` ` s 7 s s s > % ",
"1 1 1 1 < 1 4 4 5 w c y N c w w N @.=.s N @.%.=.@.c 4 > % q t ,.j.y.,.t ,.` ` ` ` ` ,.,.;.` ` q ` ` ` y.t s @.,.` ` 0 t t t 1 % ",
"> < 2 3 2 = $ % > 1 : 1 1 1 3 4 4 4 5 5 5 w y 1 1 1 @ % : t t g.j.j.,.,.,.` t ` s ` ` ,.;.@.` 0 ` ` @.,.` ` t ` s ,.t 0 t q 1 % ",
"7 q q q q q @ % % % % % > % 1 > 1 : : 1 1 1 > > 3 1 > 1 > t @.g.j.w.w.y.,.,.t t t ;.` @.;.` ,.s t ,.,.y.,.,.%.@.t @.` , 0 q % % ",
"0 q q q 7 , % % % % % % > % & % % > > 1 > > = > > > = > % w %.g.g.,.,.,.,.y.t q ` ` ` @.@.;.y.q t ;.@.,.y.;.,.` t t q 3 q @ # # ",
"0 3 7 3 0 > : $ % % 1 > # = > = = 2 > > 7 t t t t t ` 7 % 1 w w.w.g.,.` y.,.7 t ` ` @.,.` @.w.s ` ,.,.@.,.,.,.@.` t 0 t > @ = t ",
"3 3 3 0 4 3 % @ # < < 3 u t t t t ` @.@.t @.` C ` @.` ` > > > 4 @.w.@.,.%.t t @.` ` @.,.@.@.` ` s @.@.,.,.@.,.,.` ` 0 t $ @ > C ",
"t 0 7 3 3 3 % @ % > > > 0 ,.,.` t ` ;.;.` ` t ` ` s s %.> < 1 > > s w.t q t ` @.` ` @.@.%.@.` @.@.` ,.w.w.t ` s @.` s q % % 1 @.",
"0 3 7 0 3 0 > # # B t. .C ` ` t C @.` w.@.q t @.,.@.t q 7 > 3 0 @ > N @.w s ` @.%.@.N w w s N =.@.w.w.s.c w @.` @.%.N $ @ > 3 t ",
"7 0 0 q t q > > > t.y.,.` ` ,.;.` ;.C ,.,.t t C ,.,.` ,.` t.s q X % 1 1 < 3 3 4 4 3 1 > > % % 3 w 5 1 % % % & 4 1 % # @ % 1 : ` ",
"q q q t s s % > t w.w.,.` ,.,.` ,.;.@.` ,.@.t ` ` ,.,.` ` y.,.t @ $ % > < % > # # 2 7 2 D t 7 < > > > > = = + # o o o   # % % ` ",
"q t q s ` ,.> 3 t g.,.,.,.y.;.;.,.} ;.t ` ;.` C @.,.,.t ;.@.,.C @ @ % % 1 > > t ` ` ` t ,.` ,.7 2 D t.%.t ;.` t q 8 3 > @ @ % @.",
"s t t t @.,.@ % 9 ,.,.y.,.,.,.,.` y.,.t ,.` ;.;.;.,.;.@.,.,.,.` $ @ % # 8 q ,.@.,.,.,.s ` ` ,.s t ,.@.,.` ` @.@.@.@.@.0 X @ % t ",
"w.` ` t t ,.@ > ` h.w.,.,.@.,.,.,.w.,.` ` ,.y.,.,.@.;.@.` ,.,.t @ $ # t s q q @.%.,.,.s s ` ,.,.` s @.` @.@.t w @.@.@.3 @ @ @ ` ",
",.` ` ` t t $ > ;.i.t.t.,.,.@.@.,.,.,.,.@.,.,.s ;.` ,.,.` ` ` 0 3 # q @.@.s ` s q @.w.@.@.@.w.@.@.t ` s ` s t q q ,.,.3 % o @ ` ",
",.g.` ,.@.q $ > ` h.i.,.,.,.,.` ;.;.w.,.;.@.@.t ` @.,.,.@.@.` t > @ 4 %.,.,.,.t s s =.%.,.w.,.` @.@.@.s t @.s s t %.w.0 > @ @ t ",
"` w.@.0 q t % % ` g.g.y.w.,.;.,.` y.w.g.;.` ,.` ` @.@.@.;.,.` 7 > @ 0 t y.@.y.w.` s @.@.,.@.,.` @.,.,.` @.@.@.,.@.,.@.0 > @ @ t ",
",.,.` ` 0 t $ % s w.,.;.;.,.@.` ` ;.` ;.g.y.@.C ,.` ,.,.@.,.C 7 > @ t @.y.,.=.;.@.@.s s ` ` ` s %.w.@.@.,.@.s w.w.@.@.t % % @ 3 ",
"@.` ` t q 3 > % t w.;.` ,.@.,.@.t t ,.w.,.;.` ` ;.` ,.` ` @.` t @ # t ,.w.y.,.;.s q t s s s @.s s ,.@.g.@.@.@.r.w.@.@.q > @ . 3 ",
"` ` 0 q 0 q > % q g.y.y.;.,.` %.;.` ,.,.w.` @.;.,.` ` @.,.,.s q + $ t ,.w.y.,.@.@.s s s s t s t s @.@.g.t ` @.w.w.@.N q , % o 1 ",
"C C 8 e t t @ # 3 ,.j.t.,.` @.` ` @.,.,.,.@.t @.,.` @.@.;.,.` t @ % ` ,.w.,.%.,.@.t t s t t s s s @.@.,.s @.,.@.w.@.s @.> > @ @ ",
",.` w.,.7 t @ # : @.,.g.` @.@.` @.,.,.,.,.` ` @.@.` @.@.` ,.@.t @ % t w.w.,.` ,.,.` ` ` s t q ` s s s w.s w.,.@.@.@.@.q 3 1 @ @ ",
"@.` ` @.,.` @ @ 1 @.g.y.,.` t q ` ,.,.,.,.` @.,.;.` @.,.w.,.,.@.@ % ` ,.w.w.@.,.,.,.,.@.s s s s s t s s s %.s q @.@.s 0 3 4 @ @ ",
"@.t q q 0 @.@ @ 1 ;.j.h.,.t ` t ` @.,.@.` C ,.;.;.` ;.,.,.,.w.@.% % ` ;.,.;.w.,.,.,.,.,.s t 0 s s s s s s ,.%.s w t t 0 3 3 @ @ ",
"C ` t 0 3 t > @ > ` h.y.w.t ` C @.` ` ` C ` ` ,.` ,.` ,.,.` @.` $ > ,.,.w.,.w.w.w.w.@.@.t t t t w.s s t @.%.%.%.q q t q 0 > @ @ ",
",.` ` t t q 3 @ % s j.g.w.@.` ` ,.` ` ;.,.` ` ` @.,.,.,.` ` ` ` > 1 ,.w.w.w.%.@.w.w.,.@.` t t t t q q ` s s %.=.` q s q 1 > @ % ",
"t ` ` ` t q 3 o % t j.y.w.@.;.,.,.@.,.` s s ` @.` ;.@.;.@.@.` t 4 : ,.w.g.w.%.s ,.,.,.@.,.` ` t q s q s ` @.s ` s t 3 4 > @ @ % ",
"` ` ` t t q q @ % q h.g.,.} ;.;.;.` ,.` t t ` ,.;.@.,.` ;.y.` ` 3 1 @.,.,.@.w.` @.,.w.C w.,.` q q t s %.,.` %.` t s q 0 > % @ $ ",
"t t t t q 0 3 # > 4 h.t.t.t.,.,.,.,.,.t 0 t ` @.@.C C ;.y.,.,.C > : s s ,.` w.%.,.,.,.` ` s @.` %.t s s s s s @.t t ` , : % o o ",
"` ` } q 0 3 7 > > 3 h.i.i.y.,.,.,.` ` @.t C t s ` ` ` y.y.w.;.q 1 1 ` 7 ,.,.` %.,.@.w.@.,.s 0 @.%.q q t q s @.` @.` t 3 > % @ @ ",
"t ` t.0 q 7 0 > % 3 t.h.i.h.;.,.@.` ,.;.C q t ` @.` ` ;.,.,.;.t : 3 ` @.t %.,.s C @.@.@.w.@.0 s t q q s q s t ` @.` 0 3 : % $ @ ",
"C ` y.t 7 q q > % 3 i.h.j.y.t.,.@.` s t t t @.@.@.;.` ,.;.w.` s 1 3 @.` @.t ,.@.@.@.,.@.s t t %.@.q q q t s @.@.,.s s t 3 % $ > ",
"` ` s q t 3 q > % 1 y.h.h.,.,.,.s t 0 t ` ` C ` ` @.,.;.,.,.` s 1 1 ;.,.@.@.;.` ` @.w.%.t q s s t s 0 q s @.t ` ,.q q t > > % 3 ",
"` ,.w.t > > 3 % > : ,.j.y.,.,.,.t ` ,.t ` t @.C @.` ,.,.` @.t t : 1 @.,.@.w.@.@.@.,.%.@.s t s s q s t t t ` q @.w.C t q > % % 3 ",
",.t @.s > 3 3 % 1 1 @.w.,.,.@.w.,.@.,.,.t q ` ` ` ;.;.` t @.t t % > 5 w.` t w.,.,.,.t ` ,.w.@.` t @.,.,.` ` s @.j.;.w.0 > % # 3 ",
"7 t w.@.3 q q > 3 1 s t.,.@.@.,.@.,.` t t q t t t q ` t C ` ` q % % : @.,.t w @.@.C @.` @.@.w.w.,.,.,.,.@.,.@.` ,.@.@.@.: $ @ 3 ",
"` w t s w w w 1 1 1 t g.,.` ` @.` t t t t t t ` t ` ;.` ` ` ` 7 % % > s ,.` ` q @.@.@.@.@.w.,.1.,.w.,.,.;.@.@.@.` @.@.q $ % @ , ",
"w > % > > % % > > 1 q h.w.w.7 ` ` t 0 ` ` ` ` ` @.t ` ,.;.` ` 0 % > 3 ` ,.w.y.` s ,.@.,.@.@.@.w.w.p.y.w.,.` s @.,.` s q : @ @ 0 "
};
