/* XPM */
static char *obl13[] = {
/* columns rows colors chars-per-pixel */
"64 64 184 2 ",
"   c #0B0E0E",
".  c #0B0F10",
"X  c #0C1314",
"o  c #0D1718",
"O  c #0E1A1C",
"+  c #111616",
"@  c #121817",
"#  c #141718",
"$  c #141B1B",
"%  c #1A1E1D",
"&  c #1D211E",
"*  c #181E20",
"=  c #141E23",
"-  c #162121",
";  c #1C2322",
":  c #1E2827",
">  c #1C2728",
",  c #1E2829",
"<  c #222623",
"1  c #252926",
"2  c #2A2B26",
"3  c #222728",
"4  c #252B2A",
"5  c #2B2E2B",
"6  c #312F29",
"7  c #2D312D",
"8  c #32332E",
"9  c #38362E",
"0  c #3D392E",
"q  c #2A2E30",
"w  c #273230",
"e  c #2D3331",
"r  c #2D3837",
"t  c #333632",
"y  c #383731",
"u  c #353934",
"i  c #3B3B35",
"p  c #353C39",
"a  c #3D3E39",
"s  c #423B2E",
"d  c #413E34",
"f  c #403F39",
"g  c #3E4137",
"h  c #37413D",
"j  c #3E413C",
"k  c #434136",
"l  c #4A4335",
"z  c #43433C",
"x  c #49463D",
"c  c #46483F",
"v  c #4B493E",
"b  c #514736",
"n  c #554A37",
"m  c #544D3D",
"M  c #594E3D",
"N  c #5E513B",
"B  c #3E4443",
"V  c #454641",
"C  c #494741",
"Z  c #454943",
"A  c #4C4B43",
"S  c #464A49",
"D  c #4D4D48",
"F  c #514E44",
"G  c #514E48",
"H  c #4F514A",
"J  c #545146",
"K  c #5B5445",
"L  c #5E5947",
"P  c #55534A",
"I  c #5A564B",
"U  c #56584E",
"Y  c #5C594D",
"T  c #4D5250",
"R  c #575651",
"E  c #565953",
"W  c #5D5B52",
"Q  c #5E5F59",
"!  c #625643",
"~  c #655945",
"^  c #60574B",
"/  c #635C4D",
"(  c #685E4E",
")  c #685B45",
"_  c #635E52",
"`  c #695F51",
"'  c #605F59",
"]  c #5E6059",
"[  c #65614F",
"{  c #6A614F",
"}  c #656154",
"|  c #6B6354",
" . c #6E6856",
".. c #656359",
"X. c #6B655A",
"o. c #6D695D",
"O. c #716655",
"+. c #736956",
"@. c #7D6E57",
"#. c #716759",
"$. c #736B5C",
"%. c #796D5D",
"&. c #7A715E",
"*. c #676761",
"=. c #6D6C61",
"-. c #736E61",
";. c #786E61",
":. c #767164",
">. c #7B7364",
",. c #7F7866",
"<. c #767369",
"1. c #7C7669",
"2. c #7D796B",
"3. c #767771",
"4. c #777871",
"5. c #7F7C72",
"6. c #806E5C",
"7. c #80735F",
"8. c #827665",
"9. c #847A66",
"0. c #897A64",
"q. c #807769",
"w. c #827D6E",
"e. c #847B6C",
"r. c #8A7D6B",
"t. c #817E70",
"y. c #847D70",
"u. c #887E71",
"i. c #8C806D",
"p. c #91836E",
"a. c #868072",
"s. c #868375",
"d. c #858174",
"f. c #8A8575",
"g. c #8C8373",
"h. c #87847A",
"j. c #8A8678",
"k. c #8E8778",
"l. c #8A8579",
"z. c #8E897A",
"x. c #8E887A",
"c. c #928573",
"v. c #958976",
"b. c #9A8A73",
"n. c #938778",
"m. c #908A7A",
"M. c #938A7A",
"N. c #9B8E7B",
"B. c #9C927E",
"V. c #A3937C",
"C. c #918D80",
"Z. c #948E82",
"A. c #9D9686",
"S. c #9C9483",
"D. c #9C998F",
"F. c #A49683",
"G. c #A59983",
"H. c #AB9C84",
"J. c #A19B8F",
"K. c #AA9E89",
"L. c #B09E85",
"P. c #AEA18B",
"I. c #B2A087",
"U. c #B3A38C",
"Y. c #B9A78D",
"T. c #A5A093",
"R. c #AAA191",
"E. c #AEA99C",
"W. c #B3A691",
"Q. c #BBAC94",
"!. c #B4A895",
"~. c #BAB0A1",
"^. c #BCB9B1",
"/. c #C4B297",
"(. c #C3B49D",
"). c #C8B79E",
"_. c #CEBB9F",
"`. c #C6B7A1",
"'. c #CDBCA4",
"]. c #CCBEAA",
"[. c #D6C4AB",
"{. c #D8C4A8",
"}. c #DDCBB2",
"|. c #E5D3BB",
/* pixels */
" .%.Y / Y Y J A  .Y Y I D J Y I A Y Y g z a y z y i g i A Y I >.%.Y Y _ =.W Y :.I i F ,.J z Y <.g.j.s.:. .A I ..=.=.<.Y I J ..Y ",
"} %.+.&./ +.{  . .Y 8.8.%. .7.J  . ./ J I F F } z J z I J I J :.>.j.e.} } %. .&.%.s.Y :.v.m.S.m.E.j.R.g.%.} } y.Y W <.:.:.2.} X.",
"%.>.&.+./ &.e.&. .e.&. .>.+.v.[  .>.%.}  .>.I Y z J z Y A g Y  .x } _ }  .S.x.E.Z.T.:.m.g.s.J.S.^.T.x.g.2._ y.X.W } =.:. .Y  . .",
"%.m.>./ L / K K [  .,._ } %.8. . .>.} 2.e.>.%.Y I I ..%.} Y F A J Y } _ ;.Z.x.g.:.g.j.s.e.g.<.>.j.>.s.;.<.%.X...2. . ...W ..Y A ",
" .%.+. . .{ %.J / / Y Y %.e.>.%.g.N.:.2.:. .e.X.:.Y z W e.g.%.} _ %.Y W x.} y.y.Z.m.Z.x.s.s.y.<. .2.2.X.<.s.;.W <...z Z W  .A W ",
"%./ / %.K Y Y I / } } %. .%.:.A 2.i.S.g.>.<. .;.>.} W Y / >.A J %.Y Y A =.} m.5.....D.j.j.<.e.Y S.S. .g.g.Y A I ;.} } } I I I J ",
"[  .%.Y I x Y }  .Y A }  .} s.I :.F.%.%.%.} e.e. .I a } e.g.} J W Y J I X.X.<...=. .j.<.s.S.S.S.S.s.:.<.:.2.=.U U <. .j.e. . .I ",
"v J } _ J X.A J  ./ F } I X.}  .} r.g.:.X.A I _ Y :.Z J  .X.} ;. .} Y I :.:.:.<.2.<.x.2.s.<.s.s. ...] =.W W ..A %.e.} X...A 1 y ",
"A I I %./ Y } >.%. .I %.>. .<.:.} m.g.e.Y A  .Y _  .Y I >. .X.%.A W J A W :.<.=.:.q.<.....j.x.;...Y Z.y.e.X.=.I >._ :.Y 5 5 $ $ ",
"}  ./ %.Y Y Y &.i.%.K J _ I ..=.} X.} I e. .J  ./  ._ } Y _ %.} I F W W } ;.;.X.;.%.g.E E ..m.R.S.<.x.<.~.X.<...:.} D W _ ..W ;.",
"I  .Y } %.%.Y J K J F J Y  ._ W g.J ..;.>.;._ %.%.A z A W Y J Y I  .I v I X.q.e. .u.g.U W ..=.5.m.Z.j.<.j.e.m.:.g.`.}  .O.I W W ",
"z z z A J v A y  ./ I Y v X.I :.>.>.} ;.;.I / _ <.I A A z _ %.%.I ` I #.Y F I i.X.A <. .m.m.=.=.3.Q 3.<.j.g.=.<.2.[.'.|.[.H.W _ ",
"A J A v A / m z x z z Y I A X.:.m.e.>./ I _ F J I A A A z I F f I } I I I I J %.} y :.m.B.B.S.W.<.=.j.Z.=.<.Z s.W.I.I.Q._./. .X.",
" .>.I A Y  .%.A v J W K F W W :.e.K Y / I A A J Y F K I F F v A z y J I I F I J I e W v.V.B.S.).Q.N.B.'.Q.S.P./.U.Q.`.|.}.'.X.X.",
"/  . .Y / O.[ k A A x _ Y Y I X.g.%. . .v x F z A x K K ( ^ z v i z x z z F _ %.I 7 2.N.g.m.'.Q./.P.F.'.L.[.U./.].>.g.B.H.Y.>.W ",
"/ I K J k m K / K ( >.I <.I ..X.2.g 5 z F A z 2 I J F F K x x z a z A A z A I _ I g e.} g.e.g.P./.Q.P.'.P.U.F.m.m.=.B E F.N.X.y ",
"i A k / v J v z _ I p y g E ..A >.Y > $ 1 < < > 5 1 & $ y > < & & > 1 1 1 - w A A y _ %.} 2.g.m.S.S.8.F.Q.x.] 1 - 1 T Z W I W y ",
"5 y e.F. .C _ a a A <.;.%._ I S.n.N.v._ Y I _ X.;.X.A I I A z z I W ..X...D I m.%.Z 1 p w 1 1 e g h H I Z y y Z R y e e 7 D X.A ",
" .I _ ;.O.>.%. .I I %.;.;.} %.%.I W _ e.#.I I q.;.X.e.Z.y.e.<.X.;.%.I ;.X.>.#.%.n.p.Y Y A I I z y z Z y e I ;.;.X.W <... .%.%.N.",
"g z Z a I F F I y i Z C y i A Z Z C Z A X.g.8.>.I W 8 A z F f z i z %.X.} a ;.A 8.8._ J  .u. .%.;.;.%. ._  ...;._ X._ ;.>. ._ Y ",
"7 y 8 a z y 7 i < 5 y y y i a i y Z a a y y _ n.z z i i i i 8 8 y i z _  .1 I r.e._ _ / I A i I Z A J a i A z y W I e W e. .Z Z ",
"5 7 7 y 5 & & % > 8 8 i 5 5 7 8 7 y e e y A  .e.z i 8 i z z 2 5 7 7 8 i >.e A Y I z G / F y A A g g I A A z i y a I 1 I #.I a g ",
"7 y 5 5 7 5 5 < 5 y y 7 7 1 5 5 5 5 5 y 5 a  .e.8 g z y f y z 8 7 1 5 8 / a y I &.y a I z 1 Z I A z A I ..W I ;.A I y g X.W a A ",
"y 5 8 < 1 < & < < 1 & % < < 1 < 5 7 1 < * g  .e.y A i 8 i 8 8 5 8 7 7 A _ e g I I A A F z 1 I W _ W A X.%.%._ z I X.Z A J i A y ",
"y 8 1 1 y 1 5 5 1 > % 5 5 1 & 1 5 & 7 > e A r.n.y 7 5 a i 2 < 2 y 5 y a  .< a a z I I } F 1 g Z A A z I _ I z ..X.e.7 7 F / } / ",
"$ $ X % 1 1 1 $ $ $ $ .         X . X % y _ >.&.g e < > % @ X X X X $ z %.y $ > > z y A W > y Z A g Z U A W g Z _ S.7 1 1 , = > ",
"z a g a i i z v x v x F _ Y v F J A A } e.>.r.m.Y Y ..=._  .;._ W I W X.>.>.D 1 > > 1 Z ..z $ > > > e 1 e p p Z <.S.m.W y g A Z ",
"8.r.r.i.r.p.r.8.g.e.>.<.e.e.q.%.%. .%.e.>.>. .%.} _ X.X.%.I  ._ _ X.;.;.X.%./ W R I  .I e.m...} _ W } >.>.%.>.>.;.y.;.:.W X.<.>.",
" .>.8.n.V.v.8.%.} I I I I X.;.F v / X.x } J >. .I A I >.X.z z A a a z a _ %. . .%. ._  .i.>.%.%.e.e.m.m.e.<.<.%.e.N.e. .m.;._ ;.",
"W W I X.r.e.z Z A z a i i z z 8 i ;./ 5 1 5 8 < 8 i 8 5 i a y 8 < 2 i i i k 9 x / &.i A X.;.g.g.>.%.g.A e.>.I X.m. .A A ..%.N.#.",
"A H } n.r.i.y < i z i a f x A 8 I ` / z 1 7 y 8 i 8 i z i i Z 8 5 < 1 7 8 < < f K 8.< A I } Y A Z D I D I z W I W <.<.:.>.g.F.q.",
"W I n. .&.V.1 < f F 8 a I z i y z I ;.A A J x i a z y z 8 8 i z 8 > $ < 1 < i 2 y x y 5 A X.e.>.;.%...D A Z A g a e g Z :.u.q.<.",
" .W %.;.v.b.a > i k f y 8 i y 5 i K 8.8 7 2 8 8 7 i 5 i a 8 y y 1 2 i < 5 y m F k A a y >. .J / g._ R *.*.Q Q Q Q W I A  .<.5.I ",
"} X.r. .Y v.y % 5 i i v i 5 5 % 7 F n.k 7 y i y i i i z y y a 7 % 1 % z & x i J z z y A %.X.;.g.>.Y D A W  .=.;.=.} g W B p e Z ",
"' A  .I } F.z $ 1 7 5 5 7 5 1 1 5 a N._ X > 1 7 7 7 y i 5 & < 1 & @ X X X X + > 5 z 1 y I X.;._ %.>.:.e.e.%.g.I y e O O > 1 B S ",
"1 y Z _ F.N.K.I 5 < % 2 8 $ 1 < y I N.i.z 1 < y D i > y x I I %.:.} I } X.} A _ X.Y 5 5 e y A 1 p Z C z z A 8 5 7 7 g a g A :.X.",
">.%.i.r. . .8.8.r.r.H.r.b.r.b.H.V.V.F.U.!.%.I / #.I _ X.<.g.e.C X.e.e.y.;.J J Y I _ ;.A z Z D Z Z C G I A A _ %.%.X.X.X.%.%.q.m.",
"/ / 8.F i i y y J /  .r.I I x g.I }  .} } b.%.%.q.A I A a F C Z 5 A ..W I i v A A F J I _ F I a A A I f F _ C C _ =.A z G z Y I ",
"g I z z y z i v J z I _ _ A A g y y a Z y ` x x z 7 a I g W A y 3 e S a Z 7 A F z J I I  .A Z z y C A i y z I F I C >.A A W Y W ",
"e x A z z F F x a a i i I >.%.W A D D D g z e a =.5 i z 7 y y a 3 q e W a 5 F Y I I W e. .i y y 7 z z a Z C a Z A a } A W A A z ",
"i F F A z I J z i i a y y A ( Y >._ z I _ X.y Z I _ I A < i 5 < 5 e a ..z i 8 i y z 7 x  .1 i y y y z y y y > y z g W A z I A W ",
"8 J v I I i 5 5 8 y 5 7 a A %./ / X.D y i I A X.I A ;.F < < & y % 1 a %.i i K f z A i I %.< i y 8 8 y < 5 < $ A z > $ i A A A } ",
"% g i 1 7 g A 7 y 5 5 y J / x r.+.r._ D _ _ i ..Y e Z > % e a g q 1 e I A $ 5 z 8 v y < i < y 5 5 5 y 1 3 y y X.:.> X 1 i I Z 8 ",
"1 o X X O $ 1 1 Z 1 > > 8 g A g 7 y y 5 1 < 2 f g.y 1 7 1 y > & < 1 i g.>.7 o X + > 5 5 g $ X X X X $ + X $ < <.g...W e > > > > ",
"n.>.J A D A g y y F _ y 7 a g g i z A J _ I Y %.N.%._  .>.>.%.Y O.O.O.O.%._  .W A I W =...I z z y 5 a x I I G  .} <.;.:.=.I :.e.",
"i.n.v.g.` 8.;.%.n.n.>.X.z z  .>.8.%./ >. ._ ( K  .z K _ O.%.{ ( / K ( ! K A >. .I W A F x .._ I x A F _ I I I _ X.C G z A Y X._ ",
"W W q.e.%. .7 g a  .} y 7 > 1 5 I _ z Y J K K m x x x l 5 k l l M s l 0 8 1 y F z z y A y > 8 f z f a y y 5 8 z I I a A A C _ < ",
";.:.} >.8.J a 1 1 y 8 A e 5 1 < J z y z z F F m M ! ! m z 8 1 i l N b m 9 1 7 ;.:.7 y a y 1 8 x f y 5 7 y 1 y f z i y i G I _ y ",
"m.S.W >.p.I 8 F 7 A $ 1 f v 1 1 J k 1 f f v l l b b f s 8 9 8 9 i s s s 8 < 5 y X.$ i x Z 7 8 i i z 8 5 y 1 1 z i i y F _  .I e ",
"P.K._ r.V.I i  .^ i i 8 s 8 1 1 A f 1 i m N M l s 9 2 i 0 f 0 M b 8 0 l 8 < 7 A z > z A x A z z F 7 y 5 8 5 5 x z y f x _ Y Z p ",
"g.e.W ..b.z > _ m x J _ 8 5 5 <  .x 7 i l m N 9 2 6 8 8 ! b m M m M l 0 x y 5 5 y < y y i y i 8 7 1 5 i f a 5 z i 5 i z A J a B ",
"W 2.X.X.F.z O g i e 1 A O 1 > > F  .$ 8 f k m 8 7 k m m l 0 8 & < 6 8 & % $ * 1 I 1 < > X o X > $ < % # % 1 > < < 5 8 i a A X.% ",
", p r g J >.i y z %./ i x 1 7 i 8.8.D y 1 < > 3 1 > 8 5 8 y 5 e > 1 > 5 < 1 z I O.A 5 y I I I y 7 7 y y y 7 1 5 e $ $ $ 7 W s.A ",
"A I Y _  .V.%.6.%.8.%./  ./ x x K /  . ./ X._ I W X.W J I / F Y  .%.Y J z %. .F v Y I I Y Y X.:. .X.g.e. .:.} X.A A I } I _ } J ",
"X.#.8.%.J  .I / z z z y Z z x z I x F z z Z _ I a J K I z J  .I %.n. .z 5 x i 7 i F I I A Z  .<.X.X.} _ e. .%.Y Z y A I I I I I ",
">.u. . .a K / 8 z F Y C f z J i z z I Z y i J I 7  .{ %./ F _ Y / 8./ a < 8 7 8 i A f z y E  .I _ A A }  .m ( / Z 1 A a z z a i ",
"%.8.W I I F A i z z F I F i z F F i y I z W Y z , / / K +.7.K Y #. .%.y i x 5 5 y z m I 7 y I W X.X.I / i z J / y g A J A a Z z ",
"A } Y _ %.J A i F } F v J a y y z z A /  .>.F z , / J Y A Y J I 8. .%.z 8 f f % 8 z m A a A Z i z v Y z k m / J 1 y F F a y > g ",
"A I X.I F / A  .}  .J I Y i y 8 i z Y  .J  .I x , Y  .Y i i I v  .%.%.A i K M 8 8 i K g 5 c v / Y K J m ) @.K :.* A A J a D z a ",
"/ W A I J O.F F v }  .K >.z v z A A z i y I z z > 1 1 5 y 7 z z >.+.>.I > < 2 5 % < v X.7 z v x g } z m ! @.J Y O g z y 8 z i i ",
"e 1 e A g y e g k y y y i 1 > > > $ > > 5 e x / g y 5 1 1 < 1 5 i J %.2._ X._ ;.I i a X.z 1 1 > - > > > < 7 y >.1 > > O $ o $ > ",
"K i i i z i i i y v F I J A z y G i A I #.%.8.8. .` I ^ / _  ._ x Y I I A a I X.X.C z W } I I J I J I I A f A v _ F z z A A J J ",
"K x J O.6./  .J y Y / / I A F  .;.I a z x z i f z A z y y a i 5 1 1 3 1 < < 1 5 z 5 I Z F I I z i f i 9 z i i A Y / F x  .Y Z a ",
"1 1 1 i K x y < $ > < 5 & > > y z I 1 y y 5 5 7 5 8 1 5 y y 8 < 5 1 1 1 q 1 > y a $ y i z A y 8 8 f i i i 7 5 8 < 8 i J i F > = "
};
