/* XPM */
static char *obl10[] = {
/* columns rows colors chars-per-pixel */
"64 64 178 2 ",
"   c #0B0C0B",
".  c #100E0B",
"X  c #14110D",
"o  c #18140F",
"O  c #0E1213",
"+  c #111416",
"@  c #1C1612",
"#  c #151917",
"$  c #1E1915",
"%  c #131619",
"&  c #151A1C",
"*  c #1B1D1D",
"=  c #221B16",
"-  c #251E1A",
";  c #1C211F",
":  c #26201C",
">  c #29221D",
",  c #171E23",
"<  c #1A1E23",
"1  c #221F20",
"2  c #1C2225",
"3  c #1E242A",
"4  c #1F2A2E",
"5  c #232222",
"6  c #2D2522",
"7  c #2F2924",
"8  c #22262B",
"9  c #23292D",
"0  c #2B2B2D",
"q  c #302725",
"w  c #322A26",
"e  c #352D29",
"r  c #382F2D",
"t  c #373026",
"y  c #37312C",
"u  c #39322E",
"i  c #222731",
"p  c #242B33",
"a  c #292D34",
"s  c #272E38",
"d  c #292E39",
"f  c #263035",
"g  c #2B3236",
"h  c #273238",
"j  c #2C333B",
"k  c #2F383C",
"l  c #353234",
"z  c #3D3532",
"x  c #3E3934",
"c  c #30363F",
"v  c #3A3739",
"b  c #32383F",
"n  c #3C3A3A",
"m  c #403735",
"M  c #403931",
"N  c #403835",
"B  c #423A35",
"V  c #413836",
"C  c #413936",
"Z  c #413A37",
"A  c #423A37",
"S  c #423937",
"D  c #413936",
"F  c #433A38",
"G  c #453B39",
"H  c #433C39",
"J  c #443D39",
"K  c #473C3B",
"L  c #453E3A",
"P  c #463F3C",
"I  c #453C3A",
"U  c #483F3D",
"Y  c #46403D",
"T  c #49413E",
"R  c #49413E",
"E  c #2E3542",
"W  c #323642",
"Q  c #343B44",
"!  c #393D46",
"~  c #363C49",
"^  c #383E4A",
"/  c #384044",
"(  c #36404A",
")  c #3C424D",
"_  c #3E4451",
"`  c #444343",
"'  c #4D4241",
"]  c #4E4443",
"[  c #4D4341",
"{  c #4B4946",
"}  c #41444D",
"|  c #41484F",
" . c #4D4C4B",
".. c #504645",
"X. c #514846",
"o. c #534D4B",
"O. c #50514D",
"+. c #54524E",
"@. c #414653",
"#. c #444955",
"$. c #484D56",
"%. c #454B59",
"&. c #494E5C",
"*. c #4C515D",
"=. c #565452",
"-. c #585754",
";. c #585753",
":. c #5A5A56",
">. c #5D5B56",
",. c #5C5A56",
"<. c #5E5D59",
"1. c #5D5C5B",
"2. c #605E57",
"3. c #615F5A",
"4. c #605E5B",
"5. c #63625D",
"6. c #64625D",
"7. c #4D5362",
"8. c #515563",
"9. c #525866",
"0. c #5E5D60",
"q. c #565B6B",
"w. c #595F6E",
"e. c #595F70",
"r. c #5D6272",
"t. c #656463",
"y. c #696763",
"u. c #676867",
"i. c #6B6A65",
"p. c #676968",
"a. c #6D6C6A",
"s. c #716C67",
"d. c #706F6A",
"f. c #6F706B",
"g. c #73726D",
"h. c #78756F",
"j. c #6E6E72",
"k. c #636778",
"l. c #666979",
"z. c #696D7E",
"x. c #757572",
"c. c #787773",
"v. c #7B7A75",
"b. c #777779",
"n. c #7D7C7B",
"m. c #807C73",
"M. c #817F7A",
"N. c #83827D",
"B. c #89857D",
"V. c #7E7F81",
"C. c #7E8081",
"Z. c #848483",
"A. c #898682",
"S. c #878885",
"D. c #8B8A85",
"F. c #868689",
"G. c #878889",
"H. c #8C8C8B",
"J. c #908C87",
"K. c #918E8A",
"L. c #93928D",
"P. c #98948F",
"I. c #8E8E91",
"U. c #8F9092",
"Y. c #949493",
"T. c #999692",
"R. c #979895",
"E. c #9B9A95",
"W. c #959699",
"Q. c #97999C",
"!. c #9C9C9B",
"~. c #A09E99",
"^. c #A3A19D",
"/. c #9C9DA1",
"(. c #9FA1A1",
"). c #A6A4A1",
"_. c #A8A6A2",
"`. c #ABA9A4",
/* pixels */
"N N m z u r u 6 = 6 e e w > w u e : w e w 7 z w z z z z u z w w w e q - - > 6 6 6 - - - - = - - - - - - : 6 w r e 6 6 N P e = N ",
"N N z e e e w > $ - e z e 7 6 u z : 7 w > e 6 u z z z P u u N z w u z e w e e e w > > w u z z z u w w > : = = e z P z P u e > N ",
"N z N N e 6 w w : $ $ > > w > > e e e e w u z z z z u N N z m z z N N z z z z z z w > w r u N z z u u u u u e w w u u T N u w z ",
"u u N P z e w 7 w e w w w w w 6 > 6 e e e e u z z u z u w w e u u z z N N N N z z e w z z T ' ' U z u N z v u u u N N ' ' N z e ",
"z e N T e - - 7 7 e e e u v v u e e w w 7 6 e e u e u u e e e e u u N N N P P P N z e z u u z P P Y T T P N z u e e w P ..P z e ",
"P P P ' u v { O.;.;.:.:.:.:.:.:.O.Y P 6 6 r z n O.:.:.1.1.:.:.4.1.1.1.:.1.1.1.:.X.v e z e u u Y O.:.6.u.6.4.6.6.1.O.' ' ..P ' e ",
"P P T T z { 1.t.u.a.g.x.g.g.g.a.6.O.U e 7 u z  .6.u.a.g.g.g.x.x.x.g.x.d.g.u.u.u.6.{ u z z u u -.u.g.c.v.g.g.n.n.g.u.:.' ' T ..u ",
"P N T Y z  .t.a.x.n.N.S.N.S.N.v.d.:.P u q z N O.u.c.v.v.n.n.n.n.n.v.c.v.v.v.v.g.u.X.u N N 6 : 2.g.v.N.D.N.N.N.S.v.u.6...' T X.m ",
"U N P N z ;.u.x.n.S.D.D.D.D.A.N.c.1.P z e z N X.u.v.v.n.N.n.N.N.n.v.x.c.c.c.v.x.y.X.u N N - - 6.v.N.D.D.D.D.D.N.n.g.:.' ' U X.P ",
"P z N N v -.a.v.S.D.D.L.Y.L.D.S.v.6.T N e z m { t.f.g.x.x.g.x.c.g.g.a.d.a.a.d.u.6.` u P N : : 6.M.A.D.J.K.L.L.D.N.c.:.....T X.P ",
"P N U N v :.f.n.S.D.Y.T.Y.Y.L.D.v.6.' N e z z v { X.O.-.-.-.:.:.-.-.O.;.;.O.O.X.{ v u P z 8 : y.M.D.J.L.L.Y.L.L.D.c.2.....' ' P ",
"P P ' T P ;.g.n.D.L.Y.R.T.Y.L.D.n.6.' z w e u u z z z z u w z P T P P z u z z u w 7 u z z * - y.N.D.K.L.T.R.R.R.D.c.:...' ' ' T ",
"N P ' ' P 1.x.N.D.Y.T.Y.Y.Y.L.D.N.u.T u w w u u e r u e w > u u z u u w w > > > w u e e > > w u.N.D.P.R.R.R.T.L.D.g.4.' ' ' U N ",
"z P X.v v t.v.D.D.Y.R.!.!.Y.K.D.N.u.' m 6 e z $ * 8 8 - * 8 8 8 8 7 7 8 9 8 7 e l 7 u z q e 7 y.N.K.P.R.T.L.L.L.D.g.:.' ' ..u z ",
"> 6 T z P 6.v.D.U.Y.R.!.R.Y.L.D.N.u.T P e w z 8 a h 9 p s 3 c 2 8 s h h p 3 p W h 9 z P T e u y.M.J.P.T.R.T.R.T.L.v.:.' ' X.P N ",
"w P U z P t.n.S.Y.R.!.!.!.R.L.D.N.u.' P u 6 m * p p b h h , 2 ~ p ~ , 3 W s _ 2 h 7 N N N e z t.M.D.P.R.T.T.!.R.L.v.5.' ..m N m ",
"N T ' z Y t.n.D.L.R.R.!.!.R.L.D.N.u.' U u e z * g f k ) p p p h 7.9 p h h q.a 3 h 8 N z N N N t.N.K.P.R.R.~.R.R.L.N.6.X...' T m ",
"N T T z T 6.M.D.Y.R.R.!.R.Y.L.D.N.u.T P z u N * h 4 h W p p p W @.h p p W #.p 3 c 7 z v z P v u.N.K.T.R.~.!.!.R.Y.S.u.X.' o.z w ",
"u P P z P y.v.D.T.R.R.R.R.R.L.D.N.u.U U u u N 2 h h p p ~ p h ( p ) h p ) i W p W a N P e P v u.M.K.R.~.^.^.^.^.R.S.y.' ..' U u ",
"u P ' z Y y.v.D.!.!.!.!.!.R.L.K.S.u.T P u z N ; h h p p p ~ @.p , p _ @.3 p 3 ~ W l m P e P z u.N.L.R.~.^.).^.(.L.N.6.' ..' U m ",
"z P ' z Y y.N.D.L.!.^.).^.!.R.L.S.u.T P u u t 9 h s p p 8 %.W 3 2 , ) ) s p 8 ^ q.! z P w P u u.A.L.~.^.^.).^.R.L.N.6.T ' P N u ",
"z N T N P 6.M.D.L.R.!.~.!.R.T.L.S.y.T P w w u # a W p h ^ c _ p , p ~ W E p p ) W 8 z T e P N d.D.L.~.^.^.^.~.Y.L.v.6.T ' P r 6 ",
"z N P P X.y.N.K.L.T.R.!.R.R.R.L.S.u.U N w u u # 9 2 ~ ~ ) 8 3 ) 3 #.p , @.E #.a c 7 z T e T P a.A.L.~.~.^.^.!.R.D.M.6.T ' N r = ",
"u N N z e y.N.L.T.R.R.~.R.R.R.L.S.u.P N w e e % 8 9 s %.f p 3 h 7.3 9 , p k.W 3 W 7 z T z ' T g.D.T.~.^.^.~.R.R.Y.n.t.T ' P P w ",
"u z e > 6 d.N.K.R.T.!.!.!.!.R.L.S.a.P m w e w % 9 3 ^ W E 8 , _ @.h 3 8 W 7.W 9 W a z P z T T g.D.T.^.^._._.^.R.L.N.u.T ' P P U ",
"u w = u u u.N.L.R.!.^.~.~.!.R.L.S.y.U z w w e % p h h p ^ h h ) , _ p h 7.p W W @.8 z P z T P g.D.T.^._.`._.^.R.D.N.u.P ' T P ' ",
"w e u P v u.A.L.R.^.^.^.!.R.Y.L.S.t.U z 6 u e # W W h 9 E %.&.2 3 3 *.q.a p 3 #.7.a u N P z : g.D.R.~._.`._.^.~.D.M.y.P T T T ' ",
"w P T m u y.N.K.R.~.~.^.~.!.!.L.S.t.P z 6 u 7 8 W W p p h @.h 8 3 , #.#.E h p W w.} z P T z P x.K.R.~.^.^.^.^.~.T.N.u.P U P P ' ",
"w u N z u y.v.K.R.~.^.^.!.!.R.Y.S.t.P z 6 e 6 % h ^ p 9 _ p ) 3 p h ) ) W W h ) ! 8 N P P 6 v g.L.!.^.`.).^.~.~.R.D.g.Y T P u m ",
"w u N z u a.v.D.R.R.^.).^.R.Y.D.M.t.P u 6 w > 2 h p _ W W 3 8 _ h #.f 9 #.W *.3 ! a P U P P z d.D.R.^.`._.^.~.^.^.J.h.' T P u > ",
"q z N z z y.M.D.R.^.^.^.!.!.Y.Y.S.t.N e 6 w 6 2 s 9 ~ %.9 8 2 a r.9 h k h r.W g ! g P T z N N d.S.Y.^._.^.^.^._.^.D.g.T T P m = ",
"6 z N z z u.M.A.Y.!.!.!.!.!.Y.Y.S.t.N w 6 e w , h p ~ ~ h h 3 ) #.W f W W _ ) p ) 8 P T z P z d.D.Y.)._._.).^.~.R.N.6.T ' P N e ",
"6 u N z z y.n.D.R.!.!.!.!.!.!.Y.S.t.N w > w e , h c h p ) p W ) 9 %.) W %.c ) ~ %.a P T N w w d.D.R.^._._._.^.^.R.D.a.' T P z z ",
"7 z P z z 6.n.D.Y.R.!.!././.!.Y.S.t.N w > > w 2 ^ h 8 9 8 @.%.2 a 9 9.7.p ) ! @.&.h N T P w e x.D.R.^._.`.`.`.).R.N.g.' T m T z ",
"w z N z z t.n.D.Y.!.Y.!.!.!.W.U.S.t.m w > > 6 8 ! W W W ! %.) W / W 9.@.b ) | &.k.} N T U z z g.K.R.~.^._.^.^.^.R.D.6.Y T P P 6 ",
"w N N u u t.V.D.U.!.!.!.!.!.W.I.S.t.m w 6 > > * h ) h h _ 9 ~ p 9 h ) c ~ ) _ #.) a m U P ' N d.D.T.R.^._._.).).R.M.6.P U P w N ",
"6 N P u z a.C.D.Y.Q././.Y.W.W.D.S.t.N w 7 > > % a 2 @.W W O # ) h 7.# # #.) 9.p W 9 N T N ' P a.D.P.R.^._._.).).R.h.u.Y P N T w ",
"6 P N u v u.C.D.Y.Q.!.!.!.Q.W.D.n.y.N w w > 6 % p # c %.# , # 9 q.3 O % # e.c p W 8 P ' N T T a.D.R.~._.`.).^.~.R.A.6.P z N T > ",
"w N z u N u.S.D.Y.Y.W.!.Q.W.Y.D.n.y.N w 6 - > % 8 # #.^ 2 # # h #.h O % 2 &.~ 9 ^ , T T P z N g.D.T.~.^.^.^.~.R.D.v.6.P z U P N ",
"e N u w v a.v.D.Y.Y.!.!.!.Y.Y.I.S.a.P e - > > * p W ) 8 #.# 9 ! % #.2 , #.3 c h ) , T P U - w g.D.R.!.~.^.^.^.!.L.B.u.T N T N P ",
"e P u e v 6.c.G.Y.Y.Q.!.W.W.D.Y.S.a.P w - : > # h ) 3 2 p #.#.# # * *.*.h 3 9 @.7.8 T T P w e g.K.R.R.~.~.^.^.^.P.B.s.T N T N P ",
"e P u w z t.v.D.Y.Q.!.!.Y.W.Y.Y.S.a.P w 6 > > 2 } s , 3 2 *.h % % % ! 8.p g g W e.! ' ' N T z x.K.R.R.~.^.^.^.^.R.A.u.T N P z P ",
"u P e w z a.S.I.Y.Q.Q.W.W.W.Y.I.S.a.P w w 6 > # h ) p a ^ c ) 2 # 9 $.) _ p W 8.) 8 ..' U T P x.L.R.R.R.^.^.^.~.Y.N.u.U N P z N ",
"e N u w u t.V.I.Y.Y.Q.!.W.W.Y.I.S.a.N - > - = # a p %.b #.2 2 *.8 &.9 9 #.^ w.h ) 7 ..' ..e P x.D.R.R.^.^.^.R.L.L.S.x.U v N u z ",
"e v u w u t.C.D.Y.W.Q.Q.W.Q.Q.I.S.t.P 6 - = $ # p 2 @.*.g 9 9 h k.h 9 p a q.#.g ) g ' X...u N x.D.T.R.~.^.^.T.J.A.M.u.P N z u z ",
"w N e w u 6.n.D.I.W.Q.W./.!.W.I.S.y.N w - - = * h 2 *.#.b 9 2 W *.) h W W q.#.p ) 7 ' X.w P P x.D.R.!.~.^.R.K.v.N.v.6.N P z z N ",
"e z w w u t.x.D.D.U.Y.Q.Q.Q.W.Y.F.a.z 6 : > = % W E @.h %.g W %.9 #.W W k.h @.) &.a ' X.' N P g.D.L.R.!.^.!.~.M.N.s.-.N P z z P ",
"e u e w e t.n.F.Y.Y.W.Q.Q.!.W.U.S.t.z 6 > : = # W %.h p ) &.r.p 9 g 9.r.} h W %.7.7 ' ' ..e P g.A.L.T.R.!.^.~.L.A.M.a.P N z z P ",
"e e w q e 6.n.D.D.I.Y.W.W.Q.Y.Y.S.t.z > - = : 8 @.) @.#.@.8.&.&.&.#.8.z.@.%.&.%.l.` ' ' ' P Y x.D.L.T.!.~.R.R.R.L.D.g.T N z z N ",
"e e e w 7 t.n.D.U.W.Y.Y.Y.Q.Q.Y.S.t.z > - - 6 # p h h h h W W p s s ~ @.! W h h @.a ' ' U ' Y g.N.L.R.!.^.^.R.R.L.D.g.T N N u u ",
"w e e 6 7 6.x.G.I.I.W.W.W.Y.Y.I.S.t.u - - = > 8 l e 8 8 8 8 e 6 e z n P v n v n P z ' U P ' P a.S.L.R.!.).).!.R.L.S.g.' N T z 7 ",
"e u w 6 7 1.x.F.I.Y.W.Y.U.I.D.D.n.t.u - - - $ e z z z N N P e 6 P N z z z z u z z m ' z z P P u.S.L.R.!.(.).!.T.L.n.u.T N P N - ",
"w u e 6 7 0.b.F.I.I.W.D.D.D.D.S.x.4.e = @ $ @ e u z z z z P z z N N N N N N m z N z ' z z P P a.S.L.R.!.!.!.R.Y.D.v.t.P z 6 6 $ ",
"7 e e 6 7 t.n.F.G.D.I.D.D.D.D.S.x.1.w = $ $ > n ;.0.t.t.t.u.t.a.t.u.t.t.a.t.t.1.;.Y ' ' T P T a.S.Y.!.!.!.!.!.Y.L.n.t.N N e e 6 ",
"e u e 6 e u.b.S.F.F.D.D.D.D.D.N.g.1.w - - = - { p.x.n.n.n.n.n.S.n.n.V.n.S.S.n.x.a.X.' T ' z P a.S.Y.!.!.!.!.!.Y.D.v.t.N T ' e   ",
"e z u 6 7 t.b.S.S.F.D.F.S.S.S.n.a.-.w = - = o  .j.n.S.S.S.S.S.D.G.S.S.S.S.D.S.n.x.;.' U P e T a.S.Y.Y.R.!.Y.Y.L.D.n.u.v N T u X ",
"e e u 6 e 1.j.b.n.n.V.C.S.n.n.x.y.;.6 @ = @ X  .a.n.n.n.S.S.S.S.S.S.N.S.S.S.n.v.a.;.' U P e P t.n.D.U.Y.Y.D.D.D.S.n.t.v N P u . ",
"e w u 6 e  .t.a.a.a.a.x.x.x.a.u.6. .6 $ @ o X  .t.x.x.n.x.c.x.n.V.n.c.c.v.x.g.a.t.X...U z 6 N 1.x.n.N.S.S.S.S.N.n.g.:.v v P u . ",
"e w e q 6 n {  .;.;.;.O.;.-.;.X.' l - @ @ $ o n  .;.1.1.1.1.1.t.t.t.6.1.:.:.;.;.;.` T N w 6 u { 1.6.4.1.1.:.;.6.6.;.` z z N u - ",
"w 6 e 6 : - - : 6 > - e e e w w e w 6 > = - : > > > 7 w w e e 7 7 7 6 6 6 6 6 6 6 > > - - - > 6 - w u u z z z u z e w e e z u z ",
"6 7 w 6 - $ - > @ - > 6 > = - - $ - > > - : > > : - > > w w w 6 > 6 6 w w w w e e e u N z z z z z z z z z N N N N N z e w e z z ",
"6 6 w 6 - = = = = = - - : : > : = - 7 > 6 - - > > > 6 6 6 6 w w q w e e e w e e e e u u w w e 6 e e e r u z z z u u e e u u r - ",
"6 w w w - = = $ = - - - - > > > - - 6 6 > > w w w w w 7 w 7 w w w w e e u u u u z z z z e u m N z z z z z z u e w 6 > e u u w e ",
"6 w 6 - - 6 w 7 w e u z z z z z z u N z z z z z z z z z m m P N P P P P P P P P U U P P P P P P P U P U ' ' U P U U P z e e e 6 "
};
