/* XPM */
static char *obl15[] = {
/* columns rows colors chars-per-pixel */
"60 64 174 2 ",
"   c #070301",
".  c #0C0503",
"X  c #0F0B06",
"o  c #0E0C08",
"O  c #140A07",
"+  c #190E07",
"@  c #150C09",
"#  c #190E0A",
"$  c #1A1006",
"%  c #16110C",
"&  c #1C120D",
"*  c #1E1411",
"=  c #1F1815",
"-  c #21140E",
";  c #221612",
":  c #2A1712",
">  c #251915",
",  c #2B1C16",
"<  c #261C18",
"1  c #2B1E19",
"2  c #301D16",
"3  c #311F18",
"4  c #2E2016",
"5  c #2E211B",
"6  c #342117",
"7  c #34241D",
"8  c #39261E",
"9  c #36281F",
"0  c #3B281F",
"q  c #2F2720",
"w  c #352620",
"e  c #3A2720",
"r  c #362822",
"t  c #3C2A23",
"y  c #3E2E28",
"u  c #3F3027",
"i  c #3F302B",
"p  c #40291F",
"a  c #402720",
"s  c #422D25",
"d  c #482F25",
"f  c #432F28",
"g  c #492F28",
"h  c #443026",
"j  c #4A3127",
"k  c #45312A",
"l  c #493229",
"z  c #4C3329",
"x  c #4B3429",
"c  c #48342A",
"v  c #49342B",
"b  c #4A342B",
"n  c #4B352A",
"m  c #4B372B",
"M  c #4F3428",
"N  c #4D342A",
"B  c #4C352A",
"V  c #4C352B",
"C  c #4D352B",
"Z  c #4F362B",
"A  c #49352D",
"S  c #49352C",
"D  c #4A352D",
"F  c #48372E",
"G  c #4A362E",
"H  c #4A372E",
"J  c #4C352C",
"K  c #4D372D",
"L  c #4D362C",
"P  c #4F372C",
"I  c #4C362F",
"U  c #4D372F",
"Y  c #4D372E",
"T  c #4B342C",
"R  c #47382F",
"E  c #49382F",
"W  c #4C382D",
"Q  c #4E392D",
"!  c #4D382E",
"~  c #4C382F",
"^  c #4D392F",
"/  c #4D382F",
"(  c #4E382E",
")  c #4F3A2E",
"_  c #4E382E",
"`  c #503327",
"'  c #503229",
"]  c #50352B",
"[  c #50372D",
"{  c #51372D",
"}  c #50372F",
"|  c #51372F",
" . c #53372E",
".. c #55372C",
"X. c #51362D",
"o. c #51382C",
"O. c #53382C",
"+. c #53382D",
"@. c #52382D",
"#. c #50382E",
"$. c #52392E",
"%. c #53392F",
"&. c #55392D",
"*. c #55392F",
"=. c #52392E",
"-. c #5A382F",
";. c #4B3730",
":. c #4B3731",
">. c #4C3830",
",. c #4D3931",
"<. c #4F3B31",
"1. c #4E3A30",
"2. c #4F3A33",
"3. c #4E3B34",
"4. c #4D3932",
"5. c #4D3D38",
"6. c #513730",
"7. c #503930",
"8. c #503931",
"9. c #523830",
"0. c #533931",
"q. c #523930",
"w. c #513B31",
"e. c #523A30",
"r. c #533A30",
"t. c #523B30",
"y. c #523B31",
"u. c #513A32",
"i. c #503B33",
"p. c #543A31",
"a. c #523F33",
"s. c #573D33",
"d. c #553B34",
"f. c #513D35",
"g. c #563D34",
"h. c #553F35",
"j. c #533B32",
"k. c #5A3D34",
"l. c #533F38",
"z. c #593E38",
"x. c #613D35",
"c. c #564034",
"v. c #5B4035",
"b. c #5B4036",
"n. c #5B4036",
"m. c #544139",
"M. c #5A463A",
"N. c #5B463A",
"B. c #58443D",
"V. c #5E473E",
"C. c #5C433A",
"Z. c #5F483E",
"A. c #634539",
"S. c #62473E",
"D. c #62473F",
"F. c #62453B",
"G. c #65483C",
"H. c #66493F",
"J. c #61493E",
"K. c #5A4740",
"L. c #5E4841",
"P. c #5F4841",
"I. c #5B4941",
"U. c #644C43",
"Y. c #6B4F42",
"T. c #6E5347",
"R. c #6B5149",
"E. c #745147",
"W. c #74594E",
"Q. c #7B5A4F",
"!. c #745B54",
"~. c #7E5F52",
"^. c #7C6157",
"/. c #8C6E5F",
/* pixels */
"1 ; 1 t s h h h h w t 7 N.8 8 7 h t s t 3 , & h c 8.c 8.h 8.c s c 8.t h s c D.{ s c E 8 2.h c % > 7 8 8 t , 7 7 t t h @ ",
"< > , t h h h c h 8 c w L.t t t h s s h 8., & c c %.c 8.c 8.c s c 8.0 h { 8.J.%.s 8.%.s 8.c E & 1 8 s h h 7 7 t c s c & ",
"< > 7 t h s s s h t E 8 N.s h h s s s L.D.h # E j c c 8.c 8.c h { 2.8 s c %.J.{ j b.{ s c %.E & 5 s g 8.E 0 8 t h d c - ",
"> > 5 7 t t s c h e 2.0 N.s h s s h s c c h # 2.s h c { j 8.c h %.c 7 s c { D.%.c 8.c s E %.8.- 5 h h 8.c s t t c s c ; ",
"> < 1 7 t e t g h 8 E 7 N.h h s t c s s c 7 + c s h 8.c s { c c %.:., 8 { { b.%.j 8.j h 8.s.%., , h h 8.h E s s h s c - ",
"> < 1 7 t t t h g e h 7 8.h g s s { d h h 5 + s h c 8.c s c c c 8.2., 8 d { 8.c j %.s h E b.8.7 , c h 8.h E g t s s c - ",
"> > 1 3 s h s h h 3 7 , s h g g s s.c h h 5 # t s h 8.c p j j c %.c > 7 s c %.c j { h h 8.N.z.7 , h h 8.s h t t t h h ; ",
"> < 5 3 s c s c t :.K., 8 s h h s 8.c s g 1 # r s g 8.c s s h h c g > 3 t c c s j c s c %.b.D.7 > h h E s s 7 7 e s h ; ",
"> > 1 , t s s g s U.t , 7 s h c s c s 8 t 5 # 5 t s c g 8 s s s s s > 7 8 s h t c c s c E 8.N.5 * t h 2.g t w 7 w t 2.; ",
"> > , 1 t h c t l.h t > 7 s s %.t h e 2 8 r # , 8 y c g e s s s t t - 8 8 t t 8 s s 8 h c c 2.> & t h 2.g h t 7 8 s 8.; ",
"- ; 1 1 t c h t 8.g t ; , s s h 8 0 8 7 t i & , 7 t h t e s c t 7 1 - r 7 t w 7 t 7 6 t s t t & & 7 h 2.y t t 7 t s N.; ",
"& > 1 , h c s t 2.8.t - , t j s 0 t t 7 y t # , 8 t g 8 7 t h t 5 1 - w 7 t 7 7 t 8 , t t 7 * @ & t t h t 7 t 7 e s N.> ",
"; > 1 , t h t s h 8.t & > t c s t s t 7 t 1 # 7 8 t t t 7 t c e 7 5 - 7 7 w h 8 t t , 7 w 7 & X & t s t w > e t t s s., ",
"; > 5 , t s t s s 2.7 & > e h t t s g e w ; & 7 t t t e 7 t h 7 7 5 ; 7 7 7 h 7 t t , 7 t 7 w @ & t g h s 1 7 r t h s., ",
"> > 5 , t s t s s 8.t & > t t 7 s h s 8 7 ; & r t 8 t w 8 t s 7 7 1 ; 7 7 7 2.8 s s , 7 t w h % & h h c h 5 7 t t h s., ",
"> 1 5 1 t t 8 s g c t - ; 7 t 7 s c c t 7 ; ; t t t h t 7 8 8 , 7 5 > 7 7 h N.8 c s 2 e t e h @ & h s c h 7 t h t d s., ",
", 1 7 , t e 7 h h s B.- ; 7 c R.t 8.c s t ; > t h t h t t t 7 , 7 7 , e 7 c 8.s c s 6 s s e c % - c c c c 7 s c g j s.- ",
"< 1 1 1 t e 7 g s s :.- > 7 8.^.s 8.s.j t > > t s t c t s t t , 7 w 1 t 7 8.E s c h 8 c c s h # ; 8.s.s.%.7 h c h d s.- ",
"< 1 1 1 t w 7 g s s h - > 7 8.W.p b.D.{ s > & w t s 8.s s s g 7 w 7 , t 7 8.c { { j 0 8.%.h h @ ; N.E.Q.d 0 j j h h s.; ",
"> 1 1 1 t w e c t e h - 5 e c D.d s.D.8.t > - t t t 2.s h j c 8 t 7 , t 2 8.{ %.{ c s { 8.g w # ; J./.Y.2 t %.c h s s.- ",
"> 1 3 7 t t 8 c t 7 c - 7 t s 8.j 8.D.8.t > > t t t c s g c { t s 7 7 h 7 b.{ %.{ c s b.6.g 7 & & J.T.8 , s 8.8.h p 8.& ",
"> 1 5 7 t t 8 s s 7 g - 7 7 h 8.s 8.D.8.t , > t 8 8 s t g { { h c 7 3 2.8 8.{ %.{ c s s.8.s 7 ; & 7 s h 7 s s.N.h 8 8.& ",
"5 1 7 7 t g 8 s g 7 :.& 7 1 s %.h %.D.%.0 > > t 8 s h t s %.{ c 8.7 , 8.0 8.{ %.c c s 8.s.s s ; ; U.~.R.s g 8.U.c 8 c & ",
", 7 7 7 t h 8 s h 8 L.& 5 , t c s %.D.8.0 , , t s c c e 0 { c c N.t , b.8 8.j %.c c s { s.h s & : !.D.b.g h 8.U.c 7 c # ",
"1 w 7 7 t h t s c s N.# 7 5 t s t h z.c 7 > > t h 2.:.e 8 c c c U.h , N.0 8.` %.c c s { %.s s & > U.c c c s 2.N.8.8 c # ",
"w r 7 w t h s s c a 2.# 7 5 7 r t s 8.c 7 ; , u h 2.c t 8 c h s U.8.6 b.h c.j %.j c s c %.t t % ; 2.c s c s c h 2.t c & ",
"5 7 5 e e h s t h t 7 + r , 7 7 7 t :.h t > , g h c h t t c h t s 8., %.E c.j %.g c s { c 8 h & > 2.c s s s s 7 s s c ; ",
"5 5 7 w e h s t h 7 5 + 7 1 7 1 7 7 h B.h > > t h s s t t c t t 7 , > %.%.s.c { g c g { { e y & ; 2.c s s t t , r h c @ ",
"> 5 7 7 t c t t h 3 w & w 1 7 7 7 7 s B.c & & 7 g e t s t c t t 8 , > 8.s.8.h c g g s g c e y & ; c h h t 7 7 5 t s h @ ",
"1 5 t 7 t h 8 t h 3 h ; 7 7 t 7 8 t t h : @ @ , t e e h s h 8 t t 7 - N.b.%.h h s s t s h e 5 # , h t t r 7 7 5 7 8 s + ",
"> 5 7 7 t h 7 t t 2 2.3 e t t 7 8 t t s 2.& @ > t 7 8 s t s 7 t 7 5 - N.s.8.c c c s t t c s > # , s s t 7 7 t 7 5 0 t @ ",
"> 1 1 7 y h 7 w t , :.3 e 7 w 1 7 t t h B.1 @ 1 t t w s t t 7 7 7 1 - 8.%.%.c { E h h t c h > & 1 t t 7 5 7 t 7 7 t t @ ",
"> , 1 t t h e r w , c 7 t w 7 5 7 t t t h < + 1 t t t t t e 7 7 5 5 & E s c s c c s c s c c , % > t t 7 1 7 t 7 7 t t + ",
"1 1 1 t t h t t r 2 c , e e t 7 7 t t t t 1 @ 1 r 7 t 7 t t , , 5 w & 2.e s t c h t c t E { 1 & > t w 8 , 7 t 7 0 t t @ ",
"1 5 7 t t h s t t 7 2., t t y 7 7 h t t t > @ 7 t t 7 7 t e 5 5 5 w > y 8 t t 8.t s c 8 %.b.t & * 7 7 t 5 7 t t t h s # ",
"> 1 7 7 8 g g t s 8 8.2 g h g 7 7 s t h s > # h t t 7 7 t t 5 5 w r 1 7 t 8 s B.t s c 8 8.N.c - ; t t t 5 t t 8 t h t # ",
"> 5 5 7 e s h t t 7 x., c c t 7 , t s h t < & 2.t t w 7 t 0 7 7 t w 1 7 w 8 s s.7 t c 0 c N.{ - ; s t t 7 t t s t s t @ ",
"; 1 5 7 t s c t t 7 D., h s s 7 t h h c g > * 2.t g t r s t t 7 t w 1 7 9 7 c %.7 s c s { b.s.; ; s s s 7 t h h t g t % ",
"* , 7 7 t s h t h 7 x., s t h 7 s c c E s > > 8.s h t 7 s h h t t w 1 s t 8 c c 7 s c s { s.D.; ; h h h 0 h g h t g t # ",
"* > 5 t h h c t h 7 -., t t h 7 h c c c s > > 2.h h t 7 s h h s s 7 , c s 8 2.g 8 s c s c s.s.; > c h h 0 h h s t h y & ",
"* > , 7 2.h c t g 7 j > 0 s h 7 t h c c t ; > 2.h c t 7 s c c h s 7 , 8.t 8 8.h t h c g c 8.8., 5 c s h 0 c h s t h h * ",
"> > > 3 c s c t t , h - 7 s h 7 t h h j s > ; h s h 7 7 h h c h s 7 & h t 7 2.h 8 s s h h 8.c - 7 h t s t h h s t g s # ",
"= > > 1 c s c 7 t , t - , t h 7 t h c h t ; - t s h 7 5 s c c s t 7 ; t 7 7 h t 8 t s c g { c , 7 s h t 8 h h t t h s # ",
"> ; , , h g h w t , t # , t t 4 t h h s t > # t t h 7 3 8 h c t e t > 7 1 3 t 7 7 s s h s c 6.; r t y 7 7 h h s 8 c t @ ",
"> & > , t t h 7 t , w # > r t , 7 t t t t > + t t h r 7 7 s h t 7 h , , , , 7 1 7 g t t 8 c c & t 7 t 7 7 t s s 7 h 0 @ ",
"> & - ; r e t 7 7 > 5 @ > 7 r 1 r t 7 7 t > @ t t h t 7 8 t h t e y & ; > 1 7 5 7 t 7 t 7 t 7 & t 7 w , , w t t 7 h h + ",
"> & & & 7 8 t 7 t , 1 + > 5 w 1 w 8 7 , 7 > @ t t h t 3 8 t s t h 1 @ * < 1 1 , , 7 1 t , 7 , & r 7 t , , w 5 7 , s l.@ ",
"> * > > 7 t s 7 h 1 1 + > 1 5 > , 7 1 > 7 * @ t t t r 3 7 t s t 7 + + * 1 < 5 , , 7 1 8 , , , % w 7 t - ; 7 5 7 , 7 R + ",
"= ; > w 7 t t e t 7 > + ; < > ; w 1 1 ; 1 ; @ w 7 7 7 1 7 t t t , - @ > * < 5 > , 7 , 7 ; 1 1 % q 7 e - > 1 5 7 , , - o ",
"> - > 5 7 t t e 8 7 > + ; > > > h , > ; 1 ; + 5 > 1 1 1 1 w 8 e h y * * > ; 5 > 5 7 , 7 > 1 < % 5 7 c > ; 1 , 7 , h 5 X ",
"> * > > 7 y t r 7 t , + ; < , ; y , > ; 5 > @ > > < 1 1 1 w 7 7 1 r < > 1 , 7 > t 7 5 7 , 1 > @ 5 t B.; ; 1 1 5 , c 2.X ",
"* & < > t g t w 7 t t @ - > > , w > ; ; 1 > @ & ; 1 1 < > 7 7 1 1 5 5 > 7 , 7 , w 7 5 t , 1 > @ q 5.w & - > 1 1 1 7 h @ ",
"* * 1 & w t 7 7 , 5 2.@ ; > > , w 1 ; ; 1 > @ * ; < 5 > > 5 7 1 > > w , 7 1 7 , 7 7 5 9 1 5 > + 1 7 5 > - > > , , , t + ",
"& * 1 # 5 w 1 1 , - w @ ; < > , w 5 > > 1 * X @ ; 1 5 > ; 7 5 1 , > w , 3 , 7 , w 7 7 7 , 1 > & > t t 5 - < 1 1 1 1 y + ",
"& & < # 1 7 , 1 > - * @ > < > 1 7 5 ; > 1 ; X # ; 1 5 > ; 5 1 1 1 > 1 ; 1 1 7 , 7 7 7 7 , < < & < t 7 > - < 1 1 1 7 t @ ",
"* & > * > 5 , > > ; > @ > > > > > 1 * < < * . & > 1 5 , - 5 1 1 1 ; < ; 1 7 7 7 1 7 5 7 , , 1 * > 7 7 > * < 1 5 1 7 e @ ",
"* & ; ; ; 1 1 < > > 1 # > > > > ; > & > * & . & ; 1 1 , & 5 1 1 1 > 1 ; , 7 7 , > 7 5 7 , , , * < r 5 , & < < < 1 5 w + ",
"* & * ; * 1 < < > > 5 & < > > > ; ; & ; * @ . % * > < > & > > , 1 , < * , 7 w , > 1 5 5 > , 1 - 1 q 5 < & > 1 > < 1 7 @ ",
"* * ; < * 1 , < < > 5 & r ; > < ; * & ; ; * . @ * < > ; & * > , 5 5 > ; > , e , > < < < > , 1 - > 1 1 > & > < ; ; > 7 X ",
"* * ; > & 1 1 > < > 5 & w ; < 1 > * * ; > > . & ; > > ; * & ; > 1 1 & ; ; , w 1 > < < 1 > , 1 > > 1 1 > & > * * ; > 5 @ ",
"* * * > * 5 > > > ; 1 # 1 > > 4 , ; > < > <   & ; ; > > * & > ; < & @ * > 7 7 , > < < > > 1 1 > 1 1 , ; & * * * ; ; 5 . ",
"* * > < & 5 > * ; ; 5 # < 5 > 5 > > < < < = . & ; > > ; * & ; * ; & @ * 5 > 7 , > > > > > < > > < > > * & * * # * & 5 . ",
"% & ; ; * w < * ; > 1 # < 5 1 1 > * > ; > *   & > > > > * * * & * & @ ; * * 1 ; ; > > > > > < > * < > * & * & # * & < . ",
"% # * ; ; r 1 ; ; > 1 @ * 1 > > > & ; > > * . * > > > * * & ; & * & @ > & & > & & ; ; * > < < > & > ; & & * & * & & > . "
};
