/* XPM */
static char *obl14[] = {
/* columns rows colors chars-per-pixel */
"64 64 186 2 ",
"   c #3A362C",
".  c #3B3833",
"X  c #413D32",
"o  c #464035",
"O  c #49463D",
"+  c #4C483C",
"@  c #544D3E",
"#  c #4E4B43",
"$  c #4D4B48",
"%  c #534E44",
"&  c #514E4B",
"*  c #565143",
"=  c #5B5445",
"-  c #5C5847",
";  c #53504B",
":  c #5C564B",
">  c #5E594B",
",  c #575552",
"<  c #595754",
"1  c #5D5A55",
"2  c #5D5A58",
"3  c #635A47",
"4  c #635C4C",
"5  c #635E52",
"6  c #615E5B",
"7  c #65604F",
"8  c #6B634E",
"9  c #716B4E",
"0  c #656154",
"q  c #6A6454",
"w  c #6E6855",
"e  c #65625E",
"r  c #6A665A",
"t  c #6D695C",
"y  c #756D53",
"u  c #7A6F56",
"i  c #726C5C",
"p  c #796E5A",
"a  c #767155",
"s  c #797057",
"d  c #76705B",
"f  c #7C745C",
"g  c #7E795D",
"h  c #666460",
"j  c #696662",
"k  c #6E6B64",
"l  c #6F6C68",
"z  c #726E62",
"x  c #716E6A",
"c  c #757165",
"v  c #7A7464",
"b  c #7F7962",
"n  c #75726D",
"m  c #79756A",
"M  c #7D796D",
"N  c #777470",
"B  c #797672",
"V  c #7D7A75",
"C  c #7F7C78",
"Z  c #81755F",
"A  c #817A5F",
"S  c #817761",
"D  c #837B64",
"F  c #897E66",
"G  c #857E6A",
"H  c #897F6A",
"J  c #827E73",
"K  c #817E7A",
"L  c #878166",
"P  c #898066",
"I  c #87816A",
"U  c #8B836C",
"Y  c #8F896E",
"T  c #90866E",
"R  c #91896F",
"E  c #868174",
"W  c #8D8671",
"Q  c #8F8972",
"!  c #84817D",
"~  c #89857C",
"^  c #8C897D",
"/  c #908671",
"(  c #938B74",
")  c #988E76",
"_  c #958E79",
"`  c #958E79",
"'  c #988E79",
"]  c #998F7A",
"[  c #988F79",
"{  c #9A9076",
"}  c #989076",
"|  c #95907B",
" . c #96907C",
".. c #96917B",
"X. c #9A9278",
"o. c #98917B",
"O. c #9A917A",
"+. c #9B937B",
"@. c #99937A",
"#. c #9D937A",
"$. c #9C9379",
"%. c #98907C",
"&. c #99937D",
"*. c #98927E",
"=. c #9A937F",
"-. c #9C937C",
";. c #9B957E",
":. c #9C947F",
">. c #9E957F",
",. c #9D967F",
"<. c #9E957C",
"1. c #9A937D",
"2. c #A1997E",
"3. c #A1987E",
"4. c #878481",
"5. c #888582",
"6. c #898682",
"7. c #8B8784",
"8. c #898682",
"9. c #8B8884",
"0. c #8C8984",
"q. c #8E8B87",
"w. c #8F8C86",
"e. c #8D8A85",
"r. c #8F8C88",
"t. c #908D86",
"y. c #908D89",
"u. c #928E8A",
"i. c #9A9480",
"p. c #9E9780",
"a. c #9C9681",
"s. c #9C9581",
"d. c #9F9982",
"f. c #9F9984",
"g. c #9E9882",
"h. c #92908B",
"j. c #95918C",
"k. c #99958E",
"l. c #9B988E",
"z. c #979593",
"x. c #9A9691",
"c. c #9D9A94",
"v. c #9F9C98",
"b. c #A19982",
"n. c #A39C84",
"m. c #A49D85",
"M. c #A19B84",
"N. c #A29D88",
"B. c #A59E88",
"V. c #A39E89",
"C. c #A19D96",
"Z. c #A29E99",
"A. c #A5A08A",
"S. c #A8A38C",
"D. c #A4A195",
"F. c #A5A19C",
"G. c #A9A59D",
"H. c #ADA99E",
"J. c #B0AC9F",
"K. c #A7A4A0",
"L. c #AAA6A1",
"P. c #ADAAA4",
"I. c #AFACA8",
"U. c #B1ADA6",
"Y. c #B2AEA9",
"T. c #B4B0A6",
"R. c #B6B2AC",
"E. c #B8B5AE",
"W. c #BCB9AE",
"Q. c #B7B4B0",
"!. c #BAB6B1",
"~. c #BDBAB4",
"^. c #BFBCB8",
"/. c #C1BDB6",
"(. c #C1BEB9",
"). c #C5C1BD",
"_. c #C9C5BF",
"`. c #C7C4C0",
"'. c #C9C6C2",
"]. c #CCC9C5",
"[. c #CFCCC8",
"{. c #D1CECA",
"}. c #D4D1CE",
"|. c #D7D5D2",
" X c #D8D5D0",
".X c #DFDDDA",
/* pixels */
"_ H R q q b W ( Q F F F F F F F U U Q _ W / =.=.M.' T M.M.=.=.=.a._ _ ( _ =.=.] =.=.=..._ ( ( ( ] ( F ( M.f.a.=.( H v 0 i ( =._ ",
"( f U q - f F f u f F F F f f I G G _ W ( / T ( =.=.M.M.=.=.( U F F H W ( ( ( V.M.a._ ( ( ( W _ a.=.( ( ( / W Q U U i - 0 U U U ",
"W S U q 5 G U P U U I U L I F U ( =.( ( =.=.=.=.=.M.3.' { =.( ( ( ( U U ....U ( =.=.U F F U ( _ =.( ( U F S F U U Q i - q F S ( ",
"( S F - O - 4 4 4 > 1 r c c z z c t r i m M m v v J G G q z ~ E m c c m z z c z c z c m c c r q 5 t i q : % @ - 4 4 * o > U f U ",
"_ F F * X * 0 > 4 ; & 6 n ! V ! K C 5.0.5.u.0.! ! 5.! V ~ t.j.0.! C K n V N K 0.0.V ! V K C ! 5.! n B n j , O * @ - % X - U y G ",
"W G F > % 4 v G F f r x ! x.L.L.F.c.j.C.^.!.F.D.F.Z.c.Z.F.Y.L.x.F.K.j.F.Z.L.Z.Z.F.x.k.x.F.F.L.F.c.k.! B l 0 8 q i i 4 * 4 W p U ",
"H U Q 4 - i U _ ..S W m ! j.L.Y.E.G.L.^.!.^.T.Y.G.C.G.G.R.Y.).).].(.R.Y.R.[.}.(.R.R.F.c.L.^.!.^.R.Z.5.N c L f I Q U v 0 q W f W ",
"( U U 4 @ i Q ( Q G U U z n x.L.E.(.!.R.R.L.Y.L.E.R.L.^.).^.R._.).].(.^.^.).'.(.!.G.D.Y.H.R.E.^.F.r.x r F F U ( Q _ G : q F F _ ",
"=.Q U * @ q I ( F U W ( R t V t.0.L.^.!.^.^.).R.'.).].^.L.Y.L.L.G.L.E././.).E.L.L.F.C.W./.T.G.c.j.N t A P U ( H Q ..F 4 4 F F _ ",
"a.W S % # 8 f U ( F _ a.( F z x 0.G.!.!.!.Y.R.R.R.^.].{.].'.(.R.Y.L.Y.G.L.Y.G.L./.).E.L.T.G.D.0.n m L P ( ..F U G S f # : I v ( ",
"f.W S - < 5 L F U ..=.=.=.F U t K F.Y.^.R.R.^.(.L.!.(.{.{.).Y.^.).R.L.F.G.G.k.G./.).).!.G.c.! z c U F ( ..=._ W U W 5 ; 0 U F _ ",
"M.( F 5 6 h l F U ( ..=.=.F s s z K c.Z.Z.R.^.!.R.!.Q.!.(.^.^.^.(.(.L.Y.F.C.R.^.^.E.(.R.Z.K j i R ( =.a.=.=.=.R U z e 6 z U H =.",
"( ( U q x V l r A P ( a.=.( U y u t n 5.G.Y.R.!.^.Y.E.R.R.L.G.Y.E.^.^.Y.Y.Y.Y.R.G.F.C.j.K e 0 ( F ( =.=.=.=.( ( c V B n c U H =.",
"F ( ( z B ! K V z L P =.=.( ( U s y r N j.R.).R.Y.^.^.E.!.).'.'.!./.'.^.Y.R.E.Y.Z.Z.t.K l M T F R ( ( ( F F F z N 0.u.! m F F =.",
"( =.( r V u.x.0.n t U ( ( ( ( ( v f F 0 N u.F.R.Y.R.E.R.Y.!.'.).!.!.^./.^.W./.R.L.c.j.V z =.( ( ( ( ( U s P t l ! j.Z.V c U U =.",
"] a.=.5 n c.(.R.x.B c R P R ( =.( F F F t n u.L.R.).^.Y.R.!.L.Y.E.!.^.R.R.Y.W.L.F.u.V c =.a.( ( =.( U u s c V 0.C.L.L.K M W / ( ",
"( _ _ q ! !..X}.!.c.V m ( F ( ( ....U F U c n j.R.R.^.(.(.!.Y.F.G.^.R.L.F.L.F.k.0.V z U ( ( ( .._ b s f z n 0.L.).}.F.5.m U ( ( ",
"( U ( t 0.Y.(.(.!.F.0.B c T ( ( ( =.a...Q U z x 0.R.).^.^.L.L.(.^.!.^.E.R.Y.l.! z z ( T =.=.=...F f u r x j.L.^.).(.L.V c F ( =.",
"( ( U z ! F.L.L.!.!.L.0.n m =.a.} =.a.a.=.U U r l 5.L.(.E.Y.R.).).^.^.].}.Z.t.B r U ( =.=.=.f.U F F t x 0.c.L.R.(.R.F.V t F U ( ",
"_ ( F t B j.L.G.F.Y.G.k.~ l r =.( =.=.( a...( =.r x 5.F.Y.^.'.Y.^.^.).).!.L.B t F U =.( _ a...F F r B 0.c.R.L.L.L.Y.Z.! z U U ( ",
"..( F c V c.F.C.G.Y.G.j.k.~ x z U T =._ _ a.U ( W l B u.L.Y.F.R.L.^.).!.c.V t U U U =._ a.=.Q U t B x.Y.'.(.!.F.x.C.k.! v U ( / ",
"=._ U v ! x.Y.Y.L.C.G.E.L.L.x.n z ( ( =.=.a.a...F U m C u.L.R.Y.Y.L.Z.u.l r Q U ( _ a.a...U U l n u.Z.^.'.].'.{._.(.F.V c U ( _ ",
"=.a.=.c K F.'.{._.E.Y.Y.E.^.R.F.C z U U U _ ( a.F W ( z B v.).).(.Z.j.n z ..( ( =.( a.U ( U c C x.F.^.(.!.(.).).).R.Z.K M H ( a.",
"=.V.a.z n c.!.).^.R.R.R.E.L.^.^.Z.! z F U ( =.f._ F U ( M 5.K.L.F.0.x m } ( ( _ f.a...( =.z C j.R.).).Q.^.^.).'.E.^.Z.V M F ( =.",
"] V.( m u.F.!.!.L.Y.E.(.L.L.L.R.R.x.V z U I ( ..( a.W U ( n B 5.K n m U ( =.=.( _ G F W z V j.L.Q.L.^.(.Y.L.Y.L.G.R.F.0.E U _ ( ",
"=.( U m 5.!.^.!.L.F.E.^.^.^.).^.Q.L.j.V t Q ( ( =.=..._ U G 5 , < r P ( ..f.=.a.F U H z C z.Z.^.R.!.R.Y.L.Z.k.c.!.R.Z.! M H W _ ",
"=.( ..t B c.L.c.j.j.t.c.L.L.Z.L.Z.F.5.V n t I F U W W G v w > . # v F U W W E v f b r l ! c.I.L.x.x.u.j.Z.R.L.F.F.Z.u.l t F U ( ",
"_ ( ..> 1 N ! ! 5.! N N ! 0.5.K V n C x 1 # % q 7 q t r > +   X 7 q q t t q q 4 0 % < e V V V B B l V K 0.K 0.r.! V l 6 r Z G U ",
"( U U : O 5 t l z l l t z c z t q c c t 7 4 5 q q t t t q 5 * q q 4 q i t q q t q r t c i t c t 0 m c m M z M z M m 0 # > f F U ",
"_ H U 4 @ 4 f y f y f f f f b F U U U Y ( ( =.=.=.} T T R Y Y U F ( R ( ( U U U U ( ..( U U F U U Q U ( =.M.( U U F F 4 4 F f U ",
"_ F ( 4 * w F F F f F F F f f f U U U U U U ( T } ( R U F F I F f I Q U _ a.=.=.=._ ( _ ( ( U U =.=.=.( ( ( } ( ( ( I t q U f H ",
"a.F ( q 5 v G G W G W .._ _ _ _ ( ( =.=.=.M.A.S.,.f.f.( _ _ ( W Q ( Q =.V.V.M.M.f.=.( =.=.T =.f._ ] 2.=.=.=.=._ ( _ W t q U I ( ",
"=.U ( t > i W _ .._ G W W H ( ( ( _ _ ( =.=.a.=.=.=.=.=.=.U ( ( W W ..=.=.a.a.=.=.a._ _ a.a.=.a.=.a.a.f..._ ....( U v q q Q U ( ",
"=.( ( c r G ( / ( ..( W _ ( ( ( U U G G ( =.=.=.=.=.....=.( F F f f f f G W Q ( _ U G F U _ U ( ......( U F f f I I d - 4 R ( ] ",
"=.=.=.4 - f ( _ ] ( =._ / _ U =.( U U U =.=.( ( ( =.( ( ( ( F I F f f f F U U ( U ( ( W F Q a.( U U Q U F F F f y y 3 - 4 ( =.=.",
"M.=.{ - & r c J m J m m z m m m c z c z c z z M M J J J M m V v z t 0 z z t c n c c v t c z m m c c z t r t t q q 0 1 # 0 ( =.' ",
"M.M.' t 6 V 0.0.0.B V V n n V 5.r.u.C V V B l V ! r.z.u.0.u.! ! 5.0.u.5.! ! 0.0.0.5.K 5.B B ! 5.! V n l z z z n n V l & 0 W ..=.",
"T M.3.z N j.L.L.Y.R.L.L.I.L.Y.Q.^.Y.L.F.k.C.L.L.F.F.c.F.F.j.k.0.k.c.c.L.F.C.c.c.c.Z.c.j.F.Y.K.R.L.F.c.^ ~ 0.t.x.L.L.0.e r U Q =.",
"] =.M.M V Y.).^.R.).(.(.{.[.R.R.Y.Y.R.!.).).^.Y.!.Y.R.^.R.!./.!.^.(.).(.R.Y.!.R.L.Y.R.'.[..X XY.L.L.L.T.).!.G.!.^.L.c.! c U ( ( ",
"M.=.=.v V L.).).R.Y.^.(.'.'.^.F.E.^.!./.R.L.!.Y.^.(.R.Y.^.^./.{.'.^.!.R.(.(.!.R.R.^.'.).[.`.^.^.L.Y.T.R.R.(.^.!.Y.L.c.V m U U =.",
"=.( =.J 5.c.^.E.R.^.!.(.!.(.).^.R.R.(.).(.L.G.^.Q.E.R.!.R.^.(.^.).!.Y.Y.G.Y.Y.E.R.!.(.).`.^.^.L.G.G.!.E.G.C.L.Y.L.C.t.n t U U =.",
"=.T =.M K C.Y.!.].).).^.R.E.E.).(.(.R.^.{.).^.R.Y.!.).!.(.^.!.L.L.Z.L.L.^.).^.(.R.R.).(.L.!.!.R.G.R.L.R.Y.!.R.L.L.C.^ V c U P =.",
"/ / =.M ! F.E.E.!.^.).R.Z.G.Y.(.^./.[.].!.R.^.R.!.).[.}.!.!.Y.Y.^.E.R./.].'.).L.Y.!.R.R.(.^.L.R.Y.L.G.L.^.(.).R.L.L.j.5.J ( U _ ",
"W ( =.c n k.Y.E.Y.(.R.L.!.G.L.R.R.^.E.!.R.E.T.^.^.!.(.R.R.F.R.).`.].].].).^.R.L.Y.Y.G.Y.R.L.!.^.^.L.Y.L.Y.L.R.^.Y.E.Y.5.z U U W ",
"( / ( t 0.C./.R.^.^.(.].(.).(.L.R.Y.(.).R.E./.'.).R.R.R.^.}./.^.(.'.{.(.R.L.Y.!.!.R.^.R.R.L.Y.Y.R.L.C.L.L.L.L.C.!.'.!.0.0 F F U ",
"Q ( ' c ! k.G.G.C.G.^.'.[.'.(.^.R.L.R.^.^.^.^.).^.(.!.^.'.'.).).).R.).^.L.Y.F.Y.^.).(./.R.k.G.Y.R.G.L.Y.L.^.^.^.L.^.Y.K q g F U ",
"U H =.v ! F.Y.L.G.F.F.R.^.).^.!.Y.L.C.Z.G.R.^.F.Y.^.).^.(.!.^.'.(.).R.G.G.Y.E.!./.).E.Y.R.R.Y.R.L.^.^.Y.Y.R./.^.^.Y.Z.! i f F U ",
"U I ( i 0.Y.Y.G.G.R.L.G.Y.L.G.C.R.^.E.(.^.R.R.^.^.^.!.R.L.Y.R.^.Y.L.L.G.G.C.'.).^.R.R.Y.^.).E.G.H.L.Y.Y.^.^.^.R.Y.C.C.V l f F U ",
"L U U z n Z.^.].).E.(.!.R.L.F.R.Y.^.^./.{.).^.Y.L.R.L.Y.c.L.Y.L.!.L.E.R.).].).^.L.!.Y.L.Y.Y.T.H.G.C.L.(.^.!.!.!.E.Y.c.V t g f L ",
"F f F t K Z.L.R.'.].).^.R.Y.).(.(.R.E./.R.^.E.R.Y.D.G.F.E.Y.F.x.F.Y.R.^.^.'.].).^.E.^.(.).Y.D.c.H.E.`.'.).R.Y.R.(.).c.V r g y F ",
"F f U c J c.Y.G.R.^.).).).]. X].'.^.^.R.R.G.G.R.G.D.D.Y.W.W.R.^.Y.R.R.R.^.).(.).^.R.^.^.Y.!.Y.L.G.E.E.E.^.R.R.R.^.'.L.m q 9 9 g ",
"F F L z V k.G.G.Y.R.R.!.^.[.'.'.Y.^.R.Y.L.Z.G.L.G.R.H.Y.H.T.H.L.L.R.^._.].^.Y.!.!.Y.!.R.^.(.(.Y.F.Y.R.!.(.Y.L.L.!.^.L.V q y y F ",
"F F U c ! F.).^.^.R.(.^.(.R.R.Z.Y.F.L.Z.L.L.Y.Y.Y.Y.Y.G.G.J.R.Y.L.Z.G.).^.^.^.R.R.Y.!.^.(.!.L.^.).E.^.^.^.'.^.L.R.R.c.B 0 a y F ",
"F F I z K Z.^.].R.Y./.^.R.Y.L.R.L.Y.F.E.^.(.Y.L.L.c.G.G.D.D.Y.R.(.R.(.L.^.R.R.Y.R.^.`.].].(.^.]. X'.R.E.^.(.).(.L.L.j.5.t a f g ",
"F f U r B C.^.Y.L.L.L.Y.E.L.R.).).^.^.(.'.^.).L.!.!.R.F.L.H.E.(.).{.R.Y.R.Y.Y.R.).).!.Y.L.R.E.E.].'./.R.R.R.!.!.Y.Z.j.5.t y f g ",
"Y u U z V C.Y.L.R.E.Y.L.L.R.!.R.).}.).!.!.'.'.'.^.'.^.^.Y.Y.L.L.L.Y.Y.c.c.C.Y.R.Y.Y.^.)./.R.!.'.!.(.Y.C.Z.^.(.^.).^.K.K t y A F ",
"Q f F z K j.Y.^./.^.(.^.R.Y.F.!.).).^.).).).).R.L.R.R.^.R.L.C.j.F.L.L.L.Y.R.R.!.^.].^.'.!.Y.Y.!.L.L.Y.!.R.).).^.^.(.L.K i F L P ",
"W F U c B 0.Y.R./.E.).^.R.R.(.R.Y.Y.R.R.R.R.!.Y.Y.G.L.L.G.L.Y.L.L.L.Y.^.L.Y.R.Y.^.(.^.E.!.^.^.R.^.^.).^.^.L.Y.!.!.L.F.! c P A F ",
"( U ( r x j.c.c.Z.L.Y.F.x.c.Z.Z.c.k.x.F.j.k.j.c.c.Z.j.j.c.Z.F.F.F.j.l.k.x.c.F.F.K.c.F.L.L.L.!.R.Y.L.Y.I.I.Z.x.Z.C.F.u.N c F F F ",
"..F Q 1 1 B ! ! K ! ! K ! ! ! ! V V ! ! 5.! V V V n V ! V V K 5.! ! K 0.0.5.! ! K K 5.0.5.u.5.5.5.! ! 5.C C K n K K n 2 t F U F ",
"_ U ( 4 : t v c z t t t 0 q q t z z t q v V z c c c c n c t r t c c c i c v M m M V m c z m m m m z z c M M z c M M 0 % 0 U / U ",
"=.( U q - y L F y 9 a a y 9 g g f f F F U ( U U U U U W ( ( ( Q U U F f v F H U F U U U U F F U W U F U U U I F F W v 4 q ( =.( ",
"a.( U q 4 y A L A f f y y 9 y f F F F F U U F U U ( ( ..=.=.( U I f f F G U W _ ( ( ( ( U U ( ( / U F H H F S F F f 8 @ q ( U f.",
"=.( ( q 3 p F P F g g F F g F L U U U W W _ =.=.=._ =.=.' =.] ( ( H U U U ( _ ( =.f...( ( ( =.( ( =.=.=.=._ ( _ _ W v : t =.( =."
};
