/* XPM */
static char *obl2[] = {
/* columns rows colors chars-per-pixel */
"64 64 198 2 ",
"   c #2D291A",
".  c #34291F",
"X  c #3A2E24",
"o  c #363222",
"O  c #3C3125",
"+  c #3F3B24",
"@  c #3E342B",
"#  c #3D3A2B",
"$  c #403426",
"%  c #42362C",
"&  c #443A2D",
"*  c #493C2F",
"=  c #423731",
"-  c #463B31",
";  c #4A3E34",
":  c #4C3F38",
">  c #46402D",
",  c #474032",
"<  c #4C4235",
"1  c #4C4834",
"2  c #4D433A",
"3  c #4E4939",
"4  c #514435",
"5  c #524C35",
"6  c #52463B",
"7  c #58463D",
"8  c #554A3D",
"9  c #5A4D3E",
"0  c #585435",
"q  c #56513C",
"w  c #5A533C",
"e  c #62513F",
"r  c #625B3F",
"t  c #4E4540",
"y  c #4E4A41",
"u  c #544741",
"i  c #554B41",
"p  c #5A4D43",
"a  c #574D48",
"s  c #5B4E49",
"d  c #565242",
"f  c #5C5245",
"g  c #5E5944",
"h  c #5E534A",
"j  c #5F594D",
"k  c #5F5450",
"l  c #604E45",
"z  c #625445",
"x  c #635A46",
"c  c #695C47",
"v  c #63554B",
"b  c #69574A",
"n  c #645A4C",
"m  c #695C4D",
"M  c #715E4E",
"N  c #635651",
"B  c #665B51",
"V  c #6B5D53",
"C  c #6D5F59",
"Z  c #676145",
"A  c #6B6346",
"S  c #66614C",
"D  c #6B634D",
"F  c #6E684E",
"G  c #73674F",
"H  c #666152",
"J  c #6D6253",
"K  c #6E6A54",
"L  c #6E6459",
"P  c #6F6A5A",
"I  c #716454",
"U  c #736A55",
"Y  c #7B6E55",
"T  c #73655B",
"R  c #746B5B",
"E  c #796D5C",
"W  c #767155",
"Q  c #7A7155",
"!  c #76715C",
"~  c #7C735D",
"^  c #7E795C",
"/  c #736761",
"(  c #766C62",
")  c #7A6D62",
"_  c #7C6F68",
"`  c #767260",
"'  c #7C7363",
"]  c #7E7964",
"[  c #7E7469",
"{  c #7F7C6A",
"}  c #81745D",
"|  c #837A5E",
" . c #897D5E",
".. c #817564",
"X. c #837B64",
"o. c #887C66",
"O. c #82756A",
"+. c #89776C",
"@. c #847C6B",
"#. c #897E6B",
"$. c #837770",
"%. c #867C72",
"&. c #8A7E72",
"*. c #868064",
"=. c #8B8265",
"-. c #86826B",
";. c #8B836C",
":. c #8E896C",
">. c #91866D",
",. c #938A6C",
"<. c #998D6E",
"1. c #98906D",
"2. c #868271",
"3. c #8C8473",
"4. c #8D8974",
"5. c #8D847A",
"6. c #8E8B78",
"7. c #918674",
"8. c #978E72",
"9. c #928B76",
"0. c #948A76",
"q. c #948C73",
"w. c #998F73",
"e. c #9B8F76",
"r. c #998E74",
"t. c #918778",
"y. c #92857B",
"u. c #98877C",
"i. c #928E79",
"p. c #968C79",
"a. c #958D7A",
"s. c #918E7D",
"d. c #938E7D",
"f. c #908C7D",
"g. c #958E7E",
"h. c #948E7C",
"j. c #958D7A",
"k. c #9A8E78",
"l. c #988E7A",
"z. c #998E7C",
"x. c #969174",
"c. c #9B9375",
"v. c #95927C",
"b. c #99917E",
"n. c #9C917C",
"m. c #9A947E",
"M. c #9C947C",
"N. c #9D9A7B",
"B. c #A09676",
"V. c #A1957E",
"C. c #A29A7C",
"Z. c #A89D7F",
"A. c #958C81",
"S. c #9B8D82",
"D. c #959182",
"F. c #979484",
"G. c #979482",
"H. c #9B9180",
"J. c #989386",
"K. c #999686",
"L. c #999586",
"P. c #9B9582",
"I. c #999B86",
"U. c #9D9A84",
"Y. c #9C9588",
"T. c #9D998C",
"R. c #9D9B8A",
"E. c #A19482",
"W. c #A39B83",
"Q. c #A09788",
"!. c #A09788",
"~. c #A49D8A",
"^. c #A39D92",
"/. c #A3A085",
"(. c #A9A286",
"). c #A1A38F",
"_. c #A4A28E",
"`. c #A5A28C",
"'. c #AAA38D",
"]. c #A7A697",
"[. c #A4A394",
"{. c #ABA591",
"}. c #ACAA93",
"|. c #ABA997",
" X c #A8A995",
".X c #ACAB95",
"XX c #ACA995",
"oX c #A5A298",
"OX c #AAA799",
"+X c #AFAF9B",
"@X c #B1A595",
"#X c #B3A995",
"$X c #B2AC9A",
"%X c #B4B29E",
"&X c #AEADA4",
"*X c #B7B5A1",
"=X c #B8B7A4",
"-X c #BBBAB0",
/* pixels */
"B 2.R.].|.|.).B ' &.( [ [ ( [ [ 5.#.H &.Y.R.R.s.' J ] B f ) ' n i h J T T T V h i 2.' n R R R J S.!.R L ' ' #.' H y H H n j B L ",
"#.2.6.).|.|.s.J ) ( #.' ) R #.&.#.#.J [ P.P.s.s.P.#.n R ) T J R i h J h - p 6 8 B ( L B V T V J #.#.' h J R ~ R n n J J U n n H ",
"f #.2.I.).4.s.4.;.7.s.c.O.2.2.#.#.#.-.' #.4.' ' s.' z V n J J L [ ( #.L 3 B 6 i p f 8 h L T #.P.P.s.2.#.P R 2.2.s.#.#.o.o.~ J n ",
"& #.-.-.;.8 #.s.4.s.c.2.L R #.#.#.#.] n x D U D R d h p V V n B L B B V h B i 3 V 8 f 6 p ) #.s.P.#.4.2.4.2.c.W.E.c.#.q.s.r.l.S ",
"- R z R E R V ( ' ;.U f o.o.;.~ I D 5 z x f | ;.;.f h f T ) V v p h v s a s 6 6 %.R 8 6 < 4 J s.F.F.4.s.6.P.q.q.l.c.c.q.>.r.q.o.",
"< J R n J T B n z D 8 o.'.'.'.W.W.c.=.G G | ,.,.,.,.J f ..J T #.2.h h s = C : ; p p p @ @ * z s.F.F.6.s.2.R ` ] #.! ' -.,.;.K g ",
"E S ;.V f n V V m J n l.'.{.'.q.c.q.U Q } =.,.=.;.r.r.q.J 3 V B L h v h k s p v 8 T J f 8 $ 6 ' v.2.2.2.J R j j R T J j B J f  .",
"J ` ~ ' f V V v v I ' P.).W.W.7.;.;.>.>.=.=.=.Y =.r.r.q.' J v p h h v s h p v n p J T v 7 6 T 2.s.2.` ~ R ' &.d B h V f f J D <.",
"n o.U #.; < V 6 v ) m R ..E ' R R R R U | 5 } | o.,.,.=.=.R f m L N B v V V n v < l z v p V z 2.#.R P U J E l.h h h v v n R ~ r.",
"I o.I ..' ) T n f v V v m I z J D z w D ;.R g f j n U Y ,.o.n m p h p p v p 6 6 p p z I T J z V O.P B R J ~ l.n i p n p V m ~ o.",
"z R #.I R R E J 7 V I I f B v 7 V I D q.W.C.c.,.D D x 8 f m ' f l.J i 8 h v n J m z p n m 6 m m O.L 3 R E ' m R J n R i V V h B ",
"J R J T J m V m m I T n f h v m #.o.;.B.C.c.,.D x < R | Q D x D v T $ ; ; 6 ; ; * v m n p @ V v v 6 v J n ;.7.' #.L #.f f f R L ",
"I ;.J I J n n I v f m v 8 h h n J S w m 8 x q S -.I.W.(.=.R J v ..n @ - ; ; - ; - 7 ) #.) p v n V E E I E J E R J f J f m J J J ",
"~ ;.! n J h R n R J R n J J #...f 5 > w x c.(.W.W.'.'./.,.U V f V y.3 ; $ ; ; ; ; 7 I ' O.R V f V R E R U ..R J J R n J 6 m x f ",
"=.o.U q.q.o...o.( ..E 7.{.{.W.'.P.R g 1 w x.C.W./././.W.N.' p P ' ..J $ - 6 6 < 6 m I T J J J 8 p v n ~ o.;.z z n n x J n x D z ",
"r.r.c.c.#.f m I x m ' ~.).'.'.|.+X~.).;.x } c.W.W./.I.x.:.q.o.! n U I 7.I n J R R J m J m m #.q.~ ~ n o.q.;.' P.s.2.#.o.#.#.' #.",
",.c.W.#.o...V E ' I c.).).{.%X*X$XW.W.I.c.~ W.W.W.x.x.x.=.=.;.< 3 < V 2.I x n U J R R v R m #.J >.,.,.q.o.q.o.o.U n D m x x ..7.",
",.r.~ #.U ....R m E '.'.).).|.=X%X].~.~.~.;.o.~ o.R ~ ~ w A ;.f 8 f 8 n q x J 2.;.-.' J ..T R ,.B.B.C.,.=.W.2.s.o.R z ~ J D ;.>.",
"U s.z ) E E R V R f o.;.;.;.;.I.~.I.I.7.l.~ e } ;.;.;.;.q.,.o.& ' J R R ' R J ' ! K ( n B L ..,.B.c.1.,.,.,.' 2.E ..~ I n ^ o.~ ",
"o.n v J v E R R J } m o.E E 2.2.R R D x m o.c ;.x.c.W.W.c.x.D q #.s.v.2.P.c.q.#.#.! n B n n I U | o.~ ~ ;.*.' o.' R R I n x x I ",
"8 p p ) 2.E n E o.q.E.V.o.' ..J 7 7 I m e e z q.c.c.W.W.x.q.R w o.P.I.I.R.~.W.c.R n J B R #.T ' n v n J n n f J J ~ n J D D D U ",
"i p 8 v n 7 E #.s.E.E.W.l.#.I c I m m m m z G o.q.W.c.*.Q ^ g 5 n o.! K K S W ~ f 8 f J J ) T B f 8 v i i 6 E #.U I m E #.2.q.q.",
"f v 6 4 ; $ E #.q.c.W.C.r.#.f f p p v p 7 7 D ~ w g < + 0 5 w Z < F ~ ;.4.q.q.v.s.s.s.R j h V _ h p i 6 i 6 p v I I ..;.2.s.c.c.",
"f 6 8 & O ; m R 2.c.W.c.o.J & f 6 6 < $ & $ U 8 g U ~ =.c.c.1.:.f U U v.I.I.I.I.I.I.I.S i L s V B i p h p f 6 8 < 8 o.#.s.c.c.c.",
"p 8 6 6 7 v z z 8 p n R ~ R z < < ; 7 V f f z D ~ | =.c.N.c.c.c.J J U ~ ! 4.;.;.-.] ' 3 n v p V i v h v v 6 - $ & < R ~ q.c.c.c.",
"n 7 p f m I ..B h p v I J J n v T m m m J J n I n U J o.x.N.c.q.-.#.' ( n J ' ' #.J #.n i n p T p p v V 6 7 v z $ I n f 8 g n J ",
"< 6 v m b z I V ( R T V p i T V v m I T R m J E ..I m U D D D K -.l.q.c.#.' J #...#.2.{ J v p V 6 7 p v ; p p p 7 } U 8 f 8 J n ",
"p 6 b m z V V ) ) O.u.) [ R R V < v n m ..#.2.;.R E ' n I n 8 ! #.c.s.q.7.' >.#.#.2.2.R J 7 p v 6 m p = p b M M 7 m m n D m I I ",
"V I E I ; p L B s V v ) 7.s.l.8 f R V m E o.;.;.R ' ' R E ' n ] 4.2.s.q.#.' #.2.P.#.7.J f v z V p m v z p * I m z v ( [ #.2.( n ",
"z z z 4 X h h v T T s h #.#.#.8 R R ..I R U #.~ R ' ' ] R R R ] 2.4.;.7.' I 7.2.#.2.Y.P.l.n b V m z p z m I I b 6 v L h B n V #.",
"6 * & i L p N V ) T J f #.~ n f n n R ' D x.U S ! o.#.R R ' f R #.2.#.#.2.;.q.OX-X&XF.#.) z b z l p v p m I E ; - v f f L B 8 ' ",
"; 3 ' 2.[ p T V T V v 3 n o.;.#.] K J x q.q.-.c.-.4.;.g K < f n J -.#.s.#.7.#.A.R.].oXR z v l p b V b p ; 3 : B p h n L L n n v ",
"p ) 5.R ' v N V C V u V I #.#.' 5.2.n J c.W.).|.R.I.R c.c.c.c.s.s.P.W.2.7.7.P.R.R.F.2.J 8 V V v V p : 6 ; 6 &.s.T V n T n n p < ",
"h v B L B s v h i B v h v ' R ' #.#.J n c.|.%X+X|.).J W.W.~.).P.l.P.E.q.#.#.s.^.^.^.#.n 8 v V p 6 V u v p p ..6 p v J L h f n n ",
") i n R #.6 h N C p s v i J i f n f 8 J J 4.] ' o.o.o.O.#.7.#.2.#.#.#.n n z v T v n n ; 6 v ) B V p B V p l T v 6 8 z R #...R R ",
"[ i t m p v V v T v N p p ; i - f n m z f J m J m J I n m m m p i 6 < B B h f n v 6 v B T n s v s B V p V v v v p m f I #.D R R ",
"R V [ R J v h V v N v p 8 f - 3 - ; 7 n R 6 6 6 n J f z V n < ; ; = ; & ; 6 T ' p v p v V T p i B h i ( p 6 m v V x n n ~ ;.' ..",
"' R V v J V p } R n T ) N 6 h V ) T E I R 6 y.} n v R m p E &.8 6 p V ' ) ) V B f O.' V E 2.f f ; p p 6 ) I n n R o.>.#...;.o...",
"2.7.T V n n ' V ) ) T T ) 6 V T h - p 6 < m V O.V V B [ ( J v T 3 v V h $ p 6 8 v T T V V ) < & ; < - $ - 7 V I I c.l.c.c.c.c.q.",
"2.] #.T m V T p v B V B ( / O.O.C s V u : B m v v L V B B T B ( O._ [ B 3 v p p p V B p T ) p @ $ - ; ; ; ; ..R S.E.o.s.W.W.C.c.",
"J n n ..E o.p n B V B v L V v V h s N N u T v f 6 n 8 h p p p ) h B T s v N v 6 ) p h 3 h ) S.$ - 3 6 6 6 $ I ..&.l.P.s.>.,.r.| ",
"8 f d J o.#.n h i / ) V B v C N N u h 3 u O.) p i v v i h p V v h L h s s s i 6 A.) p 6 v ) T L i 3 3 p h V I ) O.R I R ;.o.I x ",
"~ } R ;.>.q.;.f h ) / L T y.N v p u v $ - 6 B s V v h h V f J ' #.h v h - p - - 6 u v V v v v V ( ) y.7...#.J j V J V v J f x 4.",
"~ ~ o.>.>.>.q.q.r.T - J V O.v T i h h i s p v O.n n n v R v m R O.T ) R ( ) ' O.&.[ O.i V v ) v V B v J R E #.h n h V n n E G v.",
"o.o.o.;.R o.q.q.q.~ V v s h v N i N s N B 8 V R f J n v E J I 2.A.A.%.&.&.&.5.#.&.[ [ h / T T h h f V V ;.~ r.n B B V v f E | P.",
"W U w ~ o.o.>.q.;.#.E v s V v N N V T L p 6 p z z J v 8 ~ R E 2.&.( ( %.' %.2.#.&.O.v s p ) h v 6 V V I ;...,.n i h B i V E J ' ",
"f W D x n f D ~ ..q.7.B B v v h s v v 6 8 p u f m R E 7 ..o.E ) R f h h N h V ' ( T v v T T T f J E n V ..E E ~ ' R J h V n B n ",
"o.c.c.,.| U D J 3 8 R R B O.) n v h B v V v v f p m ~ I f V R T &.R V v J V p V J m ' #.l.~ ..c.s.n ..2.J ..>.E ..V ' n f J ) n ",
"c.C.c.c.U x , U o.] J J B J ' & - ; 6 $ $ < v n n x U =.~ B J B R E 8 p p p p h ; m z z f U q.~.I.W.'.@XE.z J m v 7 n 7 m m J n ",
"D w 8 3 d -./.'.).q.' n n E m O & ; ; $ = @ 8 ~ o.>.q.c.>.R n f E v p p p N N v < I o.o.o.} '.'.{.{.#X$XT I I n n m x D 7 m n 8 ",
"5 q q.R.).).{.{.).q.U h h J ~ 8 ; & ; < ; $ & ;.q.r.c.Z.,.P I 8 T #.i p N h i v 6 7 =.r.c.#.;.2.' R ~.@Xz f T J v V J m m n U d ",
"> q #.I.I.~.).{.~.c.o.f n R ~ ~ $ & < - < < w ~ r.c.W.W.c.#.f V ..o.m 8 v f v n p x o.=.o.m n I n v 8 n m V 2.q.2.;.' R ..~ U I.",
"2.S U q.I.~.I.~.I.:.c.o.U m D x q.R f n J D D g ;.;.q.C.=.q.#.E f ~ U l.L h n m V J n J B v n n n p p z V V E #.K w I U x f 2.~.",
"P.4.~ v.I.W.v.c.c.;.,.:.< & 7 D q.I n n m U Q ~ D =.=.x.:.,.>.- < h V #.I J E I E R E V E J T V I v ) E ..I x o.o.~ D ~ J R ).).",
"P.v.#.o.*.o.R ] ] D D =.g < d , 8 8 n D =.;.o.U D D n ~ w I ,.f i h 3 n d n R s.2...' T O.+.T E #.~.~.c.P.7.Y #.U ..E I m q.'.).",
"4.4.#.w K ;.;.q.,.q.q.~ 1 J H R ' 2.] ] q.q.' ! ' o.,.>.;.>.~ < ..V ' #.2.R ~ q.s.R R n ) ) ) I P.{.~.~.~.l.D ..o.I U J f U o.;.",
"n w ~ g =.x.v.c.I.c.x.U 8 R v.I.v.v.c.q.c.c.;.H ~ q.c.c.c.x.U 8 o.c.c.s.v.v.v.2.v.-.! ( O.T ) %.s.P.s.#.[ n I m n ' J n J I D R ",
"x z f 8 ;.c.N.N.N.c.x.o.1 ! P.I.I.I.I.~.I.q.D B ' c.c.c.c.,.W 5 o.c.P.I.I.I.v.v.-.H P B O.) y.) ) u v p 6 6 V ) E n D ~ #.7.l.7.",
"n m z m o.v.N.N.4.W *.Z > n ] o.' ' D ~ ! D 8 8 S ! ;.| Q | f 5 n ;.] R ! S ~ -.` 8 j j B J 2.$.B 3 u 6 6 6 u v n n E #.7.q.l.r.",
"f w 8 x ! x g 1 & 1 q w g < ' { ! ;.-.4.4.q.q.;.J #   o g 5 w r < o.o.-.q.4.4.4.2.2.#.5.R [ 2.R v u v p v 8 6 6 - f ' #.7.l.c.c.",
"& & & x q 5 D ~ =.x.,.q.:.R S ] q.v.v.P.P.P.c.P.R , 8 o.x.,.,.:.f P *.v.v.F.P.v.P.F.P.5.%.) T v p h V v 6 6 ; - ; 3 J ~ 7.q.q.q.",
"f 8 5 x x W o.o.c.c.N.c.c.! n U ~ ! :.4.4.4.-.#.R D n c.C.C.c.c.J ~ K ] ! -.-.-.s.#.' L R J n n z v z v 8 f f n p m f 8 8 x S R ",
"x z f w x n n J ~ ,.c.c.x.~ ;.o.! S ! ! 2.I.L 2.` H n o.N.N.C.c.~ o.o.] n K ] *.4.V #.' R v 6 i i i 8 8 < 4 E 8 < D n B f f n H ",
"c U R I ~ U n S U D D f n ' q.4.;.o.P H ! K J [ 2.{ I.P.g K g S ;.v.s.q.2.! R o.' [ &.2.[ v @ f 8 8 < ; . < n m 2.,.~ g J D J J "
};
