/* XPM */
static char *obl3[] = {
/* columns rows colors chars-per-pixel */
"64 64 160 2 ",
"   c #251A0D",
".  c #2B1E0E",
"X  c #2B1E10",
"o  c #2C210E",
"O  c #30210E",
"+  c #2E2212",
"@  c #332514",
"#  c #382714",
"$  c #352A15",
"%  c #3A2C16",
"&  c #362919",
"*  c #3C2D1A",
"=  c #3B3117",
"-  c #3E321A",
";  c #3F381E",
":  c #3F3320",
">  c #412F1A",
",  c #42341D",
"<  c #48371E",
"1  c #45391E",
"2  c #49391F",
"3  c #443522",
"4  c #483722",
"5  c #463922",
"6  c #493D22",
"7  c #4C3F20",
"8  c #4C3E23",
"9  c #493925",
"0  c #493924",
"q  c #483B24",
"w  c #493B25",
"e  c #4A3B25",
"r  c #483827",
"t  c #493C24",
"y  c #4A3C24",
"u  c #4A3C25",
"i  c #493E25",
"p  c #493F24",
"a  c #4B3E24",
"s  c #4B3C26",
"d  c #4A3D26",
"f  c #4A3C27",
"g  c #493E26",
"h  c #4A3E26",
"j  c #4B3E26",
"k  c #4C3C24",
"l  c #4D3C24",
"z  c #4E3D25",
"x  c #4C3F24",
"c  c #4E3E25",
"v  c #4F3F25",
"b  c #4D3D26",
"n  c #4E3C26",
"m  c #4E3D26",
"M  c #4D3E26",
"N  c #4D3F27",
"B  c #4E3E26",
"V  c #4F3E26",
"C  c #4F3E27",
"Z  c #4F3F27",
"A  c #4B3C24",
"S  c #473D29",
"D  c #4B3D28",
"F  c #4A3E28",
"G  c #4D3F28",
"H  c #4E3E28",
"J  c #4F3F28",
"K  c #4E3D2A",
"L  c #4C3D29",
"P  c #503F26",
"I  c #503F28",
"U  c #513F29",
"Y  c #513F29",
"T  c #4A4026",
"R  c #4B4026",
"E  c #4D4025",
"W  c #4D4125",
"Q  c #4E4024",
"!  c #4F4125",
"~  c #4C4026",
"^  c #4F4126",
"/  c #4F4127",
"(  c #4F4227",
")  c #4E4327",
"_  c #4D4026",
"`  c #4F4028",
"'  c #4F4129",
"]  c #4F4229",
"[  c #4E402B",
"{  c #4E432A",
"}  c #4F452B",
"|  c #4D432C",
" . c #4E412A",
".. c #504127",
"X. c #514227",
"o. c #514129",
"O. c #504029",
"+. c #524128",
"@. c #504229",
"#. c #50412B",
"$. c #50432A",
"%. c #50422B",
"&. c #504429",
"*. c #534428",
"=. c #524529",
"-. c #50442B",
";. c #52442A",
":. c #52452A",
">. c #55442A",
",. c #54452B",
"<. c #55452B",
"1. c #56452B",
"2. c #54462B",
"3. c #53432C",
"4. c #54412C",
"5. c #53452D",
"6. c #51472D",
"7. c #52462C",
"8. c #53472C",
"9. c #53462C",
"0. c #53442E",
"q. c #55452C",
"w. c #55472D",
"e. c #55452F",
"r. c #55462E",
"t. c #53442B",
"y. c #59462E",
"u. c #56482C",
"i. c #57492C",
"p. c #56482D",
"a. c #57482E",
"s. c #56482D",
"d. c #59492E",
"f. c #554631",
"g. c #584730",
"h. c #594731",
"j. c #564931",
"k. c #584930",
"l. c #594930",
"z. c #5A4930",
"x. c #5B4931",
"c. c #584A31",
"v. c #5B4A30",
"b. c #5A4B31",
"n. c #584B32",
"m. c #5A4C32",
"M. c #584C35",
"N. c #5E4E35",
"B. c #5F4E37",
"V. c #5B4B33",
"C. c #5E4F38",
"Z. c #5E5135",
"A. c #604E35",
"S. c #624F38",
"D. c #635136",
"F. c #64523A",
"G. c #69563D",
"H. c #6A593D",
"J. c #6C5B41",
"K. c #745F45",
/* pixels */
"e.< < < 5 < e.< e.x < = 5 5 x = f.e.3 = ^ x < 1 e.^ = % ..2 x 5 x 2 < = < < < x 5 ^ x e.e.x < 3 e.x 3 < = 3 x < < e.e.< < 2 < 1 ",
"l.^ x ^ = = 1 < x = = = 5 x ^ $ l.x : 5 u.^ < 5 x ^ ` x 5 = e.< U 3 < * * x 4 3 < x 1 x x x e.< e.= = 5 3 < < @ @ < x 3 % 1 x 5 ",
"l.e.x < = = = < < = $ = ` ` 5 & l.e.S ` e.e.1 3 x 1 x x e.^ x < L < 3 < < e.< 3 3 x ^ 5 x L L % x = < 5 5 < = = $ x 4 < * = x 5 ",
"l.x e.^ $ n.= $ < = $ $ = x x 5 x u.l.e.e.u.x 5 n.x = = e.^ = x 3 3 = = x x x 3 3 x e.x ` n.l.` x 1 5 x 5 < 5 x = 4 < 5 x 5 < < ",
"l.u.e.= 5 1 % 1 < = $ = < 5 5 5 x u.e.x x ^ e.e.e.x = = < 5 x = 5 5 % * x x < ` < < x x e.e.l.5 L < 5 < < = 3 x 1 3 x L 3 5 L 3 ",
"e.l.x % < = x x % < < = x e.x < l.F.x x 3 x 5 L x x 2 5 5 ^ < < 3 x = = x < < e.` 3 < 4 x x x * F.1 < = < < = 5 = * x ..x e.n.3 ",
"l.x < ` 5 x 5 % < < < ^ e.x < * F.F.e.x < < < 5 x < x x = x 2 = 3 < < < < % < e.x < 4 x < x 1 * A.^ 1 x < < < < = < 1 < < * * @ ",
"3 @ @ @ $ + + + @ @ @ @ $ $ @ + x < = * + + + + % $ $ * + * @ + * @ @ @ @ + + $ * * @ @ * * * @ 3 $ @ $ & $ @ @ @ + @ * * @ + X ",
"e.e.e.e.l.F.l.A.x e.h.f.f.f.L ` l.A.l.l.A.e.e.l.3 L f.l.` x 5 ` l.e.e.l.a.e.e.l.L e.e.x x e.L e.e.x x x ` x e.y.x e.e.l.u.e.l.` ",
"= % 5 x L x e.u.3 < x x e.x = = x 2 ..x < x x ` : 5 5 5 x ^ e.1 1 x < = x x x = 3 < % % = e.x < < < = @ * = < < 5 ^ ` e.e.e.n.< ",
"5 = e.e.f.< x l.L L L x x = x < = * % % < 1 x x : = = < 5 e.x = < < % x 5 < < $ 3 e.< < < x < % % = $ % $ $ % = L 5 ^ e.f.x < 3 ",
"L 3 x e.f.5 x e.L x 5 5 x < x < % < < % * < > 2 3 = % L L 3 3 1 < = = % % $ 1 x x e.< 5 5 x = = 5 = = 5 < % % * L e.e.L L f.x ` ",
"` 5 L C.5 < < U L 5 = 3 5 5 1 * < % * % % % @ < 3 5 % e.x 3 * ^ ^ x < $ = < < 1 3 x x x x x = = < x = x 5 = = = L e.n.n.x e.5 ` ",
"5 ` 3 L L L L e.L 5 3 L x 1 < < < < * < % % < < 5 = 5 < = 5 3 < x < % = = 3 x < 3 5 ` x = = < x < 1 1 1 5 5 < = x l.x < x e.< = ",
"5 x ..e.e.n.e.u.5 a.Z.l.e.a.l.x x x * O * % < < 3 x l.< < 3 x 3 * % % ^ < < y.x = ^ l.e.x $ l.F.l.x = 1 ^ 5 = = ` e.x = = 5 < % ",
"@ @ * 3 3 = $ * * = 3 3 * 3 < < * * + . X @ $ @ * @ & @ @ @ @ @ X + + * * @ 3 < 3 * = = * * & < 4 $ @ + $ $ o + * @ & @ @ & & + ",
"S.e.e.J.l.L U e.y.e.x U L x U L l.l.l.F.F.G.l.l.l.e.l.n.l.e.K.l.U e.e.e.l.h.U e.h.U e.l.f.e.A.l.L x L L e.l.F.J.H.l.F.l.u.e.e.e.",
"e.l.e.l.e.3 < x < % < 5 < x x * L 5 5 ^ e.l.e.l...5 1 x 5 @ < x e.x < x ..l.x # @ @ % x x x a.e.f.L = 3 < x x e.e.x e.P < % % $ ",
"f.e.` l.` x 5 3 = % $ = < x x < 3 = = x n.e.` L x < < n.L < 3 x L 5 < $ * < < * * * @ % < ` x < e.` L 3 < L 3 x x x 3 1 = = % @ ",
"l.a.^ x x x % x 3 = * % 5 = < < 5 < $ < x e.u.^ 1 < 1 x * * < x e.5 5 * * * * 3 < < 3 < x < x = e.e.L L L L x 3 * * < x < = = $ ",
"e...x 3 x x < 3 x 5 3 < < < % < 5 x $ x l.U ` e.` = = = = = < * e.x ^ x = 5 < < 5 x ` x x < < = e.l.` ` 5 L ` n.5 5 5 x x x 1 3 ",
"e.< e.u.e.x < x x x x x x < x 5 x = : L l.x x ^ ` x x = = < x < e.x x < x e.x = < x a.e.e.` 1 x l.a.f.` x x x e.< e.f.^ ..< < 3 ",
"e.^ l.a.P x < x ..y.e.e.e.^ a.x L x n.l.u.< % % < ^ e.^ 1 ` 5 x e.e.x < = x x 1 x x u.^ x x x < U < e.l.e.^ e.e.x y.l.x x x < 3 ",
"* $ * * * < * * # * @ * < 5 3 * * $ $ * & X . + & $ * $ + = = $ L * * + + @ @ @ @ @ = * @ @ @ + * @ @ : * > * = @ $ * % % @ @ @ ",
"G.G.A.f.e.x e.L e.F.l.e.l.e.l.x e.y.y.U l.y.l.y.L F.l.l.e.e.U ` e.5 x e.l.l.l.J.L l.l.e.F.^ x a.e.e.` e.x 5 x ` L h.f.e.e.e.e.A.",
"e.e.a.e.5 x 5 = L l.x * x 3 * < x < * 3 ..x 2 x 3 1 1 = % $ = < 5 % % x e.e.e...L l.l.e.x $ $ % = ^ = < = $ x e.3 x 5 x x < x e.",
"e.e.e.e.3 5 < ` f.n.= 3 L x < < * x x < % @ > < 3 = * $ @ = = = 5 = = x < x = < 5 e.u.L 3 % = < 5 ` x % $ = 1 l.3 * = = = < 3 x ",
"x < < U < % < x f.n.3 3 x L < = < < < @ @ * x x : = 5 $ = 5 ` ^ x $ @ < x < 1 < 3 x * 3 x ^ = x < 5 = x ` < ^ e.3 x ^ 3 % % < * ",
"< 3 < 4 ` % % * L x e.x x ^ ^ 5 < % < * @ * % < 3 ^ 1 = $ ^ e.L 5 $ = = < < e.u.3 < * < x 5 % < 1 1 = x n.x e.x 3 < * * < x 3 * ",
"e.x e.x x x x < L ` P < < x e.x e.5 5 3 * 3 * < 5 1 = 1 = x n.` ` = = 1 = % e.a.3 5 5 x x = = x < e.< < x e.e.1 3 < = = = 5 L 5 ",
"e.x x l.u.x % < 3 = < % = < x a.H.u.^ 1 5 ` 3 e.3 x < = = x l.l.n.1 < 2 < 3 * x L x 5 x 1 < = = < e.x * < x x = 3 < 5 % = 1 x x ",
"* * + @ 3 + + + & . + + + o @ @ 3 x < * @ @ @ * * @ + * + @ = 3 * * * * @ @ @ @ * * * + $ * o . + * + $ @ @ @ @ * & @ + @ @ * * ",
"h.A.e.h.G.e.U x l.a.y.e.e.y.A.U U e.e.e.l.l.F.l.l.e.l.l.F.J.J.e.A.A.e.e.l.e.e.l.l.l.e.L f.f.L 3 l.l.e.h.e.e.5 e.l.F.l.l.l.l.l.f.",
"e.x x e.e.5 < = < < < > # x ..< L x * * x x x = = = < < % < < < e.P ^ = x ^ x ` e.5 < * 5 e.x 3 F.x = < = e.L 5 ` e.5 ^ x ..e.x ",
"h.e.L 5 x * < % @ % % 3 < % x < e.^ * < = 5 = % % % % O @ $ @ $ L x < % % = = 1 e.x = < x 5 < $ y.e.e.x x ..x ` e.^ x x < < ..x ",
"f.f.x ..x @ O % * % * * < < < e.L 1 = 3 % < % $ < < < * @ < < = l.n.< = = = 1 x x = = ; x ` ` * x x x x x x 5 e.x e.1 x x < x < ",
"F.l...e.= % < x x < 5 < < < x < e.< < * @ $ % < * * @ < * % < * e.e.= $ = ` ` ; < * $ = x f.x & 3 % * > * & < x ^ x 1 x = < x * ",
"A.a.y.l.x < * < 3 x L x < < x % 4 e.x < @ # < < < = * 5 5 < e.< x 1 = * = 5 5 = 5 x 3 = < < = = x < < x < = L 3 ..e.e.e.= 1 x 3 ",
"l.F.a.x < x x < < L 3 e.e...< % x < < % % < 1 < < x = x n.e.x 5 < $ < 1 1 1 5 5 * < x = 5 x ` = x * < x < f.e.x e.e.x e.e.^ a.3 ",
"x 4 * @ + + @ + + @ + @ 3 * @ @ * + X . + @ @ @ & & . @ * = * @ & + + @ < 3 5 * @ + * & @ & * @ * & @ * $ = : * % * * * * @ @ @ ",
"e.e.l.l.l.S.l.A.L F.e.e.e.l.l.u.f.l.l.y.l.F.l.e.4 U e.e.e.U F.l.e.e.y.L L L L L L e.h.l.y.U U e.l.l.y.l.y.l.e.3 x e.` ^ ` e.e.e.",
"< > U e.x e.< e.3 % < 5 x 2 < ..^ e.e.5 ^ x < x 3 > @ @ @ % > % @ % 1 x < < x < 3 x x e.< * * < 3 < 1 > % < < @ 3 1 = = = $ < < ",
"= = ..x x x 4 x 3 < ` e.x x < x x < < x 3 e.x < 3 < % * % * @ % = % x x ..e.x e.3 x * < < < = % 3 * < % > * * $ 3 1 $ = $ = 5 5 ",
"x x < < 3 < * > L 3 < P x x x < < < < < * > % * x e.< * % % * % < % = P < * < x 3 < * < x < % $ x x % % % * % 3 5 ^ = $ $ $ % = ",
"x x x ` x x < x f.l.L x x 3 > * % < < x * % @ * 3 e.< * 3 x < = < < * < * 3 L < 3 x = * < 3 < < < % % @ $ = < e.5 < = < $ $ $ = ",
"e.e.x e.` 3 < 3 L x = x 3 3 * 3 x x < < < * 3 = x x 3 < x x x x 3 % * % % @ @ # x 2 < < < % * 5 x 3 < < x < x P : = 1 % 5 < = x ",
"x l.e.l.` = = x U a.x L e.x 5 e.l.a.x 3 e.x < = x x 3 3 < e.l.e.3 @ % < < * < * L x < 2 5 < < 3 ..e.< < 5 > x e.5 1 % % < < < < ",
"= @ @ < * @ @ @ * @ $ @ @ * @ < 3 3 * : * & @ * & % + + + * * : + + @ & @ . @ @ : * @ @ * = * * % * * @ @ + $ * * + + + + + + @ ",
"U l.C.F.F.F.e.e.e.L 5 e.e.l.l.l.e.S.l.l.y.A.A.l.e.e.l.l.l.e.F.e.l.A.a.u.a.l.e.e.l.a.e.l.e.` e.h.l.l.F.F.G.F.A.e.F.e.F.l.x y.l.` ",
"e.< e.e.e.x x 5 < x e.5 1 x x < x L 5 e.e.x x e.x e.` x = 5 ..= F.e.^ 1 ^ l.x 1 1 u.e.l.x < < x 4 U l.x f.e.e.< 1 5 x < < 5 < $ ",
"` ` 5 e.L x L L e.^ 1 x 1 = 3 5 L 5 5 e.e.e.x < % e.x 3 x x < $ a.e.x < < 5 = < x e.U x 5 5 < = L 1 1 x 3 $ % < x x 3 < * = < 3 ",
"f.L e.l.f.` x e.L e.3 x < 5 5 < L e.` l.e.e.e.` 5 5 < < 1 < < * l.< 3 < x % < 1 ^ x 3 x < 1 x % L 1 * * 3 * * 3 x ^ < < < x x x ",
"e.3 5 e.C.< x l.` 3 x ` e.l.l.x L 3 < e.e.e.x ....` 5 = 5 5 = = e.e.e.3 < % = $ 1 x x = x 1 * $ L 5 < < 3 3 < x e.u.< = < 5 1 ` ",
"L = L L e.< x e.x ` e.x x ` l.5 ` ` 5 e.3 x < x x 1 1 x < 5 5 * e.u.e.5 = $ o o $ = % $ = < < * x x % x x e.3 < 1 x ` x = 5 e.` ",
"f.< < x n.e.x ` ` e.n.x e.^ e.x l.a.e.e.` < < P x < 1 < 5 < x = L ..x < x = $ @ . . % % x 1 = : e.< 5 ` x e.L = % 1 l.x < 5 x x ",
"3 * & $ * 3 * = $ * * * * % $ $ r L 3 3 3 * * * * * * @ $ * + + * + @ @ = & +         X + o @ * * @ & : * = * + $ = * $ $ @ $ + ",
"e.` ` l.l.e.x x 5 e.l.l.f.e.e.f.F.e.L l.h.y.l.e.L U L e.U x L L e.x x x h.A.a.F.L l.l.A.e.F.F.F.S.l.C.l.l.l.l.F.L x l.e.^ e.e.x ",
"% 5 x ^ x 1 < < 3 x 5 ^ ` ` < = x < < x L L < x x 2 * < < < < % < = < % < x ^ ..3 a.e.3 < x < < x e.C.F.x ^ x L 5 ^ ..= = $ ; ^ ",
"3 L x = 5 < < = L Z.^ e.f.` x x % % % = 3 < x e.3 < < < < = 5 % = 5 < < > x l.x 3 3 3 < = x 5 < * 3 L 3 5 x ^ < = ` 1 5 l.5 = 1 ",
"` 3 L L ` 3 < = e.l.l.f.L < < 3 = 3 5 < * < = 5 L x e.x % $ < 3 5 u.3 x < x < 1 3 < % % * < 3 x 5 : < < < < 1 = 3 5 < 3 = $ = x ",
"x x x x < < x * 3 x 4 x x 5 = 5 5 1 x ` 3 1 x ^ L ^ e.x < 5 5 5 x l.x e.` e.x x x x x = = = = < x 5 $ % < = = 1 3 e.< < < % < 5 ",
"x 5 1 * 3 ^ e.= 3 < < f.e.e.5 * % < % e.e.u.e.x 3 x e.< < x < 5 1 x e.e.x e.e.e.3 < < 5 = 1 < < = 5 = $ % = = % 3 < < < 5 3 x 5 ",
"e.5 1 ^ u.l...% 3 f.< < x x < x x ^ ^ ..e.e.` 1 3 a.l.x 5 x x ^ l.e.F.F.l.a.F.F.3 5 < < 1 x x x 1 = = 5 < = < = 3 < e.e.5 x < x ",
"* $ < $ $ < < @ & & * * * * @ * $ * @ @ * * @ * 3 = < < @ @ $ @ * 3 x L 4 * < x * * * = $ $ $ * + $ + * * o + @ & * $ @ @ @ @ % "
};
