/* XPM */
static char *obl4[] = {
/* columns rows colors chars-per-pixel */
"64 64 188 2 ",
"   c #16120B",
".  c #1B150D",
"X  c #1E180D",
"o  c #1B1710",
"O  c #1E1912",
"+  c #231C0E",
"@  c #291F0F",
"#  c #241D13",
"$  c #291F13",
"%  c #251F18",
"&  c #26200E",
"*  c #2B230F",
"=  c #30240F",
"-  c #32280F",
";  c #272012",
":  c #2C2313",
">  c #2F2814",
",  c #26211A",
"<  c #2C241B",
"1  c #2F281D",
"2  c #312614",
"3  c #342915",
"4  c #392C15",
"5  c #322619",
"6  c #352A1B",
"7  c #3B2D1C",
"8  c #3C3116",
"9  c #35311A",
"0  c #3D311C",
"q  c #3E381C",
"w  c #2E2720",
"e  c #2F2821",
"r  c #342C22",
"t  c #3A2E21",
"y  c #363027",
"u  c #3D3123",
"i  c #3D3429",
"p  c #402F17",
"a  c #402E1C",
"s  c #443415",
"d  c #42331D",
"f  c #48351F",
"g  c #453A1D",
"h  c #433423",
"j  c #493724",
"k  c #473825",
"l  c #4B3A26",
"z  c #42362A",
"x  c #483729",
"c  c #45392C",
"v  c #4B3C2B",
"b  c #523E2B",
"n  c #463B31",
"m  c #4B3E32",
"M  c #503F31",
"N  c #474024",
"B  c #4B4026",
"V  c #4E4925",
"C  c #4E422C",
"Z  c #53412D",
"A  c #5A462F",
"S  c #59512D",
"D  c #4E4135",
"F  c #4E4238",
"G  c #534334",
"H  c #594633",
"J  c #5C4935",
"K  c #534639",
"L  c #59473A",
"P  c #56493C",
"I  c #5C4B3B",
"U  c #604B35",
"Y  c #624E3B",
"T  c #65523D",
"R  c #6A543D",
"E  c #5C4E41",
"W  c #5F5043",
"Q  c #604E40",
"!  c #645344",
"~  c #6A5543",
"^  c #6D5945",
"/  c #645648",
"(  c #695748",
")  c #67584A",
"_  c #6C5B4B",
"`  c #715742",
"'  c #725C45",
"]  c #735E4B",
"[  c #785E49",
"{  c #6D5E50",
"}  c #715F50",
"|  c #766047",
" . c #75614C",
".. c #7B644D",
"X. c #7F684F",
"o. c #6E6052",
"O. c #746352",
"+. c #7B6653",
"@. c #7D6955",
"#. c #756658",
"$. c #786758",
"%. c #776859",
"&. c #7C6B5A",
"*. c #7F7061",
"=. c #80664C",
"-. c #82684F",
";. c #816750",
":. c #836B54",
">. c #8A6E55",
",. c #826E5A",
"<. c #896F59",
"1. c #8D7057",
"2. c #85715D",
"3. c #8B735C",
"4. c #907257",
"5. c #91765D",
"6. c #93785E",
"7. c #857362",
"8. c #8C7561",
"9. c #8E7964",
"0. c #8F7C69",
"q. c #927761",
"w. c #937B64",
"e. c #9A7E64",
"r. c #927E69",
"t. c #997F6A",
"y. c #A07F63",
"u. c #9C8166",
"i. c #96816B",
"p. c #9B836B",
"a. c #9E886F",
"s. c #958270",
"d. c #9B8671",
"f. c #9E8973",
"g. c #A18366",
"h. c #A1866D",
"j. c #A2856B",
"k. c #A5886E",
"l. c #A4886E",
"z. c #A98B6F",
"x. c #AA8E6F",
"c. c #AD8E6F",
"v. c #AF8F6F",
"b. c #A38770",
"n. c #A68B70",
"m. c #A68D73",
"M. c #A48B73",
"N. c #A98B71",
"B. c #A98E72",
"V. c #AE8D73",
"C. c #A98E74",
"Z. c #AB8E74",
"A. c #A48E78",
"S. c #AA8E78",
"D. c #A79077",
"F. c #AC9175",
"G. c #A6907B",
"H. c #AA9178",
"J. c #AF9479",
"K. c #AF947B",
"L. c #AC947B",
"P. c #B29275",
"I. c #B19579",
"U. c #B69479",
"Y. c #B3967B",
"T. c #B2997F",
"R. c #B5997E",
"E. c #B89A7C",
"W. c #B89D7F",
"Q. c #BE9F7E",
"!. c #BB9B7D",
"~. c #C09C7E",
"^. c #AD9680",
"/. c #AF9883",
"(. c #B09780",
"). c #B59B82",
"_. c #BA9D83",
"`. c #B89F88",
"'. c #BEA186",
"]. c #BCA38B",
"[. c #C0A181",
"{. c #C4A587",
"}. c #C5A585",
"|. c #C1A589",
" X c #C8A688",
".X c #C5A88D",
"XX c #C3AA8F",
"oX c #C9AC8F",
/* pixels */
"{ d.2.+...3. .G 6 : 2 2 x r 6 x ) ) ! o.) ) ] +.] @.p.r.p.H.H.i.T.j.3.:.2.6.9.q.q.b.T.f.^ G Z 7 4 d 0 h J =.| >.p.q.5.3. .~ k l ",
"8.:.I G G I x : : 4 * * : h 6 u O.O.7.) ) &.p.b.p.3.2.Z.p.Y.Z.Y.!.b.,.@.+.,.q.q.q.q.p. .G x 6 0 h d 4 7 l R ..6.c.3.^ I J h 0 0 ",
"q.~ x t 6 : > 2 4 * : 2 2 r < r I &.9.r.H.H._.oXT.q.3.5.j.Z.u.j.Y.q.@.+.@.+.2.p. .T Y T G 6 4 6 d l d d h Z ^ 3.| Z h u 4 - > 4 ",
"' T x 7 4 4 6 2 * 4 I 6 : : 6 7 x +.p.b.Z.Z.Y. X.X'.[.!.g.u.5.>.4...^ ^ +.~ ! Y G G G Z 6 4 : : d x 0 4 d l h 2 : x 0 7 4 4 2 - ",
"h h 7 0 4 4 6 : 4 6 T I 6 4 2 5 h  .:.b.p.k.j.Z.P.[.Q.Q.c.6.=.' ` H x z u x J I G l 4 2 6 4 4 : : 7 0 d s 0 4 4 4 6 4 6 0 4 4 4 ",
"u 7 6 6 : 6 0 4 4 4 I X.x h 4 < t T g.P.j.q.>.;.[ :.g.6.:.:.' H Z h t 7 t x x 7 4 4 4 4 6 4 4 0 0 7 7 4 4 4 4 : 4 6 6 : $ : 4 4 ",
"u < % # < < 6 6 4 7 l T T x 7 6 6 Z ' :.:.R U H H U U T R U T h 4 0 4 6 0 0 0 k 7 4 7 4 6 7 x u h 7 7 4 4 6 4 6 6 0 7 6 2 : 6 : ",
"t r r i D m r z l 6 x l T x l 4 4 h x H Z x x h x 0 h d 8 d 0 8 0 d d 4 0 7 0 6 0 4 0 4 4 4 < , 0 0 7 4 2 6 6 6 x x 7 : * 2 : # ",
"E I K E ( ] :.t 7 4 4 7 u 4 4 j j l d j b h d 7 d 0 6 8 8 8 s 8 8 4 d 4 2 4 7 4 4 4 7 h 8 4 4 * 4 d 7 2 : O # < m G 2 6 4 4 # . ",
"K F D ! Q 8.] h 7 6 0 : 4 d a h b j b x x u d 7 7 7 4 7 8 d s Z R h u 4 4 4 7 7 : d h 6 4 4 : : + + . O # < r z I x 6 4 4 4 # < ",
"K K K ! 8.] x u h 0 6 7 d h l Z x h h G x t x x G J 7 j d j 7 U :.! I l 2 2 6 4 - 4 7 u 6 + # # O # % e x ! ! ! G G t 6 4 5 < r ",
"( ( ] 8.3.G t 7 5 7 x z m G D G G x x ! ] :.3.,.+.C h l b Z h A >.P.e.Y 7 4 : f s 0 : # O # < r r i I  .+.p.9.O.7.+.m 2 6 6 6 x ",
",.8.p.<.' x x j 0 Z Y e.Y.j.P.j.b.p.!.Y.Y.3.q.q. .z < 0 h h x H ' -.~ x 7 7 4 6 0 6 X # r i m x K ) &.b.q.b.2.8.r.7.G 2 6 , 5 C ",
"b.Z.3.' J Z j h l ~ 3.Y._._.~.k.j.q.p.u.P.F._.Y.q.' < : h h h G 7 7 7 7 7 7 7 2 2 . O 6 u D ! ! ) ,.p.D.b.&.@.f.d.b.! : : 4 7 h ",
"e.3.~ I Z h 7 d x ~ [ ,.j.!.V.b.p.8.k.u.+.+.q.q.u.+.x < 7 0 u 6 : : : : : 2 6 l 2   O z x D K O.i.p.p.p.f.H.q.:.q.2.k 4 : > 6 7 ",
"Y ~ Y H 7 a d 4 h G ` q.e.!.P.p.:.8.u.+.+.3.9.8.q.u.:.x # : : : a : : 2 * : 6 h #   # G D Y 3.i.q.2.@.3.:.@...^ T x : 4 0 4 * 4 ",
"Z h u : 7 4 4 0 h h :.Y.Z.8.+.+.,.2.@.+.) +.) ) ] +.<.I < : 4 4 : : 2 4 4 2 2 : X   i  . .:.:. .T G x G ~ I h k 7 2 d 7 6 4 4 0 ",
"6 : : 4 0 4 2 6 l t ..Z.H.,.) @.@.,.O.) ( O.9.&.+.+.' I 6 : : 7 5 2 2 2 7 6 7 2 O 6 ^ :.^ G h u t < 6 G J 4 4 x 7 4 $ 7 : 4 : 7 ",
": : : 4 6 6 4 2 6 6 ..j.8.) @.3.+.3.p.+.,.8.,.r.8.:.' ! x : 4 @ + : : 6 7 l 7 6 u b h x 6 : 6 4 : 4 : 7 u : 6 6 6 7 d d 7 7 l h ",
"4 : 6 0 u 2 8 8 : : x ~ ! ..q.[.T.p.2.q.H.r.f.F.u.@. .' G : : 4 : 4 2 4 j H 7 : 2 6 6 : : 6 2 : 6 : : 2 : h x G x h h u 6 z u x ",
": : : : 6 7 4 g 4 2 5 x G I :.c.Y.b.H._.T.b.p.q.3.,... . .x 6 t 2 4 : : : b 7 d : 7 7 : : 4 : * : 4 > 4 7 6 D i r r r z r r r r ",
"# # < : & : j 6 : 7 2 : 0 x U ' ]  .]  .' ^ @. .I ~ p.T.u.~ ....l : 4 4 : 7 h h 7 u 6 h 4 : $ 2 u 6 : < < < r r i D P K ) 8.q.+.",
"< < i u 4 : > + 2 4 2 7 6 6 6 < u 7 t h Z G G G C @.Y.P.' h 6 4 4 4 4 4 4 : 6 6 6 7 6 u 0 7 6 6 < , < u i D x i D W K ! ) ) +.+.",
"D  .:.x 4 4 : : 4 : 6 7 , : : : : 2 2 2 2 5 u d 7 6 h g V S N g d 7 d 4 4 x : # # # : # : u b h I q.p.2.8.@.) ] 8.2.8.d.q.@.+. .",
"Z.Y.u.G 7 4 4 4 2 : # 6 4 4 5 : 6 4 : 6 7 h 4 2 4 7 7 6 9 V q d 4 6 6 2 : X . . # # : * 6 $ x x ' T.[.).p.p.3.p.p.&.p.p.T._.p.3.",
"!.j.q.G h 4 4 4 4 2 : 6 6 : < 7 h 7 7 5 : : , # : 6 < : : : : : : 2 * : .     < r < O 6 6 2 : h u  .q.2.3.,.2.p.9.q.7.i.q.r.p.3.",
"[.Z.@.z 6 6 : : : : , 5 : 4 7 h 7 5 < # # O O O , # O O # # # . . .     . O , < r w O # 6 : 7 : : t 3.i.D.b.G.p.p.).A.'.H.2.2.2.",
"u.q. .u # : 2 4 + : : # : 7 : # # # # < < , , < < e < , r i r r , # < r < r y i D I r   . 2 # + # 6  .H.|.b.H.'.G.H.H.7.r.b.@.O.",
"q.q.e.Y t u 6 7 2 b 7 5 : : O % e r r i i r r r z x P P i i K z i x ! z i m P ! O.9.! <   X & & : x T 3.F.p.p.A.f.0.b.f.d.b.r.q.",
"] :.3.G t t h t l b l : : O # r I ! P D K ! @.+. .O.O.! P ! ! P )  .~ ) ! ) ,.) O.+.,.I # . & & * h x  .:.k.T.G.i.7.7.7.&.8.2.,.",
"q.q.3.^ x < x t 2 7 $ o   O < ! O.,.i.2.! +.:.@.] ) ! W P I P P K I I I I ) &.O.&.2.d.d.D o + + * : h Z ^ p.T.XXH.f.G.].).q.p.9.",
"Y.H.9.) I u r + : : O o # r G ! @.f.d.7.,.+.+.&.r.7.! W I E K D I I K P P P &.A.&.&.0.8.+.< # 2 + * 2 h G +.q.).H.].^.].).i.f.f.",
").F.T.3.I T k 4 7 6 6 z z I  .+.@.9.i.f.G.8.,.,.+.+.O.{ E E I E ) ! ! ! %.{ &.7.d.r.9.q.:.u # 6 : * * : h I ' q.H.'.).T.).H.H.).",
"Z.q...:.T U h 2 : 5 6 z I +.i.p.b.i.d.).A.i.8.q.8.@.O.{ $.} ( W W $.&.0.9.9.A.H.A.p.b.b.+.t # 2 5 + * + 6 h z G :.q.q.q.p.@.] ..",
"G x x ^ Z 7 6 7 2 < < m I ~ q.i.).'.`.).H.d.b.t.p.j.3.,.,.,.8.O.E E O.8.,.d.b.'.p.p.q.k.I r 5 : + # + + 2 6 0 x G '  .^ H t u u ",
"h h 6 u I : 6 6 7 : r G ! 8.).).|.[.|..X).Y.Y.Z._.Z.q.p.b.t.8.8.8.7.s.0.d.b.T._.p.q.3...h 6 < : + . + * : 2 h G Z Z h 7 4 4 7 l ",
"2 : 2 < < h h 7 7 6 z ^ ^ p.F.e.j.T.!.!.T.k.P.!.Y.!.P.P.j.!.P.).H.H.b.^.H.).'._.3.8.3.Y u : 5 + +   + + 6 h 7 6 6 7 7 7 h 7 l h ",
"4 : # # < < # r : 6 h T Y J x x H :.j.1...^ ' ;.=.>.y.e.5.k.P.c.q.@.6.p.Y.P.F.k.q.5.:.x 5 , # + + . # + : : < 6 7 6 : 6 x 2 7 6 ",
"0 : : # X # : : 6 6 2 t 6 0 0 h l Z Z J J x h z x G J Y J H Y H H x G T ! H J I I T ' x # < # + + & * : : # 5 < 6 7 a h : 4 6 : ",
"# # # O # # # 2 : t : : 4 4 4 : x 0 8 a Z 5 6 6 5 6 5 6 t h x t t # : < 6 7 u z x x h : $ : : : : + : 2 2 + : 6 6 : 2 2 : 4 6 6 ",
"o r , # o o # # # 7 6 : 2 2 4 4 : 7 B 6 6 4 4 : : t 7 4 2 # < < + + : : 2 : : : , # . . 2 : 7 7 : : 2 : 4 $ + 6 6 0 h 2 4 6 : : ",
"r n r w w < % < # # 6 : 0 7 7 4 4 6 7 C 6 h : : : h 5 2 2 h 5 6 : $ * * : : : * : : 2 - * u < : # # : # < : 2 h h 0 J : 7 t < < ",
"n ! E x I I D i r 5 r r 0 : 5 : h : : # : 6 4 2 7 t $ + 2 b x t 2 2 7 : 2 : * 4 6 : : : 6 x t u < # # O # : * : $ 6 z : < # # < ",
"! O.+.) I I x i i m G z 5 4 , < z z u t 6 t t u t h 0 6 6 h u u 6 6 5 . # 6 2 x < < u . 2 ..) :.I u < , o # - * 6 # < u # # < r ",
"@.8.&.O.E I L m I I ~ x t h 4 7 h G u r r < 5 G z 6 , # # # r r t t . # h h r # # D r X # h ! +.^ D z i , O : - : + 6 # . # # < ",
"2.&.o.o.W K m ! ~ 5.:.x 6 : 6 x I ^ I x r r i i < % % r r u m i < # # + j x x r < < # + : : J Y ..+.] K P x t h 4 : < . # # # r ",
"O.P E ( P m K E :...' z 6 : h G G ) ) I m D m r < < i D D i x x z < : $ : h G ! ! < x : 4 : $ h ] b.Z.e.q.:.Z : 6 : 6 # < < < x ",
"E W ( ) F K ) ) ~ ~ H t 6 : 6 G ] ,.+.! Q ] I x z D ! P P ! P K G , : X : : t I ! u # # : * * : G p.F.5.3.>.H : 6 4 l 7 h G ! 2.",
"P W E ) { ( ) +.+.Y t 5 7 $ 7 ~ Y ] ] ~ +.I G G m E K F P +.+.W u O # : : . 6 x  .@.6 & # + + : h :.j.u.e.3.J 0 : 7 7 h Z J ] b.",
"D n K &.&.{ ) ) ] t # < z : 7 Y H ] :.q.] G K m F ! P F I ! ! O.z % : : : * : h ~ k.G : : $ @ : h ] Z.k.b.3.G $ 7 7 2 2 7 Z ' q.",
"P m P o.&.&.] ! x < $ : $ 4 2 t t I ~ +.I K D G D n K W O.O.{ O.m < : : : 2 : x ~ u.I : 5 7 4 l ' ^ '.Y.b.) h 2 2 7 2 : : : l R ",
"D K E O.i.i.,.) u < 5 : 6 5 # 6 t m I K K n n m i n P I E ) O.,.P < # t $ $ : : J :.T , : h 6 7 ' ..T._.j.+.z 7 7 a : 2 4 4 : : ",
"{ #.&.:.b.q.] I t t 6 6 # 6 5 5 < i m K G x z z x K ( ( ) &.&.,...z $ + # : : : : : * < X 6 : # k 5.b.'.Z.3.I h 4 2 0 4 7 0 : : ",
"%.H.Y.q.6.,.Y x h 7 : 5 t 7 7 $ # r x M G m m I ! ) 7.p.8.9.) Y I G 6 5 : $ : & : , 6 : : + * * : J e.u.6...Z 7 4 2 : : 4 : 4 * ",
"&.i.H.q.6.:.z t 7 : : 7 a h 7 # # 6 z m L m ! O.3.b.).T.H. .! x k 2 : * : : # : + + 6 6 , 7 : x 6 4 4 d 4 2 4 0 0 : : * , & # : ",
"2.,.9.+.^ z 5 < 2 5 7 5 5 h a # < t m Q ! ~ :.Z.!.[.F.p.q.T 6 : : : : 2 6 : : X & + X + : + X # $ : - u 7 4 4 4 : : 4 4 4 : : # ",
"q.3.2.) x h 7 : , : : 5 7 h 7 5 # h T :.] 1.3.=.:...~ ' J 6 & : * + & < $ 5 : + * : * & + + + : : * 7 : : 4 2 7 u 4 4 7 q 2 4 : ",
"p.3.^ G z j b l : 2 : 6 7 5 $ 5 u G ] ' Z H h 7 6 : : : # : + : * + 4 : 2 : : & * : : : + + & & + + : 2 2 2 2 x : u h h u 2 : : ",
"^ I I J l d l 5 : $ : 7 7 2 7 6 u U H d : : 4 : & * 2 * # X : # * X : # < 5 # . # 6 i G u : : + + & : 6 : 4 5 + : < # : : : : > ",
"C x u 6 2 7 7 : $ 2 + : 5 6 : 2 4 : * - 4 4 6 * * * 2 : : # : + : + X X # O . . O , < 6 r < < # + + 2 7 4 4 7 2 : # . O # < 6 D ",
"# + * : : : : : * : 7 : # : : : 2 4 4 4 : : + * * : 6 t h + * : @ . # .   o o o r K G r r z m 5 5 * : : 4 4 6 < # # # % r E z m ",
"+ + & > 4 2 : 2 2 : : : + + : + # * : # 5 6 + 2 + 5 # 6 x 2 0 7 6 # . o o O O , n  .8.@.K G D G x 6 + : 7 0 7 h 5 6 5 r G 2.,.x ",
", + * d t : : : 2 * + + X . O . # . . # 5 u 6 5 6 5 G ' Z : < u u m m < % O % i D &.b.b.p.] ~ H b 7 * 4 6 4 7 6 u u t x +.2.@.! ",
"d : 6 x < O # . . . . o . o # t # O o O 5 6 + t t Y 1...x # # G x ..2.K m z n ) O.] @.q.8.q.~ Y G h * & : 2 5 : u G m @.) +.+.P "
};
