/* XPM */
static char *obl5[] = {
/* columns rows colors chars-per-pixel */
"64 64 212 2 ",
"   c #060703",
".  c #070803",
"X  c #0C0C06",
"o  c #0E0E08",
"O  c #100F07",
"+  c #100F09",
"@  c #0F1007",
"#  c #0F1009",
"$  c #111207",
"%  c #141B06",
"&  c #191F06",
"*  c #14140B",
"=  c #19160D",
"-  c #16190D",
";  c #1B1B0D",
":  c #171510",
">  c #1A1611",
",  c #171910",
"<  c #1C1C11",
"1  c #1E1E19",
"2  c #211E0E",
"3  c #211E13",
"4  c #241D19",
"5  c #281F1A",
"6  c #1B2306",
"7  c #1E2A07",
"8  c #1D210C",
"9  c #1E290A",
"0  c #1E2213",
"q  c #1F2915",
"w  c #212B07",
"e  c #22230E",
"r  c #29270F",
"t  c #24290E",
"y  c #2A2B0F",
"u  c #24320A",
"i  c #2A350C",
"p  c #2E3C0C",
"a  c #232314",
"s  c #2A2514",
"d  c #242A15",
"f  c #2A2C14",
"g  c #252419",
"h  c #2B251A",
"j  c #252B19",
"k  c #2B2B1B",
"l  c #332E15",
"z  c #33241B",
"x  c #322C1C",
"c  c #3E291D",
"v  c #273016",
"b  c #2D3115",
"n  c #26321A",
"m  c #2D331C",
"M  c #2D3A1D",
"N  c #323415",
"B  c #343915",
"V  c #3B3D16",
"C  c #32331C",
"Z  c #3A331D",
"A  c #343A1C",
"S  c #3A3B1C",
"D  c #2E2C21",
"F  c #2F2423",
"G  c #342C22",
"H  c #3A2E23",
"J  c #382728",
"K  c #3D2D2C",
"L  c #332523",
"P  c #2C3421",
"I  c #2E3921",
"U  c #343423",
"Y  c #3B3423",
"T  c #343B23",
"R  c #3B3B25",
"E  c #363428",
"W  c #3B3529",
"Q  c #343D28",
"!  c #3D3B2A",
"~  c #402A1E",
"^  c #442F2C",
"/  c #433527",
"(  c #433C25",
")  c #43352D",
"_  c #423C2C",
"`  c #493D2C",
"'  c #493535",
"]  c #433D31",
"[  c #4B3E34",
"{  c #4F3D39",
"}  c #433330",
"|  c #513D3C",
" . c #59353A",
".. c #36440D",
"X. c #3B4C0E",
"o. c #344414",
"O. c #35431A",
"+. c #3B431C",
"@. c #3B4D1D",
"#. c #394617",
"$. c #3B531D",
"%. c #354226",
"&. c #3B4125",
"*. c #3B4324",
"=. c #3D4C24",
"-. c #374129",
";. c #3D442B",
":. c #3F492C",
">. c #3E5B20",
",. c #43441E",
"<. c #424C1D",
"1. c #4C5C1C",
"2. c #465E18",
"3. c #41601F",
"4. c #50651A",
"5. c #444424",
"6. c #434A25",
"7. c #4A4C27",
"8. c #44442D",
"9. c #4A432B",
"0. c #444A2D",
"q. c #4B4A2D",
"w. c #4B4324",
"e. c #52442A",
"r. c #485121",
"t. c #4D5920",
"y. c #4B522D",
"u. c #465B29",
"i. c #425026",
"p. c #535B29",
"a. c #464232",
"s. c #4B4533",
"d. c #424C31",
"f. c #4C4B33",
"g. c #4D4539",
"h. c #4E4A39",
"j. c #534330",
"k. c #524E35",
"l. c #594F37",
"z. c #52433B",
"x. c #534D3A",
"c. c #594B3C",
"v. c #59413E",
"b. c #4D5234",
"n. c #4D5D31",
"m. c #535234",
"M. c #5B5637",
"N. c #55513B",
"B. c #5B553D",
"V. c #54593A",
"C. c #5D5B3C",
"Z. c #62543B",
"A. c #615D3B",
"S. c #4B6426",
"D. c #516520",
"F. c #556A2B",
"G. c #55732A",
"H. c #526134",
"J. c #5E7534",
"K. c #607A29",
"L. c #637E27",
"P. c #62613C",
"I. c #5D4040",
"U. c #5C4C42",
"Y. c #5D4748",
"T. c #544C40",
"R. c #545342",
"E. c #5B5543",
"W. c #5D5B43",
"Q. c #5B5B49",
"!. c #604844",
"~. c #62444A",
"^. c #704546",
"/. c #625445",
"(. c #625C43",
"). c #645D4B",
"_. c #6A5B4C",
"`. c #645E50",
"'. c #5B6242",
"]. c #656344",
"[. c #696643",
"{. c #64624A",
"}. c #6C644C",
"|. c #6D694C",
" X c #6E6A46",
".X c #716B4B",
"XX c #716A45",
"oX c #6B7247",
"OX c #72714C",
"+X c #78704B",
"@X c #757849",
"#X c #6A6453",
"$X c #6F6954",
"%X c #676254",
"&X c #736C51",
"*X c #736B5B",
"=X c #7A6E5E",
"-X c #767058",
";X c #7B7659",
":X c #7A7263",
">X c #7F7A60",
",X c #81785A",
"<X c #8B7F6D",
"1X c #847A6A",
"2X c #887F73",
"3X c #668131",
"4X c #698332",
"5X c #82805A",
"6X c #868068",
"7X c #8A8662",
"8X c #8E8871",
"9X c #948D7E",
/* pixels */
"d e M 0 a < W _.2X:Xx._ H < < g < < * - < Z y.x f e s ; 8 d C f ; * 2 ; A *.e r a _.s f ; a < * 3 < ; f d S a W W x a 3 a ; ; ; ",
"; 8 a - - < a _ Q.:X9X:Xx.U , j 3 j # X ; m m.6.S a a f b d a * 8 a a m 0.*.A f a _.C ; j a < ; ; ; d S f f a Z / h x j ; = = ; ",
"* - * * * * < ! R U ! R.1X=X_.U s < < ; ; a m *.m b b 8 a d e 8 b d 0 A *.T 5.A f N.j ; s.j < a ; < a d C a j ; ; < x ( ; * ; ; ",
"0 j - * : - < d m j j j T Q.:X=Xx.D : * # 0 - T d a < * a d 8 C *.m d m *.*.f m d f.! ; < h.a f R d a W _ x a ; - x h 3 x ; = 2 ",
"a j , d j g < , j I n n q T j h.:X:X#XE < < * 0 T g ; * < T d *.+.T *.m m 0 ; m 0 j a.* * a.x.a C f C Z ` ` ` a - < x 3 * j a 3 ",
"< * < T A m a a %.%.M I n m *.d 0 ! %X6XQ.T d a *.* * * 8 a ! ! a ; T T T d d A b 0 E.< a m a.s.j a C a a W ` C h ; 3 - * < 3 a ",
"< 4 D d.:.T C < U M d d I d q =.d < < < s.&X(.m R j - * $ ; d U 9.x ; < - M T T m j _.d d U d s.s.a m U _ C R j a ; < ; ; 3 h a ",
"< ' Y.x.b.;.*.U R %., 0 ;.T q 0 j 0 * * - - g #XV.;.; * X # # 0 m b.E.j * j j * * *.Q.0 a j a j s.a.C 8._ m C U < ; * * < h x / ",
", g I.v.0.T M j m d.T :.%.%.d # - 0 j * j M m j #Xm.C - * # X * d T R f._ * X X X - 8.* * * * 0 d s.8.x.8.6.W W j 0 ; - ; a a x ",
"j j j j ;.0 0 * * 0 d.d.T I d * * < * < j T M - o o j 0.m # X - < - < j 8.k.a X X * T g X X X a S j 8.}.R +.a s x ; # * * a a h ",
"* X * # * j * * * 0 ;.:.%.d * o - - < < 0 m v - X X 0 M U R m 0 < 0 d b d ! N.8.j j T m.X * 0 a f a g >X0.a - - * a X * 2 * a a ",
"* * * * X - # * * < j %.I d * X * < _ T T T M ; # # # < j 0 d C f < 0 d * X * g m.T a A X * < d * - j (.r.8 * -   X a X 2 * = 3 ",
"* ; - * # X X < < < * < j - * X * ! U T A T j 0 * U : # * - * * m C a d # X X < d 8.R d X ; a ; * ; j N.*.d - a X X * 3 ; ; = 3 ",
"* g - a g X > H h a ; * * o o < ! R T d *.%.T *.m T D ! ! j ; - T m j f ; * d j d * j q.a X ; * * * W ].j # a f X X X * ; s 2 ; ",
"x h < j < 0 H z.a.x._ 0 0 0 < o < j U j m j j m 0 * # g U W W < 0 T U m j A T j d j j C R U a X X * f.|.o X @ a ; X * * ; a a ; ",
"H H ( j < * ; j 0 a m T j h H - d T *.T %.T a - * - * * 0 < * j R U d d * - m A j j < a C C R *   X f.a.* * ; a A ; Z ; * ; ; = ",
"< 3 3 ` 9.C W C R j T R m 0 - a 0 m n *.T j *.T # a j # < * X g T ;.R U - 0 ; * a f d d A * X * ; X q.j X . X X N ; s s 2 * ; * ",
"* * * x ; 3 3 a s C j 0 / _ d a d ; - T A * T m X - a * # X X g T m 0 j W 3 < * o X f b N * ; * X e M.< X X ; C A e ; s 2 = ; 2 ",
"h < h x < a j j a a a < a 3 j a * < * a j X * 0 # < j - X X X * d j < - * C j o * < ; a V 8 0 - X * ].f ; - ; #Xb ; ; 2 ; * = = ",
"H W h.N.s.h s ` j 0 0 3 a g j j < * * o X X X * - < j X X X X * m j * * < < a a * 0 * ; f b f * < < N.a d a ; N.U A X e * * * ; ",
";X8X7X}.(..X(.x.k.k.x.x.h.s.N.j j j a * X < * * < a - X X X . X X o o X ; a 0 0 a X   ; a f @ e ; ; s.< f 8 * ! Q.S * * ; O O a ",
"H ] a._ x.(..X&X$X5X[.;X&X+X,X XOX].m.8.C f.j < 0 a j < X X X X X o X . < j < * ; a X * a f X . ; ; q.; * e * 3 Z.*.; X e * * B ",
"6.0.0.0.8.b.b.B.b.h.Q.R.8.j j h.}.Q.B.B.k.].|._.(.E.N.R a ; * $ # X X X ; 0 * * 0 0 d * < f X   X a 5.* - - e o -Xf.; X r 2 ; e ",
"j j h < < a a x W C a h * < * s W l.a ; @ X * a a j U 8.8.C A A A A B b a ; * ; a X X d < d X   X s S s h ; a ; x.N.f * e j f ; ",
"3 < f a ; = e s ; ; j x 3 3 X ; j x W j < # X a < * * 0 C a < + X X * ; C +.A d ; X   . ; - @     $ N = 3 a 3 ; _ ].U * h E.e 2 ",
"a s a ; 3 ; * * ; * a a 3 s x x C ; j j a # * h 3 < H + H x a < ; * j 0 X * j N +.f $ X X ; ; $ . - f h X . $ ; x .Xf.< /.f ; 3 ",
"< a h 3 * = * + 3 = ; ; 9.W s ; Z ; * < ; X ; x h * W W h * X - j X a 0 o * ; X X * f N 8 X - 8 $ * b X     X $ ; q.[.(.U 2 = ; ",
"X * + a C 3 = + * 3 < 3 C w.; $ O a ; * * ; ; ; x H h j U a * 0 d < 0 X X X X + X X X X ; r y e e * * e X * ; @ X U ;X8.; ; ; 2 ",
"X = ; l 3 = 2 s < 3 a W Z ; N - ; D H ! h H U j j x x a j x = 0 0 - - X X X X O O $ X @ X X * ; y b 8 8 e ; * $ X = +XU ; ; 3 a ",
"X ; Z ( s a X * ; 3 ; a x ; * f ; $ * a ; h U 8.! s.x.m.x.f.! W W j * $ * X $ $ $ X X X X X * + * a f e y e = * X * A.B.; ; 3 a ",
"a ; j f s 2 e ; * ; ; * ; ; a a 2 s ; a < a < < < o * a 3 a < d 3 a ; a a r d d 8 ; * X X X O $ ; * $ ; * r e * $ ; f XXs 3 ; 2 ",
"* * ; * s o X - ; 2 ; ; ; * * ; ; < ; e x / W 3 ; a j j j * * - * ; X X X @ * $ 3 Z e e e ; ; e l ; - ; ; * e $ * ; ; [.x 2 = ; ",
"* X ; - ; C a s ; ; 8 ; 8 ; X ; * ; ; ; a < h a a 0 d 0 a * * X X - * $ * * * X * h h = * * O ; a 8 a a ; * @ @ $ ; ; 7.s.= s s ",
"a s j a * U f * ; ; * * ; 8 ; $ @ X ; X ; ; * 0 j C f ; < 0 < * * 0 - * * * o * * * < * $ * * X * * a - * * ; * * ; e e P.s s C ",
"g h < C R R R < ; 0 < ; a 0 8 ; @ X $ $ X * * j a ; a ; * 0 < g a * X $ ; ; ; * @ * ; $ O = * X $ * * $ X $ * * 3 ; ; 2 ,.x a s ",
"9.9.9.Z x < < a < < a ; ; a a 0 a ; ; * * * a 0 - * * * * * * < < * * $ * ; ; * * * * * $ * X X * * X * $ X $ * 3 a ; a f +.s s ",
"x e.( W ; 3 o = * * * ; ; e f ; = < * = 3 h h < < ; * * < < * * * * = $ O X ; ; < * $ O X X * * * * 8 d e r y f f e ; a ; +.s f ",
"f R a x f x a 3 > X X - - a W W ! W U D h H j h a a s j f f f f C f f b b b b f a a j x C N b f f f e ; * $ $ $ * e ; ; i V e a ",
"< C a h H H x W x s s R (.N.q._ h * * * * ; ; ; ; a 0 < 0 a g < a H _ 9.k.q.B.B.f._ j f d f r ; e 8 ; ; $ * $ * = * ; ; B V 2 s ",
"a h < * = 3 [ z.E.}.Q.N.R f f j j b f f m f m U R ! f.N.].A.-X(.].A.9.W a ; 3 H = * * $ X * O O * * * * $ $ $ ; * $ ; ; e N ; ; ",
"g 3 g ] N.h.a.W h ; * = 3 3 3 a E s.N.E.E.l._.$X(.f._ j g a < a < * * * X < ! ! j ; = * * ; * = * * * = * $ $ e ; ; ; f N V ; ; ",
"H ] T.U h = ; * ; f x s * ; = ; a j.3 = * = g 3 = 5 H 3 > * * * * X O * H 3 0 * X x * X * X o * * * * - * X ; ; ; N f ; e B 2 2 ",
"3 < 3 < h > + * < x x ` W * 3 X * H / h o * > * < D L H W 3 * X * * X * j a - < 3 z * X * X X X * < 0 8 * = N b d * ; ; e S ; a ",
"< * 3 3 h z H 3 < 4 = * H _ * x = < K h < 3 * * * : 3 < 3 H < * $ X X X < h < * H z g o * X X X * h E.W a N e $ * * * 2 f w.2 ; ",
"< * * = ; = * H < < g < ; < h = 3 h * * < a * > h g - o * < a X + o X * < < * * = g h < ; @ * + Q.<X<X8X1XB.* 3 h s $ = e R j s ",
"* < X X * * < 3 a a * X X * < * g a.h.^ / W D W E.{.x.;.j a < < 4 * X + 5 h 3 a < 1 < ; 0 * * * d C R x.}.,X&XB.R Z s $ r e a f ",
"< * * * * * * * * * X X X # X o g '  .^._.}.|.OX@XoXP.A.'.* X X * * * ; a ; < < o X X * a f.j a * ; a R * < j N N ,.V +.N ; ; a ",
"g < g < < < * * # o o * * g * X * X < _.{.m.b.0.S Z c ( e.x j H z W R U d 0 ; a < * 3 _ f.< j * - C @X5.X @ e $ $ 3 O O * = * ; ",
"< < H W < D < < * 4 K * 3 | [ a * * * < , * < j H / x.(.M.9.( ( 9.6.6.y.u.@.#.*.Q._.x.g * X f ; 0 R a $ X ; * X X * X $ $ ; ; ; ",
"D [ [ [ D < j < * D Y.D g 0 T I j - * * * # > /.c c B.N.p.t.r.<.<.S o.N o.V._._.s.g * < U 8.R ; ; ; ; ; X e @ X X * * X * = a 2 ",
"[ H h g H H D D g g g < D < * * m g < * X * 0 {.Q.f.f.m.t.1.4.2.2.r.B.$X=XQ.N.W < H W f.! 9.V.f.f.d ; j a $ * X X X $ $ $ * 2 ; ",
"h a H g < * 3 * o # o X X X * * - * * < M @.$.$.u.n.@.$.S.4.1.<.t.oX=Xk.S A a * < 8.m.8.C *.8.8.m.a * m 8 X X X X $ @ $ $ * ; a ",
"j U U * * h 4 X o g a * * X X * a m @.4X3XG.G.S.S.>.$.o.#.@.@.]._.8.R Z Z 2 * < j s.( U j S C m < $ - b * X X @ @ $ $ $ * f = e ",
"W h ; - 0 U * X d 0 g ; < * 0 i.J.3X4XL.K.F.F.S.=.M 0 0 - 0 m Q 0 0 - * ; s s 0 f U C j * N e X X - r d d 6 7 7 6 & $ $ $ ; ; ; ",
"g x m m 0 * - # d d X o < Y.D T W W U d a 0 0 - - X . - * - j 0 * 0 j 0 * X f N d d ; ; ; N X @ - i X.X.X.p i 7 6 & $ ; * ; 8 2 ",
"< 0 a m 0 < < j d , < < * > * X H | E a < , I j X X * - 0 * - , j T T j a d d ; 2 X < ; ; b - R u ......p i 7 6 & * $ ; ; e N l ",
"0 g * < - ; j j j d j j a 0 *   > ~.I.z.z.! g # * > < - d d a d =.+.* 0 0 - X X * 2 a < ; d 8.5.u p i i i B e ; 8 e a f f 2 r e ",
"0.:.m d g j I D j j 0 g * o     . X 3 } { j * o * J > X X j U R q.0.- X X X 5 8 0 $ e f ; f 5.A p w w 6 r e ; - ; W e.Z.` x y e ",
"0 :.;.A j j 0 < x H 0 0 o * * o o * * * * * # o o o < X X H j.s.j j d       < a ; X 8 u r d S N 8 w & $ * d ; ; s f ; Z 5.e e e ",
"* j d a ; [ U - ; < < a < g g < < * * * X X . . X o # 0 ;.8.R R d 8 ; * X X X s $ * - 6 9 8 5.e & w $ $ * b e e s s e $ C C e ; ",
"b.b.j m * a U h j U D W j < < * * * X   # X . ; * * o U 8.n.H.0.8 a a a - $ X * a ; $ 8 ; - S e 8 w ; e ; e e ; f e e ; e e f a ",
"d.:.U _.Y.l.Y.l.s.] < W < * * * # X . * * X X ; * o o - m d ;.b.*.@ * * * X X $ ; $ $ i u - A e 8 8 a C C C b 2 e f f a e r f f ",
"*.d.Q _ x ` z.] /._ < W j g < * * * , < * * * * * o * #X;X(.8.X - X X .       X 6 & b o.p * r * & $ * ; U j T l y f N f e e e e ",
"a I a j g j j h H g < a a g > < j X # X # * * * * * * < K < ;.0 - X * a ; $ X X $ 8 ,.V N y y ; 6 $ @ * * - 8.b o.e S y b N f s "
};
