/* XPM */
static char *obl8[] = {
/* columns rows colors chars-per-pixel */
"64 64 168 2 ",
"   c #160F06",
".  c #171007",
"X  c #1B1307",
"o  c #1D160B",
"O  c #1F180B",
"+  c #20170C",
"@  c #241B0E",
"#  c #281E0F",
"$  c #261D11",
"%  c #291F11",
"&  c #26200F",
"*  c #28210F",
"=  c #272111",
"-  c #2F2415",
";  c #2E2515",
":  c #2F2515",
">  c #2F2414",
",  c #2D2614",
"<  c #2D2715",
"1  c #2E2614",
"2  c #2F2614",
"3  c #2E2615",
"4  c #2E2715",
"5  c #2C2416",
"6  c #2D2416",
"7  c #2D2516",
"8  c #2D2417",
"9  c #2D2517",
"0  c #2E2516",
"q  c #2F2516",
"w  c #2E2417",
"e  c #2F2417",
"r  c #2F2517",
"t  c #2D2617",
"y  c #2E2616",
"u  c #2F2616",
"i  c #2F2716",
"p  c #2F2617",
"a  c #2F2717",
"s  c #2D2414",
"d  c #2C2313",
"f  c #2F2815",
"g  c #2F2817",
"h  c #2F2917",
"j  c #2F2816",
"k  c #2E2318",
"l  c #2E2419",
"z  c #2F2718",
"x  c #2E2719",
"c  c #2F2719",
"v  c #2E2518",
"b  c #2F2818",
"n  c #2F2918",
"m  c #2F2819",
"M  c #2F2818",
"N  c #302415",
"B  c #302615",
"V  c #302516",
"C  c #312516",
"Z  c #302616",
"A  c #312616",
"S  c #302716",
"D  c #312716",
"F  c #302617",
"G  c #312717",
"H  c #322717",
"J  c #312616",
"K  c #312814",
"L  c #302816",
"P  c #302817",
"I  c #312817",
"U  c #302917",
"Y  c #312917",
"T  c #322817",
"R  c #322917",
"E  c #322A17",
"W  c #332A17",
"Q  c #312817",
"!  c #302618",
"~  c #302619",
"^  c #302719",
"/  c #322618",
"(  c #322718",
")  c #322719",
"_  c #32271B",
"`  c #312619",
"'  c #302818",
"]  c #312818",
"[  c #302918",
"{  c #312918",
"}  c #302819",
"|  c #312819",
" . c #322818",
".. c #322918",
"X. c #332918",
"o. c #322819",
"O. c #332819",
"+. c #322919",
"@. c #332A18",
"#. c #332A19",
"$. c #322B19",
"%. c #33291A",
"&. c #32291B",
"*. c #33291B",
"=. c #332A1A",
"-. c #322B1A",
";. c #332B1A",
":. c #332A1B",
">. c #342A19",
",. c #362B19",
"<. c #34281A",
"1. c #34291B",
"2. c #352B1A",
"3. c #352A1B",
"4. c #342B1B",
"5. c #352B1B",
"6. c #362A1B",
"7. c #332C1B",
"8. c #342C1A",
"9. c #352D1A",
"0. c #352C1B",
"q. c #362C1B",
"w. c #372C1B",
"e. c #362D1B",
"r. c #322B1C",
"t. c #352B1D",
"y. c #332C1C",
"u. c #352C1C",
"i. c #342D1C",
"p. c #352D1C",
"a. c #372C1C",
"s. c #362D1D",
"d. c #372D1D",
"f. c #342E1C",
"g. c #362E1C",
"h. c #372E1C",
"j. c #372E1D",
"k. c #372C1E",
"l. c #342A1B",
"z. c #382C1B",
"x. c #382F1C",
"c. c #382E1D",
"v. c #382F1E",
"b. c #392E1F",
"n. c #382F1F",
"m. c #3B2F1E",
"M. c #3A2F1F",
"N. c #3B2F1F",
"B. c #392E1E",
"V. c #39301F",
"C. c #3A301F",
"Z. c #3C321F",
"A. c #3A301F",
"S. c #362D20",
"D. c #3A2E20",
"F. c #393020",
"G. c #3A3120",
"H. c #393122",
"J. c #3C3020",
"K. c #3D3222",
"L. c #3E3223",
"P. c #3D3222",
"I. c #413523",
"U. c #413724",
"Y. c #413524",
"T. c #443A26",
"R. c #453928",
"E. c #493C2A",
/* pixels */
"k.d d d d d k.d k.d d d d d f $ M.k.d d k.d d d k.k.= @ k.G G d k.d d $ d % d d d Y G k.k.k.d d k.G d d d d G d d k.k.d * Y d d ",
"M.k.d k.& = d d d = & = d f f @ P.l d d M.k.d d f k.k.d d d k.d k.d d @ $ d d d d Y d d d ^ k.d k.d d d d d d @ @ d G d @ d d d ",
"M.k.k.d & d = d d = @ & k.k.d @ P.k.n k.k.k.d d f d d d k.Y f d ^ % d d d k.d d d ^ k.d d l k.@ l @ d d d d % @ @ G d d @ * d d ",
"M.Y k.n @ V.= @ d = @ @ @ Y d d k.k.P.k.k.k.Y d k.d = = k.Y * d l d d % k.G d d d G M.G k.M.V.k.G d d d d d d d % d d d d d % d ",
"M.k.k.= d d @ d d = @ & d d d d d k.k.k.Y k.k.k.k.d = d d d f d l d @ @ G G d k.d % k.k.k.k.V.d k.d d d d d d d d d d k.d d l d ",
"k.V.Y @ d = d d @ d d @ d k.k.d P.U.Y l d d d l ^ d d d d k.d d d d # d d d % k.k.d d d d k.Y $ U.d d @ d d @ d = # G k.G k.V.d ",
"P.Y d k.d f d @ # * d k.k.d d @ U.U.k.d d d d d G d d Y & G d @ d d d # d @ d k.G d d d d G d $ P.Y d d d d d d # d d d d @ @ o ",
"d @ o O @ o o o @ o o @ @ @ o o ^ d $ $ o o o o @ @ @ $ o $ o o $ o @ O o o o @ $ @ + + @ $ $ + d @ @ @ @ @ @ @ o o o $ @ o o o ",
"k.k.k.k.D.P.P.P.l k.D.D.D.D.k.k.M.U.P.P.P.M.k.P.l k.k.D.k.l d k.V.k.k.P.M.k.k.M.^ k.k.d Y k.k.M.k.k.G ^ k.^ k.M.l k.k.M.k.k.M.k.",
"= @ d G ^ d k.k.d d ^ d k.d % @ d d k.Y d G Y k.d d d d d k.k.d d d d * d d d d d % @ @ & k.d d d d @ @ @ @ d d d Y k.k.k.k.k.d ",
"d % k.k.k.d G M.^ k.k.d Y = k.* # @ @ @ d d d G d = @ d d k.G & d d @ G d d d @ d k.d d d d * @ @ @ @ @ @ @ @ & ^ d k.k.k.G d d ",
"k.d d k.k.d k.M.^ d d d ^ d Y d @ d d @ @ % % d d * @ k.k.d d d d d % @ @ @ d Y ^ k.d d d d d d d d @ d d @ @ @ ^ k.k.^ ^ k.Y k.",
"k.d k.P.d % d k.^ d $ d d d d @ % @ @ @ @ @ + d d d @ k.f d @ Y k.Y d @ $ d d d d d d G G d & & d Y d f d @ = d ^ k.k.k.n k.f k.",
"d k.d k.k.^ k.k.^ d d ^ G d d d % # # # @ @ d d d d d d * d d d d d @ $ $ d d d d d k.Y # d d d d d d d d d d d l M.d d d k.d d ",
"d f k.k.k.V.k.k.l M.P.P.k.V.V.f G G # + @ @ % d d d P.d d d d d % @ @ k.d d M.Y % k.P.k.d @ P.P.P.d d d Y d = d k.k.d & d d d @ ",
"o o $ d d % @ @ $ % d d $ d % % @ $ o o o @ @ + $ o @ + o @ @ @ o o o $ $ + d % d $ d $ $ $ @ % d @ @ o @ @ o O $ o @ O @ @ @ o ",
"P.M.k.R.D.^ ^ k.M.M.^ ^ k.^ k.k.P.M.P.P.P.R.P.P.P.k.M.k.D.k.E.P.k.M.k.k.P.M.k.k.M.k.M.M.M.M.P.D.^ ^ ^ ^ k.D.U.R.R.P.U.M.k.k.k.k.",
"k.P.k.P.k.d d G % @ d d d G d $ k.d d Y k.M.k.P.k.d d d d @ d Y k.G d k.k.P.G @ + + @ G d d M.k.k.k.= d d d G k.k.Y k.Y d @ @ @ ",
"M.k.k.P.k.d d d % @ @ & d G d d d d $ d M.k.k.n d d d k.k.d d G k.d d @ @ % d @ @ $ + @ d k.d d k.k.l d d l d ^ ^ d d d @ d @ o ",
"M.M.k.d ^ G @ d d $ @ @ d * d d d d @ d G k.k.k.d d d d $ $ % ^ k.d d # $ @ @ d d d d d d d Y d k.k.k.^ l k.d d @ @ d G d d @ @ ",
"k.Y d d ^ Y d d k.d d d d d @ d d d @ d M.k.k.k.k.= @ @ = d d $ k.d Y Y d d d d d d k.k.G d d d M.P.k.k.d l k.S.d d d d G Y d d ",
"k.* k.k.k.d % G d G G G d d d d l = d k.M.d Y f k.Y d @ d d k.d k.Y G d d k.k.d d G M.k.k.k.d d M.V.k.k.l k.f k.d k.k.Y k.d d d ",
"k.Y P.V.k.k.d G k.M.k.k.k.k.M.G k.Y k.V.M.d @ @ d Y k.k.d k.f l k.k.d d % Y Y d d G M.Y G G d % ^ d k.M.k.Y k.k.Y M.M.G G G d d ",
"$ @ $ $ $ % @ @ @ @ @ % d d d $ $ @ @ $ @ o o o @ @ @ @ o $ $ @ ^ $ @ o o + O o o @ % $ @ o @ o % o o % % % % % @ @ $ @ @ + @ @ ",
"R.U.P.M.k.^ k.k.k.U.P.k.D.k.D.G M.M.M.^ M.M.M.M.^ U.P.V.k.k.k.k.k.d ^ k.D.M.V.E.l P.M.k.P.k.k.M.k.k.k.k.d d n k.^ M.k.k.k.k.k.P.",
"M.k.M.k.d l d # ^ P.d @ l d $ d G d @ d k.G d Y d d d # @ @ @ d d @ @ d k.k.k.k.^ P.P.k.Y @ @ @ & Y @ d @ @ d k.d d d d d d d k.",
"k.k.M.k.d d d k.S.k.$ d k.Y d d # d d % @ @ # d d & @ @ + $ & = d @ * Y d G * # l k.k.^ d @ @ d d k.d @ @ & d V.d @ $ # @ d d ^ ",
"^ d % k.d @ % G k.k.d d d k.d @ d % d @ @ @ d d d % d @ & d k.k.d @ @ d G d d d d d @ d d k.= d d d d G k.d k.M.l d k.d @ @ % # ",
"% d d d k.@ @ @ ^ G k.k.G Y Y d d @ % $ o $ @ d l k.d = @ f k.l d @ $ @ d d k.M.d % $ d d d @ d d d d Y M.Y k.d l % $ @ d d d $ ",
"k.^ k.G d d k.d ^ k.Y d d G k.Y k.d d d @ d @ d d d = d = f k.k.k.d & d & @ k.V.d d d f d & @ d d k.d d G k.k.d d d % = $ d k.d ",
"k.G Y P.M.d @ # d % d @ @ d Y M.T.M.Y d d k.d k.d Y d d @ d V.P.V.d d d d d # G ^ f d d d d @ # d k.d # % G Y & d d d @ d d Y Y ",
"% $ o + d o o o $ o o o o o O @ d G d $ o o O $ $ o o $ o o % d $ $ $ % + + + o $ $ $ O @ @ o o o $ o @ @ @ o O $ @ o o o @ @ @ ",
"M.U.k.M.R.M.k.^ M.M.M.M.M.M.U.k.k.k.k.M.P.M.P.V.P.k.M.P.U.E.R.k.P.P.k.M.P.k.k.P.M.P.k.^ k.D.k.l P.V.k.M.k.k.d k.P.U.V.V.P.P.P.M.",
"M.G d k.k.d d d d d # # @ G k.% ^ G @ % d G d $ @ & d * @ d # d k.k.k.d d Y Y k.k.d d $ d k.d d U.G * d * k.n d k.k.d Y d k.M.d ",
"M.k.k.d d % % @ @ @ @ d % # G d k.k.$ d * d % @ @ @ @ o o @ @ @ ^ ^ d @ @ d & d k.Y d d d d d @ M.M.k.d G k.l k.k.k.f Y % d Y d ",
"M.k.k.k.d + o @ @ @ $ @ d # d k.^ d d d @ # @ @ d d d $ + d d % P.M.d & = & d d d @ @ d l k.k.$ ^ G d d G ^ d k.^ k.d d d d d d ",
"U.M.k.k.% @ % ^ d % d d d d d d k.d d @ + @ @ d $ @ + % @ @ d $ M.k.$ O @ k.k.d d @ @ @ n k.d $ d @ $ % $ @ % d k.Y d d @ d d $ ",
"P.M.M.M.k.d @ % d ^ ^ k.% d G @ d k.d d @ @ d d % % $ d d d k.d ^ d d @ = f f & d d d @ d d d = ^ % d G d $ l d k.k.k.k.d d f d ",
"M.U.M.G d d d d % ^ d k.k.k.d @ ^ d d @ @ d d d d G * d V.k.G d % @ d d d d d d $ d Y d d f k.= ^ @ d l d k.k.d M.k.G k.k.Y V.d ",
"l d @ o o o o o o o o @ d @ @ + $ o o o o o + @ @ @ o @ $ $ $ @ $ o o @ d d d $ @ o $ @ @ @ $ O $ $ @ $ @ % % $ @ $ $ @ $ @ @ O ",
"k.M.P.P.P.U.M.P.^ U.k.k.k.M.P.M.M.D.M.M.P.U.V.k.l k.M.M.M.k.U.D.M.k.M.^ k.k.k.k.l k.M.P.M.k.k.k.V.V.M.M.M.M.k.l d k.k.Y k.k.k.k.",
"d % ^ k.k.k.d k.d # d d d d d k.k.k.k.d Y G d G d % + @ + @ % @ + @ d G d d d d d Y ^ k.% @ @ d d d d # @ d d o d d & & @ @ d d ",
"d @ k.k.d G d G d d k.k.Y G d G Y d % G d k.G % d d @ @ @ @ @ @ # @ d Y k.k.G M.d d # % d % % @ d # % @ % # # @ d d @ @ @ = d d ",
"^ G d % d % % % k.d d G G G G % d d d % % % # @ ^ M.d # @ @ $ @ d @ # Y d @ d G d d $ d G d @ @ d k.@ @ @ @ # d d Y @ O @ @ @ d ",
"G d d k.d d d d k.P.^ d ^ d % $ @ % d G @ @ @ @ d k.d @ d d d $ d % @ # @ d ^ d d d $ $ % d d d d @ @ @ @ @ d k.d d * d @ O @ d ",
"k.k.d M.k.d d d ^ G % d d d @ d G d d d d @ d % ^ d d d d d Y n d @ @ @ @ @ + @ d d d d % @ $ d d d d d d d d k.d * d @ d d d Y ",
"d M.M.V.k.$ = G k.M.G k.k.k.d k.V.M.Y d k.d d d ^ G d d % k.V.k.d + @ d d % % @ ^ Y d d d d d d k.k.d * d % d M.d d @ @ d d d d ",
"% @ + % $ o + + $ @ @ @ + @ @ % % d $ % $ @ @ $ $ @ o o o $ $ d o o o @ o o o @ % $ @ @ $ d $ @ @ $ @ @ + o @ $ $ o o o o o o o ",
"k.M.P.U.U.P.k.k.k.k.d k.k.V.P.P.k.P.D.D.M.P.P.P.k.M.M.P.M.M.P.k.P.P.M.M.M.P.k.k.P.V.k.P.k.k.k.M.P.P.U.U.U.U.P.k.U.k.U.V.^ M.M.k.",
"k.d k.k.k.^ d d d d k.d d d G d d k.d k.k.Y Y M.Y k.k.d d d k.d U.M.k.d Y P.f d d k.k.V.G d d d d k.V.Y k.k.k.d d d d d d d d @ ",
"k.k.d k.^ l k.k.k.k.d Y d @ d d k.d l k.k.k.Y * @ k.d d d G d @ M.k.d d d d @ d d M.k.^ d d d @ ^ d d Y d @ @ d f Y d d @ @ d d ",
"k.n k.P.k.k.Y k.k.k.d k.d d d d ^ k.k.D.k.k.k.k.d d d d d d d $ M.d d % d @ d d k.k.d d d d d @ k.d # @ d $ $ d d Y d % d d d G ",
"k.d d k.P.d G P.k.d d k.k.M.P.d ^ d d k.k.k.G k.k.k.d = d d d $ k.k.k.d d @ & @ d G d $ G d @ @ ^ d % d d d d d k.k.d d d d d k.",
"^ $ k.k.k.d d k.^ k.k.G f k.P.d k.k.l k.d G d G d d d d d d d @ k.M.k.d @ @ o o @ @ @ O % d d $ G ^ @ d d k.d % d f k.f = d k.k.",
"k.d d d D.k.l k.k.k.k.d k.Y M.k.D.M.k.k.k.d d Y G d d d d d d = k.k.G d d = @ @ X X @ @ d d d d k.d d k.^ k.k.% @ d V.G d d d d ",
"d $ @ @ $ d $ $ @ @ $ @ $ @ @ @ l l d d d $ $ $ @ @ $ @ @ $ o o $ o o o $ @ o o   . . o o o @ $ $ o $ d $ $ $ O @ $ $ @ @ @ @ o ",
"k.k.k.P.M.k.^ ^ l k.P.P.D.k.k.M.U.k.k.P.M.M.V.M.^ k.^ k.k.^ ^ ^ M.^ ^ G M.U.V.P.^ P.P.U.M.U.U.U.P.P.P.P.M.P.P.P.l d M.M.k.k.k.^ ",
"@ d d k.Y d d * d f d k.k.k.d # d % d d k.k.% G d d # d d d d @ % @ d @ d d k.k.d V.k.d d G d d G k.P.P.f k.d k.d f k.* & @ d n ",
"d ^ d % d d d & l P.k.k.k.k.d d @ @ @ $ d d Y k.l d d d d d d @ d d d # # d V.d d % d % % G d % $ d ^ d d d Y d % k.d f P.d = d ",
"k.d l l k.d d @ k.V.P.M.k.d d d d d d d @ d @ d ^ d k.G @ @ d d d k.d k.d G d d d d @ @ @ d d d l d % d d d d @ d d d d @ @ & l ",
"k.d k.Y d d G @ d G l l d d % d d d d k.d d d Y ^ k.k.^ d d d d d P.G k.k.k.G Y ^ G d % d @ = d n d @ @ d & = d d k.d d d @ d d ",
"G d d @ d k.k.@ d % % k.k.k.d % @ d @ k.k.k.k.Y d k.M.d d l d d d G M.k.Y k.k.k.d d d d d d d d d d d @ @ @ & @ d # d d d d k.d ",
"k.d d f k.V.k.@ d k.d d d k.d d d Y k.k.k.k.k.d d M.V.d d d G k.V.k.P.T.V.M.P.U.d d d d d d f Y d @ = d d & d = d d k.k.d ^ d G ",
"$ @ d @ @ d d o $ @ @ $ $ $ @ $ @ $ @ @ @ @ @ $ % % d d O @ @ @ $ d d ^ d $ d G $ $ $ % @ @ @ $ o @ o $ @ o o @ $ $ @ @ @ o o @ "
};
