/* XPM */
static char *obl9[] = {
/* columns rows colors chars-per-pixel */
"64 64 179 2 ",
"   c #0B0907",
".  c #0D0B08",
"X  c #110E0C",
"o  c #16120E",
"O  c #161310",
"+  c #1A1612",
"@  c #1E1915",
"#  c #1F1A18",
"$  c #221C16",
"%  c #241E1A",
"&  c #281F1D",
"*  c #26211D",
"=  c #29221E",
"-  c #272220",
";  c #2C2522",
":  c #2E2824",
">  c #2D2B29",
",  c #302725",
"<  c #322A26",
"1  c #352D2A",
"2  c #382F2D",
"3  c #373027",
"4  c #37302C",
"5  c #3A322E",
"6  c #392F30",
"7  c #363431",
"8  c #3D3531",
"9  c #3E3833",
"0  c #3C3B3A",
"q  c #403733",
"w  c #403735",
"e  c #413736",
"r  c #403735",
"t  c #403833",
"y  c #403931",
"u  c #403834",
"i  c #403835",
"p  c #413835",
"a  c #413935",
"s  c #403934",
"d  c #413A35",
"f  c #423A35",
"g  c #413836",
"h  c #413936",
"j  c #423A36",
"k  c #433B37",
"l  c #423B36",
"z  c #433937",
"x  c #433C37",
"c  c #443C37",
"v  c #423936",
"b  c #433938",
"n  c #433B38",
"m  c #453A3A",
"M  c #443B39",
"N  c #453C3A",
"B  c #463C3B",
"V  c #473E3A",
"C  c #463E3B",
"Z  c #443D38",
"A  c #453C3A",
"S  c #483E3D",
"D  c #483F3C",
"F  c #483E3D",
"G  c #474039",
"H  c #40403C",
"J  c #45413E",
"K  c #4A403F",
"L  c #4B433F",
"P  c #49413E",
"I  c #3F3F40",
"U  c #434341",
"Y  c #454442",
"T  c #4B4140",
"R  c #4C4241",
"E  c #4E4642",
"W  c #4E4443",
"Q  c #4F4444",
"!  c #4F4544",
"~  c #4C4442",
"^  c #494947",
"/  c #4C4B47",
"(  c #4C4946",
")  c #4D4D4B",
"_  c #4E4C4A",
"`  c #504645",
"'  c #514947",
"]  c #524D4A",
"[  c #594E4E",
"{  c #52514E",
"}  c #53514E",
"|  c #4F4F50",
" . c #504F50",
".. c #565552",
"X. c #575754",
"o. c #565452",
"O. c #595754",
"+. c #5B5B57",
"@. c #595955",
"#. c #5B5956",
"$. c #575759",
"%. c #5F5E5A",
"&. c #5E5D58",
"*. c #5E5E5C",
"=. c #5D5C5A",
"-. c #605D58",
";. c #625F5A",
":. c #645F5B",
">. c #615F5B",
",. c #60605B",
"<. c #63605B",
"1. c #61615D",
"2. c #61615D",
"3. c #63615C",
"4. c #63625E",
"5. c #61615E",
"6. c #64625D",
"7. c #64635E",
"8. c #66635E",
"9. c #63625E",
"0. c #636261",
"q. c #646360",
"w. c #646561",
"e. c #656462",
"r. c #686763",
"t. c #6A6966",
"y. c #6D6C6B",
"u. c #716E66",
"i. c #706F6B",
"p. c #73716D",
"a. c #79766F",
"s. c #6E6E71",
"d. c #706F71",
"f. c #757472",
"g. c #797773",
"h. c #7B7A75",
"j. c #777779",
"k. c #787778",
"l. c #77797C",
"z. c #7D7C7A",
"x. c #817D76",
"c. c #807E7A",
"v. c #7F807F",
"b. c #83827E",
"n. c #89857E",
"m. c #7F7F81",
"M. c #858482",
"N. c #898682",
"B. c #8B8A85",
"V. c #858688",
"C. c #878889",
"Z. c #8D8C8A",
"A. c #908D87",
"S. c #918F8B",
"D. c #939085",
"F. c #94928D",
"G. c #99948E",
"H. c #8C8E91",
"J. c #8F9091",
"K. c #959493",
"L. c #999792",
"P. c #9B9A95",
"I. c #959699",
"U. c #97989B",
"Y. c #9C9C9B",
"T. c #A09C97",
"R. c #A19F9A",
"E. c #9FA09F",
"W. c #A3A19D",
"Q. c #A8A49F",
"!. c #9D9EA0",
"~. c #9FA0A1",
"^. c #A4A4A3",
"/. c #A8A6A2",
"(. c #AAA9A5",
"). c #A6A7A8",
"_. c #A7A8A9",
"`. c #ACACA9",
"'. c #B0AFAB",
/* pixels */
"a a a 8 2 , 2 = @ * : , : * : 2 , $ - , 2 , 8 , 8 8 8 2 , , - - = = $ + @ $ $ $ $ $ $ $ $ $ $ $ = * $ $ = - - , = * $ P n , - 5 ",
"w a 8 2 2 2 2 - $ = , 5 2 , : 8 5 * , , - 5 , 2 8 a 8 n 5 5 8 5 , 8 a , , 2 2 2 , = , 2 8 8 8 5 , - * $ $ $ * 8 8 8 2 n 8 2 - 8 ",
"a a n a 2 : 2 - $ o @ : : : * - 5 2 , 5 8 8 5 8 a 2 8 n 8 a n a 8 8 8 5 5 5 8 8 8 = , 8 a a a 5 5 5 5 5 4 , , 3 5 a 8 D 5 8 - 8 ",
"8 5 n D 5 , , , 2 4 , : - 2 , - = - 2 5 2 4 8 8 8 8 5 5 5 5 5 5 5 9 a a n n a a w , 5 w n T T D a a a a 8 a 5 5 5 5 5 T D n , 5 ",
"5 2 n T 2 * @ = = - , , 2 5 5 , , 2 2 5 5 5 8 8 2 2 4 4 : , , , 2 5 a a a a a a a 8 5 n n J T P P 8 a a 8 8 2 , : , 2 T T n 2 2 ",
"a a n T 5 - > 0 U ^ ) { { ..X.@.@.=.=.3.3.3.3.3.3.3.3.3.3.=.3.0.,.3.3.=.3.0.3.3.3.3.3.3.>.3.3.>.=.>.3.3.@...{ ^ J > 2 T T P 8 8 ",
"n n P T 5 2 7 U ..=.0.y.y.i.p.p.p.f.g.h.h.h.h.c.h.h.h.h.h.h.h.h.h.h.h.h.h.g.h.h.c.b.b.c.h.g.h.h.h.a.g.p.t.y.t.@.U a 8 T T T n 8 ",
"n a P P 2 - 4 n ) 0.y.k.h.v.b.b.b.b.B.N.N.B.B.B.B.B.B.M.B.B.B.B.B.b.b.M.N.N.B.B.F.F.F.F.B.B.n.n.N.N.B.N.g.p.t.{ n a 8 T T T T 8 ",
"P a n a 2 = 2 8 U =.y.h.M.M.M.B.B.B.F.F.F.L.F.F.F.L.L.L.L.F.L.L.F.B.B.B.B.B.F.L.L.L.L.L.L.F.B.B.B.B.B.b.h.i.O.J n n 8 T T P T 5 ",
"n 8 n a 5 2 2 5 8 T 0.f.b.M.B.B.B.F.F.F.L.L.L.L.L.Y.L.L.L.L.L.L.L.F.S.F.S.F.L.L.L.L.L.F.F.F.G.S.F.B.b.h.p.=.P n a n n ` T T ` 2 ",
"n n P a 5 5 2 8 8 8 T 0.h.M.B.B.B.S.L.L.L.Y.L.L.L.L.Y.Y.Y.Y.W.L.L.L.F.F.F.F.L.L.Y.L.L.L.L.L.G.F.F.N.c.p.=.P n n n D n ` T T ` 2 ",
"n n T P 2 5 5 2 8 8 8 ) t.h.M.B.B.S.L.Y.W.R.L.L.L.R.Y.W.W.W.W.W.Y.L.L.L.L.L.L.L.Y.L.L.L.L.L.F.F.B.b.p.=.T n n P D P 8 T T T T 5 ",
"a n T T 2 : 8 8 2 8 8 8 T 0.h.M.B.F.L.Y.W.W.R.L.T.W.L.R./.(.W.Y.W.W.L.L.L.L.L.L.L.L.L.L.L.L.F.B.b.g.3.P n 8 n T P a : T T T n 2 ",
"a n ] n 2 0 8 5 5 2 2 8 w T 0.h.N.B.L.Y.W.W.W.L.L.L.L.W./.(.W.L.L.L.L.L.L.L.R.F.L.F.L.F.S.F.B.b.g.>.T a 8 n n D a 9 7 T T ' 2 2 ",
"= - P 8 8 T ) n 5 2 2 8 8 8 T r.h.M.F.L.Y.Y.W.L.L.L.W./.(.(.W.Y.L.L.L.G.T.R.Y.L.L.L.L.F.B.B.b.f.>.T n a n a a a ) ) n T T ] a 4 ",
"- n P w 9 { =.@.U w 8 2 w 8 8 T t.h.B.F.L.Y.Y.W.R.R.W./.(.W.W.R.Y.Y.L.L.L.L.L.L.L.L.F.B.B.b.f.@.T a a P a a n ..0.@.^ T ' 2 n 5 ",
"a P T 8 n ..t.t.3.^ 8 8 2 , 8 8 T t.h.B.F.L.W./.W.R.R./.W.W.R.R.W.R.W.R.L.L.L.L.L.F.B.b.h.f..., a n T T P n @.y.p.3.{ T ] w T 2 ",
"a D P 8 n @.i.f.f.t.) 5 2 2 n w w T t.h.N.F.L.Y.R.R./.W.W.W.L.R.W.L.L.L.R.L.L.L.F.A.N.c.p.=.$ - 4 ] ` T P =.f.h.b.i...` T [ , , ",
"5 n n a a =.i.h.b.h.y.{ 8 2 2 n 8 a T t.h.B.L.L.L.R./.W.W.R.L.R./.Y.L.L.L.L.L.L.F.B.b.f.=.T 5 2 8 ` P P 3.h.M.B.M.p.{ T T T n 5 ",
"5 n P a n >.p.c.B.N.h.y.{ 8 2 , n a 8 T y.M.B.F.L.L.L.Y.R.L.Y.Y.Y.Y.Y.L.L.L.L.F.B.b.p.@.P a P D P a 5 3.h.B.B.B.b.u.{ T ` n T 5 ",
"8 n T w n 3.h.b.M.B.B.M.f.] 8 5 5 a 8 8 ^ p.b.B.L.L.L.L.L.L.R.W.Y.Y.L.L.L.L.F.S.N.h.>.n 5 D T T a 8 3.h.B.F.F.B.B.a.{ T T D n , ",
"8 n P a n >.h.N.B.B.B.B.b.i.{ a , 4 8 8 8 ] i.b.S.F.L.L.L.L.Y.Y.L.L.L.L.L.G.F.B.h.3.a 2 n P D 8 8 3.h.B.B.L.F.B.b.p.=.n T D 2 = ",
"8 a n n T 3.h.N.B.F.F.S.B.b.p.] 5 2 8 5 8 8 ] p.M.B.L.L.L.L.L.L.L.L.L.L.L.F.B.b.t.n 8 n P n 8 a 3.h.B.F.L.L.L.S.b.g.@.P T n - * ",
"5 a a a 2 3.c.B.F.F.F.L.S.B.b.p.] 8 , 5 8 5 8 ] f.M.B.F.F.F.L.L.L.L.L.F.F.B.c.r.n 8 n T D 8 8 3.h.B.F.L.L.L.L.L.B.g.@.P T a 8 5 ",
"5 8 5 = - t.x.B.L.F.L.L.L.L.B.b.p.] 8 , , 2 8 8 { p.M.N.S.L.L.L.L.L.F.S.N.h.r.n 5 a P D 8 a 3.h.B.L.L.R.W.W.Y.L.B.h.@.D T a P n ",
"5 2 $ 2 5 t.c.S.L.L.Y.Y.Y.L.F.B.b.p.{ , 2 - 2 w n { p.c.N.F.L.F.L.F.B.M.h.0.a 5 a D D a n 0.h.B.F.L.W./././.R.F.B.h.>.a T n T D ",
", 2 5 n 9 r.b.F.L.Y.R.Y.L.L.L.F.B.b.y.] 5 , , 2 a a { i.M.B.L.L.S.B.M.h.0.a 5 8 a a D P 3.b.B.F.L.R.W.(.(./.R.L.N.h.@.a T P T w ",
"2 a P a 5 3.b.S.L.Y.Y.W.R.Y.Y.L.F.B.b.y.^ 2 , , 2 a a ..p.M.B.B.N.b.g.3.a , , , 2 , a 0.c.B.L.R.W.W./.(.W.W.R.R.S.x.>.a T D n a ",
"2 5 a 8 5 0.h.A.L.Y.R.W.Y.Y.Y.Y.L.L.B.c.y.^ 2 - , 2 a n ..f.M.b.h.f.3.a 2 5 $ @ , $ O.h.B.F.Y.R./.(.(.(.(.R.W.R.L.n.3.P P D 5 5 ",
", 5 a 5 5 t.h.S.L.L.W./.W.Y.Y.L.L.L.F.M.h.y.^ 2 - 2 2 w n ..y.f.y.=.5 , 8 T T D 5 O.h.B.L.L.Y.R./.(._._./.R.W./.L.B.t.n D n 2 , ",
", 5 a 8 8 3.c.B.L.W.W././.Y.Y.Y.Y.L.L.B.B.h.y.T 2 - 2 , n D ] =...5 , 8 a a 8 5 @.h.B.L.Y././.W.W.(._.(.(./.Q.(.L.n.3.n D n 2 - ",
"- 8 a 8 8 t.h.N.L.Y.Y.Y././.Y.Y.Y.Y.L.S.B.b.h.0.T , - 2 5 n D n , , 8 a 8 8 5 O.f.B.L././.(.(././.(.'._.(./.W.W.F.h.@.P D a n 5 ",
"= 8 a 8 8 r.h.B.L.Y.Y.Y.Y.!.~.~.Y.L.F.B.B.B.M.h.y.T 2 - - 8 n n 2 5 a 8 8 2 ..p.b.F.L././.(.(.(._.(.(._.(.(././.L.b.=.D P a a 8 ",
": 8 n 8 5 3.h.B.L.Y.!./.~././.~.Y.L.S.S.F.B.B.M.h.0.T 2 - 2 8 n n 8 8 8 5 { p.M.S.L././._._.'._.'.(.'._.(._.(./.L.b.>.n D n P 8 ",
", 8 n 8 8 0.h.B.L.Y.Y.!.!.!.Y.!.Y.L.L.L.L.B.L.B.M.p.=.U 2 - 2 2 w w 5 2 T r.c.B.L.Y./._._._._._.(.(./.(.(./././.L.h.=.a D D 8 , ",
", w n 8 4 0.h.B.L.Y.Y.Y.Y.!.!.Y.Y.Y.L.Y.L.L.F.B.b.g.3.J 2 2 - - 8 n n 8 { i.b.S.Y.E./.(._._.(.(./.W./.(.(.(.(.W.F.p.O.a n n 2 a ",
"- a a 5 8 y.M.B.L.Y.~.!.Y.Y.!.Y.Y.Y.Y.Y.Y.F.B.B.b.p.{ : , 8 2 , 2 w w w T 3.g.B.L.!./.E././././.W.W.W.(.(./.(.W.S.u.3.a n n 8 - ",
"- n a 5 8 r.m.H.L.U.Y.Y.!.!.!.I.L.Y.Y.Y.L.B.B.M.f.@.: 2 a a 8 5 2 8 a a n ^ r.h.B.L.Y././.(./././.(./._.(././.Y.F.h.=.8 a 8 P $ ",
", a 5 5 9 t.M.B.L.L.U.!.Y.Y.I.U.L.L.Y.Y.L.B.M.f.@.2 2 8 a 8 2 2 8 8 5 5 8 a ^ y.b.B.L.W./././.(./.(./././.W.W.F.B.h.{ w a w P 8 ",
"2 a 5 , 9 t.h.B.L.I.Y.!.Y.L.I.Y.!.Y.Y.L.B.M.f.=.2 8 a 5 5 5 4 U J n 8 - - 8 8 T t.b.L.Y./.W././.(././.W././.W.R.D.x.3.a a a P 8 ",
"2 n 5 2 9 3.g.V.L.L.U.!.I.Y.L.!.Y.Y.L.B.M.j.O.2 8 n 5 2 2 8 ..0.0.) n 2 - - - 2 9 t.N.L.Y.R.W.W.(.W.R.R.W.W./.W.F.b.t.w n a P 8 ",
"2 n 4 2 8 0.h.B.L.U.U.U.L.U.I.!.U.L.J.M.f...2 8 n 5 2 , 8 =.p.h.h.y...w , - 2 2 8 T y.B.L.Y.W././.W.W.W./.W./.R.F.h.0.a n 5 n 2 ",
"4 n 2 , 8 0.M.H.L.I.I.I.I.I.I.I.L.L.C.j...: 8 n 5 4 , 8 =.k.M.B.N.c.p.O.a 2 2 2 8 n ' p.N.L.Y././.R.R.R.W.R.W.L.F.h.r.8 P 5 n 2 ",
"2 a 5 2 4 3.m.B.L.L.I.U.I.I.I.L.B.M.f.=.- 5 a 8 2 , 8 3.h.M.B.L.L.B.M.h.=.8 2 8 w n 8 ^ p.B.L.Y.R.Y.R.W.R.W.F.F.S.b.t.8 n 5 a - ",
", a 4 , 4 0.m.B.J.L.I.I.I.U.I.B.M.f.O.2 8 a 5 2 2 4 3.h.B.B.L.Y.L.L.J.B.h.O.n 5 a w 8 5 T f.B.F.Y.L.Y.R.W.L.F.N.N.h.@.8 n 2 a - ",
", a 2 , 2 3.h.V.B.L.I.I.U.I.H.M.h.@.2 5 8 2 2 , 5 3.h.B.B.L.Y.~./.Y.Y.Y.B.h.@.n w 8 8 2 8 ^ p.M.S.L.L.Y.L.L.x.x.c.p.] a n 8 n 2 ",
"2 8 , , 4 0.f.M.B.H.L.I.L.H.V.h.=.2 8 5 , : , 4 3.f.N.S.L.L.~././.~.!.!.Y.B.h.@.8 8 , 2 2 5 T y.c.B.F.L.L.L.A.a.x.>...8 a 8 a 2 ",
", 5 , , 2 >.f.M.B.B.J.L.H.V.j.=.: 5 4 , , , 2 3.h.b.B.L.L.Y./././././.!.E.L.B.h.@.5 8 2 2 2 5 T t.h.B.F.L.L.L.B.B.b.3.w 8 a a 5 ",
"2 4 , - : >.h.M.B.B.B.V.M.l.=.2 2 2 2 - : , 3.h.M.B.F.Y.L.Y./.).)./.).~./.Y.L.B.h.O.2 5 8 2 5 5 T t.h.B.F.F.F.F.B.b.r.a 8 a 8 5 ",
", 2 , , : 3.h.M.B.B.V.h.f.=.2 8 2 2 : , = =.g.b.B.L.L.Y.Y.~._._._./././.Y.Y.Y.L.B.h...- 4 8 w 8 5 T y.c.B.F.F.S.B.h.t.a 8 J 4 2 ",
", 2 2 - : =.f.M.V.M.h.f.$.2 2 4 2 - - $ @.f.b.M.J.I.Y.Y.Y./._._._.).)././././.Y.L.B.f.^ O 2 n n 8 2 T y.M.B.B.B.B.h.0.n a T 5 : ",
", 5 , - - =.f.h.m.h.f...2 4 2 2 - - * O.f.b.M.B.L.Y.!.Y.Y./._.).)._./.)._._./.Y.L.L.B.f.^ O 2 w w 2 2 T y.h.M.B.b.y.=.8 a 2 8 $ ",
", 5 2 - - =.s.j.f.y...2 8 5 2 , - * ..f.M.B.B.L.Y.Y.!.!.!./././._././._._./././.L.L.L.N.f.^ + 2 w 8 2 5 T t.h.c.h.y.@.5 8 , = $ ",
", 2 2 - : =.s.f.0. .2 8 5 5 2 = = ..y.h.M.B.B.L.!.!.!.!./././././././././././.Y.Y.L.L.S.b.y.^ + , 5 2 2 5 U 0.f.f.t...5 n 5 : $ ",
"2 5 2 - : =.0.0.| 4 5 2 2 5 - * ] t.f.h.b.M.B.S.I.Y.!.Y.Y.Y./.!.Y.Y.Y.Y./.~.Y.Y.Y.L.L.F.B.h.i.T + , 8 2 , , n 3.r.0...5 T n - O ",
"2 8 5 - : | $.) 8 , , 2 2 = - ) 3.i.h.h.b.M.M.B.J.I.I.I.L.Y.Y.Y.Y.L.F.L.L.Y.L.Y.Y.L.L.F.B.M.h.y.U + - 2 , = - n =.>.{ 5 n n , @ ",
"2 2 5 - : U U 5 , - 2 5 - : U =.0.y.f.h.h.b.M.V.B.H.B.B.L.L.B.B.B.B.B.B.F.B.B.B.B.B.S.B.B.N.b.f.0.n o = - = = , 0 ) U 5 n n - + ",
"2 , 5 - - > : - : 2 2 - - 0 ) O.>.0.t.0.r.p.f.j.h.v.h.h.h.h.h.M.M.h.h.h.h.f.h.g.h.h.c.b.h.h.f.y.0.] 2 o @ = = $ - 8 7 5 a n - O ",
"2 - 2 : $ * - - : , - * - 7 n n n n ^ ^ ) ] ] ) ..O.=...O.O.O.=.=.=.@.O...O.O.@.=.=.=.=.O...{ { ) U 7 * + = - = = - : 5 8 n , $ ",
", - 2 - = - , , , 2 5 5 5 5 5 5 8 5 8 8 8 a 8 2 8 n n n n w n n D D n n n a n a 8 8 8 8 8 w w w 8 a w 8 8 8 8 8 2 2 5 , 5 8 5 2 ",
"- - , - = $ $ = = - , 2 2 5 8 8 5 2 2 5 8 n 2 2 - 8 8 a n n n n n n w 8 8 8 w 8 5 8 8 8 w 8 w n 5 8 a 8 w a 8 2 = - , , 2 5 8 5 ",
"- - , - = = = = - , 2 5 5 w w n 8 5 2 , 8 n 5 2 = = 2 5 8 8 2 8 2 2 , 2 , , , - , 5 8 8 8 5 5 2 2 2 2 , 2 2 2 2 , - , 2 5 2 , $ ",
"- , , 2 $ $ $ @ $ = - - , - 2 2 2 2 5 8 a 8 2 2 , 2 8 8 8 2 , , - - - - - , , , 2 , 2 2 2 8 2 5 2 8 8 2 5 8 8 5 5 5 8 5 8 2 , , ",
"= : - $ +       . . . X X X X . . # - * * - - - - > - : : - - 2 2 2 2 : - - - = - - - = * - $ $ $ $ * * * = = $ * = - - - - - - "
};
