/* XPM */
static char *_692_9d79e7cc317c037be4548aef4485914af69c8a25cbb8c797d61faf82e1dc1d7c[] = {
/* columns rows colors chars-per-pixel */
"100 100 2 1 ",
"  c black",
". c None",
/* pixels */
"....................................................................................................",
".........................................................                  .........................",
".........................................................                  .........................",
"........................................................                   .........................",
".......................................................                    .........................",
".......................................................                    .........................",
"......................................................                     .........................",
".....................................................                      .........................",
".....................................................                      .........................",
"....................................................                       .........................",
"...................................................                        .........................",
"...................................................                        .........................",
"..................................................                         .........................",
".................................................                          .........................",
".................................................           .              .........................",
"................................................           ..              .........................",
"................................................           ..              .........................",
"...............................................           ...              .........................",
"..............................................            ...              .........................",
"..............................................           ....              .........................",
".............................................           .....              .........................",
"............................................            .....              .........................",
"............................................           ......              .........................",
"...........................................           .......              .........................",
"..........................................            .......              .........................",
"..........................................           ........              .........................",
".........................................           .........              .........................",
"........................................            .........              .........................",
"........................................           ..........              .........................",
".......................................           ...........              .........................",
"......................................            ...........              .........................",
"......................................           ............              .........................",
".....................................            ............              .........................",
"....................................            .............              .........................",
"....................................           ..............              .........................",
"...................................            ..............              .........................",
"..................................            ...............              .........................",
"..................................           ................              .........................",
".................................            ................              .........................",
"................................            .................              .........................",
"................................           ..................              .........................",
"...............................            ..................              .........................",
"..............................            ...................              .........................",
"..............................            ...................              .........................",
".............................            ....................              .........................",
".............................           .....................              .........................",
"............................            .....................              .........................",
"...........................            ......................              .........................",
"...........................           .......................              .........................",
"..........................            .......................              .........................",
".........................            ........................              .........................",
".........................           .........................              .........................",
"........................            .........................              .........................",
".......................            ..........................              .........................",
".......................           ...........................              .........................",
"......................            ...........................              .........................",
".....................            ............................              .........................",
".....................            ............................              .........................",
"....................            .............................              .........................",
"...................            ..............................              .........................",
"...................            ..............................              .........................",
"..................            ...............................              .........................",
".................            ................................              .........................",
".................            ................................              .........................",
".................           .................................              .........................",
".................                                                                       ............",
".................                                                                        ...........",
".................                                                                        ...........",
".................                                                                        ...........",
".................                                                                        ...........",
".................                                                                        ...........",
".................                                                                        ...........",
".................                                                                        ...........",
".................                                                                        ...........",
".................                                                                        ...........",
".................                                                                        ...........",
".................                                                                        ...........",
".............................................................              .........................",
".............................................................              .........................",
".............................................................              .........................",
".............................................................              .........................",
".............................................................              .........................",
".............................................................              .........................",
".............................................................              .........................",
".............................................................              .........................",
".............................................................              .........................",
".............................................................              .........................",
".............................................................              .........................",
".............................................................              .........................",
".............................................................              .........................",
".............................................................              .........................",
".............................................................              .........................",
".............................................................              .........................",
".............................................................              .........................",
".............................................................              .........................",
".............................................................              .........................",
".............................................................              .........................",
".............................................................              .........................",
".............................................................              .........................",
".............................................................              ........................."
};
