/* XPM */
static char *_708_3bb019bb5c21d8eef2158a6a27bfd07de4ad78eebb2e2cf2e63518849a69f805[] = {
/* columns rows colors chars-per-pixel */
"100 100 2 1 ",
"  c black",
". c None",
/* pixels */
"....................................................................................................",
"..........................                                                    ......................",
"..........................                                                    ......................",
"..........................                                                    ......................",
"..........................                                                    ......................",
"..........................                                                    ......................",
"..........................                                                    ......................",
"..........................                                                    ......................",
"..........................                                                    ......................",
"..........................                                                    ......................",
"..........................                                                    ......................",
"..........................                                                    ......................",
"..........................            ..............................................................",
"..........................            ..............................................................",
"..........................            ..............................................................",
"..........................            ..............................................................",
"..........................            ..............................................................",
"..........................            ..............................................................",
"..........................            ..............................................................",
"..........................            ..............................................................",
"..........................            ..............................................................",
"..........................            ..............................................................",
"..........................            ..............................................................",
"..........................            ..............................................................",
"..........................            ..............................................................",
"..........................            ..............................................................",
"..........................            ..............................................................",
"..........................            ..............................................................",
"..........................            ..............................................................",
"..........................            ..............................................................",
"..........................            ..............................................................",
"..........................            ..............................................................",
"..........................            ..............................................................",
"..........................            ..............................................................",
"..........................            ..............................................................",
"..........................            ...                   ........................................",
"..........................                                      ....................................",
"..........................                                        ..................................",
"..........................                                          ................................",
"..........................                                            ..............................",
"..........................                                              ............................",
"..........................                                               ...........................",
"..........................                                                 .........................",
"..........................                                                  ........................",
"..........................                                                   .......................",
"..........................                                                    ......................",
"..........................             ...............                         .....................",
"..........................         .......................                     .....................",
"..........................     .............................                    ....................",
"..........................   .................................                   ...................",
"................................................................                 ...................",
".................................................................                 ..................",
"..................................................................                ..................",
"...................................................................                .................",
"....................................................................               .................",
".....................................................................               ................",
".....................................................................               ................",
"......................................................................              ................",
"......................................................................              ................",
".......................................................................              ...............",
".......................................................................              ...............",
".......................................................................              ...............",
"........................................................................             ...............",
"........................................................................             ...............",
"........................................................................             ...............",
"........................................................................             ...............",
"........................................................................              ..............",
"........................................................................              ..............",
"........................................................................              ..............",
"........................................................................              ..............",
"........................................................................             ...............",
"........................................................................             ...............",
"........................................................................             ...............",
"........................................................................             ...............",
".......................................................................              ...............",
".......................................................................              ...............",
".......................................................................              ...............",
".......................................................................              ...............",
"......................................................................              ................",
"......................................................................              ................",
".....................................................................               ................",
"....................................................................               .................",
"...................................................................                .................",
"..................................................................                 .................",
".................................................................                 ..................",
"......................  ........................................                 ...................",
"......................    .....................................                  ...................",
"......................       ................................                   ....................",
"......................          ...........................                     ....................",
"......................               ...................                       .....................",
"......................                      ......                            ......................",
"......................                                                       .......................",
"......................                                                      ........................",
"......................                                                     .........................",
"......................                                                    ..........................",
"......................                                                  ............................",
"......................                                                 .............................",
"......................                                               ...............................",
"........................                                          ..................................",
"............................                                    ...................................."
};
