/* XPM */
static char *_3801_5e864f8226089685951a3461ab2d072a52feed6b38a80f1e72d06093c5293bba[] = {
/* columns rows colors chars-per-pixel */
"100 100 2 1 ",
"  c black",
". c None",
/* pixels */
"....................................................................................................",
".........................                                                                ...........",
".........................                                                                ...........",
".........................                                                                ...........",
".........................                                                                ...........",
".........................                                                                ...........",
".........................                                                               ............",
".........................                                                               ............",
".........................                                                               ............",
".........................                                                              .............",
".........................                                                              .............",
".........................                                                              .............",
"........................................................................              ..............",
"........................................................................              ..............",
"........................................................................             ...............",
".......................................................................              ...............",
".......................................................................              ...............",
"......................................................................              ................",
"......................................................................              ................",
"......................................................................              ................",
".....................................................................              .................",
".....................................................................              .................",
"....................................................................              ..................",
"....................................................................              ..................",
"....................................................................              ..................",
"...................................................................              ...................",
"...................................................................              ...................",
"..................................................................              ....................",
"..................................................................              ....................",
"..................................................................              ....................",
".................................................................              .....................",
".................................................................              .....................",
".................................................................              .....................",
"................................................................              ......................",
"................................................................              ......................",
"...............................................................              .......................",
"...............................................................              .......................",
"...............................................................              .......................",
"..............................................................              ........................",
"..............................................................              ........................",
".............................................................              .........................",
".............................................................              .........................",
".............................................................              .........................",
"............................................................              ..........................",
"............................................................              ..........................",
"............................................................             ...........................",
"...........................................................              ...........................",
"...........................................................              ...........................",
"..........................................................              ............................",
"..........................................................              ............................",
"..........................................................              ............................",
".........................................................              .............................",
".........................................................              .............................",
"........................................................              ..............................",
"........................................................              ..............................",
"........................................................              ..............................",
".......................................................              ...............................",
".......................................................              ...............................",
".......................................................             ................................",
"......................................................              ................................",
"......................................................              ................................",
".....................................................              .................................",
".....................................................              .................................",
".....................................................              .................................",
"....................................................              ..................................",
"....................................................              ..................................",
"...................................................              ...................................",
"...................................................              ...................................",
"...................................................              ...................................",
"..................................................              ....................................",
"..................................................              ....................................",
"..................................................             .....................................",
".................................................              .....................................",
".................................................              .....................................",
"................................................              ......................................",
"................................................              ......................................",
"................................................              ......................................",
"...............................................              .......................................",
"...............................................              .......................................",
"..............................................              ........................................",
"..............................................              ........................................",
"..............................................              ........................................",
".............................................              .........................................",
".............................................              .........................................",
"............................................              ..........................................",
"............................................              ..........................................",
"............................................              ..........................................",
"...........................................              ...........................................",
"...........................................              ...........................................",
"...........................................              ...........................................",
"..........................................              ............................................",
"..........................................              ............................................",
".........................................              .............................................",
".........................................              .............................................",
".........................................              .............................................",
"........................................              ..............................................",
"........................................              ..............................................",
".......................................              ...............................................",
".......................................              ...............................................",
".......................................              ..............................................."
};
