/* XPM */
static char *bigdoor[] = {
/* columns rows colors chars-per-pixel */
"64 64 228 2 ",
"   c #0E0E0C",
".  c #190908",
"X  c #11110F",
"o  c #141413",
"O  c #1A1614",
"+  c #1B1A16",
"@  c #1B1B1A",
"#  c #171718",
"$  c #31150F",
"%  c #231C19",
"&  c #391C12",
"*  c #300A09",
"=  c #22211E",
"-  c #2A271D",
";  c #3B2D1C",
":  c #33261A",
">  c #252523",
",  c #292623",
"<  c #2B2925",
"1  c #2D2C2A",
"2  c #272727",
"3  c #322C25",
"4  c #322E2A",
"5  c #3A2925",
"6  c #33322E",
"7  c #39332D",
"8  c #3C372B",
"9  c #353532",
"0  c #393633",
"q  c #373836",
"w  c #3B3A36",
"e  c #3D3D3B",
"r  c #393538",
"t  c #2F302C",
"y  c #4A1B1A",
"u  c #5D1D18",
"i  c #5F150C",
"p  c #621911",
"a  c #4B221F",
"s  c #58221E",
"d  c #4B381D",
"f  c #68391C",
"g  c #452A25",
"h  c #582826",
"j  c #453829",
"k  c #443C35",
"l  c #413E3B",
"z  c #4A3935",
"x  c #583836",
"c  c #563A2A",
"v  c #653D3A",
"b  c #673835",
"n  c #662D2A",
"m  c #3F403D",
"M  c #57431E",
"N  c #645B1A",
"B  c #6A5919",
"V  c #77571B",
"C  c #744918",
"Z  c #46432C",
"A  c #4D432D",
"S  c #4B492A",
"D  c #57472A",
"F  c #595528",
"G  c #4C4433",
"H  c #43423D",
"J  c #4B443D",
"K  c #4D4A3C",
"L  c #454433",
"P  c #524D3A",
"I  c #564736",
"U  c #5A523A",
"Y  c #58533A",
"T  c #4F503D",
"R  c #664A26",
"E  c #67562A",
"W  c #765929",
"Q  c #66463B",
"!  c #6D5A34",
"~  c #675639",
"^  c #735936",
"/  c #774A25",
"(  c #69623B",
")  c #76643B",
"_  c #746324",
"`  c #3E3E41",
"'  c #5F3F41",
"]  c #3F4141",
"[  c #454442",
"{  c #494643",
"}  c #474846",
"|  c #4B4A45",
" . c #4D4D4A",
".. c #47484A",
"X. c #544B44",
"o. c #514F4B",
"O. c #5B4E4A",
"+. c #584A45",
"@. c #4F504E",
"#. c #545244",
"$. c #5B5545",
"%. c #53524D",
"&. c #5A544D",
"*. c #5C5B4C",
"=. c #5B5A42",
"-. c #4F4F51",
";. c #4E5150",
":. c #555452",
">. c #595652",
",. c #575855",
"<. c #5B5955",
"1. c #565659",
"2. c #5C5C5A",
"3. c #575859",
"4. c #5B4F50",
"5. c #614E4B",
"6. c #694844",
"7. c #764642",
"8. c #645B42",
"9. c #64514E",
"0. c #655C4B",
"q. c #675446",
"w. c #745645",
"e. c #625B54",
"r. c #6B5C55",
"t. c #615E5B",
"y. c #675553",
"u. c #765B57",
"i. c #5E605E",
"p. c #6A6449",
"a. c #756748",
"s. c #646153",
"d. c #6B6454",
"f. c #63625D",
"g. c #6A655C",
"h. c #6B6A5B",
"j. c #6B6954",
"k. c #76695A",
"l. c #76735B",
"z. c #6F705A",
"x. c #5D5D61",
"c. c #635E62",
"v. c #5F6061",
"b. c #646462",
"n. c #696663",
"m. c #676866",
"M. c #6A6965",
"N. c #656669",
"B. c #676969",
"V. c #6C6C6A",
"C. c #686668",
"Z. c #716B64",
"A. c #716E6B",
"S. c #756561",
"D. c #6F706E",
"F. c #72726D",
"G. c #767369",
"H. c #6C6D72",
"J. c #6F7173",
"K. c #747473",
"L. c #797672",
"P. c #777875",
"I. c #7A7975",
"U. c #74757A",
"Y. c #7B7B7B",
"T. c #77787C",
"R. c #874E14",
"E. c #815D2B",
"W. c #8F6834",
"Q. c #8C5854",
"!. c #877349",
"~. c #967747",
"^. c #857758",
"/. c #927551",
"(. c #B17E54",
"). c #817E7B",
"_. c #847C72",
"`. c #8F6D64",
"'. c #7F807E",
"]. c #BD873D",
"[. c #CA8E3D",
"{. c #A7844B",
"}. c #B78F4E",
"|. c #83827E",
" X c #898376",
".X c #968267",
"XX c #B79666",
"oX c #AA9370",
"OX c #908054",
"+X c #CC8D46",
"@X c #C89749",
"#X c #D29948",
"$X c #C48854",
"%X c #C1A35C",
"&X c #E2A347",
"*X c #C19D66",
"=X c #7B7C82",
"-X c #7F8080",
";X c #848482",
":X c #898683",
">X c #8C8C8A",
",X c #888889",
"<X c #908F8C",
"1X c #92918C",
"2X c #949493",
"3X c #9C9A95",
"4X c #9C9C9D",
"5X c #999899",
"6X c #8F9092",
"7X c #A59E97",
"8X c #AD9D8D",
"9X c #A3A29D",
"0X c #A8A59A",
"qX c #B2A58F",
"wX c #9E9EA1",
"eX c #A29EA2",
"rX c #9EA0A3",
"tX c #A3A3A3",
"yX c #ABABAB",
"uX c #A7A8A8",
"iX c #AEB1B4",
"pX c #B7B8B9",
"aX c #AFACAD",
"sX c #C3BEB6",
"dX c #CCA889",
"fX c #BDBEC1",
"gX c #C0BDC0",
"hX c #C2C2C7",
/* pixels */
"3.b.H.H.H.H.U.=X=XT.T.U.U.T.T.F.K.b.m.b.f.t.b.m.K.b.t.e.m.n.<.<.t.f.%.o.n.m.n.f.m.<.A.L.K.K.B.n.f.B.B.<.F.f.b.B.T.x.U.b.Y.=XU.U.",
"B.U.U.H.H.U.1...3.[ 3.......b...K.b.B.B.n.1.<.m.B.b.<.| A.B.b.b.f...[ | m.F.m.F.L.f.K.I.Y.3...t.L.n.Y.o.a s h s ' b.U.N.U.K.Y.=X",
"B.=X=XB.x.x.1.[ 1.e 1.......3.[ b.3.3.b.<.| ,.t.f.<.%.%.F.K.K.m.9.5.9.9.y.y.5.r.y.f.L.Y.Y.[ H { K.n.Y.3.k g g g ..1.H.b.K.U.=XY.",
"N.H.B.3.3.b.,.[ 1.[ f...1.1.B.| 3.<.3.C.,.| ,.3.<.%.3.%.F.I.L.K.y.9.5.9.9.O.+.9.5.f.m.B.b.b.b.;XK.b.Y.,.u u s u x 1.b.,.b.B.U.T.",
"N.K.K.n.o.1...H ..[ ..[ %.1.1.| ....1.N.1.[ ..,.<.%.3.y.Q.Q.u.6.t.1.1.n.<.1.,.%.g.n.n.B.b.<.b.Y.K.B.Y.3.I g j z ,.1.B.x.K.Y.,XU.",
"U.H.3.B.t.B.3.{ ,.| 3.H ..1.i...B.K.Y.K.F.1.<.1.e.<.b.6.b b b x t.....%.1...%...1...t.,.3.3.3.I.A.B.=X4.h h h h x 3.B.N.U.3.B.K.",
"U.3.3.3.b.m...6 | 9 %.6 1 6 1.w m.F.;XB.f.b.1.3.<.1.N.b.K.F.F.K.b.<.%.,.%.3.| 1.1.,.t.t.1.b.b.f.<.B.Y.3.{ z z k x.b.H.N.t.1.3.K.",
"r 9 , 1 + o > , < = > < 1 1 1 1 > 1 w 1 1 > 1 t < , 4 9 1 1 1 [ ` < < 1 > > 1 > 1 > 1 , > > > , % , 1 > = % + 2 2 1 + + < < < < ",
"D %.{ ,.| 1.H | %.%.%.t.<.b.<.3.b.K.Y.K.B.3.b.D.,.$./ K K 1...1.1...H | k [ { [ %.| ..o.| o...%.c o.....k | k x.3...[ H [ { { D ",
"A 1.{ ,.%.B.<.f.f.<.3.b.t.n.<.n.b.1.......e m [ 9 w d 8 8 [ [ e ..[ 1.b.%.f.b...n.6 > 1 < 1 9 F.^ ..-.[ ....H c.1.3.3...[ { H A ",
"A [ 9 1...3.%.b.f.%.o.<.f.<.<.K.m 1.o # o   X X   X X     o o o o > <.D.f.3.m.<.f.e + o o + e F.^ r.I j { &.,.b.b.3.,...[ e 6 P ",
"Z ..H 1.| 3.%.b.m.f.%.| f.%.3.H > x.b.B.b.| 1.<...K F A P 1.1...3.%.%.b.b.<.B.3.<.H ..f.<.| H B.w.X.I $ : { m.t.f.3.,.[ H { H P ",
"Z | | 1.%.f.1.f.b.| %...r.&.w > 9 3.b.H.b.%.1.%.K e S Z K ....[ 3.%.%.f.b.<.B.b.<.w | n.f.%.e B.w.w K f & G <.b.3.3.,.{ [ H [ U ",
"Z ..H 1.| 3.,.f.b...3.1.q.I ..[ ..3.n.A.f.X.%.#.| H F L $.3.3.%.<.%.%.<.t.1.m.B.,.w ..B.b...H B.a.H 1 d f & j %.f.1.o.| { { H Y ",
"L e q 1.{ 3.3.m...1.B.f.I 0.1.| ..3.k.Z.b.| <.b.%.%.F K 8.b.3.f.b.%.%.<.3.<.m.b.,.e %.B.m.1.H m.a.K 9 2 j / g #.1...1.[ { q 4 $.",
"K ,.| ,.| B.3.F.1.b.b.w a d.3.| %.f.k.Z.b.%.1.m.1.1.~ ..Y i.%.f.B.%.1.<.3.<.m.b.<.e %.m.f...[ m.a.{ | < > z ^ I &.1.<.| { [ H #.",
"P <.| 3...B.<.I.<.n...> j m.3.[ %.f.Z.Z.b.%.1.b.,.%.U %.P %.| t.B.%.%.<.f.3.m.3.<.H <.m.b.%.[ b.p.{ 3.D - , X.g.f.3.%.| { ..H #.",
"K %.| 3...B.1.Y.f.H 1 e k B.i.| ..3.f.3.i...o.1.<.%.=.%.P ..| <.b.%.%.<.f.3.m.f.<.H 3.m.m.%.H q.p.{ 3.E M 1 4 %.f.,.%.{ | | [ | ",
"| w w 3...B.<.K.H = [ <.k m.3...[ 3.%.1.1.e <.B.1.1.=...K ....%.3...%.3.<.<.m.1.t.H 3.b.m.K ; Q 8.| ,.E B %.1 1 | e.%.| [ q 1 H ",
"| %...<...m.<.3.= q K.1.k A.b.| @.<.t.f.b.{ %.b.%.1.*...P { | b.b.| o.<.3.<.m.1.t.H 3.B.m.K j U 8.{ %.B B s.%.1 6 <.o.{ { ..k H ",
"[ | | 1...m.1.<.e %.B.,.k m.f...[ 1.| %.1.9 [ 1.%.1.#.@.8.<.b.b.b.| | %.<.,.n.,.<.H 3.B.0.A j j Y [ ,.N N s.m.1.[ t.&.| { ..[ H ",
"| e 9 <.1.D.<.<.[ %.K.3.k m.v...3.%.b.B.D...> w 1 t < < < 1 9 6 3 H | 1.<.1.K.<.t.H 3.F.0.A L 8.I [ %.N N h.m.f.| f.f.1.| e 9 [ ",
"| %.| <.1.B.f.,.H <.F.3.e m.i...3.1.B.B.D.I.;X;Xb.H K [ | @.T g c K ..<.3.<.K.,.f.H <.K.b.#.L h.*.[ 1.N N ! F.b.| b.<...| 1.{ { ",
"{ ..| ,.@.b.<.%.[ <.B.<.e m.3.{ 1.1.B.b.1.3XuXuXb.#.p.3.f.f.f.R R.K o.<.<.%.K.%.f.w <.B.b.%.L h.<.[ 1.E F ( F.b.| v.3...| 1.[ | ",
"H | [ ,.%.m.<.%.H <.4X1XH m.3.H.=X1.6XrXB.<.F.K.| I..XY.<.e.d.R R.| | 1.<.%.B.%.f.w ,.B.t.%.L D.<.[ 1.E F ( F.i.| <.t.1.k %.[ { ",
"H w 6 %...f.%.| H | 3.uX<XB.K.pXiX2XyXpX9X%.H %.f.1XoX[ 1.i.m.E V | K %.<.o.m.%.f.6 1.B.3.%.H B.*.[ %.! E ) d.<.{ t.<...[ e e | ",
"e %.H %.| t.o.o.H | e %.<.b.b.B.3.3.m.B.m.%.6.r.%.%.#.9 1.f.B.E V | H %.<.| g.<.f.w ,.B.b.1.m D.*.[ 1.! F W ^ <.[ <.e...{ ..3...",
"k ..{ %.| b.%.%.H | H o.%.%.1.B.v.<.B.B.m.H n b %.<.K q 1.f.m.E V H { 1.<.o.g.<.f.w %.B.b.1.m B.*.[ 1.W B C ~ 3.H e.e.o.[ ....| ",
"H H w <.| 3.o.1.H | H %.,.k e 1.X o 2 B.F.f.v 7.t.<.%.q 3.b.B.W V { | <.f.%.g.f.f.w ..K.f.1.H B.8.H 1.W B W p.b.H e.e.o.[ k e ..",
"H ..{ <.| b.%.%.H | [ X.%.b.k 3.* y 1 D.i.H 4 6 w <.%.9 3.3.B.! _ | | 3.....g.f.f.w 1.B.3.%.e b.8.e 1.W 8.p.j.3.H e.&.| H ..{ ..",
"k %.{ ,.| B.1.<.H 3.B.f.| m.z 3.g h 9 B.3.+ X o < 3.<.w B.B.Y.E.W.%.| f.| %.%.%.f.e <.K.m.1.e B.$.e 3.~ p.p.j.<.[ t.e...[ { -...",
"H %.| %.| B.3.3.H 3.b.,.%.F.[ 3.O h w K.3.e ..e 9 3.%.1.uXtXaX(.+X1X| 3.H | | %.b.%.yXyX9X3X1.B.8.1.3XXX*XqX0X9X<.<.o.| { ....{ ",
"| e w <...B.f.<.= > + 1 ,.Y.9.m.y h e D.3.H b.1.w b.<.3.;X;XY.a.OX;Xo.[ o o + + n.f.|.,X;XI.B.K.d.b.,X!.^. X|.I.K.1.,.[ ..e e o.",
"| <.%.f.%.K.m.f.e 6 H m.|.,X..B.> h e K.b...Y.m.w B.f...3.1...D Y <.%.m.8 H k %.A.o.1.3.3.%.%.K.a...3.D G | t.<.1.3.,...%.3.x.1.",
"| t.1.b.%.B.m.b.| %.[ n.F.m.3.3.< h e Y.b.o.I.b.e m.3.w + + + + + 1 %.I.0.Z.d.I.A.w + + + + k Y.k.H 2 + + % : , e 1.,.o.&.3.x.1.",
"| ..[ m.1.I.m.f.o.t.[ m.t.$ * * a h e Y.b.%.I.m.H f.f.e 1.1.-.R E ..%.Y.s.F.d.G.Z.w [ 1.3.%.H =Xk.[ 3.0.~ g.k.e.H 3.<.%.&...-.%.",
"H { { n.1.F.f.f.Z.I...m.<.$ . . . , e K.3.o.K.B.H t.f.1.4XiXuX$X@X;X%.I.%.s.*.$.d.H 2XeX4X9X| Y.l.{ rXoX}.8X8X3X..<.3.o.&.{ ..| ",
"k 1.| b.1.b.f.F.3X:X;Xn.t.a y y y h w B.<.| m.B.H f.m.4XyXiXiX$X%XyXm.L.w - < &.e.L.tXyXyXyX).K.l.K.uXXX*X8XqXyX,X1.,.o.9.O.1.{ ",
"H o.H 3.%.b.b.).:X;X,XK.b...H [ [ 7.1.m.1.| f.b.e t.K.K.K.Y.K.!. X|.F.K.f.e.g.<.e.1X2XtX4XtX3XY.l.4X0XXXXX0XqXyXtXt.t.,.O.o.1.{ ",
"k 9 6 f.%.b.m.F.m.t.B.A.|.1XK.;X|.,X|.3.%.{ <.e.9 &.m.b.3.v.1.! g.n.g.F.<.e.Z.&.e.f.t.b.f.n.t.F.z.f.B.E.E ~ w.r.n.e.<.o.q.K [ | ",
"{ [ [ b.F.K.;X'.F.m.B.F.;X;Xm.Y.K.Y.Y.m.1.H f.f.w %.m.3.i.i.1.! f.f.f.m.&.e.,.6 6 | o.1.1.%.| b.f.b.B.E.E $.^ e.e.g.g.f.X.o.-.{ ",
"[ [ ..<.B.K.Y.m.3.%.3.f.B.<.H ..[ ..;.3...k ,.b.e <.m.3.b.3.1.8.b.g.f.m.&.&.t.6 4 6 9 e w w [ B.b.<.b.W F *.Q r.t.r.r.t.+.&.1.[ ",
"{ H w 3.B.<.3...| w H | ......B.3.B.3.3...K r.S.w <.b.3.3.3.<.s.b.n.f.g.,.&.f.%.&.%.f.b.m.<.t.....| { D G | I X.o.e.g.n.X.k [ [ ",
"[ [ [ t.B.<.K.m.f.3.<.3.f.3...b.@.%.3.3.@.x Q 6.q <.f.b.b.b.t.t.n.n.f.m.<.%.%.&.e.H 1 H 1 w < f.3.f.b.( U e.d.n.t.t.n.B.X.o...[ ",
"{ o.o.3.B.o.1.o.[ [ [ H | | [ m.1.3.3.3.1.z u.u.9 ,.%.+ # o o o o + o.A.f.%.%.f.t.> o + o o = 3.3.[ 1.~ #.| o.1.1.%.o.n.o.1.1.{ ",
"{ o.| 3.B.1.%.%.{ [ k k ..[ | m.3.f.,.,.1.x Q 6.q %.1.1 o o o o o 6 H | [ H H H H w + o o + q f.b.{ 1 ; R D O + c K [ m.....| H ",
"{ q 9 3.B.1.1.1...[ [ [ | [ [ m.1.<.3.,.1.X.S.u.q %.1.w 3.%.%.o.3.w o o o o o o X > ..1.1.H q <.b.| ~ #X[.j > W.[.q.H b...e 9 k ",
"{ ..{ ,.m.m.B.B.f.%...%.<.<.f.m.f.b.3.%.1.x v Q q %.<.q 3.1.R ( t.e 9 9 6 1 1 7 : < ..1.%.{ 9 <.b.| ~.].g > W.#XW.[ H m.{ ....[ ",
"| ..e 1.m.m.K.B.f.%.t.g.,.1.%.{ | H 3.<.o.{ K.b.9 ,.<.w 3.<.p.h.g.I.d.l.F.f.m.g.) P f.b.n.{ 7 e.b.{ k.X.9 K !.w.e ..[ B...[ { { ",
"| o.w 1.m.A.K.K.b.....H %.<.[ t.[ ..<.1.%.H b.b.9 %.<.q b.b.a.d./ L.a.^.B.t.m.Z.) Y f.B.A.{ 7 %.t.[ f.,.1.,.f.m.b.<.[ b...[ [ [ ",
"| o.e 1.u.`.`.`.b.1.%.e.<.B.,...1...F.1.%.v Q.Q.q %.1.w b.B.a.h.a.F.) ^.b.<.L.L.k.*.B.K.L.| 7 &.n.[ n.b.3.g.A.F.k.b 7.w...[ [ | ",
"| ..e 1.5 z x 7 B.<.3.t.b.n.b.B.3.%.B.<...9 H { 6 ..%.e b.b.m.f.d.b.) l.<.%.m.e.0.Y n.K.Y.Z.w <.m.[ n.b.f.f.A.m.K $ z 5 ..[ ..| ",
"{ ..w 1.h 7.7.v b.S =.G &.Q 1.3.1.1.B.,...b.Y.3.9 | %.9 3.v.b.<.n.B.) G.f.t.n.f.e.&.K.,X1X9X7Xf.b.[ t.t.b.m.F.B.5.n b h ..e [ [ ",
"{ ..w 1.6 + + [ m.L <.K #.U 1.f.3.%.B.<.f.7XtX,X9 | ..9 3.3.<.<.t.m.( G.f.b.f.b.Z.:X2XtX0X_.<.f.b.[ b.b.3.f.m.B.%.o o > 1.e [ | ",
"| o.w | <.B.B.B.m.[ <.| $.F <.B.3.<.B.3.Y.tXpXiX1.| %...5X5XrXwXtXtX(.8X2X3X2X9X3XyXyX,Xh.t.Y f.C.[ B.f.t.t.t.B.B.<.k ..[ ] [ [ ",
"| [ 1 [ b.B.m.n.b.H 1.| X.U 1.f.3.1.b.3.3.,.m.2X5Xo.B.iXpXpXfXfXhXsXdXsXpXpXpXsX7X_.m.a.E p.8.f.b.[ b.b.t.t.t.b.f.1.[ K.[ e { | ",
"[ t.3.H > > > > = 4 = < - - % = > < > > 9 9 6 q 4 < 6 q e e e e [ [ I K H e H [ 4 6 6 9 6 9 < 6 9 1 - - = 1 > < , % 1 9 3.K.B.H ",
"k :X>X<X,X:X;X;X;X|.;X|.^.W.|.|.;X:X;X;X|.;X|.|.|.Y.|.;X;X;X;X;X;X;X`. X|.|.;X;X_.|.;X;X|.Y.L.I.;X|.^./.^.|.:X:X>X;X;X2X4X2X2Xk ",
"3...> 1 > 6 @.[ H [ [ e 8 j H [ [ [ [ [ [ [ [ H 1.3.b.b.i.v.v.b.v.b.0.g.3.<.b.f.k I | [ e w k k H e j A Z e [ { ..1.6 > 9 < 3.3.",
"3.t.O.t.o.,.1.| R W - o c E.R O + E E ;   : E.~ f.3.3.3.i.1.3.%.f.@.0.&.i.1.b.f.+.W R + % R W.5 + ; D E O X D E.U v.,.%.f.1.B.t.",
"3.3.5 X.5 { 1.b.k.D % W &X].3 3 a.}.E o ; #XXXB.b.[ H e [ w [ 9 [ 9 k 9 H w [ %.t.d.< < W.{.W < U }.!.3 o W }./.B.b.| 5 &.7 B.f.",
"3.b.i Q i x 1.b.3.1.D #X}.7 1 ~.~.) , 3 }.XXF.m.{   o o o o o + + + + + o + o = <.b.3.^ ~.a.9 k {.{.K 4 U {.^.B.b.3.x i 7.i D.<.",
"1.n.6.r.6.y.1.e 1.b.K.L.A.Y.Y.Y.K.B.B.I.Y.L.B.%.+ w m.D.f.A.K.'.L.Y.K.m.b.K.<.> k f.B.).F.F.L.L.,X;X'.).'.I.K.b.w ..9.6.k.y.n.| ",
"4 e 9 e 9 6 9 e e q 6 7 4 w w 9 6 < 6 6 9 6 q <   > 3 3 3 < , 6 1 1 < , , , < >   < 1 1 , < < 1 q 9 w 7 q 9 q 6 9 q w H H e k q "
};
