/* XPM */
static char *cement2[] = {
/* columns rows colors chars-per-pixel */
"64 64 226 2 ",
"   c #070704",
".  c #080704",
"X  c #0A0906",
"o  c #0E0D09",
"O  c #110E0A",
"+  c #100D07",
"@  c #15120C",
"#  c #19150D",
"$  c #1E1A0E",
"%  c #181707",
"&  c #1B1610",
"*  c #1E1911",
"=  c #221D0E",
"-  c #231C13",
";  c #291E15",
":  c #25220A",
">  c #2C270D",
",  c #312C0B",
"<  c #35310B",
"1  c #3D390C",
"2  c #262015",
"3  c #2B2316",
"4  c #2D2419",
"5  c #27241B",
"6  c #32251A",
"7  c #342A1C",
"8  c #3B2C1E",
"9  c #302517",
"0  c #34311D",
"q  c #2C2A22",
"w  c #332D23",
"e  c #3C2E21",
"r  c #312F28",
"t  c #343225",
"y  c #3D3224",
"u  c #35332B",
"i  c #3B362A",
"p  c #3C3A2D",
"a  c #3B3926",
"s  c #3D3B33",
"d  c #3A3833",
"f  c #463E0D",
"g  c #402F21",
"h  c #433425",
"j  c #493626",
"k  c #463A27",
"l  c #493A27",
"z  c #433729",
"x  c #433B2C",
"c  c #4C3C2B",
"v  c #483628",
"b  c #513E2D",
"n  c #423E34",
"m  c #4B3E32",
"M  c #413F38",
"N  c #3F412D",
"B  c #4B460A",
"V  c #544D0C",
"C  c #5C560A",
"Z  c #504914",
"A  c #645D0B",
"S  c #6B5F0F",
"D  c #61551B",
"F  c #6A640C",
"G  c #6A640A",
"H  c #72690C",
"J  c #7B740D",
"K  c #676010",
"L  c #726910",
"P  c #726414",
"I  c #7D7610",
"U  c #4D412F",
"Y  c #454328",
"T  c #53422E",
"R  c #57482E",
"E  c #454333",
"W  c #4C4434",
"Q  c #464934",
"!  c #4A4B36",
"~  c #45433B",
"^  c #4A463B",
"/  c #4C4A3C",
"(  c #474838",
")  c #534433",
"_  c #544936",
"`  c #5C4A35",
"'  c #534D3C",
"]  c #5B4D3C",
"[  c #554639",
"{  c #53523D",
"}  c #5C523E",
"|  c #545331",
" . c #634B35",
".. c #614D39",
"X. c #65523C",
"o. c #6B543C",
"O. c #695739",
"+. c #745B3E",
"@. c #635E25",
"#. c #696326",
"$. c #7D7723",
"%. c #4A4741",
"&. c #4C4B43",
"*. c #4E4D48",
"=. c #474640",
"-. c #524E44",
";. c #5A4E42",
":. c #504F4A",
">. c #4F5046",
",. c #555144",
"<. c #5B5344",
"1. c #5C5944",
"2. c #54534B",
"3. c #5B554A",
"4. c #5D5A4C",
"5. c #595751",
"6. c #5D5B53",
"7. c #5D5D59",
"8. c #555551",
"9. c #635543",
"0. c #635A45",
"q. c #6B5B44",
"w. c #61564A",
"e. c #635B4C",
"r. c #6A5D4C",
"t. c #6B5641",
"y. c #725C42",
"u. c #7A5E43",
"i. c #705F49",
"p. c #635D53",
"a. c #695F51",
"s. c #605F58",
"d. c #5E614D",
"f. c #65614B",
"g. c #6C624C",
"h. c #6E6047",
"j. c #756146",
"k. c #74634C",
"l. c #7A664C",
"z. c #7A6348",
"x. c #656154",
"c. c #6C6354",
"v. c #6C6956",
"b. c #64625B",
"n. c #6C655B",
"m. c #6D695C",
"M. c #736554",
"N. c #746A55",
"B. c #7B6B55",
"V. c #716659",
"C. c #746A5C",
"Z. c #7B6D5A",
"A. c #786650",
"S. c #75705F",
"D. c #7D715D",
"F. c #6E6A62",
"G. c #686661",
"H. c #736D62",
"J. c #796F61",
"K. c #757164",
"L. c #7C7364",
"P. c #76716A",
"I. c #7C756A",
"U. c #7E796C",
"Y. c #7E7867",
"T. c #7D7A71",
"R. c #857B0D",
"E. c #857A0C",
"W. c #857B15",
"Q. c #817B23",
"!. c #82694C",
"~. c #816E57",
"^. c #816F59",
"/. c #83725D",
"(. c #89765E",
"). c #837563",
"_. c #897662",
"`. c #857966",
"'. c #8B7A65",
"]. c #81766A",
"[. c #847A6C",
"{. c #8B7D6B",
"}. c #917C65",
"|. c #917F6A",
" X c #847D73",
".X c #897E71",
"XX c #847F78",
"oX c #8B820D",
"OX c #94890F",
"+X c #918411",
"@X c #94890F",
"#X c #A69912",
"$X c #A0920F",
"%X c #B1A214",
"&X c #8B8323",
"*X c #958C24",
"=X c #9D9426",
"-X c #A39B26",
";X c #AFA527",
":X c #8D816D",
">X c #93816D",
",X c #98846D",
"<X c #858174",
"1X c #8C8273",
"2X c #8C857B",
"3X c #88847A",
"4X c #938573",
"5X c #958876",
"6X c #9B8A75",
"7X c #92877A",
"8X c #948A7B",
"9X c #9A8C7B",
"0X c #998671",
"qX c #9F907D",
"wX c #A08D78",
"eX c #A2927E",
"rX c #A9957E",
"tX c #8E8981",
"yX c #928C83",
"uX c #9A8E81",
"iX c #9D9284",
"pX c #969188",
"aX c #9F9A93",
"sX c #A39484",
"dX c #A89A89",
"fX c #B6A896",
/* pixels */
"H.m.-./ 6.p.-.r.t.t.9.t.X.t.y.i.k.M.Z.K.c.1X X XY.-..   . O # 6   o o o o   o # o - * @ * # # @ O + T.2XtXtXyXF.XXyX2X Xc.K.c.;.",
"H.C.,.<.3.1.,.t.o.o.+.y.o.o.y.y.j.t.k./.c.8X8X2X1X-.  o 3 e e - O 6 8 e c h o ; # 7 3 * * # # @ o o Y.yXyXtXaXP.2XtXtX2XC.[.M.] ",
"C.x.2.,.e.} { t.t.j.y.z.z.y.l.j.t.X.t./.e.4X1X1X[.-.. - y @ @ o & 8 c T +.` O 7 * h 7 - o @ @ @ O o F.tXpXpXyXF.2X2X2XyXC.).M.] ",
"K.c.e.f.e.{ / X.t.j.t.j.j.y.o.j.y.y.k./.r.`.1X.X[.<.o 3 y o # O - 6 ` ..l...- h - x h 3 @ @ 3 * o   G. XyXpX2Xn. X X X7XC.).B.] ",
"C.N.3.3.e.<.,.0.t.o.o.y.j.o.o.l.j.l.B.Z.a.4X{.K.[.-.O 3 i O & O - 6 )  .o.X.e h 3 ) z 3 @ * 7 @ o O 6. X2X2X XG..X X.X2Xn.{.B.9.",
"v.K.m.' 3.0.] 0.t.X.` ] ` ` } X.t.l.B.'.C.9X4X1X8X3.O 3 y O @ o * 7 m [ o.X.7 h ; c y 2 @ * 3 O   O 3.Y.2X8X7Xn.[.Y..X.Xn.{.M.] ",
"c.c.,.,.e.' ] t.k.t.t.9.<.0.e.g.N.'.Z.'.Z.eX9X9XuX3.@ 3 y O @ O - 6 ) ] y.t.; g - h z 5 o @ - o   @ ,.n.[. X].n.Y..XJ.].p.M.a.;.",
"c.0.' <.e.<.' t.k.t.X.x x p p W <.'./.>XC.|.sX4X8Xe.@ 3 y O # @ ; 7  ...o.+.h h - c h 5 @ * * @ . @ 3.V.K.C.[.F.].uX[.K.a.C.r.<.",
"S.C.,.' e.1.<.y.j.t._ _ W E s E e.{.'.0XV.>X9X9XuXe.O 3 y O - O - h b o.t. .7 g - c h - @ - 2 $   @ 3.C.H.K.K.n.K.K.4X).c.Z.C.e.",
"v.C.<.' e.} <.j.j.k.r.W n / / W e.>X'.|.C.eX|.8X{.<.O 3 y @ - @ 3 g `  .y. .@ g * y y - @ * 2 @   @ 3.J.K.K.Y.H.].K.).).n.K.K.a.",
"S.Y.,.' e.0.} k.l.k.g.i q u n i e.>X'.>Xe.4X9X4X{.w.o 3 y @ 3 @ 3 c ) ;.y.o.; g - x y - @ @ 3 o   @ e.C.J.[.1Xn.].J.Z.).c.).K.Y.",
"Y.K.,.' e.g.0.k.B.B.N.W i i E E p.{.'.|.M.9X9X>X{.<.o 3 y @ 3 @ 3 c ..o.z.o.e v @ 7 z 3 @ @ 3 o o @ p.C.K.].{.c.`.Z.S.{.c.K. XY.",
"K.U.3.,.C.C.c.Z./.N.N.' E E / ^ x.1X`.[.c.6X4X{.>X9.O 3 y @ 7 # 3 )  .o.u.o.h h & w x W * @ 3 O o @ p.C.C.V.`.e.).K.`.).c.M.[.P.",
"K.Y.p.3.K.Z.n.>X'.`.Z.<.' ^ -.,.m.4X{.:XM.4X9X4X{.w.O 7 y @ 7 # 3 c  .o.u.X.# j O e c W @ # 3 @ o @ p.c.Z.M./.c.>X{.{.S.c.Z.J.Y.",
"Y.[.p.e.K.S.H.iX:X`.K.,.' / ^ ~ b.1X).{.a.{.9X9X{.9.O 7 y @ 3 @ 3 h ` X.u.o.6 v o 7 W ) @ # 3 o o # e.M.[.Z.'.V.>X4X5X9XK.{.K.n.",
"[.yXn.x.<XK.H.sX8X{.K.-.E n ^ ~ 3.[.C.{.c.'.>X0X{.w.o 7 i @ - # ; h x [ u.+.h c o e U ) @ @ 2 o o # H.1X4X).'.C.{.{.4X6XJ.{.Z.p.",
"[.7XH.C.2X).n.9X9X1X[.C.x.e.x.p.m.:X).S.c.{.>X{.'.<.o 7 z O * # 3 j o.o.u. .6 v O e W U O @ * o o # T.{.N.{.'.Z.{.'.{.5XC.K.Z.w.",
"[.1Xm.C.2X[.C.9X9X4X4X5X`.[.5X5X5X4X`./.C.qX9X'./.<.o 7 i O # @ 6 j o.o.u.o.# v o 7 U U O * * @ . #  X8XZ./.'.C.>X>X'.`.a.M.V.3.",
"<XyXm.c.[.).C.6X>X|.>X>XB././.>XS.`.{.{.C.eXsX{.{.;.o 7 z O * @ 6 k o.o.u.o.8 v O 7 c ) O 2 3 - o # K.[.).|.>XK.{.{.).).p.M.M.3.",
" X<Xx.m.K.K.a.{.'.|.>X'././.Z././.S.B.N.c.>X:X'.).;.o 7 i @ - o 3 k X.y.y.T 8 8 6 h ) ] 3 * 3 - o # H.r.Z.|.4XV.).).K.{.n.J.C.p.",
" XU.m.m.K.K.c.'.|.|.wX}.'./.B.B.B.N.g.N.g.`.).).).p.o 7 x @ * @ 7 j X.X.+.T - 8 h y c X.] O * # . # <.M.).{.6XJ.4X4X{.{.c.).Y.n.",
"<XK.m.c.C.Z.M.|.}.'.,X}.'.(.'.`.N.g.g.M.e./.{.>X'.e.o 7 x * 3 # 7 T R ` O.j - 7 e z %.9.t.* & @ - 3 9.Z.).>X5XJ.uX1X[.{.c.J.H.n.",
"K.[.x.e.S.B.a.'.}.'.,X}./.~.S.S.k.h.t.g.e.'.>X|./.] o 7 x * - - - 6 7 7 j 7 - 8 e m %.X.X.y & 3 c O 9./.Z.4X`.K.9X9X1X{.c.Z.C.p.",
"U. Xp.3.S.{.c.,X0X}.>X}.'./.B.S.k.t.h.g.e.'.>X_.).9.$ 7 x @ # - @ O o @ o o @ h z ) W X.t.c & ) c - e.Z.Z.).'.K.{.{.9X4XC.C.C.p.",
"K.U.3.1.K.S.C.{.'.'.M.N.e.<.e.e.0.e.g.g.<.Z.)./.).9.@ y z O @ o O o o @ & o @ y y m &.9.X.3 h ` v 3 e.r.M.{.{.[.{.).9X[.n.C.n.3.",
"[.[.<.<.`.`.C.{.|.'.K.e.<.,.3.e.c.N.g.N.e.B.^.^._.] # 7 - o o o o o o y _ @ @ h h x [ o.o.7 c c e - C.M._.{.4X.X9XdX5X'.C.K.H.3.",
"U.U.e.e.[.S.c.:X`.).C.E n i u i ,.c.g.c.e.B./.^.Z.] O o o o O o o o o 7 _ ] * h h z ) X.) e e 8 - # c.{.{.{.{.V.sXfXdX9X X[.C.p.",
"K.K.x.1.C.S.C.9X).B.C./ x p x x ,.N.g.N.3.Z.Z././.) o - y 7 3 2 $ o o o 2 X.x h # e ) ) - - - - # 6 9.t.B.)._.M.>XdXiXuXJ.[.J.p.",
"Y.).p.e.K.Z.n.'.{.).C.' E x W E 3.S.c.N.e.B././.Z.) 3 3 7 h 3 2 3 3 @ o * X.h ..@ 7 h 3 & @ @ O 6 h 9.k./.4X/.V.>XsX9XsXK.{.C.3.",
"K.C.e.f.).Z.c.4X`.C.Z.] W W ' ' c.`.N.N.e.S.Z.B.k.c = 3 k T T k 7 3 - O 3 W - X.@ 7 7 3 - # & # h h e.t.Z.)./.r.Z.Z.Z.:Xc.C.J.w.",
"Y.K.3.x.{.:Xc.{.`.Z.Z.' W x _ ' N.{.S.S.c.'.'.'.M.) = 6 k T U X. .3 - O o - c X.@ 6 h 6 ; O @ # h 8 r.k.B.B.^.r.^.B.'.`.c.M.C.p.",
"2XK.3.3.[.5Xn.5X).'.Z.x x x n ^ c.4X:X'.C.>X'.).M.W ; 7 ` O.` !.!.X.y 3 7 t.) X.O 7 8 3 ; @ & & e 7 k.B././.B.r.^.Z.4X9XC.K.C.p.",
"<XU.3.<.J.K.V.sX).).B.W W x n ^ p.4X{.).c.'.|._.M.W - 3 c m T z.!.T e 7 c k.] X.O - 3 & - @ & * h 7 M.B.Z.B.^.r.~.^.).9XJ.).n.p.",
"2X<Xb.<.).`.Z.eX|.).w.] ' ^ ^ ^ V.7X4XeX].6X>X>X(.] ; 8 w ^ ^ !.!.c c ) y x ) X.O * - @ & O O * z 8 Z.Z._.|.'.r.^._.'.9XJ..XH.3.",
"<X Xp.n.1XZ.c.6XeX4XZ.<.' e.a.<.C.8XK.9XC.>X'.'.B.] - 6 e [ ` u.y.c ) X.y 3 ) t.@ & - & * # @ - x 7 M./.'.>X}.M./.{.).).V.].H.p.",
"T. Xp.<.M.B.e.'.0X_./.Z.r.Z.[.C.].4X1XuXK.8X9X>XA.' - 6 c c b o.t.b b h e t.] 9.@ # - - - & O * x 7 r.l.M./.|.M.B.Z.).).c.].V.3.",
"Y.Y.6.3.C.c.c.'.>X>X>XeX9X4X9X9X9X4X1X2XY.1X4X{.'.e.- ; 6 w z ` ..v h 6 e X.) ] @ @ - & - & o # y 3 M.t.M./.^.r.Z.B./.).a.K.n.3.",
"H.Y.3.e.Z.N.e.Z.B.^.).Z.Z.Z.Z.V.C.C.H.K.p.J.C.J.).3.; 3 3 n z  . .v b T 6 - h ) O O # # * @ o @ y 3 <._ } 0.r.<.r.e.r.M.e.V.p.^ ",
"F.H.3.3.K.Z.3.M.M.Z.K.J.Z.K.K.J.H.H.K.Y.s.H.K.K.H.C.n.n.a.n.a.M.M.p.3.e.&.^ -.-.~ ~ ^ ~ -./ / ^ <.<.,.-.3.3.e.c.V.V.V.V.p.H.F.2.",
"x.H.3.3.S.Z.e.^.B.^.'.|.|.4X{.).).).K.[.n. X2XyX1X.X).).Z.M.M.r.9.^ / -.~ n s n &.n n x E E E x E _ { ' 0.0.M.Z.).{.Z.].n.2XY.6.",
"K.Y.p.e.C.Z.a.'././.}.|.'.).Z./.K.).[.1XF.2X8X7X1X7X1X>X).Z.N.e.9.' W n n M s ~ 6.n x x E E / Y p ! { ! { 1.g.g.Z.V.Z.[.n.].P.6.",
"K.Y.3.x.K.).c.>X>X|.Z.Z.C.c.c.C.m.[.1X2XH.7X8X8XuXsX9X{.:X/.B.r.r.<.,.&.^ n n ~ G.&.E E E Y Y E E ! { { <.g.N./.|.'.{.7XC. XY.5.",
"U.P.x.n.K.[.C.6XeX|.{.C.e.3.p.c.K.8X1X1XP.yX2XiXdXsX:X).'./.B.} 9.9.,.&.&.n ~ ~ 7.-.E ! ! ! ! ! ! Q 1.v.f.f.N.B.'./.{.1XY..XY.s.",
"2X<Xm.c.[.{.C.{.0X>X/.^ n p n n p.1X[.[.H..X1X8XdXiX:X'.'.(.(.B.0.<.0.' 2.E ~ &.p.-.^ / { { / Y Q E Q 3.1.0.g.N.>XZ.[.[.H.1XY.n.",
"T.Y.b.e.).{.M.>X'.>X).E p p i E e.5X[.[.H.1X[.8XuX9X7X4X4X'.~.k.0.' W ! ^ E &.-.6.-./ ,.,./ Q Q Q ! Q d.f.f.g.B./.{.{.1XK. XY.n.",
"Y.Y.b.x.Y.).V.6X6X6Xc./ E i u s x.8X1X{.m.[.K.8XiXuX1X[.'./.B.k.t.] W W ,.,.&.6.b.6./ / ! ! ! E Y Q Q / { 1.g.N.).{.{.4XH.7X].H.",
"Y. Xb.x.K.K.c.0X9X6Xc.-./ W / W 3.8X8X1Xn.[.K.8X1X<X[.K.{.M.B.g.} ' W W / 3.b.b.b.6.3./ / ! ! Q Y N E / { { 0.N.).).).[.n..X].n.",
"U.8XF.H.<X[.V.{.'.4X).' n / ,./ x.8X1X[.n.K.C. XK.Y.K.N.C.v.C.f.} ' ! W &.,.6.b.6.~ 2./ / ! { { ! E E ^ { ,.e.f.S.).[..XH.1XY.n.",
"[.<XH.x.U.:XH.5X5X8XK./ i p E n 3.`.K.K.,.-.,.3.2.-.-.~ ~ ^ E E s p u t w u d d u u s u u t u t t r t u u p n ~ -.-.,.3.p.].K.a.",
"K.8XY.x.1X<XH.qXiX8X[.,.E n / E 3.K.K.S.3.C.m.P.T. XU.b.H.K.F.b.b.b.p.3.3.2.b.x.6.6.b.b.b.3.3.6.6.3.6.6.6.6.b.n.F.P.P. Xn.].H.p.",
"[.pXH.e.[.1XY.iXiX4X).<./ ^ -./ p.[.`.m.2.x.6.m.b.F.b.3.3.3.,.-.-.3.,.&.2.&.&.>.&.^ 2.3./ / / / >.^ ^ &.&./ ,.2.6.G.b. Xp.K.H.3.",
"K.7XK.e.K.K.m.sXiX1X[.e.3.-./ ^ p.`.K.v.,.x.x.H.b.p.x.x.p.3.x.<.<.3.-.,.2./ &.2.2.~ / / =.2.E E &.&.&.&.&.E ~ &.2.6.b.F.6.H.H.p.",
"<X<Xm.3.K.S.m.iXsX4X{.:XK.C.C.v.c.`.`.C.6.3.F.F.m.x.x.3.2.x.3.,./ 3.2.p.2.-.&.2.5.8.6.&.&.8.&.~ &.&.&.^ ~ s ~ ~ ~ &.6.-.5.H.P.p.",
"<X<Xx.3.K.{.n.dXdXdXdXeX6X:X{.{.:Xc.c.N.3.b.K.H.K.C.e.e.e.3.e.,.^ ,.6.6.2.2.~ *.6.b.7.7.~ &.6.~ ~ &.=.~ ~ ~ ~ ~ ~ 2.b.6.2.H.P.s.",
"K.[.m.e.K.S.n.dXfXdXrXwX>XS./.Z.'.M.c.x.2.p.x.x.c.S.x.3.3.<.3.' / ^ ,.,.&.2.2.5.b.G.7.2.&.~ &.~ n 2.*.:.%.~ &.&.~ &.2.,.2.F.H.b.",
"K.<XK.c.K.Z.C.9XeXwX'.Z.B.(.'.B.:XS.K.v.&.-.,.x.3.x.,.,.3.,./ ^ ^ ^ ,.-.2.2.2.6.b.6.6.8.:.&.&.~ ~ *.:.8.2.~ &.&.%.:.2.2.&.n.F.p.",
"K.<Xm.x.K.`.V.'.4X>X_./.A.B.k.B.g.S.v.e.,.3.x.m.3.-.-.2.e.,.&.-.&.,.,.&.2.2.&.2.6.2.b.2.~ ~ &.&.s s *.2.%.^ ~ ~ ~ ^ *.3.2.F.F.5.",
"C.<Xm.v.1X9Xp.{./.|.(./.k.k.k.B.g.N.g.e.-.p.p.p.3.2.2.3.2.,.-.2.2.-.2.&.-.:.&.&.6.2.7.:.&.&.^ &.s s *.:.~ ~ ~ %.~ ~ ~ &.2.n.b.2.",
"U.<Xm.m.K.:Xn.>Xl.l.~.(.l.i.k.h.g.0.e.0.-.e.6.p.p.p.e.3.2.3.,.-.3.2.2.3.,.6.2.2.7.&.2.2.&.2.&.&.&.M ~ *.M s ~ ~ ~ ~ ~ ,.-.x.b.:.",
"[.2Xm.C.[.S.,.<.` ] ] ] ] ` _ _ ) _ { { E ^ &.,.&.&.-.&./ / / ~ ~ ~ n n E &.~ s =.d s ~ s u u u u u u u u u d s u u u s n ^ n s ",
"K. Xb.p.Y.c.O.k w Y &X*X=XY w t *X;X;X#.u t #.-X*XQ.w t a Q.&X*XY 5 5 #.=X-XQ.t q Y Q.&X&Xa q t *X-X=X@.t t | *X*X$.t w t Q.&XW.",
"C.U.3.x. Xc.t = < oX+X+X, @ $ W.%X#XL $ 9 D +XI H : # > J oXR.V @ o B oXOXR.= @ , oXoXR.: @ = W.$X@XF * 7 D I I L > @ : J oXR.f ",
"x.U.p.3.Y.N.w 1 oX$X$XB # $ P %X#XK @ @ Z W.oXA > = : J J R.f # o B J oXH @ @ 1 @X$XOX1 $ = P #X#XK @ @ B W.+XL > = $ R.+XE.< o ",
"3.n.3.&.m.<.0 C C S > o @ B L R.C o O < F A A = @ # V F F 1 # @ 1 G F C O o % A A C : o @ V F R.C o @ < F G G : O @ V H L < @ O "
};
