/* XPM */
static char *cement4[] = {
/* columns rows colors chars-per-pixel */
"64 64 209 2 ",
"   c #0D0B06",
".  c #0F0E08",
"X  c #110F08",
"o  c #110F07",
"O  c #111007",
"+  c #14120A",
"@  c #18150A",
"#  c #1D1A0C",
"$  c #1A1807",
"%  c #1F1B10",
"&  c #211D0D",
"*  c #24210C",
"=  c #2A260D",
"-  c #2B2809",
";  c #36310B",
":  c #3C360C",
">  c #23211E",
",  c #272312",
"<  c #362D1B",
"1  c #38301F",
"2  c #332F0B",
"3  c #2A2821",
"4  c #312E25",
"5  c #343225",
"6  c #3C3424",
"7  c #363429",
"8  c #3B362B",
"9  c #3C3B2C",
"0  c #3D3824",
"q  c #3E3B31",
"w  c #3A3731",
"e  c #433E10",
"r  c #413B0C",
"t  c #433C26",
"y  c #433B2E",
"u  c #4B3E2C",
"i  c #403421",
"p  c #423E33",
"a  c #423F38",
"s  c #483E31",
"d  c #3E402C",
"f  c #4A440B",
"g  c #534D0C",
"h  c #5B540C",
"j  c #5F590A",
"k  c #575307",
"l  c #4A4211",
"z  c #544B17",
"x  c #625D0B",
"c  c #66610B",
"v  c #6A630B",
"b  c #746C0B",
"n  c #746A0F",
"m  c #7C750C",
"M  c #7F790A",
"N  c #746B12",
"B  c #7E7511",
"V  c #7D751B",
"C  c #40422E",
"Z  c #4B4327",
"A  c #54452E",
"S  c #534C25",
"D  c #444334",
"F  c #4B4434",
"G  c #464835",
"H  c #4B4A36",
"J  c #45433A",
"K  c #4A453C",
"L  c #4D4A3C",
"P  c #524634",
"I  c #554A34",
"U  c #594C36",
"Y  c #504739",
"T  c #534C3C",
"R  c #5B4E3B",
"E  c #4F503B",
"W  c #55523D",
"Q  c #5C523D",
"!  c #5E5839",
"~  c #5C5726",
"^  c #62533D",
"/  c #69563C",
"(  c #6D593E",
")  c #65543B",
"_  c #685A32",
"`  c #756E26",
"'  c #7E7826",
"]  c #6A6426",
"[  c #4A4740",
"{  c #4D4A43",
"}  c #4F4C48",
"|  c #534D43",
" . c #594F40",
".. c #524F49",
"X. c #555244",
"o. c #5C5444",
"O. c #5C5A44",
"+. c #55524B",
"@. c #5B564A",
"#. c #5D594C",
"$. c #575A43",
"%. c #565552",
"&. c #595751",
"*. c #5C5A53",
"=. c #5E5D59",
"-. c #635643",
";. c #685642",
":. c #645945",
">. c #6A5B45",
",. c #615749",
"<. c #645B4B",
"1. c #6A5E4B",
"2. c #715E45",
"3. c #715F4A",
"4. c #635D52",
"5. c #695F52",
"6. c #615F5A",
"7. c #5E604C",
"8. c #63624D",
"9. c #6C624D",
"0. c #686045",
"q. c #73634D",
"w. c #79664E",
"e. c #77684F",
"r. c #79684F",
"t. c #656255",
"y. c #6C6353",
"u. c #676953",
"i. c #6C6954",
"p. c #64635A",
"a. c #6B665A",
"s. c #6D6A5B",
"d. c #736652",
"f. c #7A6751",
"g. c #756954",
"h. c #7B6B55",
"j. c #71675A",
"k. c #746C5B",
"l. c #7B6D5A",
"z. c #6E7059",
"x. c #75725D",
"c. c #7D715C",
"v. c #6C6A61",
"b. c #6A6967",
"n. c #746E62",
"m. c #786E60",
"M. c #757164",
"N. c #7D7362",
"B. c #7D766A",
"V. c #7F796C",
"C. c #787465",
"Z. c #7F7B71",
"A. c #827A0C",
"S. c #85780C",
"D. c #847B10",
"F. c #877C13",
"G. c #847E23",
"H. c #816E57",
"J. c #816F5A",
"K. c #847057",
"L. c #83725C",
"P. c #88765F",
"I. c #84785E",
"U. c #837563",
"Y. c #897762",
"T. c #857965",
"R. c #8A7A65",
"E. c #817769",
"W. c #847A6B",
"Q. c #8B7D6A",
"!. c #917E68",
"~. c #867D71",
"^. c #8A7F71",
"/. c #8C830C",
"(. c #978C0E",
"). c #8C8310",
"_. c #968912",
"`. c #9B9111",
"'. c #9E930D",
"]. c #A5980F",
"[. c #A49911",
"{. c #A39510",
"}. c #B3A615",
"|. c #8B8324",
" X c #9A9323",
".X c #928926",
"XX c #A49C25",
"oX c #A99F26",
"OX c #ACA327",
"+X c #8E816E",
"@X c #92826D",
"#X c #8D8273",
"$X c #8D8479",
"%X c #928573",
"&X c #948975",
"*X c #9A8974",
"=X c #918779",
"-X c #958A7B",
";X c #998C7B",
":X c #998771",
">X c #9C917E",
",X c #A0937E",
"<X c #A08E78",
"1X c #948C80",
"2X c #998E81",
"3X c #9C9284",
"4X c #A49A8B",
"5X c #A19689",
"6X c #ADA494",
/* pixels */
"U.U.U.m.W.R.l.d.1.o.T #.{ ~.$X1X;X$X#XW.c.l.1.o.T +.| { { +.+.} { +.| L J J K K G L $.X.o.s.y.N.#XU.k.1.l.d.w.1.-.1.;.^ ;.^ Y y ",
"U.R.L.R.U.R.L.w.1.o.o.1.#.W.;X2X;X^.W.@Xl.L.9.o.W L K { { ..{ { K K H J J 0 K L G J G H W k.c.R.&X#XU.y.d.3.w.2./ / / / / ) A 7 ",
"U.U.R.U.R.J.L.h.w.1.o.g.4.#X3X2XR.N.N.R.h.g.>.o.T H K ..{ { { [ [ K H H C G L 0 d G E E o.i.U.@X&XU.R.y.h.w.2.>./ / / 2.( ) A t ",
"U.U.@X*XU.l.l.d.w.1.o.y.#.^.W.;X#XR.T.R.h.w.>.Q Q T L +.K K { { K K L G d 0 0 0 d C H W T O.N.@XU.U.R.y.h.h.>./ / / / ( / ^ A t ",
"U.U.R.@XU.L.U.d.w.o.o.9.4.N.N.3X#X&XR.L.h.h.1.R Q T | K K K { [ K K H J J 0 7 9 J G L W H o.c.@Xl.J.Y.y.h.w.;.2.2.>.>./ / ^ A 7 ",
"l.R.,Xc.k.U.L.d.d.o. .1.X.N.W.#X;X&XU.R.L.L.w.>.>.W Y K K K { { K L L G J 0 0 0 J G G W W W 8.c.l.d.J.y.L.H.f.^ ^ Y R I I Y t 1 ",
"g.d.9.k.g.y.L.h.l.1.1.o.+.k.W.^.W.&XU.U.L.L.h.9.9.T H | { K ..[ { +.L G J d 0 d d d J J H W 9.9.h.d.h.1.J.h.>.l.-.9.1.-.>.Q Y < ",
"g.9.1.c.g.l.g.d.h.1.#.o.| y.N.#XR.W.N.U.l.w.c.1.9.o.H K { K +.{ | +.L L G 0 G d d d C H H Q -.g.l.d.J.1.L.3.>.d.H T J H y H Y < ",
"h.h.9.9.g.k.l.d.d.>.T -.o.t.N.$XW.W.U.T.g.d.g.y.i.o.T X.K a K { { { L L G d J C C C J H H W 9.9.l.l.L.y.l.h.1.U.o.K K T 7 T I 1 ",
"9.w.9.9.d.y.h.h.w.9.o.9.#.k.x.W.V.W.l.i.i.k.1.y.1.o.O.X.| K K { { L L E L d G J J G C H L L O.1.g.y.U.j.U.l.y.U.o.L J J H H I 1 ",
"g.h.g.9.g.c.h.h.f.w.o.1.| #.#.4.#.#.X.X.J | X.L L L K J K a a K a q 0 0 0 7 5 5 7 0 5 0 0 0 J L T T #.1.U.U.l.U.| a 7 7 0 H Y 7 ",
"l.h.9.9.g.L.c.d.h.w.o.-.| B.n.M.Z.M.n.a.p.v.v.s.s.s.t.t.t.*.6.t.p.p.*.+.#.&.X.#.+.+.X.+.+.+.#.1.t.M.n.t.N.L.h.k.o.H J J J Q ^ t ",
"g.c.9.g.c.T.R.h.h.9.1.1.X.a.a.s.M.p.#.#.*.t.*.#.p.y.t.#.#.X.#.#.+.+.{ K L L { { L K J K K K L L X.t.s.4.k.d.d.W.o.L K T H o.-.7 ",
"k.h.g.c.L.U.T.L.U.l.,.y.| M.B.n.a.a.a.a.4.t.p.p.s.s.4.#.+.X.#.X.*.+.{ J { { L L L { K L +.a K J K *.t.| y.9.9.W.5.1.#.o.| o.Q y ",
"U.T.c.c.c.c.T.R.U.k.5.k.#.B.a.p.4.a.*.4.| #.v.v.s.p.v.t.+.#.+.+.*.+.{ K { X.{ L { { K K K K K { *.&.{ { k.9.d.W.#.1.#.| | 1.1.u ",
"+X>XR.R.T.U.R.R.R.k.y.m.#.m.k.s.s.k.1.t.#.#.1.y.y.s.M.s.X.+.+.{ { { L J L { { +.*.[ [ K a q [ K { %.*.p.W.k.d.^.#.| L L K 1.9.H ",
"&X;X&X;X+XU.U.U.@Xl.j.U.4.W.W.#XW.y.y.1.-.1.1.1.y.1.y.M.t.p.{ K K [ +.K a { { +.=.{ K K a 0 7 w [ =.v.*.1.k.9.#XU.y.k.a.y.k.h.Y ",
"^.;X;X;X&XR.Y.U.@Xl.y.m.#.^.#X;XW.c.g.-.1.g.1.Q Q -.1.p.*.*.{ { | +.{ K L { | *.%.{ ..+.K K a K %.%.b.*.1.9.d.R.&X&XR.&XR.U.w.Y ",
"2X5X;X&XR.R.R.U.R.d.y.N.o.R.T.;XT.T.c.w.>.w.-.I R T o.+.W +.L { { { [ | | { { 6.*.{ +.&.K K K { =.=.=...y.g.g.c.d.l.h.f.w.>.;.Y ",
"1X-X&X;XU.R.L.l.l.d.5.l.#.U.U.R.R.c.w.^ ^ R A A Y X.| #.+.X.+.+.+.[ { ..+...{ &.*...[ =.K K =.*.K *.%.q -.d.g.9.1.9.w.h.h.w.3.R ",
";X&X;X;XR.U.U.h.L.1.y.d.o.c.g.h.L.h.>.^ ^ I u u u 4.a.+.X.| +.+.+.{ ....&.| { +.b...K +.a a ..*.K { a K 1.9.g.g.w.h.f.h.r.f.f.1.",
";XU.&X+Xh.l.c.g.g.1.1.d.o.c.U.T.h.9./ ^ Q Y A A A o.| K | | +.| +.{ [ K [ { [ [ { a K +.K a a a [ a K K -.9.w.w.h.r.w.r.r.r.3.;.",
"W.U.U.l.h.9.w.1.d.-.#.y.| g.g.l.d.>.-.^ Q Q I I A T | +.+.{ +.+.| | { K K K a a J 7 K { *.&...K K a a { o.d.-.g.h.L.h.h.h.2.w.-.",
"U.c.g.9.9.g.9.1.d.o.#.y.X.k.y.g.y.-.-.Q o.^ Q Y Y R L T a { | | | +.K K a K a a +.{ K { 6.p.p.K K K K K X.o.-.h.w.w.L.h.L.2.w.;.",
"g.9.-.-.-.-.9.o.-.o.o.k.X.i.t.1.d.1.o.o.W T T H T T T T K | K { K { K K K [ K [ ..{ q K [ +.L a q { K a L 1.-.-.-.o.O.1.y.1.1.R ",
"1.o.Y T o.-.-.Q -.o.#.M.+.a.a.t.1.#.#.#.#.T T L X.o.#.X.{ #.#.| K K { K K { K K K K J K +.&.L 0 a a +.K #.1.1.y.#.X.X.o.#.t.h. .",
"-.T T T -.Q Q Q -.O.o.y.X.k.t.4.#.+.o.o.X.K L L { X.| | L | { L K K K J K a K K K { K K =.*.K q q q { +.t.1.o.1.0 0 a 0 q L d.R ",
"W H Y H Y Q -.9.-.o.o.4.| a.t.4.4.1.#.#.{ { L { +.+.| | | { { K K K { K { L K K K { K K *.p.L 0 q q J q W O.o.y.q 0 7 7 7 o.d.R ",
"Q Y H Y Q Q >.>.d.1.4.a.| #.+.#.+.+.| { { K [ [ { { [ { { { { K K K { K K K q K } [ { { { +.+.a K { K K #.g.o.k.K 7 7 5 y R w.Y ",
"Q H H Y Q ^ -.w.h.1.#.y.#.y.1.1.y.1.1.o.| L L K L T T R T T K K K { L J J J J K *.L X.K q q K J a J K J #.y.-.k.K 0 0 y H R w.R ",
"Q Y Y Q >.e.w.w.l.1.4.l.#.U.k.g.y.d.9.1.-.o.o.o.o.o.1.-.^ T | T K { X.W L J L X.t.#.{ L X.J K J L L W L 1.9.-.x.a a 5 y H -.h.I ",
"9.Q I R >.h.h.h.d.k.a.k.#.L.l.R.l.h.h.1.-.-.o.o.-.-.w.>.^ R  .R L | o.X.E X.X.7.i.7.7.t.u.W #.J L X.O.X.g.k.1.k.4 7 7 7 H T f.^ ",
"w.>.I Q >.w.h.L.d.d.y.k.1.R.L.L.J.h.h.>.-.-.-.-.>.-.>.>.;.I Y o.o.T 9.1.8.i.O.7.s.u.O.O.7.$.X.H o.8.8.#.k.k.d.d.a H y a H o.h.-.",
"w.w.w.^ w.H.H.L.l.d.y.l.1.R.l.h.J.l.J.L.h.e.w.w.h.h.r.r.2.>.T ^ o.K 9.g.x.x.8.z.x.i.O.8.u.s.u.i.8.8.k.4.W.+XN.N.| H H T 7 1.L.-.",
"h.r.w.r.L.3.r.L.R.U.k.N.4.@XL.L.J.Y.d.L.w.r.>.9.w.h.r.H.w.;.^ ^ o.Q k.x.8.s.8.8.8.i.i.O.s.8.7.8.s.y.s.a.#X;XU.U.o.T K Y o.1.J.-.",
"l.h.3.>.>.3.1.w.U.g.k.R.5.L.U.l.Y.J.J.Y.h.h.c.h.w.w.H.h.>.R Y ^ Q 1.y.c.k.i.s.u.z.z.7.W $.8.8.1.i.y.y.4.n.W.R.U.R.k.d.9.l.g.h.^ ",
"l.h.d.d.w.w.l.l.R.k.1.U.#.J.l.h.l.h.l.l.U.h.l.l.L.L.T.w.H.h.-.>.o.-.k.k.N.i.i.s.C.8.X.W W o.W 1.y.y.M.#.m.W.c.T.R.R.R.@X!.Y.h.R ",
"l.U.l.h.d.d.h.d.l.d.1.d.T 1.-.-.-.-.1.d.1.9.1.y.k.k.c.d.l.9.-.>.o.o.-.o.o.X.| o.t.X.X.L L H H 8.1.o.#.L 1.1.1.1.1.1.1.d.h.d.-.s ",
"N.l.l.g.l.l.l.y.y.,.,.1.H 1.#.o.#.1.| y.y.y.a.a.a.y.4.| *.4.,.5.y.t.| *.#.#.#.#.#.#.#.X.L o.o.| o.#.#.{ 4.#.#.y.y.j.k.k.m.m.a.| ",
"l.l.l.d.h.l.d.d.d.,.,.1.T w.-.Q >.-.o.N.n.W.#X^.W.N.d.1.y.d.d.f.h.1.-.s.y.y.y.k.V.k.y.t.X.1.-.Q -.9.d.| y.1.9.d.h.U.l.U.R.@XU.#.",
"W.U.U.l.d.g.h.h.l.,.,.w.Y >.^ ^ -.1.#.N.B.~.~.W.N.N.k.1.y.h.h.h.h.h.o.1.1.9.y.k.1Xk.a.k.1.1.w.-.Q w.d.| 1.O.1.-.1.1.d.L.U.l.m.#.",
"W.N.k.l.g.c.l.c.U.d.1.y.T w.-.>.w.d.#.W.~.~.#XT.W.W.N.1.j.h.h.h.Y.L.y.y.d.d.d.c.4X#XW.W.1.y.w.w.>.g.c.o.d.g.9.1.9.1.1.d.j.k.a.#.",
"B.k.k.k.9.L.L.c.R.y.1.l.| l.9.9.T.l.4.N.~.~.B.W.W.n.1.T y.h.L.3.l.U.y.y.d.1.9.k.;X+Xk.W.y.k.L.L.g.h.U.a.T.g.9.g.o.o.| 1.t.a.N.4.",
"#XN.N.d.g.h.c.w.U.k.5.d.| g.>.d.g.d.+.a.n.n.n.k.n.a.1.| y.L.R.R.l.L.l.4.t.1.y.a.W.N.s.k.t.N.L.h.9.w.d.y.L.g.1.y.7 0 7 a J +.~.v.",
"B.c.g.1.9.h.g.d.g.k.y.d.#.R.c.c.l.k.t.W.-X#XR.R.W.N.g.1.n.Y.L.L.h.w.-.d.w.9.l.L.*XR.U.&Xn.n.l.h.w.g.g.y.R.c.9.1.7 0 7 q K #.W.n.",
"N.c.k.y.9.9.g.h.U.N.k.N.1.T.g.c.g.k.a.#X$X^.R.@X&XT.h.-.y.l.L.J.L.h.-.1.h.L.h.@X*X*XU.U.4.k.c.g.0.w.w.o.l.g.9.9.J a 0 J 7 #.#Xn.",
"V.W.c.i.9.g.d.g.T.N.n.k.1.@X>.>.g.N.k.-X;X;X&X*X@XY.h.-.k.f.L.H.h.f.-.y.h.R.:X*X<X*X&XT.y.k.h.e.>.-.9.X.h.d.9.g.L y a K a a.#Xs.",
"#X&XW.c.k.g.g.w.h.k.B.N.#.&Xy.I.h.T.k.#X&X@X@X@XL.L.h.-.y.h.Y.H.h.h.-.9.h.h.R.@X@Xh.+XU.y.g.h.h.9.-.9.| g.g.9.y.T a 0 q | 4.W.a.",
";X#XW.k.g.c.h.g.U.M.k.9.L L.c.9.-.9.y.R.R.!.:X*XR.h.w.R 5.w.f.h.h.h.-.1.>.>.h.h.h.L.T.U.1.9.>.>.-.-.1.X.9.w.1.9.K a 0 a J p.W.5.",
"#X>X;Xc.c.c.g.l.T.s.k.N.+.T.c.9.o.>.| 4.1.1.1.5.1.,.o.H y.h.J.f.J.L.-.T T Y o.-.,.1.5.4.X.1.-.-.^ -.d.o.y.9.1.8.L a J L { v.W.4.",
"3X4X;Xx.c.N.c.g.x.t.k.i.L 1.9.y.g.h.y.R.~.R.T.R.h.R.c.-.1.d.d.r.h.R.1.y.l.w.h.L.L.U.&X>Xy.y.-.-.1.9.9.#.i.1.1.y.L J J { { 4.N.#.",
"3X4X>XN.k.k.y.i.k.1.s.g.K d.R 9.1.y.t.W.W.L.L.R.H.w.w.o.y.h.L.H.J.U.1.y.g.>.e.K.L.h.T.U.o.y.Q Q -.1.1.o.i.O.o.1.T X.o.#.#.a.N.+.",
"4X3X2XN.k.y.9.i.x.1.y.g.| >.Q 1.d.g.t.W.#XN.@XR.L.f.w.Q 4.c.c.h.d.R.y.c.h.w.w.h.U.R.#Xk.o.y.-.Q Q -.-.X.-.T Q 8.y.g.y.k.k.V.B.+.",
"4X3X3XW.k.N.y.c.T.k.y.h.o.1.^ -.9. .#.W.#X+X&X@X!.P.w.-.y.d.L.l.w.U.k.c.L.l.w.L.@X&X+XN.| 1.9.Y Y -.o.L o.o.-.9.g.T.&XR.U.N.N.#.",
";X;X3XR.c.k.g.c.+Xk.y.h.o.>.^ R d.-.K #.4.4.4.1.1.y.-.K y.w.L.h.d.g.y.#.1.1.1.y.k.k.t.#.K o.-.I Y 9.1.#.9.-.9.g.9.l.U.l.U.l.k.&.",
"$X3X6X&XW.l.c.c.T.k.#.-.H w.>.^ h.y.t.W.m.l.N.+XU.R.h.-.y.w.d.w.d.l.g.c.R.R.R.*X>X;X#XW.y.1.^ I I >.9.1.c.9.g.c.h.T.R.T.c.m.j.,.",
"~.2X4X&XR.R.N.d.U.y.,.1.H >.I ^ ^ y.#.d.m.l.N.R.d.w.1.o.y.w.d.h.g.c.y.y.T.R.T.+X;XR.3XW.o.-.>.^ Y R 9.#.d.d.d.g.h.J.R.R.U.U.l.#.",
"B.#X#X#X#X;Xl.N.k.a.4.y.K ^ I ^ ^ 1.X.y.y.k.g.l.w.9.1.-.1.9.w.h.l.h.1.y.l.l.U.c.>X;X1XW.o.1.-.^ I Q 9.#.9.d.d.g.h.h.d.l.U.l.d.o.",
"~.~.#XR.c.+XR.W.d.o.1.j.T -.^ R -.o.| d.l.c.U.L.g.h.g.-.1.9.9.1.c.c.#.d.L.@XR.R.;XW.#XU.o.1.>.>.^ ^ -.#.-.1.d.w.w.d.d.l.l.d.d.R ",
"#.#.4.4.1.#.,.T T K #.1.a H H y y a K | K L | | K T o.H T | o.o.o.o.H L T 1.1.o.#.L T X.q a a 7 u A y a H H K T H T T R R R H y ",
"Z > > ` OXXX' 7 4 Z -.5.H t 4 0 .XXXXX] 0 0 ~  X XG.5 4 7 |. XoXS > > ` OXOX' 5 3 S |.G.|.t 4 5 .XXXOX` 5 5 ~ XX XG.5 5 t |.|.V ",
"+   k './.b & & ; /.! 1.w % * B (.(.b = < z D.D.S.= + * m {.{.g     k ].`.m & & l (.M m = # & B `.[.B # , z _.A.v & + = D.A.A.f ",
"+ f m A.x @ @ : /./.Q 1.J * k `.[.n @ + e F.`.N = # & A././.r + X k S.S.x @ # l (././.l & # k [.}.N @ + l F.).x * & * A.m A.: O ",
"f v c g O   $ k k j T o.7 f c M j     2 v b v * X + g b v ; + @ f b v g O   # k k j - + + f c /.x     ; n v x # X @ g v c ; + X "
};
