/* XPM */
static char *cement3[] = {
/* columns rows colors chars-per-pixel */
"64 64 221 2 ",
"   c #050403",
".  c #080705",
"X  c #0B0907",
"o  c #0E0C09",
"O  c #110E0A",
"+  c #100D07",
"@  c #15120C",
"#  c #1A140E",
"$  c #1D190D",
"%  c #191607",
"&  c #1B1611",
"*  c #1E1912",
"=  c #1F1D1A",
"-  c #231D0E",
";  c #231C13",
":  c #291F16",
">  c #221F1A",
",  c #241B15",
"<  c #26220B",
"1  c #2B250C",
"2  c #2E280A",
"3  c #332F09",
"4  c #3A350C",
"5  c #262115",
"6  c #2A2216",
"7  c #26221B",
"8  c #2C2419",
"9  c #2E291C",
"0  c #32261B",
"q  c #342A1D",
"w  c #3A2C1E",
"e  c #322B12",
"r  c #3B301F",
"t  c #36301B",
"y  c #2B2720",
"u  c #2E2922",
"i  c #352C21",
"p  c #3B2E21",
"a  c #302C28",
"s  c #373123",
"d  c #3C3223",
"f  c #36332A",
"g  c #3B352B",
"h  c #3E3A2E",
"j  c #3F3B30",
"k  c #3F3730",
"l  c #433C0C",
"z  c #402F21",
"x  c #433425",
"c  c #493626",
"v  c #443926",
"b  c #4A3926",
"n  c #433629",
"m  c #483628",
"M  c #443A2B",
"N  c #4B3C2B",
"B  c #513F2C",
"V  c #433D32",
"C  c #4B3E31",
"Z  c #4C470A",
"A  c #544D0C",
"S  c #5C560A",
"D  c #4B4316",
"F  c #584E16",
"G  c #635D0B",
"H  c #695E0B",
"J  c #665915",
"K  c #6C640B",
"L  c #6A650B",
"P  c #70660C",
"I  c #72690C",
"U  c #7B730D",
"Y  c #676010",
"T  c #786D12",
"R  c #4C412D",
"E  c #4B4423",
"W  c #53422E",
"Q  c #57482E",
"!  c #464135",
"~  c #4D4233",
"^  c #464239",
"/  c #4C453A",
"(  c #4D493C",
")  c #524432",
"_  c #5A4633",
"`  c #554935",
"'  c #5C4A35",
"]  c #52463A",
"[  c #534B3D",
"{  c #5C4D3B",
"}  c #56503D",
"|  c #5B523D",
" . c #5F5831",
".. c #695D25",
"X. c #624C36",
"o. c #624D39",
"O. c #675337",
"+. c #64523C",
"@. c #6B543C",
"#. c #6E5A3F",
"$. c #735A3E",
"%. c #736923",
"&. c #4E4942",
"*. c #4B4641",
"=. c #544D42",
"-. c #594E42",
";. c #564F48",
":. c #565143",
">. c #5B5344",
",. c #5D5844",
"<. c #565148",
"1. c #5B554A",
"2. c #5E594B",
"3. c #5E5A52",
"4. c #5C5750",
"5. c #635543",
"6. c #6A5642",
"7. c #635A44",
"8. c #6C5A44",
"9. c #615648",
"0. c #635C4C",
"q. c #6B5D4A",
"w. c #725D43",
"e. c #795E43",
"r. c #705F48",
"t. c #635D53",
"y. c #695E51",
"u. c #635E58",
"i. c #66604E",
"p. c #6C614C",
"a. c #6C6046",
"s. c #746046",
"d. c #7A6146",
"f. c #73634B",
"g. c #7A644B",
"h. c #78684F",
"j. c #666154",
"k. c #6C6354",
"l. c #6D6855",
"z. c #6C655A",
"x. c #6D6A5C",
"c. c #676459",
"v. c #736653",
"b. c #756A55",
"n. c #7A6B55",
"m. c #716659",
"M. c #746A5C",
"N. c #7A6D5B",
"B. c #796752",
"V. c #76705E",
"C. c #7C715D",
"Z. c #6F6A61",
"A. c #736C62",
"S. c #796F62",
"D. c #757264",
"F. c #7C7364",
"G. c #7B756A",
"H. c #7D7A6B",
"J. c #7A7367",
"K. c #7E7A71",
"L. c #827A0C",
"P. c #8B7E0D",
"I. c #81760D",
"U. c #867C15",
"Y. c #867A25",
"T. c #82694C",
"R. c #826F59",
"E. c #826E56",
"W. c #83735C",
"Q. c #88735C",
"!. c #837563",
"~. c #897661",
"^. c #867965",
"/. c #8C7B64",
"(. c #817669",
"). c #847B6B",
"_. c #8A7D6B",
"`. c #917C65",
"'. c #927F69",
"]. c #837E72",
"[. c #8A7F70",
"{. c #8C830C",
"}. c #978A0E",
"|. c #8D8212",
" X c #938614",
".X c #A2930E",
"XX c #AD9E13",
"oX c #A49711",
"OX c #8E8223",
"+X c #958A25",
"@X c #978925",
"#X c #9F9027",
"$X c #A49826",
"%X c #AEA127",
"&X c #B0A526",
"*X c #8D816E",
"=X c #8D8167",
"-X c #93816C",
";X c #958169",
":X c #838074",
">X c #8C8373",
",X c #868279",
"<X c #8B857A",
"1X c #8E8876",
"2X c #948674",
"3X c #918876",
"4X c #9B8A75",
"5X c #928778",
"6X c #948B7A",
"7X c #9B8D7A",
"8X c #998671",
"9X c #9F907B",
"0X c #A18E79",
"qX c #A28C74",
"wX c #A5927D",
"eX c #938D82",
"rX c #9D9182",
"tX c #A29585",
"yX c #AA9984",
"uX c #AA9A85",
"iX c #B3A18C",
/* pixels */
"H.A.=.( 3.0.=.q.6.6.5.6.+.6.f.f.f.f.j.0.y   X @ ; @ X X X O # 0 . X . X .   X # X ; # @ * @ @ @ O @ # 6 ; X X X o # # # ~ q.5.[ ",
"H.D.=.:.1.,.:.6.@.#.#.w.@.@.w.w.s.6.5.6.7 X # @ O # o @ 0 p p ; O 0 p p N x o : # q 7 * * @ # @ O O ; 0 6 O ; * # @ @ # ~ q.5.) ",
"A.j.<.[ 0.| } 6.6.s.w.d.d.w.g.s.6.+.+.6.7 O O # * @ @ q M @ @ O & w B _ w.' O w ; x q ; o @ @ @ @ O ; q 7 o # x > ; ; 6 ] q.6.] ",
"M.j.0.j.2.} ( +.6.s.#.s.s.6.@.s.w.6.6.5.7 X # & & & * d M O # O ; w ' o.g.+.; x ; M x 7 @ @ 6 ; @ O # 0 6 o # ; ; q ; 7 [ q.q.[ ",
"M.j.2.2.i.,.:.6.6.+.#.6.w.+.+.g.w.f.6.+.7 O # * & # ; d M O & O ; 0 ) o.@.+.p x 7 ) x 7 @ * q @ o ; ; i n q o # 7 0 ; ; ~ q.q.{ ",
"l.D.x.[ 2.6.| 6.6.+.' ' ` ` { { 6.r.6.q.7 O @ * * & ; d M O @ O * q C ] @.+.q x : N d 5 @ * 7 @ X ; 0 q n M o 6 N q ; 6 ] q.5.[ ",
"j.j.:.:.0.| | f.f.6.6.| ,.5.6.0.v.Q.q.q.i # * * * * 5 d M O @ O ; 0 ) { w.6.: z ; x n 7 o @ ; o X ; # 7 & q X @ ; 7 : 0 ~ ;.5.[ ",
"j.0.=.,.0.6.[ 6.f.6.| g g g g V ,.!.v.f.y o ; 5 @ * 5 d M O & @ : q X.o.@.$.x x ; N x 7 @ * ; & X ; @ @ & q X @ # q 0 w ] 5.5.;.",
"V.M.:.} i.6.,.6.s.6.~ ~ ! V g V 0./.N.N.u X o ; ; # 5 d M @ * O ; x B @.@.o.0 z ; N x ; @ ; 5 * X ; o @ @ q X @ & w 7 0 ] 9.y.9.",
"M.V.:.} 0.| ,.s.6.f.6.~ M / ( ! 0.*XN.v.u X @ o @ # ; d M @ ; @ 7 z X.o.w.o.@ z * d d ; @ * 5 @ X 5 * i @ v @ 5 q N # ; / q.M.t.",
"D.).2.} 0.6.| s.f.f.p.g u f V g 1.*XN.b.7 O o o @ @ * d M @ 6 @ 0 N ) ;.w.@.: z ; v d ; @ @ 6 o X 6 * 7 @ N @ 0 q N & * ~ j.M.D.",
"F.F.:.[ 0.p.5.f.n.n.v.~ g g ! ! 0.^.N.v.y   o @ O O # d M @ 7 @ 7 N o.@.d.@.z c # q x 7 @ @ 6 O X 5 @ @ @ R @ 0 i N * @ V y.D.H.",
"A.H.1.,.l.b.j.n.n.n.b.[ ! ! ( / j._.N.j.7 ; R ; o # ; d M # q # 7 ) o.@.e.@.x x & i M ~ * @ 7 @ o 5 * 7 @ N @ 0 p M ; # g 9.H.H.",
"M.D.t.2.D.N.j././.!.N.,.[ / =.=.z.>XC.v.u q R d O ; ; d M @ q # 7 N o.@.$.+.# N O p N ~ @ # 6 @ o 5 ; p & R O 7 N ' ; & j 0.M.H.",
"D.).j.0.D.N.m.7X_.^.!.,.=.( / ^ j.).M.j.7 q M d 5 7 * d M @ 6 @ 7 x ' +.e.@.0 c O q ~ ) @ # 6 @ o 7 ; p & N o 6 q ' * & =.M.A.A.",
").eXz.j.[.C.M.7X2X_.D.:.! V / ^ 1.!.q.j.7 ; g 9 q 7 @ x M @ ; # : x M ] e.$.x N O p R ) @ @ 5 O o 7 * 9 # R O w M M O @ / M.z.t.",
").<Xx.M.>X!.z.3X7X_.).M.j.2.t.j.z.).b.0.7 X * 6 q * @ d M @ * # 7 c @.@.e.o.0 c O p R R O @ * o o 7 @ @ * ) @ q N ) O # V y.j.1.",
"(.>Xx.M.<X).M.7X4X-X2X4X_.).3X5X3X*Xb.0.7 @ 7 q ; 6 @ x M O & @ 0 b @.@.e.@.# c O q N R O * * @ X 6 # * & W @ q ~ ~ O ; g 9.y.;.",
">XeXx.j.).!.M.4X-X`.;X;Xn.Q.Q.2XC.!.C.j.i & q ; q ; @ v M @ * @ 0 v @.@.e.@.w c O q N ) O 5 0 ; X 7 ; 7 & W @ q ) ) O ; ~ 9.t.1.",
",X:Xj.M.D.^.j././.`.;X/.Q.Q.C.Q.Q.n.p.,.9 # O @ q * @ v M @ ; o 6 v +.w.w.W z w 0 x ) { 7 * 6 ; o 7 q M ~ o.@ w ) ) O # / q.j.t.",
"[.H.x.x.D.D.m.'.-X-XqX`./.Q.n.n.n.v.6.,.7 # X @ q ; @ M M @ * @ q b +.O.$.W ; w x d N +.{ O & # X 6 0 M C W O p C ) @ # V j.M.z.",
"H.D.z.j.N.C.v.'.`./.;X`./.Q./.^.v.p.,.| 7 * # @ q q @ g C * 6 # q W Q ' O.v ; q p n *.5.6.; & @ 7 x p q w 0 : w N B O ; ^ 0.j.j.",
"D.D.j.0.C.N.j.'.'./.-X`.Q.E.C.n.f.6.| [ 7 ; ; @ q r # v N * ; ; ; 0 q q b q ; w p C &.+.+.d & 7 _ & o O o @ n ; x ) ; @ ] 0.j.t.",
"D.H.0.,.N._.M.8X4X'.-X/./.Q.n.n.f.6.| ` 7 7 i O q ` 9 v M @ # ; # O o @ o X @ x n ) ~ +.6.C & _ _ 0 0 q 0 0 p x 7 n N @ V 0.j.z.",
"V.D.2.,.D.N.M._./._.v.b.0.,.0.6.6.6.| [ 7 7 * g q i ; M M o @ o O o X @ & X # d d ~ &.5.+.7 x ' ) n m x x n n x g 7 p q / 9.t.t.",
"D.D.:.:.!.^.M.-X-X_.D.0.,.=.,.2.j.l.,.} 7 ; O # O @ 6 d ; o o X o o o d ` # # x x M [ @.@.q N N m w x 0 q m m 0 n g ; 6 ,.y.m.t.",
"D.D.0.0.).C.j.-X/.!.M.! V g f g :.p.,.[ 7 7 O & * 6 ; @ X O O X X o o q ` { * x x n ) +.) z p p 7 ; w x x w c : * x i # 1.m.z.t.",
"D.M.0.,.M.!.M.9X^.N.M./ M g M V :.b.6.} 9 @ @ & @ o O 7 x q 6 5 $ O X o 5 +.M x # p ) ) ; ; ; ; * b +.o.o._ p # # # p ; [ M.A.y.",
"D.D.0.p.D.N.z._.-X!.N.( ! M ~ ~ 0.C.6.| *   @ * o @ d w r x 0 6 6 6 @ X * +.x o.# q x 7 & @ @ O p o.' x x _ +.& # & 0 q [ S.m.0.",
"M.z.0.p.D.C.j.2X/.N.C.| ~ ~ [ :.j.!.0.} *   @ * O 6 q q N W W v q 6 ; O 7 ~ ; +.@ q q 7 ; # & # B _ 7 n : q 5.p & q p q / 0.M.0.",
"D.A.2.j.).2Xj._._.N.N.[ ~ M / [ M.^.j.6.9 . @ & O ; q r v W R +.o.6 ; O o ; N +.@ 0 x 0 : O @ # B N 7 ; : 7 o.n 6 0 0 q / 0.m.t.",
",XD.2.2.).2Xz.2X!./.Q.V M M V / j.*XC.p.d q ; @ # ; d x ' O.' T.T.+.x 6 q 6.) +.O q w 6 : # & & N N 7 6 : 0 6.n ; X 7 i ] j.z.y.",
",X[.1.,.D.C.m.tX!.!.n.~ C M V / q.>XN.q.7 ; _ & w 7 p q B C ) g.T.W p q N f.{ +.O ; 6 & ; @ & * N N q q 7 0 +.d . X q i ;.m.j.t.",
"<X[.z.1.(._.N.wX'.!.0.{ [ ~ ~ / j.>X!.!.f 6 o.& x 0 p x p / / g.T.N N ) d M ) 5.O ; ; @ & O O * ~ N 7 x 6 0 6.i o q p i [ A.z.1.",
",X[.j.z.5XN.j.4X0X2XR.,.[ 5.q.=.m.>Xm.D.M 0 o.# 0 6 q p d ] _ e.w.N ) +.d 7 ) 6.@ & ; & * # @ ; ~ M 6 N 6 0 6.d 7 6 0 i ] m.z.t.",
"K.,Xt.2.m.n.0.`.8X/.!.N.0.b.!.M.(._.D.(.V _ @.# w : w p N B W $.6.) ) x d q.{ 6.@ & : ; 6 & O ; ) M 6 d 6 q f.~ & . 7 i / j.t.1.",
"H.H.3.2.M.j.j./.-X-X-X0X4X2X7X5X5X[.(.S.g ; W # q 6 w p p g ) @.6.W B p M r.+.6.& # : ; 7 ; @ * R g # q ; 7 6.d   @ p i / y.t.=.",
"A.H.1.2.N.b.9.n.n.R.Q.N.N.N.N.m.M.m.m.y.y ; ) & q 0 c c p ;.{ d.w.o.+.@.x q ) 6.& & 6 5 7 ; @ ; ' R ; 9 ; 9 6.i @ d p i V ,.=.^ ",
"x.A.1.1.N.n.1.j.j.M.S.N.M.D.S.S.A.A.A.z.M 6 M * q 0 c b ) o.@.g.g.o.+.o.x x { 6.& & 7 7 q 6 @ 5 +.~ 7 d 5 7 6.g q ; q p ~ t.t.&.",
"j.A.1.:.N.n.0.R.B.R.~._._.2X_.!.!.!.M.m.g B N ; w 7 z x ) _ +.d.w.Q B w N r.6.6.& * 7 7 q 6 @ 5 | R 5 d ; 5 | g ; * q p [ A.Z.;.",
"D.H.t.0.N.M.y./.Q.R./.`.!.!.N.N.N.D.S.M.i ; ) ; w 7 x w M n ) +.w.' W x N 6.6.6.& * 0 7 d 7 @ @ * 5 7 d M M M q 9 q i 7 ] z.z.1.",
"D.H.3.j.D.!.j.-X-X'.n.M.j.j.j.M.m.D.!.A.) d C ; p 0 x p g / V +.5.` R ' x +.6.+.& * q q d 7 @ @ # q q ~ | a.q ; 9 7 i 7 ;.m.z.1.",
"H.H.t.z.D._.N.4X0X'./.M.1.,.2.0.D.5XH.A.a : C 0 N p v d M / ~ 6.6.+.N v q | { 6.& & q q d 6 @ @ ; w d R | a.~ @ i * i > ;.A.A.t.",
",X[.Z.z.[._.S.'.4X'.Q./ V g V V t.).S.z.g o @ ; x d v d ~ ` ~ 6.6.q ; d ) w.d 6.* * q q d 5 O @ q v d ` | q.f.7 d ) ) > =.A.A.z.",
"K.H.j.0.)._.M.-X/.-X!.! g g f ! 2.>XD.z.n x O 0 x b w d M ` ` | q X q | ` x q +.* ; w q d ; * * ; ; 9 d M q @ & 7 x +.> <.A.S.A.",
"H.H.c.j.H.!.M.7X4X4Xj.( V g f g t.>X).M.g N O q N B w ; s M M 7 X # ~ ` # ; ; d # ; p w x q 7 6 d ; ; w 7 @ @ * N +.M * =.H.D.A.",
"H.[.c.j.H.!.m.4X9X4Xj.:.[ / / ! 1.>X>XM.g x @ N N c d # ; 7 * o o q 6.; O @ O @ @ & p q M q x q 6 N d b # @ 7 W 6.; ; q ;.S.S.y.",
").eXZ.M.>X_.m.-X/.2X^.[ V ( :./ 2.2X).M.g x # N B b r # 6 q ; @ * R +.9 d M # @ # # p q M 6 d d # M ' x # 6 R +.; ; M d 9.D.A.j.",
").[.A.j.).).A.5X7X7XD.( g g ! V 1.D.M.i.s N # N W b x # q d 5 ; ; R +.R | 5.7 @ # & p 0 N 0 p n * N w : w B ' * 0 _ ) x 5.v.m.t.",
"M.>XH.j.>X>XA.rXtX5X).1.! V ( ! 1.V.b.i.i v # N W B x # q d 5 * # q R ; 7 7 @ @ & * p q m 0 p q ; 0 6 x o.M & 6 ' ' x 6 / m.j.0.",
"D.6XA.0.).>X).rXtX5X^.,.( / =.( j.).C.6.y 7 * N N B x $ 7 q 5 5 q M 5.M @ ; @ @ & ; p p N 6 w 7 ; : p _ x @ & 7 ) w 6 # / j.z.=.",
"D.>Xx.0.D.D.M.tXrX>X).0.2.=.( ( t.D.b.,.7   * ) N B x # 7 q 6 5 7 s ~ M 5 q 7 # & ; p w N w x q ; ; x +.p # # 0 M O 7 p [ z.z.<.",
"H.:Xx.2.D.C.M.tXtX2X_.*XD.M.M.j.j.F.C.6.u   ; ) b N N & 7 5 6 @ v ~ q.{ i d ~ d * ; p p _ 6 ; : 7 0 N o.q # & 0 ) ) W x 1.z.A.t.",
"H.H.j.2.D.*Xm.uXuXuXuXwX4X_./.^.*Xp.0.6.y   ; ) b N i @ 7 5 7 ; d M 5.M ; ; ; ` & ; x 0 _ q q q p 0 p _ 0 * ; 7 o.o.R x 9.z.A.t.",
"D.H.l.0.D.C.m.uXiXuXwX4X_.N.Q.n.^.p.6.,.7   # N x x d O # ; @ 7 q n | d # & # ) @ # w ; N ; 7 : 6 ; 0 N 7 # # ; W N q ; *.A.A.u.",
"x.[.D.j.^.N.M.4XwX4X~.n.n.Q./.n.=XC.b.0.7   # x q 0 6 X @ ; # 7 6 i ~ d @ # @ N O @ 6 # x # & ; ; ; : x ; O O # p O O O =.A.A.u.",
"A.:Xx.j.D.^.j.~.-X`.Q.R.g.n.f.n.p.n.p.| =.D.!._.).>X_./._.2X2X5X>X3X_.3X5X5X>X).j.[.D.A.S._._._.!.!._.*X5X5X>XD.!.N.!.).j.J.A.3.",
"A.:Xx.x.>X7X0./.R.`.Q.E.f.f.f.n.p.b.6.| ( v.f.v.v.b.!././._./.^.^./.^.5X7X2X5X).,.M.S.S.M.>XN.n.f.n.N./.7X3XQ.f.v.b.n.!.t.A.z.1.",
"D.[.x.x.D.*XM.-Xf.g.E.Q.g.w.f.6.p.6.6.| =.0.f.n.N.b.Q./.^._.7X*X/.!.Q.Q.*X>X6XD.,.j.M.M.M.^.N.f.f.v.v.N.7X^.b.b.n.N.N.v.:.M.x.4.",
"D.K.A.M.).N.=.,.' { { ` ` ` ` ` ) ~ [ [ V [ ,.,.{ [ [ 1.0.,.,.1.0.0.q.:.0.( [ ,.V 1./ [ / ,.[ [ ,.,.0.0.,.,.[ ,.,.,.,.[ ! =./ V ",
"M.H.j.t.H.b. .v i E OX+X#XE u s +X&X%X..d d ..#X+X%.q d v OX+X#XE 7 7 %.$X$XY.d q D OX+X+Xv i d #X%X$X..d v ..#X#XY.d d d Y.+XU.",
"j.H.<.j.[.v.g - 4 {.P. X1 @ $ U.XXoXI $ e J |.U K < # 1 L.{.{.A @ O Z {.}.L.1 $ 4 {.}.P.1 @ -  XXX{.I ; t F U.U U 1 @ < U {.L.l ",
"t.H.t.1.H.n.u 4 {..X.XD # $ H XXXXY @ # A |.{.G 1 - < U L.P.l # O Z U  XP @ @ 4 }..X{.l $ - P oXoXY # # D U.|.P e - - I.P.I.3 X ",
"1.j.2.:.z.6.t S G H 1 o O Z K L.S X @ 4 K G G < @ # A K K 4 # @ 4 L K S O X % G K G < O @ A K L.S X @ 4 K G G < O @ A I K 3 @ O "
};
