/* XPM */
static char *cement1[] = {
/* columns rows colors chars-per-pixel */
"64 64 209 2 ",
"   c #0E0C06",
".  c #14120A",
"X  c #19160B",
"o  c #1D1A0D",
"O  c #161407",
"+  c #100E08",
"@  c #211D0D",
"#  c #241F10",
"$  c #25220B",
"%  c #2A260B",
"&  c #312C0C",
"*  c #36310B",
"=  c #3E3A0C",
"-  c #3A350C",
";  c #24231E",
":  c #312C14",
">  c #35321E",
",  c #2C2A22",
"<  c #312E24",
"1  c #343325",
"2  c #35332B",
"3  c #3A362B",
"4  c #3C392D",
"5  c #3A3725",
"6  c #383732",
"7  c #3E3B32",
"8  c #3B3934",
"9  c #423C2E",
"0  c #413C26",
"q  c #423E33",
"w  c #403E39",
"e  c #4B450B",
"r  c #534D0C",
"t  c #5C560B",
"y  c #57500E",
"u  c #474110",
"i  c #534B15",
"p  c #635D0B",
"a  c #62571B",
"s  c #6C640B",
"d  c #6F690C",
"f  c #756B0C",
"g  c #7A720D",
"h  c #7F780D",
"j  c #6C6310",
"k  c #666010",
"l  c #746A11",
"z  c #474427",
"x  c #454235",
"c  c #4A4435",
"v  c #464933",
"b  c #4A4B36",
"n  c #46433B",
"m  c #4A463B",
"M  c #4C4B3B",
"N  c #544C36",
"B  c #5A4C37",
"V  c #524D3C",
"C  c #5B4D39",
"Z  c #4E503B",
"A  c #53523E",
"S  c #5B523C",
"D  c #5E5731",
"F  c #585425",
"G  c #62543E",
"H  c #6A563D",
"J  c #62583F",
"K  c #705B3F",
"L  c #635F25",
"P  c #6B6526",
"I  c #7D7723",
"U  c #494741",
"Y  c #4D4B44",
"T  c #4F4E49",
"R  c #474541",
"E  c #524E43",
"W  c #514F49",
"Q  c #5B4F43",
"!  c #555245",
"~  c #5B5444",
"^  c #5B5944",
"/  c #54534B",
"(  c #5A564B",
")  c #5D5A4C",
"_  c #565944",
"`  c #565550",
"'  c #595750",
"]  c #5C5A52",
"[  c #5E5D58",
"{  c #625642",
"}  c #635A44",
"|  c #6B5B44",
" . c #61574A",
".. c #635C4C",
"X. c #695E4B",
"o. c #725E43",
"O. c #635D53",
"+. c #6A5F51",
"@. c #615F5A",
"#. c #5F624E",
"$. c #5F6056",
"%. c #65614C",
"&. c #6C624C",
"*. c #6E6047",
"=. c #746146",
"-. c #73634C",
";. c #7A664C",
":. c #7C684F",
">. c #77654A",
",. c #656154",
"<. c #6C6354",
"1. c #64635B",
"2. c #6B655A",
"3. c #6D6A5B",
"4. c #6F6853",
"5. c #726654",
"6. c #796750",
"7. c #746A54",
"8. c #7B6B55",
"9. c #716659",
"0. c #746B5C",
"q. c #7B6D5B",
"w. c #75705D",
"e. c #7D715D",
"r. c #656561",
"t. c #6F6B61",
"y. c #686761",
"u. c #746E62",
"i. c #796E62",
"p. c #736F69",
"a. c #757164",
"s. c #7C7363",
"d. c #767168",
"f. c #7C7569",
"g. c #7D7A6C",
"h. c #7F7862",
"j. c #7F7971",
"k. c #787771",
"l. c #837B0D",
"z. c #827912",
"x. c #837C24",
"c. c #816E55",
"v. c #806E59",
"b. c #837057",
"n. c #83735C",
"m. c #89755C",
"M. c #8A785F",
"N. c #837563",
"B. c #897661",
"V. c #857965",
"C. c #8B7A64",
"Z. c #817669",
"A. c #847B6C",
"S. c #8B7D6B",
"D. c #917D65",
"F. c #917F6A",
"G. c #837D72",
"H. c #897E71",
"J. c #907F70",
"K. c #8D820D",
"L. c #93860E",
"P. c #948B0E",
"I. c #988D0E",
"U. c #8D8313",
"Y. c #9B8E12",
"T. c #A3940E",
"R. c #A49612",
"E. c #A59912",
"W. c #AEA013",
"Q. c #B3A215",
"!. c #8D8523",
"~. c #948C23",
"^. c #9B9325",
"/. c #9B9128",
"(. c #A39A26",
"). c #B1A827",
"_. c #8D816D",
"`. c #93826D",
"'. c #98846C",
"]. c #868175",
"[. c #8C8274",
"{. c #868279",
"}. c #8C857A",
"|. c #8D887D",
" X c #938573",
".X c #998772",
"XX c #958976",
"oX c #9A8975",
"OX c #918679",
"+X c #948A7B",
"@X c #9B8D7B",
"#X c #9D917D",
"$X c #A18F7B",
"%X c #A18D75",
"&X c #A2927D",
"*X c #A9967F",
"=X c #8E8981",
"-X c #938B81",
";X c #9A8E81",
":X c #9D9283",
">X c #9B948A",
",X c #9B9487",
"<X c #9B9790",
"1X c #A29584",
"2X c #A49A8B",
"3X c #AA9C8A",
"4X c #A59886",
"5X c #ACA293",
"6X c #B5A898",
/* pixels */
"t.2.Y M ] ..E X.| | J | J o.-.-.-.5.8.q.+.H.Z.g.s.( 0.,...5.q.5.,.5.9.,...O.2.g.g.A.XXs.0.A.0.s.}.2.j.}.=X=X=X2.j.}.H.A.,.Z.V.q.",
"0.3.E ! ( ^ E J J H K o.H H o.o.=.| o.b...XX}.].}.O.q.5.5.q.8.q.5.,.5.5.5...u.A.A.A.V.q.5.V.s.S.A.2.A.-X+X}.>Xt.H.].}.XX9.S.C.8.",
"0.O.! ! ..S E | | o.o.=.=.o.;.=.| J | b...]._.XX].O.s.w.5.q.V.q.5.5.5.8.5.q.S.,.0.s.V.8.5.w.s.V.V.^ g.+X+X+X}.2.H.H.].@X0.S.S.8.",
"0.,.) ,...^ V J | =.K =.=.o.H =.o.o.-.b...V.S.XXXX,.A.A.w.b.V.b.8.8.8.8.-.-.%.5.q.b.V.b.-.-.V.V.q...g.OX].OXA.O.g.H.A.OXu.XXS.q.",
"0.,.( ( %.} ^ | | H K o.=.| H :.=.;.8.8.X.S.S.V.XX,.XXw.8.b.b.v.8.-.8.-.5.-.-.5.b.b.b.C.-.-.b.V.%.^ s.].S.A.i.O.A.A.H.].9.'.S.q.",
",.s.2.V ) } S | o.H B C B C J J | ;.8.C.5.@XXXXX1Xq.oXb.8.8.b.b.8.8.8.8.8.8.8.b.V.C.C.C.b.5.8.w.5.^ s.].H.].H.O.Z.i.H.S.9.XXV.q.",
",.,.! ! ..S ^ -.5.| { { } ^ ..%.^ b.8.C.0.$X@X;X3X0.XXC.b.8.m.c.c.m.8.8.8.c.b.D.'.C.C.b.V.b.V.w.V.( s.Z.A.Z.i.( i.A.i.Z.O.0.V.q.",
",.} V ^ ..} V | -.| { 9 q 3 4 q ..C.b.F.9.S.1X@X1Xq.S.C.b.8.m.c.c.m.8.c.m.v..XoXXXXXXXXXS.'.S.XXS...A.H.A.9.s.O.i.+XZ.s.O.s.V.s.",
"w.0.! A %.} ^ o.-.| | c M x 7 q ,.S.C..X9.'.@X1X3Xq.'.C.5.| ;.c.:.;.8.c.b.b.'.@X@X@XXX@XXXXX@XXXXX2.OX}.g.s.0.O.q.i.H.V.,.Z.].H.",
"0.0.^ ^ %.^ ^ -.-.;.} c c x x V 9.XXC.F.0.$XJ.;X+X5.oXC.c.-.-.;.;.-.o.c.b.q.'._.+X,XS.XX@XC.S.S.S.O.+X-XH.g.i.1.i.q.i.A.2.S.+X].",
"s.A.) ^ ,...^ -.:.;.X.4 3 2 2 q O.XXC.XX...X@XoXoX0.'.M.b.8.8.8.-.-.| -.w.5.5.s.H.].V.S.'.V.S.S.A...+XOXA.A.A.O.s.0.q.V.2.].+X>X",
"A.A.( ^ ,.5...-.8.8.5.4 x 4 q m ..'.C.'.5.@X@XoXoX5.b.b.8.| } { ^ ..V V ^ ^ V ) ^ ) ^ ,.%.5.b.b.V.s.}.}.A.s.s.( s.5.w.S.2.A.2X4X",
"s.A.) ^ 0.w.,.q.b.8.q.q c x M E 2.XXV.S.,.oXXXXXoX5.S.q.5.J q q 7 7 7 m m x x q x m q c V ..8.8.S.i.+XXXZ.9.q.^ q.q.V.V.,.s.,X>X",
"s.A.,...A.w.9._.C.V.0.^ ^ m ! ! 2.+XS.'.5.XX@X@X@X0.C.8.X.S x c q x x m M m x x m m x c V ^ 8.8.v.0.OXA.V.5.5.( S.A.S.w.,.V.}.<X",
"s.A.,.O.A.s.u.,X].S.s.! E m m m O.XXV._.X.S.@X1X@X5.XXw...^ x q 7 q q x m m q x 9 x x c b ^ b.C.&Xs.].S.XXq.b...S.XXXX@Xg.XX+X-X",
"A.,X2.O.].s.u.1X+X].A.E q q 7 m ] S.0.S.,.C.'.&X@X0.,XA.%.^ q x x m m x x M c x q x x c ^ ..b.b.S.s.1X5X1XV.b.O.V.V.XX+Xi.XX].H.",
"A.OX3.0.}.A.2.@X,X].H.0.) ^ ..E 0.S.V.w.,.S.XXXX@X5.@X#Xs.0.) ^ ^ ^ %.} { ....,.3...^ } %.%.X.5.S.g.5X4XV.S.b.O.V.V.S.XX0.Z.].g.",
"g.].2.u.}.A.0.@X@XXXXX@XV.A.XX].XXXXV.b.0.#X@XXX'.q.@X+Xs.5.S S ^ } J S | } } 5.%.} %.w.-.5.5.b.,Xs.6X5XV.V.w...S.S.V.V.O.q.A.i.",
"H.-X3.3.A.V.0.@XXX'.'.'.8.b.V.XXs.A.S.S.0.1X4XoX@X9.XXV.5.,.S ^ S S J %.-.| } w.5.%.w.V.8.8.V._.4XH.4X,XXXF.C.,.V.V.V.V.O.q.V.i.",
"H.H.O.2.s.A.,.S.C.'.'.C.m.b.b.V.V.w.8.5.,.'.'.'.XX0.XXV.w.%.} } } S J -.8.-.%.5.w.5.5.].8.b.,X,XS.g.>Xs.C.'.'.O.q.q.q.V.,.V.S.Z.",
"H.g.3.2.s.V.9.F.'.'.%XD.D.b.8.8.8.5.-.5.%.V.C.S.'.A.4XV.5.X.} } J S J | -.%.| 5.V.%.%.V.-.8._.#X_.u.S.S.S.S.XX9.S._.V.S.,.S.XXOX",
"g.g.3.,.q.w.,.F.D.C.'.D.D.m.C.C.5.%.%.5.%.b._.oXXXs.S.8.%.} ..^ S N N N S J S } } S } q.-.-.8.w.'.,.].XX_.'.XX9.@XS.V.S.,.V.A.].",
"g.g.,...s.q.,.F.'.C.'.D.m.b.b.w.-.%.| -...C.oXoX'.5.S.s.5.^ V N c c c 9 x x x c c 9 N ^ ,.w._.C.'.5.S.#XA.oXq.2.@X@XXXS.,.w.H.A.",
"a.H.....s.S.0..XoX'.'.'.C.b.8.w.5.| %.%...C.'.S.'.9.S.w.^ A x c x m m 3 1 4 q q q q 9 c b ,.#XC.C.5.@X@XS.V.V.9.S.S.@XXX9.q.A.H.",
"g.A.) ) s.q.0.S.S.F.9.,.%...%.%.%.%.%.%.^ q.C.C.XX0.S.s.%.^ V V V ! ( x q q 9 q m x c V A X.b.b.b.q.XXS.V.XXS.s.S.b.@XS.2.q.g.g.",
"g.g.! ! A.V.0.'.XXS.u.) ,.^ ....%.5.%.5...8.b.B.XX5.+Xs.,.%.V V V E E c m m x c V ^ ^ ^ { 5.C.b.C.%.4XXXXX'.XXd.XX3XXXC.0.V.H.g.",
"s.s.O...A.w.,.'.S.V.0.x m 3 q q ^ w.%.5...5.b.B.S.,._.V.5...^ ! x ! M 9 M E m V ^ ( ( } } q.b.b.C.X.@X3X@XS.V.O.1X6X4X;XH.].A.g.",
"w.0.O...0.w.0.&XC.q.0.m q 4 4 x ^ w.5.5...w.b.S.XX,.V.q.8.%.%.....^ ^ V ^ ....X.5.5.5.5.'.&XC.c.C.} S.w.V.V.V.O.S.3X1X,Xi.].].H.",
"s.s...,.s.w.2.S.'.V.s.V q 4 9 x ..V.5.8...q.V.C.'.%.V.8.8.8.-.J N N N c N B S | c.8.b.C.b.oX%Xc.b.0.C.V.S.XXq.,.F.1X;X4Xg.XXA.i.",
"0.2...O.s.s.O.XXC.q.q.^ 9 q V c ,.V.8.5...w.b.b.V...V.8.8.-.| } S S S N N S | -.'.b.'.b.8.8.C.m.b...V.q.V.V.8.( 5.q.q.XX2.q.].V.",
"u.u.....S.XX2.H.S.q.q.c 9 c c V ,.S.V.V.,.C.C.'.C.,.F.b.8.-.-.%.} } } } | } 8.C.&X$XC.C.'.b.C.m.C.,._.V.b.8.8.( q.8.C.S.,.q.S.Z.",
"{.s.) ( A.XX9.oXB.C.q.q q 5 q m E S.'.S.0.'.C.S.C.X.'.b.b.8.8.8.%.%.%.%.%.8.V.@X3XoX@X1X3X'.#Xb.C.9._.'.C.v.8...q.q.XX1X0.V.A.H.",
"{.H.( ^ s.V.9.1XV.V.q.c c 3 9 m ,.].S.V.,.C.'.F.B.X.B.v.b.8.5.V.w.%.w.w.V.XX_.@X3X4XXXXX@XXXXXb.'.i.XX'.V.8.v. .8.v.V.@Xs.S.Z.Z.",
"{.H.2.^ V.S.q.1XF.V.b.m ^ m c m u.OXXX#XZ.oX'..X'.0.F.C.C.C.b.V.b.%.w._.XX@X+X4X5X4X].,X,X4X,X4X@Xi.#XXXXXS.C...c.B.S.@Xi.XXZ.i.",
"{.].,.,.].q.,.oX$XXXq.V ^ Q ^  .s.;Xs.+X0.'.B.F.B.,.C.'.D.C.C.V.V.5._.XXV.XX].+X+X>X,X+X4X#X+XXX,Xu.+X@XXX'.D.+.b.C.V.B.9.S.A.g.",
"{.{.O.( 0.q...C..XC.V.q.q.0.q.V.A.+XH.;Xi.XX@XoXb.X.'.S.b.8.5.V.w.V.s.].H.A.+X+X>X>X+XA.].+X+X_.+Xu.A._.b.b.F.+.8.8.V.V.,.A.Z.u.",
"j.j.] O.q.,.+.C.'.XXXX1X@X+X@X@X@X].].}.g.].XXXX'.q.@XV.XXXXb.V.q.5.w.V.Z.s.H.}.>XA.s.w.0.V.w.A.A.O.S.w.b.V.b.X.v.8.b.V.O.Z.g.9.",
"g.H.] O.s.0. .8.8.v.V.i.q.q.q.9.0.9.u.s.O.s.q.s.A.,.H.q.S.s.,.0...^ E E M m m ! 2.! ( ^ ^ ! ^ 0.2.m O.^ ..X.-.^ X. .X.5. .0.9.O.",
"d.g.] ..V.q.( ,.,.0.s.s.i.g.s.i.u.u.s.g.O.u.g.g.g.g.u.u.2.2.,.O.O.) E ( Y U Y Y Y Y Y Y ) ! ! Y ! ! ( ( ......,.0.9.9.9.O.s.g.2.",
"u.A.) ..V.q. .v.8.b.C.'.XXXXS.V.V.V.V.H.2.H.}.-X}.].Z.A.V.q.5.%.} V E ( m m q m E m m M V M M c M A ^ ! } X.5.q.B.S.s.Z.2.+X}.u.",
"A.H.1.,.s.q.+.C.V.b.F.'.S.V.V.b.V.V.A.].t.}.-X-X].XX].XXV.w.5...{ E m m m m q m ] m x c b b ! x x Z A Z A ^ %.%.q.0.i.A.2.A.H.0.",
"g.H.O.,.s.V.,.'.'.'.q.V.,.,.0.,.0.V.].}.u.+X+X+X;X2X@XS.'.b.8.%.%.( ' Y m m q m y.E M M b x x v M b _ ! ^ %.5.b.'.S.XX+X0.].H.0.",
"H.H.1.3.s.A.0.oX$XF.S.5.E ......s.XX].].d.-X}.,X4X2X_.V.S.b.8.{ } ..( ! ! m m m @.! m A Z b M Z Z M ^ 4.%.%.5.8.C.b.S.].g.OX].Z.",
"=X}.2.,.H.A.q.F..X'.b.c 4 4 q q ! ].A.A.u.H.].-X4X,X].C.C.C.C.8.} ..1.( ! m m Y 1.! M M A A M v M M b ) ^ } %.5.'.q.S.S.i.OXOXH.",
"j.A.,.) A.S.9.'.C.'.q.c 4 < 2 x E S.S.A.u.].H.-X;X@XOXXXXXS.c.-.} V V ! Y M Y W ] ! ! ^ _ b v v M M b #.%.%.%.8.b.S.S.XXg.].OX}.",
"g.g.1.,.g.V.0.@XoX@XV.c c 2 3 7 ,.+X]._.2.A.g.+X,X+X].S.S.b.8.-.| A V E ( ] T [ 1.] ! A b b M v v M v M A ^ %.5.b.S.S.XXu.+XOX+X",
"g.].1.,.s.V.,.XX@XXXw.M V c x m ,.+X+X].2.g.s.+X].].V.s.S.5.5.%.^ V V E ! ] 1.y.y.] ) A Z M b v x x v M A A } ,.w.V.V.A.2.XXOXS.",
"H.-Xu.u.].A.9.F.C.XX0.V m x x E ,.+X].A.1.a.0.H.s.g.s.5.0.5.0.%.^ A V V ! ! ] 1.] m ) A Z M ! Z M x x M Z ^ ....0.s.V.S.0.+X].S.",
"H.].t.,.A._.0.XXoX+XV.x x 4 7 q ) A.V.s.! E ! ] ! Y E x m m x x q 7 3 2 2 2 7 6 2 6 7 4 2 1 2 1 1 1 2 2 2 4 7 m E E E ( O.A.H.Z.",
"s.+Xd.,.].].0.,X,X+Xs.x m x E E ,.s.s.a.) u.2.k.H.H.j.2.a.u.t.1.3.3.O.O.] ' 1.1.1.,.1.1.1.] ] O.] ] ] ] ] O.1.2.t.t.u.H.2.A.A.Z.",
"g.-Xu.,.A._.g.,X1XOXs.V ! M E E ) _.V.3.! ,.] t.2.u.1.) ] ] ! ! ! ,.( E ! Y Y ! ! Y ] $.! Y M Y ! Y Y Y ! Y ! ! ] y.1.j.1.Z.H.u.",
"g.|.u.,.s.A.0.1X,X].A...O.E ! ! O._.h.3.! ,.,.a.2.O.,.,.,.] ,.( ( ) ! ! ( Y ! ( ! Y Y Y Y ! m m ! Y Y Y Y m M Y ` ] 1.y.] g.A.i.",
"A.}.3.) s.w.2.1X1XXXS.A.s.0.,.0.w._.A.w.] ,.a.a.1.2.,.) ( ,...^ Y ] ' 1.( ! ! ! ] ] 1.T Y ] ! Y Y Y Y Y m 7 m m R Y ] Y ' g.H.g.",
"g.H.,.) s._.2.3X3X3X4X&X@X_.S._.XX,.4.0.] 2.a.a.s.a.......) ..! M ( ] O.` ` m W [ y.@.[ U Y ] m m T U m m m m m m ! 1.O.' g.}.H.",
"a.g.3.%.s.s.2.4X6X4X4X%X'.w.b.8.C.5.,.,.! ,.,.3.2.a.,.) ) ^ ..V V M ! ' ! ! ! ] 1.y.[ ` Y U W m w ! T ! Y R Y T U Y ! W ! g.{.H.",
"a.].g.,.s.w.0.@X&XoXC.q.8.m.C.8._.w.h.0.E ! ) 2.] 1.( ! ( ! E m m M ( ! ' ! ! [ 1.[ [ ` ! Y Y m U T ! ' ` R Y T Y ! ` ! W d.H.j.",
"a.].a.,.s.S.,.C.XXF.B.b.8.8.-.8.%.w.5...! ..,.t.) E E ( ) ! Y E E ! ( E ! ] W ` [ ! y.! R U T Y w 7 T ` Y U m R U Y ! ] ! g.H.g.",
"a.].3.3.XX1XO.'.b.F.m.b.-.-.-.5.%.8.5...E ,.1.1.( ! ( O.! ! E ( ! W ! E ! ! ! Y y.] y.` Y Y Y Y m m T ! m m m Y Y U m Y ( a.g.d.",
"].}.u.0.s.XX0.'.8.:.b.m.:.-.-.-.-.| %.%.( ,.2.2.1.2.,.O.( ) ^ ! ] ' ( ] ) 1.! ! 1.W ] ` Y ! ! ! Y w m W w 7 m U m m m E ! u.A.d.",
"}.=Xu.a.].s.^ { C C C C C B B C N N ^ ^ m E ! ! E E ( Y m E E m m m m m m Y R w R 6 7 m 7 7 2 2 2 2 2 2 2 2 6 7 2 2 2 q x E ^ ( ",
"j.}.2.,.A.0.D 0 < z !.~./.z < 5 /.).).P 3 5 P (.^.x.< 1 0 x.!./.z ; ; P /.(.x.1 < z !.!.!.5 < 1 ~.(./.L 1 1 F ~.~.I 1 < 5 x.(.~.",
"g.-X] 2.H.0.5 @ * K.K.L.& . o z.W.E.l o : a Y.z.d $ X & l.K.K.y .   e K.P.l.$ o & L.L.K.$ . @ U.R.P.j o : i z.g f $ . $ g P.I.e ",
"a.}.O.! g.0.< = K.T.R.u X o j W.W.j . X i U.U.p % # $ l.h K.e X   e g L.f X . = P.T.I.= o @ l R.E.k . . u z.U.l : # @ l.L.K.- . ",
"d.d.] ! 2...> t p s %   . e d l.t   + - s p p $ . X r s s = X . = s s t .   X p s p $ + . r s l.t + . & s k k $ + . r g f * . . "
};
