/* XPM */
static char *floor[] = {
/* columns rows colors chars-per-pixel */
"64 64 187 2 ",
"   c #090807",
".  c #0D0C0A",
"X  c #110E0C",
"o  c #13110D",
"O  c #1B130D",
"+  c #151412",
"@  c #1A1612",
"#  c #1D1915",
"$  c #171719",
"%  c #171819",
"&  c #1C1C1B",
"*  c #21140F",
"=  c #221B0E",
"-  c #231611",
";  c #241B14",
":  c #2B1D15",
">  c #231E1A",
",  c #291F19",
"<  c #311E16",
"1  c #1E221C",
"2  c #252115",
"3  c #2C2315",
"4  c #24221D",
"5  c #2C231C",
"6  c #242B1E",
"7  c #2D291B",
"8  c #332216",
"9  c #3D2316",
"0  c #312916",
"q  c #392816",
"w  c #33251C",
"e  c #39251B",
"r  c #34291D",
"t  c #3B2A1E",
"y  c #2C331E",
"u  c #31351F",
"i  c #3A311C",
"p  c #1D1F22",
"a  c #1E2123",
"s  c #242423",
"d  c #2B2623",
"f  c #252A24",
"g  c #2C2925",
"h  c #252629",
"j  c #2B272A",
"k  c #27282A",
"l  c #2B2C2B",
"z  c #322720",
"x  c #342A23",
"c  c #382D24",
"v  c #3B2C22",
"b  c #302728",
"n  c #322C29",
"m  c #342C2A",
"M  c #312E2E",
"N  c #312D2C",
"B  c #342E2D",
"V  c #322E2B",
"C  c #3B2F28",
"Z  c #263025",
"A  c #293125",
"S  c #2F302E",
"D  c #2E312C",
"F  c #373027",
"G  c #393027",
"H  c #3B3026",
"J  c #3C3025",
"K  c #3D3125",
"L  c #3D3A24",
"P  c #33322F",
"I  c #36322E",
"U  c #36332E",
"Y  c #34312D",
"T  c #3C322B",
"R  c #3F3429",
"E  c #3C332B",
"W  c #343D28",
"Q  c #3F382D",
"!  c #272A31",
"~  c #2D2E31",
"^  c #2C2F38",
"/  c #2F3234",
"(  c #2E3132",
")  c #2E3139",
"_  c #313132",
"`  c #333333",
"'  c #333334",
"]  c #313335",
"[  c #343336",
"{  c #363737",
"}  c #353636",
"|  c #343433",
" . c #393430",
".. c #3E3730",
"X. c #3D3731",
"o. c #393633",
"O. c #363837",
"+. c #373836",
"@. c #3F3832",
"#. c #3C3A36",
"$. c #3E3A36",
"%. c #3B3935",
"&. c #313538",
"*. c #343639",
"=. c #39373E",
"-. c #353839",
";. c #373B3B",
":. c #36383C",
">. c #373B3E",
",. c #36393B",
"<. c #383938",
"1. c #3B3D3D",
"2. c #3D3E3C",
"3. c #3E3E3D",
"4. c #3C3C3B",
"5. c #432E1F",
"6. c #482D1C",
"7. c #412F23",
"8. c #412E22",
"9. c #412F28",
"0. c #473324",
"q. c #413426",
"w. c #423427",
"e. c #433225",
"r. c #483526",
"t. c #4A3526",
"y. c #473825",
"u. c #4E3825",
"i. c #46372C",
"p. c #43352B",
"a. c #46392D",
"s. c #4B3A2C",
"d. c #523D2B",
"f. c #443731",
"g. c #433830",
"h. c #413932",
"j. c #473B32",
"k. c #443D35",
"l. c #433C34",
"z. c #483C31",
"x. c #483D33",
"c. c #4A3D33",
"v. c #413E3A",
"b. c #513F30",
"n. c #36412B",
"m. c #3C442B",
"M. c #3F403E",
"N. c #454036",
"B. c #4A4036",
"V. c #4C4135",
"C. c #43413D",
"Z. c #4A443C",
"A. c #4F483E",
"S. c #524234",
"D. c #544639",
"F. c #52493C",
"G. c #58493B",
"H. c #363B44",
"J. c #3C3E42",
"K. c #3E4142",
"L. c #3F4141",
"P. c #3E4142",
"I. c #444543",
"U. c #434443",
"Y. c #494642",
"T. c #474845",
"R. c #4C4A45",
"E. c #43464A",
"W. c #464849",
"Q. c #4C4C4B",
"!. c #544C43",
"~. c #5C4E43",
"^. c #564E48",
"/. c #4E504F",
"(. c #53514C",
"). c #585248",
"_. c #4B4E50",
"`. c #4E5151",
"'. c #535453",
"]. c #535659",
"[. c #555959",
"{. c #5C5D5B",
"}. c #5C5C60",
"|. c #605F62",
" X c #626365",
".X c #666A6F",
"XX c #6A6C71",
/* pixels */
"> # ; 5 8.t 8.v v x d 4 ; > ; 2 2 8 e v x x e e , : 2 : d # o o X o O O O O O + + o o o o o + + o & h h ( -.P.P.U.1.+.+.E x.X.P ",
"d ; ; ; e ; t t x 5 d 5 5 ; # ; r t e t v e e : ; : e e ; . # 4 v v x.z.p.z.V.x.+.x.x d d h 1 + X . a h l *.-.-.1.1.1.+.E X.X.x ",
"M d 5 , 5 ; e x v 5 d e 5 ; 2 e : ; e 5 e e 5 : 2 : 5 ; . > M - < t e.t t e.e.E K K 5 5 ; ; 2 o l + . h h h h h l _ _ P M M M z ",
"l l h h h d e e z 5 5 e 2 : ; e , 5 : 5 5 5 5 e 5 d # . f -.# ; 8 t t.e e v 5 x v K e 5 5 4 2 ; z _ + o h p & h l -._ l S P M E ",
"_ l l h l h 5 5 2 > # > 5 e 5 e : ; > 4 ; ; ; 5 d > . # =.X 5 e 2 t 8 t t x r x K v d 5 5 e 4 5 5 d h + X a a d _ _ l l l S _ _ ",
"_ _ l l l l d d f h & 4 4 4 5 5 ; ; 4 5 5 ; 5 x ; . # *.O , d v v e.v e 5 e v x x e 5 r t v 7 5 5 > > h # + a h _ 1.l l l l _ _ ",
"_ _ _ ( l l f h l l h h 4 h > & + & 5 5 5 5 x ; . # l # 5 e x E x 5 f h 5 x e e x r t 8.v t x v 5 5 > & l # o h ( _ l l l l _ -.",
"l h l _ l l f h h h h h h h h & + > 5 5 , d ; . d j # ; e e.p.z.a.E X.X.x E 8.t v v e.e.E K x v 4 d d 4 a h + + ~ l l l l l ~ l ",
"~ l _ -.1._ _ l l ~ ~ h h l h > # 5 5 v 4 5 . 4 X.; ; 5 5 p.S.G.D.S.x.1.P v i.i.i.t.t.t.p.p.E x d l l l h h _ & + h h l l l ( l ",
"_ _ _ +.1.1.1._ l _ _ l ~ ( h # > 5 x E ; . # M - 5 5 E K i.D.z.z.S.z.X.P v p.p.i.e.v s.x.a.+.l h l l ( f h l _ + o ( l M ~ ( _ ",
"_ _ _ _ _ _ 1.1._ _ l h *.-.l ; 5 z X.; . # > o ; ; 5 x e.p.z.x.X.p.p.E p.i.8.a.i.i.p.+.1.1._ 1.P l _ M l l h l _ + + ~ _ _ _ _ ",
"1.1.1.1.1.*.1._ P _ *._ _ -._ 5 d _ 4 . # 5 X O O , x v v E +.X.X.E x E M v p.p.z.x.C.1.1.1.X._ M _ X.+.+.P l h f h o + ( ( l 1.",
"1.1.1.1._ _ l 1._ *.*._ _ ~ l h _ 5 . ; M O * ; 5 x e.a.x._ J.1.U.1._ _ _ M v.E X.+.1.+.P _ P _ P l M _ P l l h h > h o + ~ l _ ",
"1.1.1.U.1.1.1.1._ _ 1._ _ _ l l 4 . # ; O ; 5 v v p.z.p.x._ _ _ C.+.X._ 1._ 1.x.+.C.C.1.+.1.1.P.1.U.U.P.1._ ( ~ l 4 l l + + ( l ",
"*.J.P.P.J.E.E.E.J._ J.-.*.*.) h . # > X O 5 v a.p.z i.z.x.+.X.P X.X.l M M 1.U.R.v.C.U.1.U.M.1.1._ 1.1.P.1.+.P P l f h h h o # *.",
"M v.Z.R.R.).^.^.).P +.X.+.X.l . & h + ; * 5 e v x x x z.Z.X.l _ l l l _ X.X.1.R.Q.v.Y.U.C.1.1.1._ 1.U.U.1._ _ ( _ f l h h h + + ",
"o . . . . . . . . . . . . . + X > $ # 4 : : 8 v E x E x E +._ U.X.M P X.+.X._ U.U.U.v.U.U.C.1.1.1.1.U.1._ P -._ l d h h & h > o ",
"h h l l l h h l l h h h h h & . ; 4 h d 4 e e 5 x K E M x x.1.U.M.U.X.1.1._ J.U.R.T.+.U.P.E.U.M.1.U.1.1.-.P +.l h h h 4 4 f # o ",
"U._ _ +._ _ 1.J.1.1.-.1._ _ _ & . 4 f p # : 8.e M x X.+.f E X.1.U.C.1.X.1.P.1.1.+._ +.U.U.W.U.1.1.1.+.P +.P X.d h 4 d > 5 # o ( ",
"_ l l l l _ _ ( l l l l h l h M p . 5 f & ; t v x x E E x d +.X.v.+.X.1.1.1._ P _ +.1.1.1.U.U.P._ M _ O._ 5 x f l 5 f x # + *.R.",
"l l f f l M P S _ _ ~ h l _ ( l l $ . 4 P h 5 x 5 v p.s.p.E V.z.x.X.+.C.U.1._ l l _ 1._ U.U.1.P.+._ _ P M e e x l d E # + ~ +.l ",
"Z h j h l l P E X.1.l h d M x x z X.> . 4 P h 5 5 r t e.v p.p.V.x.X.1.M.P._ _ l h f _ M x.E 1.-.l f d f 5 : 8 5 f K # + _ _ l f ",
"f f f l _ E E x _ _ M _ P +.Z.i.K v x.f o # x 5 5 e 8 v p.i.K p.X.1.1.P.X.P M E E M X.E p.K E l d A f z 2 q v x a.# # J.U.~ l f ",
"l P _ P J.U.C.C.1.M M 1.X.C.V.i.i.e.x p.X.+ # x e 8 e e e v v x M X.v.1.X.P P e.v e.E p.p.K x > > 4 5 v e t e.N.# & U.1.l l l j ",
"_ 1.1.1.1.T.C.U.W.1.1.+._ 1.x.i.K a.v e x x.# # v e e v 5 v e v v v a.+._ d E a.K e.v e 5 x 5 # ; ; 7 v v E i.; & _.Y.l l h S P ",
"+.X._ _ 1.U.+.C.C.+.P P E +.E e.e K a.E x K x.+ O e.e.e.r e e e e K E M d d x p.C v e e v K x r 2 2 r K p.a.# & '.Q._ _ l l _ _ ",
"_ _ _ _ X.E p.V.F.V.v e.8.5.8.v v E E z.a.t v P + O s.i.e : ; e e 2 r d x x x e.v 5 5 5 5 e : 2 i r r x.i.# & Q.U._ _ P l h l l ",
"S l S _ 1.P x t t.e.5.i.i.t.t v K x v t e.e ; e M + o E f.e : e e : : e x v e.e.K r x > 2 # ; 0 2 t Q W # & Q.1.l l S & l l l ( ",
"l l l _ _ O.W.x.D.a.p.e.i.e.e.x v e 7 E v v e : e _ # o C E r r : : ; e v r v e e.x : ; e e : 0 r L m.# & ].-.~ l M l 4 P l f S ",
"M f f l ( -.-.1.v.x.E E a.e.K e 2 2 e K e.p.x e 2 r x # X M M 8 2 : ; ; e e x v v e e 5 5 t x 2 x n.+ & E._ l S l l l l M l l M ",
"P f f l P *.*.l _ 1.+.+.+.E p.K v 2 e t i e.e t e 5 : x + . l E e 2 5 ; 5 5 z x x e v x : 8 r 5 A o # E.l d l 6 4 4 h h h l f x ",
"P P f S _ ~ *.( ( -.1.*._ l F v t r r 0 r t e v r K K x d & . j P u x d d P E x.x.E x.E K E y 6 o & C.f d 5 v 7 4 4 4 d f h f P ",
"+.P f S S l ( ) ( -.1._ l l l x v t r 2 2 e : 5 5 5 r 5 ; > + X . X . . . X X X o X X X X X . o o P x r x r r 7 4 f f j h h l M ",
"+.+.S _ _ ( *.1.1.P.-._ ~ h l f 0 r 2 5 e e r 5 4 ; ; O O # . + > d 5 5 x z e x x x x e e x 4 & o 4 M 5 e r 8 e 4 f f h h h l O.",
"f A A M P ~ _ X.x.E P M l 4 j f x v e v p.p.e.x 5 5 > ; ; . + M v v x v 8.t t v K v x e.v e.E x.f o d P 5 e 2 2 4 h f 6 f l l f ",
"l A f l l l _ E p.p.a.E f 4 d d z v v e.i.i.v e 5 5 ; ; . + f e e e 5 e e 2 2 5 r v r e 5 t v E N.4 o h d , : 2 2 5 e f 4 d ~ h ",
"l l h h h f K E p.E F M 5 ; e 5 2 7 e x v v e e e > ; . X d e e 8 5 e e e 8 e 5 e e 4 ; 5 e x e v a.> X f d ; ; 2 ; 5 4 # h h l ",
"f f h h d 5 K p.v v x 5 5 8 e e e v x K K K 5 e 5 & . . M v e v e.e t v t t t x e x v e e t 8.e.v e.K & X 4 d ; 2 2 7 4 4 1 j h ",
"l S l l h d x P z t 7 2 2 2 2 e K a.p.z.e.i.v d h . X M t v v p.e.x e x e.8.K v v K v e.e.e.e v v 8.e.8.> X d M e v v d h > h h ",
"_ _ l h h h l l 2 0 r 5 = ; ; f x K p.p.p.r d > . + _ e r K e.e.v x x x e.5.e.e.K p.i.i.e.e.8.r K e.v e.i.; X ; v e e e d h h l ",
"l l f h h 4 j d 4 5 r 2 = 5 5 5 E K v K v M l X & E t 8 e.i.t.t e v e.v v t t.e.p.i.i.a.p.E E E v i t v 8.z.> X 5 , < t 5 > h l ",
"~ f 4 4 , ; , ; # ; ; 2 2 2 e x E E x v x.l . 4 x.t u.d.u.i.i.e.K e.t.u.t.u.i.i.e.E E P M _ _ _ M M K e.p.t a.> X 5 M t e x d l ",
"M f 2 = O O O o O ; O ; , : ; r E v i.x.h . & Y.v 9 6.d.i.d.d.V.p.z.i.e.t.5.r e x _ _ _ O.-._ _ _ _ X.E p.e.v x & X x f.e 5 d l ",
"f 2 2 ; 2 * o O - O O ; , ; # 5 x v M & . & U.p.t e e t.S.e.K E M M P +.e.t : r l _ _ _ +._ l _ l l l f x v v 5 x # X 5 M , z f ",
"7 2 ; O - - * O O o O ; ; ; ; 5 x M # . & 1.x.a.e v v e.e.v E M M M X.C.z.e.t f f _ P P _ l l l l h h 5 f 5 5 e e x & X d _ 5 d ",
"2 : O o o O * : * * O X O - : e d & . + _ O.X.a.r x.E E v v p.x.E 1.M.M.a.a.z.x.+.X.P d d f h h 4 & > > 5 5 5 5 5 d f & . M _ l ",
"5 : : ; * ; : : * - O O O ; e M d . & _ _ 1.l +.P P x.x.a.a.V.x.C.R.v.v.N.x.C.C.v.+.P P M M f P l f f f 5 5 5 > d d > h % X f h ",
"l d d b d d d d 4 d d d > h d 4 . + _ f P f _ -.P X.Z.C.x.Z.x.V.R.R.C.C.v.+.R.R.R.Q.U.C.+._ _ P l l l P M f d h h h & & h $ . d ",
". . . . . . . . . . . . . . X o . # d f X.P _ 1.-.1.C.Q.R.Z.R.Q.Q.M.U.C.C.x.Y.U./.[./.Q.1.1.1._ _ 1._ P.+.1._ h h h & + & a + X ",
"> 4 > # & & # # # # # + # # # + . h f 5 E E C.U.1.P.P.C.M E C.U.U.C.U.U.Q.Q.Y.U.Q.`.U.T.1.+._ _ _ 1.l 1.1.1.d h h & & + & h X + ",
"l f z 5 ; > > > ; # # O o > d h . o H.P E E E 1.J.P.P.1.l 1.C.Y.Q.Q.U.U.Q.'.Q./.Q.Q._ U.R.R.+.1.U.U.1.U.1.1.l h h h p & ~ X & 1.",
"5 5 e ; # ; ; ; ; # o o ; 4 4 h p . + H.M M E v.U.1.l P d X.v.R.Q./.1.U.v.).'.{.^.Q.C.C.C.Y.Y.C.T.C.1.M.1._ l h h h l ^ o & _.l ",
"h 4 5 5 , # ; ; > # # > d f > 4 h h . + *.l M 1._ _ 1.l U.Q.Q.Q._.U.1.v./.).R.!.C.`.'.).Z.x.Z.U.C.+.v.+.1.l f & & d ~ + >  Xl 4 ",
"h f f e 5 4 4 > h h h h l P f P h h l o + ! f h h l l _ U.W.W.W.U.U.C.U.R.Z.C.U.C.C.Z.Z.x.v.C.1.1._ _ X._ l h h h h X & XX_ f f ",
"_ l E v x f h h & h h l l P +.P -.l _ h o + ~ l h l h -.U.U.M.M.1.U.Q.`.W.+.U.'.`.R.Z.x.V.x.v.C.+.X.+.+._ l l h h . & .X-.h _ _ ",
"_ M P E x l h h h h h f l _ O.M.1.1.h l l + + ) l l f _ 1._ _ 1._ _ 1.1.1.Q.Q.'.Q.R.x.E E E +.x.x.P P _ _ _ h ! . & XX1.h l _ _ ",
"_ P M M f f l h h l f l l _ O.+.+.X._ h ~ U.# + ) l x v P l _ _ _ _ l l 1.R.'.[.[.[.R.x.Z.Z.x.x.x.+._ l l l h . & }._ h f M M P ",
"P _ _ P P P l h h f d f P f h d +._ _ _ l =.P.+ + *.X.E x f _ ( ( _ _ +.C.Z.Z.Z.R.Q.Q.p.E x.Y.Z.Z.x._ l l ! . >  X_ l l _ X.P P ",
"+._ +.+._ _ l l l l 4 l l f 4 d f M P _ _ _ _ *.+ # 1.a.v x P P _ U.P.U.Y.!.~.!.Q.Q.Z.x.E V.Z.D.i.e.E P ~ . 4 |.l l _ +.1.v.C.+.",
"_ _ +.E _ f 4 h & h h l l 5 > > d M f d h h h d f + # X.x e v f P +.+.v.C.z.S.z.+.v.x.E E z.b.i.v v v h . 4 '.l h f +.M.X.+.+.P ",
"f P +.1.l 4 & & # # + & h l > & h d d 4 4 & & 4 > M o o _ x r x v E p.E E a.a.a.p.E a.p.i.t.e.e.t x h . 4 '.l h f f E x.E M l l ",
"4 M _ f 4 1 4 f z f & & 4 h > d 4 5 & # > 5 5 ; ; > 5 X o M x e e v K v K K E p.E i.i.i.i.e.e 5 d h . & Q.l M x P M +.X._ +._ f ",
"l l l f h d M K K x d h h h 4 4 ; > > 4 5 e 5 4 ; # ; & . o l 5 5 5 e 5 5 x d d z x x x 5 > > d h . & 1.l l +.x.v.v.v.x.C.U.C.+.",
"l f l l f P E x x f d d > d 5 2 2 4 5 5 x x r 5 5 5 > h & . X & 4 h 4 d h d d h h d d h 4 h h & . # 1.h l _ C.U.R.C.Z.U.U.1.1.C."
};
