/* XPM */
static char *_5995_5123843ecbfb81ff358eca09b7f5f692565f0d7283ed515df4fb05f8fa378f7e[] = {
/* columns rows colors chars-per-pixel */
"100 100 2 1 ",
"  c black",
". c None",
/* pixels */
".........................................                     ......................................",
"......................................                           ...................................",
"....................................                               .................................",
"...................................                                 ................................",
".................................                                     ..............................",
"................................                                       .............................",
"...............................                                         ............................",
"..............................                                           ...........................",
".............................                                             ..........................",
"............................                                               .........................",
"...........................                    .........                    ........................",
"...........................                 ...............                 ........................",
"..........................                ...................                .......................",
".........................                .....................                ......................",
".........................               .......................               ......................",
"........................               .........................               .....................",
"........................              ...........................              .....................",
".......................              .............................              ....................",
".......................              .............................              ....................",
"......................              ...............................              ...................",
"......................              ...............................              ...................",
".....................              .................................              ..................",
".....................              .................................              ..................",
".....................              ..................................             ..................",
"....................              ...................................              .................",
"....................              ...................................              .................",
"....................             .....................................             .................",
"....................             .....................................             .................",
"...................              .....................................              ................",
"...................              .....................................              ................",
"...................              ......................................             ................",
"...................             .......................................             ................",
"...................             .......................................             ................",
"..................              .......................................              ...............",
"..................              .......................................              ...............",
"..................              .......................................              ...............",
"..................              ........................................             ...............",
"..................             .........................................             ...............",
"..................             .........................................             ...............",
"..................             .........................................             ...............",
"..................             .........................................             ...............",
"..................             .........................................             ...............",
"..................             .........................................              ..............",
".................              .........................................              ..............",
".................              .........................................              ..............",
".................              .........................................              ..............",
".................              .........................................              ..............",
".................              .........................................              ..............",
".................              .........................................              ..............",
".................              .........................................              ..............",
".................              .........................................              ..............",
".................              .........................................              ..............",
".................              .........................................              ..............",
".................              .........................................              ..............",
".................              .........................................              ..............",
".................              .........................................              ..............",
".................              .........................................              ..............",
".................              .........................................              ..............",
".................              .........................................              ..............",
"..................             .........................................             ...............",
"..................             .........................................             ...............",
"..................             .........................................             ...............",
"..................             .........................................             ...............",
"..................             .........................................             ...............",
"..................              .......................................              ...............",
"..................              .......................................              ...............",
"..................              .......................................              ...............",
"..................              .......................................              ...............",
"...................             .......................................             ................",
"...................             .......................................             ................",
"...................              ......................................             ................",
"...................              .....................................              ................",
"...................              .....................................              ................",
"....................             .....................................             .................",
"....................             .....................................             .................",
"....................              ...................................              .................",
"....................              ...................................              .................",
".....................             ...................................             ..................",
".....................              .................................              ..................",
".....................              .................................             ...................",
"......................              ...............................              ...................",
"......................              ...............................              ...................",
".......................              .............................              ....................",
".......................              .............................              ....................",
"........................              ...........................              .....................",
"........................               .........................               .....................",
".........................               .......................               ......................",
".........................                .....................                ......................",
"..........................                ...................                .......................",
"...........................                 ...............                 ........................",
"...........................                   ...........                   ........................",
"............................                                               .........................",
".............................                                             ..........................",
"..............................                                           ...........................",
"...............................                                         ............................",
"................................                                       .............................",
".................................                                     ..............................",
"...................................                                 ................................",
".....................................                             ..................................",
".......................................                         ...................................."
};
