/* XPM */
static char *_379_cb755e4905ce745de30cae52fea58c32304ca8fef9f6feae5a1f556617df520c[] = {
/* columns rows colors chars-per-pixel */
"100 100 2 1 ",
"  c black",
". c None",
/* pixels */
"....................................................................................................",
"....................................................................................................",
"..........................................                   .......................................",
".....................................                        .......................................",
".................................                            .......................................",
".............................                                .......................................",
".........................                                    .......................................",
".......................                                      .......................................",
".......................                                      .......................................",
".......................                                      .......................................",
".......................                                      .......................................",
".......................                       .              .......................................",
".......................                  .......             .......................................",
".......................             ............             .......................................",
".......................        .................             .......................................",
".......................   ......................             .......................................",
"................................................             .......................................",
"................................................             .......................................",
"................................................             .......................................",
"................................................             .......................................",
"................................................             .......................................",
"................................................             .......................................",
"................................................             .......................................",
"................................................             .......................................",
"................................................             .......................................",
"................................................             .......................................",
"................................................             .......................................",
"................................................             .......................................",
"................................................             .......................................",
"................................................             .......................................",
"................................................             .......................................",
"................................................             .......................................",
"................................................             .......................................",
"................................................             .......................................",
"................................................             .......................................",
"................................................             .......................................",
"................................................             .......................................",
"................................................             .......................................",
"................................................             .......................................",
"................................................             .......................................",
"................................................             .......................................",
"................................................             .......................................",
"................................................             .......................................",
"................................................             .......................................",
"................................................             .......................................",
"................................................             .......................................",
"................................................             .......................................",
"................................................             .......................................",
"................................................             .......................................",
"................................................             .......................................",
"................................................             .......................................",
"................................................             .......................................",
"................................................             .......................................",
"................................................             .......................................",
"................................................             .......................................",
"................................................             .......................................",
"................................................             .......................................",
"................................................             .......................................",
"................................................             .......................................",
"................................................             .......................................",
"................................................             .......................................",
"................................................             .......................................",
"................................................             .......................................",
"................................................             .......................................",
"................................................             .......................................",
"................................................             .......................................",
"................................................             .......................................",
"................................................             .......................................",
"................................................             .......................................",
"................................................             .......................................",
"................................................             .......................................",
"................................................             .......................................",
"................................................             .......................................",
"................................................             .......................................",
"................................................             .......................................",
"................................................             .......................................",
"................................................             .......................................",
"................................................             .......................................",
"................................................             .......................................",
"................................................             .......................................",
"................................................             .......................................",
"................................................             .......................................",
"................................................             .......................................",
"................................................             .......................................",
"................................................             .......................................",
"................................................             .......................................",
"................................................             .......................................",
"................................................             .......................................",
"..........................                                                         .................",
".........................                                                           ................",
".........................                                                           ................",
".........................                                                           ................",
".........................                                                           ................",
".........................                                                           ................",
".........................                                                           ................",
".........................                                                           ................",
".........................                                                           ................",
".........................                                                           ................",
"....................................................................................................",
"...................................................................................................."
};
