/* XPM */
static char *_0769_acc31d4973988ac833b1616aa319f5e4e586b6119912f519f6501c4e4422be6d[] = {
/* columns rows colors chars-per-pixel */
"100 100 2 1 ",
"  c black",
". c None",
/* pixels */
".......................................                        .....................................",
"...................................                               ..................................",
"................................                                    ................................",
".............................                                         ..............................",
"..........................                                              ............................",
".......................                                                  ...........................",
".......................                                                    .........................",
".......................                                                     ........................",
".......................                                                      .......................",
".......................                                                       ......................",
".......................                         .......                        .....................",
".......................                   .................                     ....................",
".......................               .......................                   ....................",
".......................            ............................                  ...................",
".......................         .................................                 ..................",
".......................       ....................................                ..................",
".......................     .......................................                .................",
".......................   ..........................................               .................",
"....................... ............................................               .................",
".....................................................................              .................",
".....................................................................               ................",
"......................................................................              ................",
"......................................................................              ................",
"......................................................................              ................",
".......................................................................             ................",
".......................................................................             ................",
".......................................................................             ................",
".......................................................................              ...............",
".......................................................................             ................",
".......................................................................             ................",
".......................................................................             ................",
".......................................................................             ................",
".......................................................................             ................",
"......................................................................              ................",
"......................................................................              ................",
".....................................................................              .................",
".....................................................................              .................",
".....................................................................              .................",
"....................................................................              ..................",
"....................................................................              ..................",
"...................................................................               ..................",
"..................................................................               ...................",
"..................................................................              ....................",
".................................................................               ....................",
"................................................................               .....................",
"...............................................................                .....................",
"...............................................................               ......................",
"..............................................................               .......................",
".............................................................                .......................",
"............................................................                ........................",
"...........................................................                .........................",
"..........................................................                ..........................",
".........................................................                ...........................",
".........................................................               ............................",
"........................................................               .............................",
".......................................................               ..............................",
"......................................................                ..............................",
".....................................................                ...............................",
"....................................................                ................................",
"...................................................                .................................",
"..................................................                ..................................",
".................................................                ...................................",
"................................................                ....................................",
"...............................................                .....................................",
"..............................................                ......................................",
".............................................                .......................................",
"............................................                ........................................",
"...........................................                .........................................",
"..........................................                ..........................................",
".........................................                ...........................................",
"........................................                ............................................",
".......................................                .............................................",
"......................................                ..............................................",
".....................................                ...............................................",
"....................................                ................................................",
"...................................                .................................................",
"..................................                ..................................................",
".................................                ...................................................",
"................................                ....................................................",
"...............................                .....................................................",
"..............................                ......................................................",
".............................                .......................................................",
"............................                ........................................................",
"...........................                .........................................................",
"..........................                ..........................................................",
".........................                ...........................................................",
"........................                ............................................................",
".......................                .............................................................",
"......................                 .............................................................",
"......................                                                               ...............",
"......................                                                               ...............",
"......................                                                               ...............",
"......................                                                               ...............",
"......................                                                               ...............",
"......................                                                               ...............",
"......................                                                               ...............",
"......................                                                               ...............",
"......................                                                               ...............",
"......................                                                               ...............",
"......................                                                               ..............."
};
