/* XPM */
static char *_5221_4672c651da6add52911d80e0f1852aab86f21c8a1f6c717b05c2c8f57cae316f[] = {
/* columns rows colors chars-per-pixel */
"100 100 2 1 ",
"  c black",
". c None",
/* pixels */
"...................................                          .......................................",
".............................                                   ....................................",
".........................                                          .................................",
"......................                                               ...............................",
"......................                                                ..............................",
"......................                                                  ............................",
"......................                                                   ...........................",
"......................                                                     .........................",
"......................                                                      ........................",
"......................                                                       .......................",
"......................                         .                             .......................",
"......................               ....................                     ......................",
"......................          ............................                   .....................",
"......................      .................................                  .....................",
"......................  .......................................                 ....................",
"................................................................                ....................",
".................................................................               ....................",
"..................................................................               ...................",
"...................................................................              ...................",
"...................................................................              ...................",
"....................................................................              ..................",
"....................................................................              ..................",
"....................................................................              ..................",
"....................................................................              ..................",
"....................................................................              ..................",
"....................................................................              ..................",
"....................................................................              ..................",
"....................................................................              ..................",
"....................................................................              ..................",
"....................................................................             ...................",
"....................................................................             ...................",
"....................................................................             ...................",
"...................................................................              ...................",
"...................................................................             ....................",
"..................................................................              ....................",
".................................................................              .....................",
"................................................................               .....................",
"...............................................................               ......................",
"..............................................................               .......................",
"............................................................                ........................",
".........................................................                  .........................",
"..................................................                        ..........................",
"....................................                                     ...........................",
"....................................                                    ............................",
"....................................                                 ...............................",
"....................................                               .................................",
"....................................                             ...................................",
"....................................                               .................................",
"....................................                                  ..............................",
"....................................                                    ............................",
"....................................                                     ...........................",
"....................................                                       .........................",
"....................................                                        ........................",
"........................................................                     .......................",
"...........................................................                   ......................",
"..............................................................                 .....................",
"...............................................................                 ....................",
".................................................................               ....................",
"..................................................................               ...................",
"...................................................................               ..................",
"....................................................................              ..................",
"....................................................................               .................",
".....................................................................              .................",
".....................................................................              .................",
"......................................................................             .................",
"......................................................................              ................",
"......................................................................              ................",
"......................................................................              ................",
".......................................................................             ................",
".......................................................................             ................",
".......................................................................             ................",
".......................................................................             ................",
".......................................................................             ................",
".......................................................................             ................",
"......................................................................              ................",
"......................................................................              ................",
"......................................................................              ................",
"......................................................................              ................",
"......................................................................             .................",
".....................................................................              .................",
".....................................................................              .................",
"....................................................................               .................",
"...................................................................               ..................",
"..................................................................                ..................",
"................... .............................................                 ..................",
"...................   ..........................................                 ...................",
"...................     .......................................                 ....................",
"...................        ..................................                   ....................",
"...................           .............................                    .....................",
"...................               ......................                      ......................",
"...................                      .........                           .......................",
"...................                                                          .......................",
"...................                                                         ........................",
"...................                                                        .........................",
"...................                                                      ...........................",
"...................                                                     ............................",
"...................                                                   ..............................",
"....................                                                ................................",
"........................                                          ..................................",
"...........................                                    ....................................."
};
