/* XPM */
static char *_773_7aa3d8cefcc8a33e774c6b0eb71cf67fc64923b50cc5b804b8e637c2860cae61[] = {
/* columns rows colors chars-per-pixel */
"100 100 2 1 ",
"  c black",
". c None",
/* pixels */
"..................................................                      ............................",
"..............................................                               .......................",
"............................................                                    ....................",
"..........................................                                        ..................",
"........................................                                          ..................",
".......................................                                           ..................",
".....................................                                             ..................",
"....................................                                              ..................",
"...................................                                               ..................",
"..................................                                                ..................",
".................................                           ..                    ..................",
"................................                     .................            ..................",
"...............................                   ........................        ..................",
"..............................                  .............................     ..................",
"..............................                ..................................  ..................",
".............................                .......................................................",
"............................                ........................................................",
"...........................                .........................................................",
"...........................               ..........................................................",
"..........................               ...........................................................",
"..........................              ............................................................",
".........................              .............................................................",
".........................              .............................................................",
"........................              ..............................................................",
"........................              ..............................................................",
"........................             ...............................................................",
".......................              ...............................................................",
".......................             ................................................................",
".......................             ................................................................",
"......................              ................................................................",
"......................             .................................................................",
"......................             .................................................................",
".....................              .................................................................",
".....................              .................................................................",
".....................             ..................................................................",
".....................             ..............                ....................................",
".....................             ............                      ................................",
"....................              .........                           ..............................",
"....................              .......                               ............................",
"....................              ......                                  ..........................",
"....................             .....                                      ........................",
"....................             ....                                        .......................",
"....................             ...                                          ......................",
"....................             ..                                            .....................",
"....................             .                                              ....................",
"...................              .                 .......                       ...................",
"...................                            ...............                    ..................",
"...................                          ...................                  ..................",
"...................                         ......................                 .................",
"...................                       .........................                 ................",
"...................                      ...........................                ................",
"...................                     .............................               ................",
"...................                     ..............................               ...............",
"...................                    ................................              ...............",
"...................                   .................................               ..............",
"...................                   ..................................              ..............",
"...................                  ...................................              ..............",
"....................                 ....................................              .............",
"....................                 ....................................              .............",
"....................                .....................................              .............",
"....................                .....................................              .............",
"....................                ......................................              ............",
"....................                ......................................              ............",
"....................                ......................................              ............",
"....................                ......................................              ............",
"....................                ......................................              ............",
"....................               .......................................              ............",
".....................              .......................................              ............",
".....................              .......................................              ............",
".....................              .......................................              ............",
".....................              .......................................              ............",
".....................               ......................................              ............",
"......................              ......................................              ............",
"......................              ......................................              ............",
"......................              ......................................              ............",
"......................              ......................................             .............",
".......................             .....................................              .............",
".......................              ....................................              .............",
".......................              ....................................              .............",
"........................             ...................................              ..............",
"........................              ..................................              ..............",
".........................             .................................               ..............",
".........................              ................................              ...............",
".........................              ...............................               ...............",
"..........................              .............................               ................",
"..........................               ............................               ................",
"...........................               ..........................               .................",
"............................               ........................                .................",
"............................                .....................                 ..................",
".............................                 .................                  ...................",
"..............................                   ............                    ...................",
"...............................                                                 ....................",
"................................                                               .....................",
".................................                                             ......................",
"..................................                                           .......................",
"...................................                                         ........................",
"....................................                                      ..........................",
"......................................                                   ...........................",
".......................................                                .............................",
"..........................................                           ..............................."
};
