/* XPM */
static char *_00_fd0e04292d914de21e8c0acdeb6646115f4bef7789479fc81f71bf135f289d28[] = {
/* columns rows colors chars-per-pixel */
"100 100 2 1 ",
"  c black",
". c None",
/* pixels */
"........................................                       .....................................",
".....................................                              .................................",
"..................................                                   ...............................",
"................................                                       .............................",
"...............................                                          ...........................",
".............................                                             ..........................",
"............................                                               .........................",
"...........................                                                 ........................",
"..........................                                                   .......................",
".........................                                                     ......................",
"........................                     .............                     .....................",
"........................                  ...................                   ....................",
".......................                 .......................                 ....................",
"......................                 .........................                 ...................",
"......................                ............................               ...................",
"......................               ..............................               ..................",
".....................               ...............................               ..................",
".....................               ................................              ..................",
".....................              .................................               .................",
"....................              ...................................              .................",
"....................              ...................................              .................",
"....................              ....................................             .................",
"....................              ....................................             .................",
"....................              ....................................             .................",
"....................              ....................................             .................",
"....................              ....................................             .................",
"....................              ....................................             .................",
"....................              ....................................             .................",
"....................              ....................................             .................",
"....................              ....................................             .................",
".....................             ....................................             .................",
".....................             ...................................             ..................",
".....................             ...................................             ..................",
"......................             .................................              ..................",
"......................             .................................             ...................",
"......................              ...............................              ...................",
".......................              ..............................             ....................",
"........................              ............................              ....................",
"........................               ..........................              .....................",
".........................               .......................               ......................",
"..........................                ...................                .......................",
"...........................                  ..............                 ........................",
"............................                                               .........................",
"..............................                                            ..........................",
"...............................                                         ............................",
".................................                                     ..............................",
"....................................                               .................................",
".....................................                             ..................................",
"..................................                                   ...............................",
"................................                                        ............................",
"..............................                                            ..........................",
"............................                                               .........................",
"...........................                                                  .......................",
"..........................                    ...........                     ......................",
".........................                  ..................                  .....................",
"........................                .......................                 ....................",
".......................                ..........................                ...................",
"......................               .............................               ...................",
".....................               ...............................               ..................",
".....................              .................................               .................",
"....................               ..................................              .................",
"....................              ...................................               ................",
"...................              .....................................              ................",
"...................              ......................................             ................",
"...................             .......................................              ...............",
"...................             .......................................              ...............",
"..................              ........................................             ...............",
"..................              ........................................             ...............",
"..................              ........................................              ..............",
"..................             .........................................              ..............",
"..................             .........................................              ..............",
"..................             .........................................              ..............",
"..................             .........................................              ..............",
"..................             .........................................              ..............",
"..................             .........................................              ..............",
"..................              ........................................              ..............",
"..................              ........................................             ...............",
"..................              ........................................             ...............",
"..................              .......................................              ...............",
"..................              .......................................              ...............",
"...................              ......................................              ...............",
"...................              .....................................              ................",
"...................               ....................................              ................",
"....................              ...................................               ................",
"....................               .................................                ................",
"....................                ...............................                .................",
".....................                .............................                 .................",
".....................                 ...........................                 ..................",
"......................                  ........................                  ..................",
"......................                    ...................                    ...................",
".......................                      .............                      ....................",
"........................                                                       .....................",
".........................                                                     ......................",
"..........................                                                    ......................",
"...........................                                                  .......................",
"............................                                               .........................",
"..............................                                            ..........................",
"...............................                                         ............................",
".................................                                     ..............................",
"....................................                               ................................."
};
