/* XPM */
static char *_391_c8a36998b9268fb160b81dc87d0b939b68bac9494f364e82b606396901da709d[] = {
/* columns rows colors chars-per-pixel */
"100 100 2 1 ",
"  c black",
". c None",
/* pixels */
"..........................................                    ......................................",
".......................................                          ...................................",
".....................................                               ................................",
"...................................                                  ...............................",
".................................                                      .............................",
"................................                                        ............................",
"..............................                                           ...........................",
".............................                                             ..........................",
"............................                                               .........................",
"...........................                                                 ........................",
"..........................                     ...........                   .......................",
"..........................                  .................                 ......................",
".........................                 ....................                 .....................",
"........................                ........................               .....................",
"........................               ..........................               ....................",
".......................               ............................              ....................",
".......................               .............................              ...................",
"......................               ...............................             ...................",
"......................              ................................              ..................",
".....................               .................................             ..................",
".....................              ..................................              .................",
".....................              ...................................             .................",
"....................              ....................................              ................",
"....................              ....................................              ................",
"....................              .....................................             ................",
"....................             ......................................             ................",
"....................             ......................................              ...............",
"...................              ......................................              ...............",
"...................              ......................................              ...............",
"...................              ......................................               ..............",
"...................              .......................................              ..............",
"...................              .......................................              ..............",
"...................              .......................................              ..............",
"...................              .......................................              ..............",
"...................              .......................................              ..............",
"...................              .......................................               .............",
"...................              ......................................                .............",
"...................              ......................................                .............",
"...................              ......................................                .............",
"....................             ......................................                .............",
"....................              .....................................                .............",
"....................              .....................................                .............",
"....................              ....................................                 .............",
"....................              ....................................                 .............",
".....................              ...................................                  ............",
".....................              ..................................                   ............",
".....................               .................................                   ............",
"......................              ................................                    ............",
"......................               ..............................                     ............",
".......................               .............................                     ............",
".......................                ...........................                      ............",
".......................                 .........................                       ............",
"........................                 .......................                        ............",
".........................                  ...................                          ............",
"..........................                   ...............                            ............",
"..........................                      .........                .              ............",
"...........................                                              .             .............",
"............................                                            ..             .............",
".............................                                          ...             .............",
"..............................                                        ....             .............",
"...............................                                      .....             .............",
".................................                                  ......              .............",
"...................................                               .......              .............",
".....................................                           .........              .............",
".......................................                      ............             ..............",
"...........................................                ..............             ..............",
".........................................................................             ..............",
"........................................................................              ..............",
"........................................................................              ..............",
"........................................................................             ...............",
"........................................................................             ...............",
".......................................................................              ...............",
".......................................................................             ................",
".......................................................................             ................",
"......................................................................              ................",
"......................................................................             .................",
".....................................................................              .................",
".....................................................................              .................",
"....................................................................              ..................",
"....................................................................              ..................",
"...................................................................              ...................",
"..................................................................               ...................",
".................................................................               ....................",
"................................................................                ....................",
"...............................................................                .....................",
"..............................................................                ......................",
".........................  ..................................                .......................",
".........................     .............................                  .......................",
".........................        ........................                   ........................",
".........................           ..................                     .........................",
".........................                 ......                          ..........................",
".........................                                                ...........................",
".........................                                               ............................",
".........................                                              .............................",
".........................                                             ..............................",
".........................                                           ................................",
".........................                                          .................................",
".........................                                        ...................................",
"...........................                                    .....................................",
"..............................                               ......................................."
};
