/* XPM */
static char *ea[] = {
/* columns rows colors chars-per-pixel */
"64 64 82 1 ",
"  c #292929",
". c #2A2A2A",
"X c #2B2B2B",
"o c #2D2D2D",
"O c #2E2E2E",
"+ c #2F2F2F",
"@ c #313131",
"# c #323232",
"$ c #333333",
"% c #363636",
"& c #373737",
"* c #3C3C3C",
"= c #3D3D3D",
"- c #404040",
"; c #424242",
": c #454545",
"> c #484848",
", c #4A4A4A",
"< c #4B4B4B",
"1 c #4F4F4F",
"2 c #515151",
"3 c #535353",
"4 c #545454",
"5 c #575757",
"6 c #5B5B5B",
"7 c #5C5C5C",
"8 c #606060",
"9 c #626262",
"0 c #656565",
"q c #666666",
"w c #696969",
"e c #6D6D6D",
"r c #6F6F6F",
"t c #717171",
"y c #747474",
"u c #7B7B7B",
"i c #808080",
"p c #818181",
"a c #828282",
"s c #848484",
"d c #858585",
"f c #888888",
"g c #898989",
"h c #8B8B8B",
"j c #8F8F8F",
"k c #909090",
"l c #919191",
"z c #939393",
"x c #979797",
"c c #999999",
"v c #9C9C9C",
"b c #A3A3A3",
"n c #AAAAAA",
"m c #ADADAD",
"M c #AEAEAE",
"N c #B1B1B1",
"B c #B3B3B3",
"V c #B7B7B7",
"C c #B8B8B8",
"Z c #BBBBBB",
"A c #BDBDBD",
"S c #C0C0C0",
"D c #C6C6C6",
"F c #C7C7C7",
"G c #C8C8C8",
"H c #C9C9C9",
"J c #CDCDCD",
"K c #CFCFCF",
"L c #D1D1D1",
"P c #D3D3D3",
"I c #D4D4D4",
"U c #D5D5D5",
"Y c #DBDBDB",
"T c #DCDCDC",
"R c #DFDFDF",
"E c #E0E0E0",
"W c #E1E1E1",
"Q c #E2E2E2",
"! c #E3E3E3",
"~ c #E4E4E4",
"^ c #E5E5E5",
"/ c #E6E6E6",
/* pixels */
"////////////////////////////////////////////////////////////////",
"////////////////////////////////////////////////////////////////",
"////////////////////////////////////////////////////////////////",
"////////////////////////////////////////////////////////////////",
"////////////////////////////////////////////////////////////////",
"////////////////////////////////////////////////////////////////",
"////////////////////////////////////////////////////////////////",
"////////////////////////////////////////////////////////////////",
"////////////////////////////////////////////////////////////////",
"////////////////////////////////////////////////////////////////",
"////////////////////////////////////////////////////////////////",
"////////////////////////////////////////////////////////////////",
"////////////////////////////////////////////////////////////////",
"////////////////////////////////////////////////////////////////",
"////////////////////////////////////////////////////////////////",
"////////////////////////////////////////////////////////////////",
"////////////////////////////////////////////////////////////////",
"////////////////////////////////////////////////////////////////",
"////////////////////////////////////////////////////////////////",
"////////////////////////////////////////////////////////////////",
"////////////////////////////////////////////////////////////////",
"////////////////////////////////////////////////////////////////",
"////////////////////////////////////////////////////////////////",
"///////////////////h0000000000C///////P00s//////////////////////",
"///////////////////0          b///////h   G/////////////////////",
"///////////////////0 5NNNNNNNNP///////: @ h/////////////////////",
"///////////////////0 w///////////////N @k ://///////////////////",
"///////////////////0 w///////////////w yR@ C////////////////////",
"///////////////////0 w//////////////R@ N/w y////////////////////",
"///////////////////0 w//////////////c ://N @R///////////////////",
"///////////////////0 >sssssssh//////5 s///: c///////////////////",
"///////////////////0         @R////G  G///s 5///////////////////",
"///////////////////0 >hhhhhhhh/////s 5////S  G//////////////////",
"///////////////////7 w/////////////* c/////5 s//////////////////",
"///////////////////0 w////////////m  0wwwww> *//////////////////",
"///////////////////7 w////////////0           m/////////////////",
"///////////////////0 w///////////P  hmmmmmmm7 0/////////////////",
"///////////////////0 w///////////k @////////m  P////////////////",
"///////////////////0 7SSSSSSSSP//> y/////////@ k////////////////",
"///////////////////0          u/C  N/////////y >////////////////",
"///////////////////u>>>5>5>>>>k/k>7//////////C>>G///////////////",
"////////////////////////////////////////////////////////////////",
"////////////////////////////////////////////////////////////////",
"////////////////////////////////////////////////////////////////",
"////////////////////////////////////////////////////////////////",
"////////////////////////////////////////////////////////////////",
"////////////////////////////////////////////////////////////////",
"////////////////////////////////////////////////////////////////",
"////////////////////////////////////////////////////////////////",
"////////////////////////////////////////////////////////////////",
"////////////////////////////////////////////////////////////////",
"////////////////////////////////////////////////////////////////",
"////////////////////////////////////////////////////////////////",
"////////////////////////////////////////////////////////////////",
"////////////////////////////////////////////////////////////////",
"////////////////////////////////////////////////////////////////",
"////////////////////////////////////////////////////////////////",
"////////////////////////////////////////////////////////////////",
"////////////////////////////////////////////////////////////////",
"////////////////////////////////////////////////////////////////",
"////////////////////////////////////////////////////////////////",
"////////////////////////////////////////////////////////////////",
"////////////////////////////////////////////////////////////////",
"////////////////////////////////////////////////////////////////"
};
