/* XPM */
static char *we[] = {
/* columns rows colors chars-per-pixel */
"64 64 99 2 ",
"   c #292929",
".  c #2A2A2A",
"X  c #2F2F2F",
"o  c #303030",
"O  c #313131",
"+  c #323232",
"@  c #333333",
"#  c #343434",
"$  c #353535",
"%  c #373737",
"&  c #393939",
"*  c #3A3A3A",
"=  c #3B3B3B",
"-  c #3C3C3C",
";  c #3E3E3E",
":  c #3F3F3F",
">  c #404040",
",  c #424242",
"<  c #454545",
"1  c #4F4F4F",
"2  c #535353",
"3  c #565656",
"4  c #575757",
"5  c #585858",
"6  c #595959",
"7  c #5A5A5A",
"8  c #5B5B5B",
"9  c #5C5C5C",
"0  c #5D5D5D",
"q  c #5E5E5E",
"w  c #616161",
"e  c #636363",
"r  c #656565",
"t  c #666666",
"y  c #696969",
"u  c #6A6A6A",
"i  c #6B6B6B",
"p  c #6C6C6C",
"a  c #6D6D6D",
"s  c #6E6E6E",
"d  c #707070",
"f  c #787878",
"g  c #838383",
"h  c #848484",
"j  c #878787",
"k  c #888888",
"l  c #898989",
"z  c #8A8A8A",
"x  c #8B8B8B",
"c  c #8C8C8C",
"v  c #8D8D8D",
"b  c #909090",
"n  c #919191",
"m  c #929292",
"M  c #939393",
"N  c #969696",
"B  c #989898",
"V  c #999999",
"C  c #9A9A9A",
"Z  c #9B9B9B",
"A  c #9C9C9C",
"S  c #9D9D9D",
"D  c #9E9E9E",
"F  c #A0A0A0",
"G  c #A1A1A1",
"H  c #B1B1B1",
"J  c #B6B6B6",
"K  c #B7B7B7",
"L  c #B8B8B8",
"P  c #B9B9B9",
"I  c #BABABA",
"U  c #BBBBBB",
"Y  c #BCBCBC",
"T  c #BDBDBD",
"R  c #BEBEBE",
"E  c #BFBFBF",
"W  c #C0C0C0",
"Q  c #C1C1C1",
"!  c #C2C2C2",
"~  c #C5C5C5",
"^  c #C7C7C7",
"/  c #C9C9C9",
"(  c #CACACA",
")  c #CBCBCB",
"_  c #CDCDCD",
"`  c #CECECE",
"'  c #D0D0D0",
"]  c #D6D6D6",
"[  c #DCDCDC",
"{  c #DDDDDD",
"}  c #DEDEDE",
"|  c #DFDFDF",
" . c #E0E0E0",
".. c #E1E1E1",
"X. c #E2E2E2",
"o. c #E3E3E3",
"O. c #E4E4E4",
"+. c #E5E5E5",
"@. c #E6E6E6",
/* pixels */
"@.@.@.@.@.@.@.@.@.@.@.@.@.@.@.@.@.@.@.@.@.@.@.@.@.@.@.@.@.@.@.@.@.@.@.@.@.@.@.@.@.@.@.@.@.@.@.@.@.@.@.@.@.@.@.@.@.@.@.@.@.@.@.@.",
"@.@.@.@.@.@.@.@.@.@.@.@.@.@.@.@.@.@.@.@.@.@.@.@.@.@.@.@.@.@.@.@.@.@.@.@.@.@.@.@.@.@.@.@.@.@.@.@.@.@.@.@.@.@.@.@.@.@.@.@.@.@.@.@.",
"@.@.@.@.@.@.@.@.@.@.@.@.@.@.@.@.@.@.@.@.@.@.@.@.@.@.@.@.@.@.@.@.@.@.@.@.@.@.@.@.@.@.@.@.@.@.@.@.@.@.@.@.@.@.@.@.@.@.@.@.@.@.@.@.",
"@.@.@.@.@.@.@.@.@.@.@.@.@.@.@.@.@.@.@.@.@.@.@.@.@.@.@.@.@.@.@.@.@.@.@.@.@.@.@.@.@.@.@.@.@.@.@.@.@.@.@.@.@.@.@.@.@.@.@.@.@.@.@.@.",
"@.@.@.@.@.@.@.@.@.@.@.@.@.@.@.@.@.@.@.@.@.@.@.@.@.@.@.@.@.@.@.@.@.@.@.@.@.@.@.@.@.@.@.@.@.@.@.@.@.@.@.@.@.@.@.@.@.@.@.@.@.@.@.@.",
"@.@.@.@.@.@.@.@.@.@.@.@.@.@.@.@.@.@.@.@.@.@.@.@.@.@.@.@.@.@.@.@.@.@.@.@.@.@.@.@.@.@.@.@.@.@.@.@.@.@.@.@.@.@.@.@.@.@.@.@.@.@.@.@.",
"@.@.@.@.@.@.@.@.@.@.@.@.@.@.@.@.@.@.@.@.@.@.@.@.@.@.@.@.@.@.@.@.@.@.@.@.@.@.@.@.@.@.@.@.@.@.@.@.@.@.@.@.@.@.@.@.@.@.@.@.@.@.@.@.",
"@.@.@.@.@.@.@.@.@.@.@.@.@.@.@.@.@.@.@.@.@.@.@.@.@.@.@.@.@.@.@.@.@.@.@.@.@.@.@.@.@.@.@.@.@.@.@.@.@.@.@.@.@.@.@.@.@.@.@.@.@.@.@.@.",
"@.@.@.@.@.@.@.@.@.@.@.@.@.@.@.@.@.@.@.@.@.@.@.@.@.@.@.@.@.@.@.@.@.@.@.@.@.@.@.@.@.@.@.@.@.@.@.@.@.@.@.@.@.@.@.@.@.@.@.@.@.@.@.@.",
"@.@.@.@.@.@.@.@.@.@.@.@.@.@.@.@.@.@.@.@.@.@.@.@.@.@.@.@.@.@.@.@.@.@.@.@.@.@.@.@.@.@.@.@.@.@.@.@.@.@.@.@.@.@.@.@.@.@.@.@.@.@.@.@.",
"@.@.@.@.@.@.@.@.@.@.@.@.@.@.@.@.@.@.@.@.@.@.@.@.@.@.@.@.@.@.@.@.@.@.@.@.@.@.@.@.@.@.@.@.@.@.@.@.@.@.@.@.@.@.@.@.@.@.@.@.@.@.@.@.",
"@.@.@.@.@.@.@.@.@.@.@.@.@.@.@.@.@.@.@.@.@.@.@.@.@.@.@.@.@.@.@.@.@.@.@.@.@.@.@.@.@.@.@.@.@.@.@.@.@.@.@.@.@.@.@.@.@.@.@.@.@.@.@.@.",
"@.@.@.@.@.@.@.@.@.@.@.@.@.@.@.@.@.@.@.@.@.@.@.@.@.@.@.@.@.@.@.@.@.@.@.@.@.@.@.@.@.@.@.@.@.@.@.@.@.@.@.@.@.@.@.@.@.@.@.@.@.@.@.@.",
"@.@.@.@.@.@.@.@.@.@.@.@.@.@.@.@.@.@.@.@.@.@.@.@.@.@.@.@.@.@.@.@.@.@.@.@.@.@.@.@.@.@.@.@.@.@.@.@.@.@.@.@.@.@.@.@.@.@.@.@.@.@.@.@.",
"@.@.@.@.@.@.@.@.@.@.@.@.@.@.@.@.@.@.@.@.@.@.@.@.@.@.@.@.@.@.@.@.@.@.@.@.@.@.@.@.@.@.@.@.@.@.@.@.@.@.@.@.@.@.@.@.@.@.@.@.@.@.@.@.",
"@.@.@.@.@.@.@.@.@.@.@.@.@.@.@.@.@.@.@.@.@.@.@.@.@.@.@.@.@.@.@.@.@.@.@.@.@.@.@.@.@.@.@.@.@.@.@.@.@.@.@.@.@.@.@.@.@.@.@.@.@.@.@.@.",
"@.@.@.@.@.@.@.@.@.@.@.@.@.@.@.@.@.@.@.@.@.@.@.@.@.@.@.@.@.@.@.@.@.@.@.@.@.@.@.@.@.@.@.@.@.@.@.@.@.@.@.@.@.@.@.@.@.@.@.@.@.@.@.@.",
"@.@.@.@.@.@.@.@.@.@.@.@.@.@.@.@.@.@.@.@.@.@.@.@.@.@.@.@.@.@.@.@.@.@.@.@.@.@.@.@.@.@.@.@.@.@.@.@.@.@.@.@.@.@.@.@.@.@.@.@.@.@.@.@.",
"@.@.@.@.@.@.@.@.@.@.@.@.@.@.@.@.@.@.@.@.@.@.@.@.@.@.@.@.@.@.@.@.@.@.@.@.@.@.@.@.@.@.@.@.@.@.@.@.@.@.@.@.@.@.@.@.@.@.@.@.@.@.@.@.",
"@.@.@.@.@.@.@.@.@.@.@.@.@.@.@.@.@.@.@.@.@.@.@.@.@.@.@.@.@.@.@.@.@.@.@.@.@.@.@.@.@.@.@.@.@.@.@.@.@.@.@.@.@.@.@.@.@.@.@.@.@.@.@.@.",
"@.@.@.@.@.@.@.@.@.@.@.@.@.@.@.@.@.@.@.@.@.@.@.@.@.@.@.@.@.@.@.@.@.@.@.@.@.@.@.@.@.@.@.@.@.@.@.@.@.@.@.@.@.@.@.@.@.@.@.@.@.@.@.@.",
"@.@.@.@.@.@.@.@.@.@.@.@.@.@.@.@.@.@.@.@.@.@.@.@.@.@.@.@.@.@.@.@.@.@.@.@.@.@.@.@.@.@.@.@.@.@.@.@.@.@.@.@.@.@.@.@.@.@.@.@.@.@.@.@.",
"@.@.@.@.@.@.@.@.@.@.@.@.@.@.@.@.@.@.@.@.@.@.@.@.@.@.@.@.@.@.@.@.@.@.@.@.@.@.@.@.@.@.@.@.@.@.@.@.@.@.@.@.@.@.@.@.@.@.@.@.@.@.@.@.",
"@.@.@.@.@.@.@.@.@.@.@.@.@.@.@.@.f r G @.@.@.@.@.@.Q r r G @.@.@.@.@.@.Q r r ' @.@.N r r r r r r r r r r J @.@.@.@.@.@.@.@.@.@.@.",
"@.@.@.@.@.@.@.@.@.@.@.@.@.@.@.@.i   7 @.@.@.@.@.@.l     4 @.@.@.@.@.@.l   * @.@.@.i                     N @.@.@.@.@.@.@.@.@.@.@.",
"@.@.@.@.@.@.@.@.@.@.@.@.@.@.@.@.A   + | @.@.@.@.@.7   + + | @.@.@.@.@.7   i @.@.@.i   1 J J J J J J J J ' @.@.@.@.@.@.@.@.@.@.@.",
"@.@.@.@.@.@.@.@.@.@.@.@.@.@.@.@.(     J @.@.@.@.| + * i   J @.@.@.@.@.+   A @.@.@.i   7 @.@.@.@.@.@.@.@.@.@.@.@.@.@.@.@.@.@.@.@.",
"@.@.@.@.@.@.@.@.@.@.@.@.@.@.@.@.@.*   l @.@.@.@.P   r A   j @.@.@.@.P     Q @.@.@.i   7 @.@.@.@.@.@.@.@.@.@.@.@.@.@.@.@.@.@.@.@.",
"@.@.@.@.@.@.@.@.@.@.@.@.@.@.@.@.@.i   7 @.@.@.@.l   N (   7 @.@.@.@.l   * @.@.@.@.i   7 @.@.@.@.@.@.@.@.@.@.@.@.@.@.@.@.@.@.@.@.",
"@.@.@.@.@.@.@.@.@.@.@.@.@.@.@.@.@.A   + @.@.@.@.7   Q @.* + | @.@.@.7   i @.@.@.@.i   7 @.@.@.@.@.@.@.@.@.@.@.@.@.@.@.@.@.@.@.@.",
"@.@.@.@.@.@.@.@.@.@.@.@.@.@.@.@.@.(     P @.@.@.+ + @.@.i   J @.@.@.+   A @.@.@.@.i   > j j j j j j j j @.@.@.@.@.@.@.@.@.@.@.@.",
"@.@.@.@.@.@.@.@.@.@.@.@.@.@.@.@.@.@.>   l @.@.P   r @.@.N   l @.@.P     ( @.@.@.@.i                     | @.@.@.@.@.@.@.@.@.@.@.",
"@.@.@.@.@.@.@.@.@.@.@.@.@.@.@.@.@.@.i   7 @.@.l   N @.@.Q   7 @.@.l   * @.@.@.@.@.i   > l l l l l l l l @.@.@.@.@.@.@.@.@.@.@.@.",
"@.@.@.@.@.@.@.@.@.@.@.@.@.@.@.@.@.@.A   + | @.7   P @.@.@.* + | @.7   i @.@.@.@.@.i   7 @.@.@.@.@.@.@.@.@.@.@.@.@.@.@.@.@.@.@.@.",
"@.@.@.@.@.@.@.@.@.@.@.@.@.@.@.@.@.@.(     P @.+ + @.@.@.@.r   J @.+   A @.@.@.@.@.i   7 @.@.@.@.@.@.@.@.@.@.@.@.@.@.@.@.@.@.@.@.",
"@.@.@.@.@.@.@.@.@.@.@.@.@.@.@.@.@.@.@.>   l P   7 @.@.@.@.N   l P     ( @.@.@.@.@.i   7 @.@.@.@.@.@.@.@.@.@.@.@.@.@.@.@.@.@.@.@.",
"@.@.@.@.@.@.@.@.@.@.@.@.@.@.@.@.@.@.@.i   7 l   l @.@.@.@.P   7 l   * @.@.@.@.@.@.i   7 @.@.@.@.@.@.@.@.@.@.@.@.@.@.@.@.@.@.@.@.",
"@.@.@.@.@.@.@.@.@.@.@.@.@.@.@.@.@.@.@.A   + 4   P @.@.@.@.@.+   7   i @.@.@.@.@.@.i   7 @.@.@.@.@.@.@.@.@.@.@.@.@.@.@.@.@.@.@.@.",
"@.@.@.@.@.@.@.@.@.@.@.@.@.@.@.@.@.@.@.(       + @.@.@.@.@.@.7       A @.@.@.@.@.@.i   4 Q Q Q Q Q Q Q Q ( @.@.@.@.@.@.@.@.@.@.@.",
"@.@.@.@.@.@.@.@.@.@.@.@.@.@.@.@.@.@.@.@.*     7 @.@.@.@.@.@.l       ( @.@.@.@.@.@.i                     d @.@.@.@.@.@.@.@.@.@.@.",
"@.@.@.@.@.@.@.@.@.@.@.@.@.@.@.@.@.@.@.@.j 1 1 N @.@.@.@.@.@.P 1 1 7 @.@.@.@.@.@.@.j 1 1 1 1 1 1 1 1 1 1 j @.@.@.@.@.@.@.@.@.@.@.",
"@.@.@.@.@.@.@.@.@.@.@.@.@.@.@.@.@.@.@.@.@.@.@.@.@.@.@.@.@.@.@.@.@.@.@.@.@.@.@.@.@.@.@.@.@.@.@.@.@.@.@.@.@.@.@.@.@.@.@.@.@.@.@.@.",
"@.@.@.@.@.@.@.@.@.@.@.@.@.@.@.@.@.@.@.@.@.@.@.@.@.@.@.@.@.@.@.@.@.@.@.@.@.@.@.@.@.@.@.@.@.@.@.@.@.@.@.@.@.@.@.@.@.@.@.@.@.@.@.@.",
"@.@.@.@.@.@.@.@.@.@.@.@.@.@.@.@.@.@.@.@.@.@.@.@.@.@.@.@.@.@.@.@.@.@.@.@.@.@.@.@.@.@.@.@.@.@.@.@.@.@.@.@.@.@.@.@.@.@.@.@.@.@.@.@.",
"@.@.@.@.@.@.@.@.@.@.@.@.@.@.@.@.@.@.@.@.@.@.@.@.@.@.@.@.@.@.@.@.@.@.@.@.@.@.@.@.@.@.@.@.@.@.@.@.@.@.@.@.@.@.@.@.@.@.@.@.@.@.@.@.",
"@.@.@.@.@.@.@.@.@.@.@.@.@.@.@.@.@.@.@.@.@.@.@.@.@.@.@.@.@.@.@.@.@.@.@.@.@.@.@.@.@.@.@.@.@.@.@.@.@.@.@.@.@.@.@.@.@.@.@.@.@.@.@.@.",
"@.@.@.@.@.@.@.@.@.@.@.@.@.@.@.@.@.@.@.@.@.@.@.@.@.@.@.@.@.@.@.@.@.@.@.@.@.@.@.@.@.@.@.@.@.@.@.@.@.@.@.@.@.@.@.@.@.@.@.@.@.@.@.@.",
"@.@.@.@.@.@.@.@.@.@.@.@.@.@.@.@.@.@.@.@.@.@.@.@.@.@.@.@.@.@.@.@.@.@.@.@.@.@.@.@.@.@.@.@.@.@.@.@.@.@.@.@.@.@.@.@.@.@.@.@.@.@.@.@.",
"@.@.@.@.@.@.@.@.@.@.@.@.@.@.@.@.@.@.@.@.@.@.@.@.@.@.@.@.@.@.@.@.@.@.@.@.@.@.@.@.@.@.@.@.@.@.@.@.@.@.@.@.@.@.@.@.@.@.@.@.@.@.@.@.",
"@.@.@.@.@.@.@.@.@.@.@.@.@.@.@.@.@.@.@.@.@.@.@.@.@.@.@.@.@.@.@.@.@.@.@.@.@.@.@.@.@.@.@.@.@.@.@.@.@.@.@.@.@.@.@.@.@.@.@.@.@.@.@.@.",
"@.@.@.@.@.@.@.@.@.@.@.@.@.@.@.@.@.@.@.@.@.@.@.@.@.@.@.@.@.@.@.@.@.@.@.@.@.@.@.@.@.@.@.@.@.@.@.@.@.@.@.@.@.@.@.@.@.@.@.@.@.@.@.@.",
"@.@.@.@.@.@.@.@.@.@.@.@.@.@.@.@.@.@.@.@.@.@.@.@.@.@.@.@.@.@.@.@.@.@.@.@.@.@.@.@.@.@.@.@.@.@.@.@.@.@.@.@.@.@.@.@.@.@.@.@.@.@.@.@.",
"@.@.@.@.@.@.@.@.@.@.@.@.@.@.@.@.@.@.@.@.@.@.@.@.@.@.@.@.@.@.@.@.@.@.@.@.@.@.@.@.@.@.@.@.@.@.@.@.@.@.@.@.@.@.@.@.@.@.@.@.@.@.@.@.",
"@.@.@.@.@.@.@.@.@.@.@.@.@.@.@.@.@.@.@.@.@.@.@.@.@.@.@.@.@.@.@.@.@.@.@.@.@.@.@.@.@.@.@.@.@.@.@.@.@.@.@.@.@.@.@.@.@.@.@.@.@.@.@.@.",
"@.@.@.@.@.@.@.@.@.@.@.@.@.@.@.@.@.@.@.@.@.@.@.@.@.@.@.@.@.@.@.@.@.@.@.@.@.@.@.@.@.@.@.@.@.@.@.@.@.@.@.@.@.@.@.@.@.@.@.@.@.@.@.@.",
"@.@.@.@.@.@.@.@.@.@.@.@.@.@.@.@.@.@.@.@.@.@.@.@.@.@.@.@.@.@.@.@.@.@.@.@.@.@.@.@.@.@.@.@.@.@.@.@.@.@.@.@.@.@.@.@.@.@.@.@.@.@.@.@.",
"@.@.@.@.@.@.@.@.@.@.@.@.@.@.@.@.@.@.@.@.@.@.@.@.@.@.@.@.@.@.@.@.@.@.@.@.@.@.@.@.@.@.@.@.@.@.@.@.@.@.@.@.@.@.@.@.@.@.@.@.@.@.@.@.",
"@.@.@.@.@.@.@.@.@.@.@.@.@.@.@.@.@.@.@.@.@.@.@.@.@.@.@.@.@.@.@.@.@.@.@.@.@.@.@.@.@.@.@.@.@.@.@.@.@.@.@.@.@.@.@.@.@.@.@.@.@.@.@.@.",
"@.@.@.@.@.@.@.@.@.@.@.@.@.@.@.@.@.@.@.@.@.@.@.@.@.@.@.@.@.@.@.@.@.@.@.@.@.@.@.@.@.@.@.@.@.@.@.@.@.@.@.@.@.@.@.@.@.@.@.@.@.@.@.@.",
"@.@.@.@.@.@.@.@.@.@.@.@.@.@.@.@.@.@.@.@.@.@.@.@.@.@.@.@.@.@.@.@.@.@.@.@.@.@.@.@.@.@.@.@.@.@.@.@.@.@.@.@.@.@.@.@.@.@.@.@.@.@.@.@.",
"@.@.@.@.@.@.@.@.@.@.@.@.@.@.@.@.@.@.@.@.@.@.@.@.@.@.@.@.@.@.@.@.@.@.@.@.@.@.@.@.@.@.@.@.@.@.@.@.@.@.@.@.@.@.@.@.@.@.@.@.@.@.@.@.",
"@.@.@.@.@.@.@.@.@.@.@.@.@.@.@.@.@.@.@.@.@.@.@.@.@.@.@.@.@.@.@.@.@.@.@.@.@.@.@.@.@.@.@.@.@.@.@.@.@.@.@.@.@.@.@.@.@.@.@.@.@.@.@.@.",
"@.@.@.@.@.@.@.@.@.@.@.@.@.@.@.@.@.@.@.@.@.@.@.@.@.@.@.@.@.@.@.@.@.@.@.@.@.@.@.@.@.@.@.@.@.@.@.@.@.@.@.@.@.@.@.@.@.@.@.@.@.@.@.@.",
"@.@.@.@.@.@.@.@.@.@.@.@.@.@.@.@.@.@.@.@.@.@.@.@.@.@.@.@.@.@.@.@.@.@.@.@.@.@.@.@.@.@.@.@.@.@.@.@.@.@.@.@.@.@.@.@.@.@.@.@.@.@.@.@."
};
