/* XPM */
static char *_[] = {
/* columns rows colors chars-per-pixel */
"64 36 133 2 ",
"   c None",
".  c #1E1C1B",
"X  c #211E1D",
"o  c #24211F",
"O  c #2B221D",
"+  c #33261F",
"@  c #392D1F",
"#  c #252322",
"$  c #2B2622",
"%  c #2D2925",
"&  c #262729",
"*  c #2D2B2A",
"=  c #332721",
"-  c #332C26",
";  c #392E23",
":  c #332E29",
">  c #382F2A",
",  c #3E3124",
"<  c #36312C",
"1  c #3A332D",
"2  c #2E2F30",
"3  c #2F3031",
"4  c #343332",
"5  c #3A3532",
"6  c #3D3935",
"7  c #333438",
"8  c #3B373A",
"9  c #3C3B39",
"0  c #463022",
"q  c #403428",
"w  c #4B362D",
"e  c #41392F",
"r  c #553929",
"t  c #403B36",
"y  c #483E33",
"u  c #433D3A",
"i  c #573D31",
"p  c #5B3F31",
"a  c #44403B",
"s  c #4B413F",
"d  c #5B4134",
"f  c #54463A",
"g  c #5F4438",
"h  c #594B3E",
"j  c #61402F",
"k  c #644333",
"l  c #6B4633",
"z  c #6F4A37",
"x  c #704732",
"c  c #734A34",
"v  c #704A37",
"b  c #724934",
"n  c #754932",
"m  c #794C35",
"M  c #7C4D35",
"N  c #7F4F35",
"B  c #7C4F36",
"V  c #7C4C32",
"C  c #754C38",
"Z  c #7F5037",
"A  c #7E523A",
"S  c #424240",
"D  c #695849",
"F  c #805036",
"G  c #815137",
"H  c #865135",
"J  c #8B5537",
"K  c #8D5737",
"L  c #81533A",
"P  c #83533A",
"I  c #845439",
"U  c #865438",
"Y  c #84543A",
"T  c #8B5538",
"R  c #8B5539",
"E  c #895639",
"W  c #8B573B",
"Q  c #8E5638",
"!  c #8C583B",
"~  c #89583C",
"^  c #88583D",
"/  c #8B5A3D",
"(  c #8E583C",
")  c #8E593C",
"_  c #8C593E",
"`  c #8E5B3E",
"'  c #8E5939",
"]  c #915737",
"[  c #915836",
"{  c #935836",
"}  c #935837",
"|  c #945836",
" . c #955936",
".. c #995936",
"X. c #905738",
"o. c #905839",
"O. c #935A39",
"+. c #925A3A",
"@. c #935A3A",
"#. c #935B3B",
"$. c #945938",
"%. c #945A39",
"&. c #975B38",
"*. c #945B3B",
"=. c #975C3B",
"-. c #975D3B",
";. c #915B3E",
":. c #935C3E",
">. c #975C3C",
",. c #965E3F",
"<. c #935C3C",
"1. c #985B39",
"2. c #985C3B",
"3. c #985D3B",
"4. c #9B5D3A",
"5. c #9A5E3C",
"6. c #995F3E",
"7. c #9D5F3B",
"8. c #9A603E",
"9. c #9D613D",
"0. c #9E613C",
"q. c #9F613C",
"w. c #9C613F",
"e. c #9E613F",
"r. c #9F623F",
"t. c #9F633F",
"y. c #9D603E",
"u. c #A1623E",
"i. c #A3633E",
"p. c #9C6141",
"a. c #9E6240",
"s. c #9D6241",
"d. c #A36440",
/* pixels */
"                                                                                                                                ",
"                                                                                                                                ",
"                                                                                                                                ",
"                                                                                                                                ",
"                                                                                                                                ",
"                                                                                                                                ",
"                                                                                                                                ",
"                                                                                                                                ",
"                                                                                                                                ",
"                                                                                                                                ",
"                                                                                                                                ",
"                                                                                                                                ",
"                                                                                                                                ",
"                                                                                                                                ",
"                                                                                                                                ",
"                                                                                                                                ",
"                                                                                                                                ",
"                                                                                                                                ",
"                                                                                                                                ",
"                                                                                                                                ",
"                                                                                                                                ",
"                                                                                                                                ",
"                                                                    1 < 1 <                                                     ",
"                                      ` :.` ` :.L                   1   < < 1                                                   ",
"                                    :.:.X.:.` ` C               : : : 1 & % : 1 < & #                                           ",
"                                p.0.0.2.2.:.` T v       a       5 5 : < & & & & % & o &                                         ",
"                              r 0.u.u.2.:.:.T L l = O 8 7         u < % & % ; 1 1 1 < : ; 6             5 5                     ",
"                            O ` u.u.:.| :.:.T Z k O O u 4       < < 1 o < 1 < < t : * # & : a < ; ; < : : : < 1 1               ",
"                            0 0.0.| | K L L ` m l = O % 4       ; & X % 1 : * % 6 1 & : # o ; 1 < % ; ; : : : : : < < 1         ",
"                            :.:.| | K G v m G m v k O * 4     : 1 1 . < 5 u % # o < 5 : 1 % * & ; : & % O & % ; : : : : : :     ",
"                          0.2.:.| :.m l l l v z l k w < 4     % 1 1 % % % 1 % < t 1 1 1 ; 1 1 < * < % o . o : * % : : : : : : : ",
"                        p.2.2.2.0.T x j p i d k g d   4 4     * 1 5 5 # # ; 5 1 ; ; & & & & : 5 6 4 & % X # % * 9 : % o o o o   ",
"                      p.2.0.u.0.:.A j p   d d d       5 4     * 5 5 5 & : < y ; & & = O O & % 6 5 6 6 4 * # X # & : 1 4 & % % & ",
"                    p.2.0.0.0.:.L v d                 5 3     & s u 5 * * < ; & & & & & ; ; , 0 , 1 e 1 : X . o # % 1 8 5 & * * ",
"                  p.2.2.:.X.T G v k d                 9 3     4 h 5 : # * : % % & % ; ; ; 1 > ; : 1 u 1 6 6 : o # & : 5 D & * : ",
"                0.2.2...` G m v k d                   S *   : ; : ; ; # & * % % ; @ ; : ; ; ; 1 1 1 1 1 5 t u u * # : : f % * : "
};
