/* XPM */
static char *_[] = {
/* columns rows colors chars-per-pixel */
"64 36 110 2 ",
"   c None",
".  c #1E1C1B",
"X  c #201F1D",
"o  c #25211F",
"O  c #2C221B",
"+  c #32251E",
"@  c #3B2A1F",
"#  c #252322",
"$  c #2B2622",
"%  c #2D2925",
"&  c #27282A",
"*  c #2D2B29",
"=  c #352720",
"-  c #332C26",
";  c #3B2E22",
":  c #332E2A",
">  c #392E28",
",  c #3B3026",
"<  c #35312D",
"1  c #3B332D",
"2  c #343332",
"3  c #3B3533",
"4  c #3D3935",
"5  c #36353A",
"6  c #3D3A38",
"7  c #413529",
"8  c #41382F",
"9  c #533A2E",
"0  c #423B35",
"q  c #493F35",
"w  c #433D3A",
"e  c #563D31",
"r  c #5D3F30",
"t  c #41413E",
"y  c #49423A",
"u  c #5C4134",
"i  c #53483D",
"p  c #63402E",
"a  c #70522D",
"s  c #654533",
"d  c #6A4532",
"f  c #6E4833",
"g  c #634538",
"h  c #704630",
"j  c #734A34",
"k  c #7B4C33",
"l  c #764D38",
"z  c #7F5036",
"x  c #7D5139",
"c  c #69594A",
"v  c #726E67",
"b  c #98380E",
"n  c #A34819",
"m  c #A55116",
"M  c #B16716",
"N  c #815327",
"B  c #845236",
"V  c #8F5737",
"C  c #85543A",
"Z  c #8B563A",
"A  c #8E5A3C",
"S  c #925736",
"D  c #945836",
"F  c #9A5A36",
"G  c #905738",
"H  c #955A38",
"J  c #945A39",
"K  c #955A39",
"L  c #955A3A",
"P  c #945B3A",
"I  c #975B3A",
"U  c #915A3D",
"Y  c #915B3E",
"T  c #935D3F",
"R  c #955C3C",
"E  c #975F3E",
"W  c #945B3B",
"Q  c #985B38",
"!  c #995B39",
"~  c #985D3B",
"^  c #9A5E3A",
"/  c #9A5F3C",
"(  c #9A5E3D",
")  c #9C5E3C",
"_  c #9C5E3A",
"`  c #9B603E",
"'  c #9A603F",
"]  c #9D613E",
"[  c #9D603D",
"{  c #A1633E",
"}  c #A2623E",
"|  c #A2633E",
" . c #A3643F",
".. c #955E40",
"X. c #9A6040",
"o. c #9D6241",
"O. c #A06340",
"+. c #A26440",
"@. c #BC7F48",
"#. c #B59566",
"$. c #B99C77",
"%. c #C38A43",
"&. c #D1A74A",
"*. c #D4AC7D",
"=. c #9B9788",
"-. c #EDDDB2",
";. c #D5D2C7",
":. c #EEE0C3",
">. c #F4ECC2",
",. c #FCFAEC",
/* pixels */
"                                                                                                                                ",
"                                                                                                                                ",
"                                                                                                                                ",
"                                                                                                                                ",
"                                                                                                                                ",
"                                                                                                                                ",
"                                                                                                                                ",
"                                                                                                                                ",
"                                                                                                                                ",
"                                                                                                                                ",
"                                                                                                                                ",
"                                                                                                                                ",
"                                                                                                                                ",
"                                                                                                                                ",
"                                                                                                                                ",
"                                                                                                                                ",
"                                                                                                                                ",
"                                                                                                                                ",
"                                                                                                                                ",
"                                                                n %.M m $.                                                      ",
"                                                                  :.>.-.@.                                                      ",
"                                                                b &.,.;.N                                                       ",
"                                                                  *.v =.< <                                                     ",
"                                      A T T C T C                 #.y a s < <       %                                           ",
"                                    T T Z T A T x                 > * < $ : % < <   #                                           ",
"                                  ( [ ( T ( A Z x e     w       3 4 : 3 % $ $ $ % % o $ %                                       ",
"                              @ (  . .( T T Z C l ; O 2 5         4 < : $ $ - < < < < : - <             3 3                     ",
"                            O f +. .( D T T Z B j = O 4 3         < < $ - < < < 4 < * # $ : 4   % - < : : : < < <               ",
"                            O T  .Q D S Z C Z C j ; O % <       < O o o < : * % 4 3 # % * o - < < % - - : : : : : < < <         ",
"                            B ( D S V B j j B k j d + * <       < , o - < y < # # : < < < * % % % : % % $ O % - : : : : : :     ",
"                           .[ T S T B h d j j j d s 9 < 2     % : < * $ % < < % w < < < - < < < % < * o o o % : % : : : : : : : ",
"                        o.[ T ( ( A k p r e u g g u e   2     * < 3 3 $ # % 4 < , - % $ $ $ : < 4 3 $ % o # $ * 2 < % # o o o   ",
"                      o.[ ( [ [ T C s r e u u u         2     * : 3 3 % : : q ; $ $ $ $ $ $ % 2 3 3 4 < 2 # o # $ : < 3 $ $ % $ ",
"                    o.[ [ [ [ T Z l u                   2     & 6 w 3 * * < : % $ $ $ $ - - ; , 7 7 8 w < X . X # % : 3 3 % * * ",
"                  o.[ [ ( T S Z k s u                 6 2     4 i w < $ # : % % % $ - ; , , < > > < w w < 4 < # # # : < c : * : ",
"                o.( ( Q T B B k d u                   t 2   : , : - - $ # * * % - ; ; : - - - : < < < < < w w w : # : : q < * : "
};
