/* XPM */
static char *_[] = {
/* columns rows colors chars-per-pixel */
"64 36 105 2 ",
"   c None",
".  c #1E1C1B",
"X  c #201F1E",
"o  c #25211F",
"O  c #2C221B",
"+  c #32251E",
"@  c #3B2A1F",
"#  c #252322",
"$  c #2B2622",
"%  c #2D2925",
"&  c #2D2B29",
"*  c #352720",
"=  c #332C26",
"-  c #3B2E22",
";  c #332E2A",
":  c #3B3026",
">  c #35312D",
",  c #3A332D",
"<  c #333332",
"1  c #3B3533",
"2  c #3D3935",
"3  c #36353A",
"4  c #3D3A38",
"5  c #413529",
"6  c #41392F",
"7  c #533A2E",
"8  c #423B35",
"9  c #493F35",
"0  c #433D3A",
"q  c #563D31",
"w  c #5D3F30",
"e  c #5A4329",
"r  c #41413F",
"t  c #48413D",
"y  c #5C4134",
"u  c #53483D",
"i  c #58503C",
"p  c #63402E",
"a  c #6E512D",
"s  c #654435",
"d  c #6A4532",
"f  c #6E4833",
"g  c #654638",
"h  c #704630",
"j  c #734A34",
"k  c #7C4D34",
"l  c #764D38",
"z  c #7D5139",
"x  c #675740",
"c  c #69594A",
"v  c #9F4B10",
"b  c #A1470A",
"n  c #8D4C25",
"m  c #845236",
"M  c #8F5737",
"N  c #85543A",
"B  c #8B563A",
"V  c #8E5A3C",
"C  c #925736",
"Z  c #945836",
"A  c #9A5A36",
"S  c #905738",
"D  c #935D3F",
"F  c #955C3C",
"G  c #975D3C",
"H  c #975F3E",
"J  c #945B3A",
"K  c #985B38",
"L  c #995B39",
"P  c #9A5C39",
"I  c #985D3B",
"U  c #9A5E3A",
"Y  c #9A5F3C",
"T  c #9A5E3D",
"R  c #9C5E3C",
"E  c #9C5E3B",
"W  c #9B603D",
"Q  c #9B603E",
"!  c #9A603F",
"~  c #9C603E",
"^  c #9D623E",
"/  c #9E603D",
"(  c #B66F2F",
")  c #B57021",
"_  c #A1633E",
"`  c #A2623E",
"'  c #A2633E",
"]  c #A3643F",
"[  c #AD6539",
"{  c #BA7A31",
"}  c #955E40",
"|  c #9A6040",
" . c #9E6241",
".. c #9C6241",
"X. c #A06340",
"o. c #A26440",
"O. c #B77445",
"+. c #AF8D67",
"@. c #ACA376",
"#. c #9B9889",
"$. c #E3CB95",
"%. c #EADB91",
"&. c #D6D5D0",
"*. c #F7F2CE",
"=. c #F7F2DC",
/* pixels */
"                                                                                                                                ",
"                                                                                                                                ",
"                                                                                                                                ",
"                                                                                                                                ",
"                                                                                                                                ",
"                                                                                                                                ",
"                                                                                                                                ",
"                                                                                                                                ",
"                                                                                                                                ",
"                                                                                                                                ",
"                                                                                                                                ",
"                                                                                                                                ",
"                                                                                                                                ",
"                                                                                                                                ",
"                                                                                                                                ",
"                                                                                                                                ",
"                                                                                                                                ",
"                                                                                                                                ",
"                                                                                                                                ",
"                                                                  ( { ) [ +.                                                    ",
"                                                                  O.=.*.$.                                                      ",
"                                                                  b %.&.@.v                                                     ",
"                                                                    x #.0 6                                                     ",
"                                      V D D N D N                 n i a e > >       %                                           ",
"                                    D D B D V D z                 ; & > $ ; % > >   #                                           ",
"                                  T / T D T V B z q     0       1 2 ; 1 % $ $ $ % % o $ %                                       ",
"                              @ T ] ] T D D B N l - O < 3         2 > ; $ $ = > > > > ; = >             1 1                     ",
"                            O f o.] T Z D D B m j * O 2 1         > > $ = > > > 2 > & # $ ; 2   % = > ; ; ; > > >               ",
"                            O D ] K Z C B N B N j - O % >       > O o o > ; & % 2 1 # % & o = > > % = = ; ; ; ; ; > > >         ",
"                            m T Z C M m j j m k j d + & >       > : o = > t > # # ; > > > & % % % ; % % $ O % = ; ; ; ; ; ;     ",
"                          ] / D C D m h d j j j d s 7 > <     % ; > & $ % > > % 0 > > > = > > > % > & o o o % ; % ; ; ; ; ; ; ; ",
"                         ./ D T T V k p w q y s s y q   <     & > 1 1 $ # % 2 > : = % $ $ $ ; > 2 1 $ % o # $ & < > % # o o o   ",
"                       ./ T / / D N s w q y y y         <     & ; 1 1 % ; ; 9 - $ $ $ $ $ $ % < 1 1 4 > < # o # $ ; > 1 $ $ % $ ",
"                     ./ / / / D B l y                   <     & 4 0 1 & & > ; % $ $ $ $ = = - : 5 5 6 0 > X . X # % ; 1 1 % & & ",
"                   .T E T D S B k s y                 4 <     2 u 0 > $ # ; % % % $ = - - : > : : > 0 0 1 2 > # o # ; > c ; & ; ",
"                 .T T K D m m k d y                   r <   ; : ; ; = $ # & & % = - - ; = = = ; > > > > > 0 0 0 ; # ; ; 9 > & ; "
};
