/* XPM */
static char *_[] = {
/* columns rows colors chars-per-pixel */
"64 36 108 2 ",
"   c None",
".  c #1E1C1B",
"X  c #201F1D",
"o  c #25211F",
"O  c #2C221B",
"+  c #33261F",
"@  c #3B2A1F",
"#  c #252322",
"$  c #2B2622",
"%  c #2D2925",
"&  c #2D2B29",
"*  c #332C26",
"=  c #3B2E22",
"-  c #332E2A",
";  c #3B3026",
":  c #35312D",
">  c #3B332D",
",  c #343332",
"<  c #3B3533",
"1  c #3D3935",
"2  c #36353A",
"3  c #3D3A38",
"4  c #413329",
"5  c #41382E",
"6  c #533A2E",
"7  c #423C35",
"8  c #493F35",
"9  c #433E3A",
"0  c #563D31",
"q  c #5D3F31",
"w  c #41413E",
"e  c #48413D",
"r  c #5C4134",
"t  c #53483D",
"y  c #63402E",
"u  c #754E2E",
"i  c #654435",
"p  c #6A4532",
"a  c #6E4833",
"s  c #654638",
"d  c #704630",
"f  c #734A34",
"g  c #7C4D34",
"h  c #764D38",
"j  c #7D5139",
"k  c #69594A",
"l  c #96350F",
"z  c #943312",
"x  c #9D3F1B",
"c  c #9E430E",
"v  c #A2490B",
"b  c #B1631B",
"n  c #85592C",
"m  c #845236",
"M  c #8F5737",
"N  c #85543A",
"B  c #8B563A",
"V  c #8E5A3C",
"C  c #925736",
"Z  c #935835",
"A  c #955937",
"S  c #9A5A36",
"D  c #905738",
"F  c #925939",
"G  c #92593A",
"H  c #955A38",
"J  c #945A39",
"K  c #955A3A",
"L  c #945B3A",
"P  c #975B3A",
"I  c #905A3D",
"U  c #915B3E",
"Y  c #935D3F",
"T  c #955C3C",
"R  c #975F3E",
"E  c #955C3B",
"W  c #985B38",
"Q  c #995B39",
"!  c #985D3B",
"~  c #9A5E3A",
"^  c #9A5F3C",
"/  c #9A5E3D",
"(  c #9C5E3C",
")  c #9C5E3A",
"_  c #9B603E",
"`  c #9A603F",
"'  c #9D623E",
"]  c #9D603D",
"[  c #A0692F",
"{  c #A0633E",
"}  c #A2623E",
"|  c #A2633E",
" . c #A3643F",
".. c #955E40",
"X. c #9A6040",
"o. c #9D6241",
"O. c #907645",
"+. c #A06340",
"@. c #A26440",
"#. c #908267",
"$. c #8B8372",
"%. c #CB9B4B",
"&. c #C99E7C",
"*. c #B6B3AB",
"=. c #E1C785",
"-. c #E4CC86",
";. c #E0C59E",
":. c #FAF9F2",
/* pixels */
"                                                                                                                                ",
"                                                                                                                                ",
"                                                                                                                                ",
"                                                                                                                                ",
"                                                                                                                                ",
"                                                                                                                                ",
"                                                                                                                                ",
"                                                                                                                                ",
"                                                                                                                                ",
"                                                                                                                                ",
"                                                                                                                                ",
"                                                                                                                                ",
"                                                                                                                                ",
"                                                                                                                                ",
"                                                                                                                                ",
"                                                                                                                                ",
"                                                                                                                                ",
"                                                                                                                                ",
"                                                                                                                                ",
"                                                                    x b v c                                                     ",
"                                                                      ;.-.=.&.                                                  ",
"                                                                    z [ *.:.%.                                                  ",
"                                                                    4 u 9 9 O.l                                                 ",
"                                      V Y Y N Y N                   : #.$.: < n     %                                           ",
"                                    Y Y B Y V V j                 - & : * - % : :   #                                           ",
"                                  / ' / Y / V B j 0     9       < 1 - < % $ $ $ % % o $ %                                       ",
"                              @ /  . ./ Y Y B N h = O , 2         1 : - $ $ * : : : : - * :             < <                     ",
"                            O a @. ./ A Y Y B m f * O 1 <         : : $ * : : : 1 : & # $ - 1   % * : - - - : : :               ",
"                            O Y  .W A C B N B N f = O % :       : O o o : - & % 1 < # % & o * : : % * * - - - - - : : :         ",
"                            m / A C M m f f m g f p + & :       : ; o * : e : # # - : : : & % % % - % % $ O % * - - - - - -     ",
"                           .' Y C Y m d p f f f p i 6 : ,     % - : & $ % : : % 9 : : : * : : : % : & o o o % - % - - - - - - - ",
"                        o.' Y / / V g y q 0 r i i r 0   ,     & : < < $ # % 1 : ; * % $ $ $ - : 1 < $ % o # $ & , : % # o o o   ",
"                      o.' / ' ' Y N i q 0 r r r         ,     & - < < % - - 8 = $ $ $ $ $ $ % , < < 3 : , # o # $ - : < $ $ % $ ",
"                    o.' ' ' ' Y B h r                   ,     & 3 9 < & & : - % $ $ $ $ * * = ; 4 4 5 9 : X . X # % - < < % & & ",
"                  o./ ] / Y C B g i r                 3 ,     1 t 9 : $ # - % % % $ * = = ; : ; ; : 9 9 < 1 : # # # - : k - & - ",
"                o./ / W Y m m g p r                   w ,   - ; - - * $ # & & % * = = - * * * - : : : : : 9 9 9 - # - - 8 : & - "
};
