/* XPM */
static char *_[] = {
/* columns rows colors chars-per-pixel */
"64 36 111 2 ",
"   c None",
".  c #1E1C1B",
"X  c #201F1D",
"o  c #25211F",
"O  c #2C221C",
"+  c #33261F",
"@  c #3B2A1F",
"#  c #252322",
"$  c #2B2622",
"%  c #2D2925",
"&  c #2D2B29",
"*  c #332C26",
"=  c #3B2E22",
"-  c #332E2A",
";  c #3B3026",
":  c #35312D",
">  c #3A332D",
",  c #333332",
"<  c #3B3533",
"1  c #3E3934",
"2  c #36353A",
"3  c #3D3A38",
"4  c #77371B",
"5  c #4E3A27",
"6  c #413529",
"7  c #41392D",
"8  c #533A2E",
"9  c #433B34",
"0  c #493F35",
"q  c #433D3A",
"w  c #563D31",
"e  c #5D3F31",
"r  c #41413E",
"t  c #48413D",
"y  c #5C4134",
"u  c #53483D",
"i  c #63402E",
"p  c #674534",
"a  c #6A4532",
"s  c #6E4833",
"d  c #634538",
"f  c #704630",
"g  c #734A34",
"h  c #7B4C33",
"j  c #764D38",
"k  c #7F5036",
"l  c #7D5139",
"z  c #5C5950",
"x  c #655441",
"c  c #69594A",
"v  c #973710",
"b  c #A1480D",
"n  c #A1451A",
"m  c #845236",
"M  c #8F5737",
"N  c #85543A",
"B  c #8B563A",
"V  c #8E5A3C",
"C  c #935736",
"Z  c #925736",
"A  c #935836",
"S  c #955937",
"D  c #9A5A36",
"F  c #905738",
"G  c #925939",
"H  c #92593A",
"J  c #955A38",
"K  c #945A39",
"L  c #955A39",
"P  c #955A3A",
"I  c #945B3A",
"U  c #975B3A",
"Y  c #905A3D",
"T  c #915B3E",
"R  c #935D3F",
"E  c #955C3C",
"W  c #975D3C",
"Q  c #975F3E",
"!  c #955C3B",
"~  c #985B38",
"^  c #995B39",
"/  c #9A5C39",
"(  c #985D3B",
")  c #9A5E3A",
"_  c #9A5F3C",
"`  c #9A5E3D",
"'  c #9C5E3C",
"]  c #9C5E3B",
"[  c #8F6A3C",
"{  c #9B603D",
"}  c #9B603E",
"|  c #9A603F",
" . c #9C603E",
".. c #9D623E",
"X. c #9E603D",
"o. c #A1633E",
"O. c #A2623E",
"+. c #A2633E",
"@. c #A3643F",
"#. c #955E40",
"$. c #9A6040",
"%. c #9E6241",
"&. c #9D6241",
"*. c #A06340",
"=. c #A26440",
"-. c #BCA25B",
";. c #C39D7D",
":. c #9C988F",
">. c #989791",
",. c #9D9B96",
"<. c #EFE1B9",
/* pixels */
"                                                                                                                                ",
"                                                                                                                                ",
"                                                                                                                                ",
"                                                                                                                                ",
"                                                                                                                                ",
"                                                                                                                                ",
"                                                                                                                                ",
"                                                                                                                                ",
"                                                                                                                                ",
"                                                                                                                                ",
"                                                                                                                                ",
"                                                                                                                                ",
"                                                                                                                                ",
"                                                                                                                                ",
"                                                                                                                                ",
"                                                                                                                                ",
"                                                                                                                                ",
"                                                                                                                                ",
"                                                                                                                                ",
"                                                                                                                                ",
"                                                                  n   b                                                         ",
"                                                                    <.-.[ ;.                                                    ",
"                                                                  v x ,.q 7                                                     ",
"                                      V R R N R N                 4 5 :.>.: :       %                                           ",
"                                    R R B R V R l                 - - 1 z - % : :   #                                           ",
"                                  ` X.` R ` V B l w     q       < q : < % $ $ $ % % o $ %                                       ",
"                              @ ` @.@.` R R B N j = O , 2         1 : - $ $ * : : : : - * :             < <                     ",
"                            O s =.@.` S R R B m g + O 1 <         : : $ * : : - 1 : & # $ - 1   % * : - - - : : :               ",
"                            O R @.~ S Z B N B N g = O % :       : O o o : - & % 1 < # % & o * : : % * * - - - - - : : :         ",
"                            m ` S Z M m g g m h g a + & :       : ; o * : t : # # - : : : & % % % - % % $ O % * - - - - - -     ",
"                          @.X.R Z R m f a g g g a p 8 : ,     % - : & $ % : : % q : : : * : : : % : & o o o % - % - - - - - - - ",
"                        %.X.R ` ` V h i e w y d d y w   ,     & : < < $ # % 1 : ; * % $ $ $ - : 1 < $ % o # $ & , : % # o o o   ",
"                      %.X.` X.X.` N p e w y y y         ,     & - < < % - - 0 = $ $ $ $ $ $ % , < < 3 : , # o # $ - : < $ $ % $ ",
"                    %.X.X.X.X.R B j y                   ,     & 3 q < & & : - % $ $ $ $ * * = ; 6 6 7 q : X . X # % - < < % & & ",
"                  %.X.X.` R Z B h p y                 3 ,     1 u q : $ # - % % % $ * = = ; : ; ; : q q < 1 : # # # - : c - & - ",
"                %.` ` ~ R m h h a y                   r ,   - ; - - * $ # & & % * = = - * * * - : : : : : q q q - # - - 0 : & - "
};
