/* XPM */
static char *_[] = {
/* columns rows colors chars-per-pixel */
"64 36 101 2 ",
"   c None",
".  c #351914",
"X  c #3E2118",
"o  c #3F221E",
"O  c #342822",
"+  c #352922",
"@  c #382923",
"#  c #3B2B23",
"$  c #3D2D23",
"%  c #392B24",
"&  c #3E2B24",
"*  c #3F2E24",
"=  c #462720",
"-  c #4A3026",
";  c #493227",
":  c #4D3529",
">  c #4E382C",
",  c #5F352A",
"<  c #59372F",
"1  c #5D342D",
"2  c #563D2F",
"3  c #553B31",
"4  c #5E3E31",
"5  c #653630",
"6  c #6B3F30",
"7  c #5D4636",
"8  c #5F4739",
"9  c #644135",
"0  c #674735",
"q  c #694734",
"w  c #62463B",
"e  c #6F443A",
"r  c #6A4A3A",
"t  c #6A4E3A",
"y  c #6F4F3A",
"u  c #6F4F3B",
"i  c #72433B",
"p  c #704F3A",
"a  c #744C3E",
"s  c #6E523B",
"d  c #6E513D",
"f  c #7A4F40",
"g  c #695041",
"h  c #6B5444",
"j  c #795643",
"k  c #7C5F47",
"l  c #7E604C",
"z  c #7F6351",
"x  c #88574D",
"c  c #895C4C",
"v  c #8A5851",
"b  c #84644E",
"n  c #816653",
"m  c #8A6050",
"M  c #846955",
"N  c #886E53",
"B  c #8C6F56",
"V  c #8F6158",
"C  c #89685A",
"Z  c #8E6C5E",
"A  c #906E55",
"S  c #946E56",
"D  c #966F59",
"F  c #8C7055",
"G  c #93735D",
"H  c #927A5F",
"J  c #956D63",
"K  c #8E796B",
"L  c #947B67",
"P  c #9B7867",
"I  c #977E6E",
"U  c #9B7B6A",
"Y  c #9C7968",
"T  c #9B7F69",
"R  c #A27A66",
"E  c #9C816B",
"W  c #938073",
"Q  c #988070",
"!  c #9E8272",
"~  c #A08071",
"^  c #A78571",
"/  c #A78674",
"(  c #AC8A76",
")  c #AC8778",
"_  c #A2887B",
"`  c #A48B7D",
"'  c #AE897B",
"]  c #AF8B7B",
"[  c #B38A7C",
"{  c #B18D7C",
"}  c #B48E7F",
"|  c #AB917E",
" . c #A58C81",
".. c #AF8C81",
"X. c #B59280",
"o. c #B59380",
"O. c #B49383",
"+. c #B49485",
"@. c #BB9285",
"#. c #BA9186",
"$. c #BE9286",
/* pixels */
"                                                                                                                                ",
"                                                                                                                                ",
"                                                                                                                                ",
"                                                                                                                                ",
"                                                                                                                                ",
"                                                                                                                                ",
"                                                                                                                                ",
"                                                                                                                                ",
"                                                                                                                                ",
"                                                                                                                                ",
"                                                                                                                                ",
"                                                                                                                                ",
"                                                                                                                                ",
"                                                                                                                                ",
"                                                                                                                                ",
"                                                                                                                                ",
"                                                                                                                                ",
"                                                                                                                                ",
"                                                                                                                                ",
"                                                                                                                                ",
"                                                                                      v X                                       ",
"                                                                                      J 5                                       ",
"                                                                                        m                                       ",
"                                                                                        P 1                                     ",
"                                                                                        ~ p 3   ;                               ",
"                                                                                        ~ x i 0 t >                             ",
"                                                                                      n   6 f = l F 2                           ",
"                                                                                      ! 4 X S 1 g G t *                         ",
"                                                                                    L T C . ; ! I z > *                         ",
"                                                                                    o.j C e w ` W g *                           ",
"                                                                                    ~ c 1 V T  .K 8 +                           ",
"                                                                                    [ R D S ' ` M 7 +                           ",
"                                                                                      #.[ ) ' E B d *                           ",
"                                                                                      ..#.#.( B H p :                           ",
"                                                                                        [ o.o.b k q 0 *                         ",
"                                                                                          o.| T d t t *                         "
};
