/* XPM */
static char *barrel[] = {
/* columns rows colors chars-per-pixel */
"128 128 27 1 ",
"  c black",
". c gray11",
"X c #231C0A",
"o c #312611",
"O c #382A15",
"+ c #3F3115",
"@ c gray15",
"# c #313131",
"$ c #3F3F3F",
"% c #493418",
"& c #50381C",
"* c #5E3F1F",
"= c #654223",
"- c #704626",
"; c #774D2A",
": c #7E502D",
"> c #494949",
", c gray34",
"< c #626262",
"1 c #6C6C6C",
"2 c gray48",
"3 c #885431",
"4 c #8C5734",
"5 c #935B38",
"6 c #9D623B",
"7 c #A4693F",
"8 c gray52",
/* pixels */
"                                                                                                                                ",
"                                                                                                                                ",
"                                                                                                                                ",
"                                                                                                                                ",
"                                                                                                                                ",
"                                                                                                                                ",
"                                                                                                                                ",
"                                                                                                                                ",
"                                                                                                                                ",
"                                                                                                                                ",
"                                                                                                                                ",
"                                                                                                                                ",
"                                                                                                                                ",
"                                                                                                                                ",
"                                                                                                                                ",
"                                                                                                                                ",
"                                                                                                                                ",
"                                                                                                                                ",
"                                                                                                                                ",
"                                                                                                                                ",
"                                                                                                                                ",
"                                                                                                                                ",
"                                                                                                                                ",
"                                                                                                                                ",
"                                                                                                                                ",
"                                                                                                                                ",
"                                                                                                                                ",
"                                                                                                                                ",
"                                                                                                                                ",
"                                                                                                                                ",
"                                                                                                                                ",
"                                                                                                                                ",
"                                                                                                                                ",
"                                                                                                                                ",
"                                                                                                                                ",
"                                                                                                                                ",
"                                                                                                                                ",
"                                                                                                                                ",
"                                                                                                                                ",
"                                                                                                                                ",
"                                                                                                                                ",
"                                                                                                                                ",
"                                                                                                                                ",
"                                                                                                                                ",
"                                                                                                                                ",
"                                                                                                                                ",
"                                                                                                                                ",
"                                                                                                                                ",
"                                                                                                                                ",
"                                                                                                                                ",
"                                                                                                                                ",
"                                                                                                                                ",
"                                                                                                                                ",
"                                                                                                                                ",
"                                                                                                                                ",
"                                                                                                                                ",
"                                                                                                                                ",
"                                                                                                                                ",
"                                                                                                                                ",
"                                                                                                                                ",
"                                                                                                                                ",
"                                                                                                                                ",
"                                              <<<<<<<<<<<<<<<<<<11111111111122222222                                            ",
"                                              <<<<<<<<<<<<<<<<<<11111111111122222222                                            ",
"                                          11<<>>>>>>>>>>>>>>>>>>>>>>,,,,,,,,,,<<<<<<2211                                        ",
"                                          11<<>>>>>>>>>>>>>>>>>>>>>>,,,,,,,,,,<<<<<<2211                                        ",
"                                        1122>>##........@@@@@@@@@@@@@@####$$$$$$$$>><<>><<                                      ",
"                                        1122>>##........@@@@@@@@@@@@@@####$$$$$$$$>><<>><<                                      ",
"                                        111122888822221111111111<<<<<<<<,,,,,,,,>>>>$$####                                      ",
"                                        111122888822221111111111<<<<<<<<,,,,,,,,>>>>$$####                                      ",
"                                      3344111122221111<<<<<<,,,,,,,,>>>>>>$$$$$$########++++                                    ",
"                                      4444111122221111<<<<<<,,,,,,,,>>>>>>$$$$$$########++++                                    ",
"                                      ;;44::4444;;------========******&&&&&&++++++++++++&&++                                    ",
"                                      ;;44::3444;;------========******&&&&&&++++++++++++&&++                                    ",
"                                    44;;444466774477666644::55554444::==**--====%%==**++++&&++                                  ",
"                                    44;;444466774477666644::55554444::==**--====%%==**++++&&++                                  ",
"                                    ;;44;;66774455776666::;;55554444::==**----==**&&==**++&&++                                  ",
"                                    ;;44;;66774455776666::;;55554444::==**----==**&&==**++&&++                                  ",
"                                    ;;44;;66774477666666::::55554434::--&&------==%%==**++&&$$                                  ",
"                                    ;;44;;66774477666666::::55554433::--&&------==%%==**++&&$$                                  ",
"                                  >>,,1122<<774477666655::55554444::;;--&&------==%%$$$$$$$$##                                  ",
"                                  >>,,1122<<774477666655::55554444::;;--&&------==%%$$$$$$$$##                                  ",
"                                  >><<11112222882211111111<<<<<<<<<<,,,,,,,,,,>>>>>>>>########++                                ",
"                                  >><<11112222882211111111<<<<<<<<<<,,,,,,,,,,>>>>>>>>########++                                ",
"                                  >>111111111122<<<<<<<<,,,,,,,,>>>>>>>>>>>>$$$$$$$$##########++                                ",
"                                  >>111111111122<<<<<<<<,,,,,,,,>>>>>>>>>>>>$$$$$$$$##########++                                ",
"                                  ;;==>>,,<<1111<<<<<<<<,,,,,,,,>>>>>>>>>>>>$$$$$$$$$$######&&++                                ",
"                                  ;;==>>,,<<1111<<<<<<<<,,,,,,,,>>>>>>>>>>>>$$$$$$$$$$######&&++                                ",
"                                  ;;44;;664444&&44::;;--++======********XX&&++++++++%%&&&&++&&++                                ",
"                                  ;;44;;664444&&44::;;--++======********XX&&++++++++%%&&&&++&&++                                ",
"                                  ;;44;;6677774477666666::55444444::;;--&&------==**%%&&&&++&&++                                ",
"                                  ;;44;;6677774477666666::55444444::;;--&&------==**%%&&&&++&&++                                ",
"                                  ;;44;;6677774477666666::55444444::;;--&&------==**%%&&&&++&&++                                ",
"                                  ;;44;;6677774477666666::55444444::;;--&&------==**%%&&&&++&&++                                ",
"                                  ;;44;;6677774477666666;;55443444::;;--&&------==**%%&&&&++&&++                                ",
"                                  ;;44;;6677774477666666;;55443344::;;--&&------==**%%&&&&++&&++                                ",
"                                  ;;44;;6677774477666666;;55443343::;;--&&------==**%%&&&&++&&++                                ",
"                                  ;;44;;6677774477666666;;55443344::;;--&&------==**%%&&&&++&&++                                ",
"                                  ;;44;;6677774477666666;;55444433::;;--&&------==**%%&&&&++&&++                                ",
"                                  ;;44;;6677774477666666;;55443433::;;--&&------==**%%&&&&++&&++                                ",
"                                  ;;44;;6677774477666666;;55444433::;;--&&------==**%%&&&&++&&++                                ",
"                                  ;;44;;6677774477666666;;55444443::;;--&&------==**%%&&&&++&&++                                ",
"                                  1144;;6677774477666666--55444444::;;--&&------==**%%&&&&++$$$$                                ",
"                                  1144;;6677774477666666--55444444::;;--&&------==**%%&&&&++$$$$                                ",
"                                  <<22222211774477666666--55444444::;;--&&------==**%%$$$$$$$$##                                ",
"                                  <<22222211774477666666--55444444::;;--&&------==**%%$$$$$$$$##                                ",
"                                  ,,1111112288221111111111<<<<<<<<<<,,,,,,,,,,>>>>>>>>$$########                                ",
"                                  ,,1111112288221111111111<<<<<<<<<<,,,,,,,,,,>>>>>>>>$$########                                ",
"                                  >>,,<<11112211<<<<<<<<,,,,,,,,>>>>>>>>>>>>$$$$$$$$$$########OO                                ",
"                                  >>,,<<11112211<<<<<<<<,,,,,,,,>>>>>>>>>>>>$$$$$$$$$$########OO                                ",
"                                    ==>>,,,,,,<<<<<<<<<<,,,,,,,,>>>>>>>>>>>>$$$$$$$$$$OOOOOO%%&&                                ",
"                                    ==>>,,,,,,<<<<<<<<<<,,,,,,,,>>>>>>>>>>>>$$$$$$$$$$OOOOOO%%&&                                ",
"                                    ;;;;------------****oo****&&&&&&&&&&XX&&&&&&&&OOOO&&++&&++&&                                ",
"                                    ;;;;------------****oo****&&&&&&&&&&XX&&&&&&&&OOOO&&++&&++&&                                ",
"                                    ;;44;;55774477555544==44::::::::;;--&&----==**++&&&&++&&++                                  ",
"                                    ;;44;;55774477555544==44::::::::;;--&&----==**++&&&&++&&++                                  ",
"                                      ;;444466;;55555543==;;::::::::;;**&&----==**++&&&&++&&++                                  ",
"                                      ;;444466;;55555533==;;::::::::;;**&&----==**++&&&&++&&++                                  ",
"                                      <<44;;4444;;555533==--::::::;;--&&&&----==&&++&&++&&++                                    ",
"                                      <<44;;4444;;555543==--::::::;;--&&&&----==&&++&&++&&++                                    ",
"                                      <<22882244;;444444--==;;;;;;;;--&&**--==**++&&++++++##                                    ",
"                                      <<22882244;;444444--==;;;;;;;;--&&**--==**++&&++++++##                                    ",
"                                        11111122222222111111<<<<,,,,,,>>>>>>$$$$$$####@@..                                      ",
"                                        11111122222222111111<<<<,,,,,,>>>>>>$$$$$$####@@..                                      ",
"                                          11<<1111<<<<<<,,,,,,,,>>>>>>>>$$$$$$######@@@@                                        ",
"                                          11<<1111<<<<<<,,,,,,,,>>>>>>>>$$$$$$######@@@@                                        ",
"                                              >>>>>>>>>>$$$$$$$$$$########@@@@@@@@@@                                            ",
"                                              >>>>>>>>>>$$$$$$$$$$########@@@@@@@@@@                                            "
};
